G75*
G70*
%OFA0B0*%
%FSLAX24Y24*%
%IPPOS*%
%LPD*%
%AMOC8*
5,1,8,0,0,1.08239X$1,22.5*
%
%ADD10R,0.0500X0.0220*%
%ADD11R,0.0220X0.0500*%
%ADD12R,0.0433X0.0394*%
%ADD13R,0.0394X0.0433*%
%ADD14R,0.0660X0.0660*%
%ADD15OC8,0.0660*%
%ADD16R,0.0787X0.0197*%
%ADD17C,0.0740*%
%ADD18R,0.0600X0.0600*%
%ADD19OC8,0.0600*%
%ADD20R,0.0354X0.0669*%
%ADD21C,0.0160*%
%ADD22C,0.0100*%
%ADD23C,0.0270*%
D10*
X007656Y008806D03*
X007656Y009121D03*
X007656Y009436D03*
X007656Y009751D03*
X007656Y010066D03*
X007656Y010381D03*
X007656Y010696D03*
X007656Y011011D03*
X011036Y011011D03*
X011036Y010696D03*
X011036Y010381D03*
X011036Y010066D03*
X011036Y009751D03*
X011036Y009436D03*
X011036Y009121D03*
X011036Y008806D03*
D11*
X010449Y008219D03*
X010134Y008219D03*
X009819Y008219D03*
X009504Y008219D03*
X009189Y008219D03*
X008874Y008219D03*
X008559Y008219D03*
X008244Y008219D03*
X008244Y011599D03*
X008559Y011599D03*
X008874Y011599D03*
X009189Y011599D03*
X009504Y011599D03*
X009819Y011599D03*
X010134Y011599D03*
X010449Y011599D03*
D12*
X008652Y007153D03*
X008652Y006483D03*
X016212Y005695D03*
X016212Y005026D03*
X016877Y005026D03*
X016877Y005695D03*
X014940Y015174D03*
X014940Y015843D03*
X002533Y016302D03*
X002533Y016972D03*
D13*
X006846Y010443D03*
X006846Y009774D03*
X009352Y007167D03*
X009352Y006498D03*
X011787Y009457D03*
X011787Y010126D03*
D14*
X003546Y014609D03*
D15*
X002546Y014609D03*
X001546Y014609D03*
X001546Y013609D03*
X002546Y013609D03*
X003546Y013609D03*
X003440Y017109D03*
X004440Y017109D03*
X014940Y017109D03*
X015940Y017109D03*
D16*
X012861Y011333D03*
X012861Y010861D03*
X012861Y010388D03*
D17*
X008546Y002609D03*
X007546Y002609D03*
X006546Y002609D03*
X005546Y002609D03*
X004546Y002609D03*
X003546Y002609D03*
D18*
X011546Y002609D03*
X011546Y003609D03*
X011546Y004609D03*
X011546Y005609D03*
X016546Y008609D03*
X016546Y010609D03*
X017546Y010609D03*
D19*
X017546Y011609D03*
X017546Y012609D03*
X017546Y013609D03*
X016546Y013609D03*
X016546Y012609D03*
X016546Y011609D03*
X016546Y007609D03*
X014546Y005609D03*
X013546Y005609D03*
X012546Y005609D03*
X012546Y004609D03*
X013546Y004609D03*
X014546Y004609D03*
X014546Y003609D03*
X013546Y003609D03*
X012546Y003609D03*
X012546Y002609D03*
X013546Y002609D03*
X014546Y002609D03*
X003546Y006609D03*
X003546Y007609D03*
X003546Y008609D03*
X003546Y009609D03*
X003546Y010609D03*
X003546Y011609D03*
X002546Y011609D03*
X001546Y011609D03*
X001546Y010609D03*
X002546Y010609D03*
X002546Y009609D03*
X001546Y009609D03*
X001546Y008609D03*
X002546Y008609D03*
X002546Y007609D03*
X001546Y007609D03*
X001546Y006609D03*
X002546Y006609D03*
X006546Y016609D03*
X006546Y017609D03*
X006546Y018609D03*
X007546Y018609D03*
X008546Y018609D03*
X008546Y017609D03*
X007546Y017609D03*
X007546Y016609D03*
X008546Y016609D03*
X009546Y016609D03*
X009546Y017609D03*
X009546Y018609D03*
X010546Y018609D03*
X011546Y018609D03*
X011546Y017609D03*
X010546Y017609D03*
X010546Y016609D03*
X011546Y016609D03*
X012546Y016609D03*
X012546Y017609D03*
X012546Y018609D03*
X013546Y018609D03*
X013546Y017609D03*
X013546Y016609D03*
D20*
X007684Y006254D03*
X006031Y006254D03*
D21*
X005638Y011011D02*
X004040Y012609D01*
X002540Y012609D01*
X002040Y013109D01*
X002040Y014102D01*
X002546Y014609D01*
X002535Y016194D01*
X002533Y016302D01*
X002533Y016972D02*
X003303Y016972D01*
X003440Y017109D01*
X005638Y011011D02*
X007656Y011011D01*
X014940Y015843D02*
X014940Y017109D01*
D22*
X001307Y001769D02*
X001054Y001851D01*
X000839Y002008D01*
X000683Y002223D01*
X000600Y002476D01*
X000590Y002609D01*
X000590Y018719D01*
X000600Y018852D01*
X000683Y019105D01*
X000839Y019320D01*
X001054Y019476D01*
X001307Y019558D01*
X001440Y019569D01*
X017550Y019569D01*
X017683Y019558D01*
X017936Y019476D01*
X018151Y019320D01*
X018308Y019105D01*
X018390Y018852D01*
X018400Y018719D01*
X018400Y002609D01*
X018390Y002476D01*
X018308Y002223D01*
X018151Y002008D01*
X017936Y001851D01*
X017683Y001769D01*
X017550Y001759D01*
X001440Y001759D01*
X001307Y001769D01*
X001195Y001806D02*
X017796Y001806D01*
X018009Y001904D02*
X000981Y001904D01*
X000846Y002003D02*
X018144Y002003D01*
X018219Y002101D02*
X017745Y002101D01*
X017811Y002128D02*
X017524Y002010D01*
X017214Y002010D01*
X016927Y002128D01*
X016708Y002348D01*
X016589Y002635D01*
X016589Y002945D01*
X016708Y003231D01*
X016927Y003451D01*
X017214Y003570D01*
X017524Y003570D01*
X017811Y003451D01*
X018030Y003231D01*
X018149Y002945D01*
X018149Y002635D01*
X018030Y002348D01*
X017811Y002128D01*
X017882Y002200D02*
X018291Y002200D01*
X018332Y002298D02*
X017980Y002298D01*
X018050Y002397D02*
X018364Y002397D01*
X018391Y002495D02*
X018091Y002495D01*
X018132Y002594D02*
X018399Y002594D01*
X018400Y002692D02*
X018149Y002692D01*
X018149Y002791D02*
X018400Y002791D01*
X018400Y002889D02*
X018149Y002889D01*
X018131Y002988D02*
X018400Y002988D01*
X018400Y003086D02*
X018091Y003086D01*
X018050Y003185D02*
X018400Y003185D01*
X018400Y003283D02*
X017979Y003283D01*
X017880Y003382D02*
X018400Y003382D01*
X018400Y003480D02*
X017740Y003480D01*
X018400Y003579D02*
X015943Y003579D01*
X015906Y003542D02*
X015813Y003449D01*
X014956Y003449D01*
X014956Y003439D01*
X014716Y003199D01*
X014376Y003199D01*
X014136Y003439D01*
X014136Y003449D01*
X013956Y003449D01*
X013956Y003439D01*
X013716Y003199D01*
X013376Y003199D01*
X013136Y003439D01*
X013136Y003449D01*
X012956Y003449D01*
X012956Y003439D01*
X012716Y003199D01*
X012376Y003199D01*
X012136Y003439D01*
X012136Y003449D01*
X011956Y003449D01*
X011956Y003263D01*
X011892Y003199D01*
X011201Y003199D01*
X011136Y003263D01*
X011136Y003954D01*
X011201Y004019D01*
X011892Y004019D01*
X011956Y003954D01*
X011956Y003769D01*
X012136Y003769D01*
X012136Y003778D01*
X012376Y004019D01*
X012716Y004019D01*
X012956Y003778D01*
X012956Y003769D01*
X013136Y003769D01*
X013136Y003778D01*
X013376Y004019D01*
X013716Y004019D01*
X013956Y003778D01*
X013956Y003769D01*
X014136Y003769D01*
X014136Y003778D01*
X014376Y004019D01*
X014716Y004019D01*
X014956Y003778D01*
X014956Y003769D01*
X015680Y003769D01*
X016630Y004719D01*
X016615Y004719D01*
X016550Y004783D01*
X016550Y005268D01*
X016615Y005333D01*
X017139Y005333D01*
X017204Y005268D01*
X017204Y004783D01*
X017139Y004719D01*
X017037Y004719D01*
X017037Y004673D01*
X015906Y003542D01*
X015844Y003480D02*
X016998Y003480D01*
X016858Y003382D02*
X014899Y003382D01*
X014801Y003283D02*
X016760Y003283D01*
X016688Y003185D02*
X009323Y003185D01*
X009418Y003279D02*
X009512Y003373D01*
X009512Y006171D01*
X009594Y006171D01*
X009659Y006235D01*
X009659Y006760D01*
X009594Y006824D01*
X009235Y006824D01*
X009252Y006840D01*
X009594Y006840D01*
X009659Y006905D01*
X009659Y007361D01*
X009680Y007339D01*
X009770Y007302D01*
X009867Y007302D01*
X009957Y007339D01*
X009974Y007356D01*
X009974Y006776D01*
X009926Y006728D01*
X009889Y006638D01*
X009889Y006541D01*
X009926Y006451D01*
X009995Y006382D01*
X010085Y006345D01*
X010182Y006345D01*
X010272Y006382D01*
X010341Y006451D01*
X010379Y006541D01*
X010379Y006638D01*
X010341Y006728D01*
X010294Y006776D01*
X010294Y007859D01*
X010604Y007859D01*
X010669Y007923D01*
X010669Y008059D01*
X013323Y008059D01*
X014413Y009149D01*
X014506Y009242D01*
X014506Y015875D01*
X013949Y016432D01*
X013956Y016439D01*
X013956Y016778D01*
X013716Y017019D01*
X013376Y017019D01*
X013136Y016778D01*
X013136Y016439D01*
X013376Y016199D01*
X013716Y016199D01*
X013723Y016206D01*
X014186Y015742D01*
X014186Y009375D01*
X013190Y008379D01*
X010669Y008379D01*
X010669Y008514D01*
X010604Y008579D01*
X010293Y008579D01*
X010291Y008577D01*
X010289Y008579D01*
X009978Y008579D01*
X009976Y008577D01*
X009974Y008579D01*
X009663Y008579D01*
X009661Y008577D01*
X009659Y008579D01*
X009349Y008579D01*
X009349Y008664D01*
X009395Y008664D01*
X009485Y008701D01*
X009554Y008770D01*
X009591Y008860D01*
X009591Y008957D01*
X009554Y009047D01*
X009485Y009116D01*
X009395Y009154D01*
X009298Y009154D01*
X009207Y009116D01*
X009139Y009047D01*
X009101Y008957D01*
X009101Y008890D01*
X009034Y008822D01*
X009034Y009049D01*
X009128Y009142D01*
X009195Y009142D01*
X009285Y009180D01*
X009354Y009249D01*
X009391Y009339D01*
X009391Y009436D01*
X009354Y009526D01*
X009285Y009595D01*
X009195Y009632D01*
X009098Y009632D01*
X009007Y009595D01*
X008939Y009526D01*
X008901Y009436D01*
X008901Y009369D01*
X008714Y009181D01*
X008714Y008579D01*
X008403Y008579D01*
X008401Y008577D01*
X008399Y008579D01*
X008088Y008579D01*
X008024Y008514D01*
X008024Y008379D01*
X004090Y008379D01*
X003723Y008012D01*
X003716Y008019D01*
X003376Y008019D01*
X003136Y007778D01*
X003136Y007439D01*
X003376Y007199D01*
X003716Y007199D01*
X003956Y007439D01*
X003956Y007778D01*
X003949Y007785D01*
X004223Y008059D01*
X008024Y008059D01*
X008024Y007923D01*
X008088Y007859D01*
X008270Y007859D01*
X008180Y007769D01*
X004480Y007769D01*
X003723Y007012D01*
X003716Y007019D01*
X003376Y007019D01*
X003136Y006778D01*
X003136Y006439D01*
X003376Y006199D01*
X003716Y006199D01*
X003956Y006439D01*
X003956Y006778D01*
X003949Y006785D01*
X004613Y007449D01*
X008313Y007449D01*
X008406Y007542D01*
X008719Y007855D01*
X008719Y007859D01*
X009029Y007859D01*
X009031Y007860D01*
X009033Y007859D01*
X009344Y007859D01*
X009344Y007831D01*
X009192Y007679D01*
X009192Y007493D01*
X009109Y007493D01*
X009045Y007429D01*
X009045Y007086D01*
X009018Y007060D01*
X009018Y007104D01*
X008700Y007104D01*
X008700Y006806D01*
X008764Y006806D01*
X008749Y006790D01*
X008390Y006790D01*
X008325Y006726D01*
X008325Y006610D01*
X008130Y006414D01*
X007971Y006414D01*
X007971Y006634D01*
X007907Y006699D01*
X007461Y006699D01*
X007397Y006634D01*
X007397Y006414D01*
X007298Y006414D01*
X007291Y006421D01*
X007291Y006488D01*
X007254Y006578D01*
X007185Y006647D01*
X007095Y006684D01*
X006998Y006684D01*
X006907Y006647D01*
X006839Y006578D01*
X006801Y006488D01*
X006801Y006391D01*
X006839Y006300D01*
X006907Y006232D01*
X006998Y006194D01*
X007065Y006194D01*
X007165Y006094D01*
X007397Y006094D01*
X007397Y005874D01*
X007461Y005810D01*
X007907Y005810D01*
X007971Y005874D01*
X007971Y006094D01*
X008262Y006094D01*
X008356Y006188D01*
X008367Y006199D01*
X008390Y006177D01*
X008914Y006177D01*
X008978Y006241D01*
X008978Y006567D01*
X009045Y006634D01*
X009045Y006235D01*
X009109Y006171D01*
X009192Y006171D01*
X009192Y003506D01*
X008736Y003050D01*
X008642Y003089D01*
X008451Y003089D01*
X008274Y003015D01*
X008139Y002880D01*
X008066Y002704D01*
X008066Y002513D01*
X008139Y002337D01*
X008274Y002202D01*
X008451Y002129D01*
X008642Y002129D01*
X008818Y002202D01*
X008953Y002337D01*
X009026Y002513D01*
X009026Y002704D01*
X008973Y002834D01*
X009418Y003279D01*
X009422Y003283D02*
X011136Y003283D01*
X011136Y003382D02*
X009512Y003382D01*
X009512Y003480D02*
X011136Y003480D01*
X011136Y003579D02*
X009512Y003579D01*
X009512Y003677D02*
X011136Y003677D01*
X011136Y003776D02*
X009512Y003776D01*
X009512Y003874D02*
X011136Y003874D01*
X011155Y003973D02*
X009512Y003973D01*
X009512Y004071D02*
X015982Y004071D01*
X015884Y003973D02*
X014762Y003973D01*
X014861Y003874D02*
X015785Y003874D01*
X015687Y003776D02*
X014956Y003776D01*
X014546Y003609D02*
X015746Y003609D01*
X016877Y004739D01*
X016877Y005026D01*
X016925Y005348D02*
X017113Y005348D01*
X017151Y005359D01*
X017186Y005378D01*
X017214Y005406D01*
X017233Y005440D01*
X017244Y005479D01*
X017244Y005647D01*
X016925Y005647D01*
X018400Y005647D01*
X018400Y005549D02*
X017244Y005549D01*
X017236Y005450D02*
X018400Y005450D01*
X018400Y005352D02*
X017125Y005352D01*
X017204Y005253D02*
X018400Y005253D01*
X018400Y005155D02*
X017204Y005155D01*
X017204Y005056D02*
X018400Y005056D01*
X018400Y004958D02*
X017204Y004958D01*
X017204Y004859D02*
X018400Y004859D01*
X018400Y004761D02*
X017181Y004761D01*
X017026Y004662D02*
X018400Y004662D01*
X018400Y004564D02*
X016928Y004564D01*
X016829Y004465D02*
X018400Y004465D01*
X018400Y004367D02*
X016731Y004367D01*
X016632Y004268D02*
X018400Y004268D01*
X018400Y004170D02*
X016534Y004170D01*
X016435Y004071D02*
X018400Y004071D01*
X018400Y003973D02*
X016337Y003973D01*
X016238Y003874D02*
X018400Y003874D01*
X018400Y003776D02*
X016140Y003776D01*
X016041Y003677D02*
X018400Y003677D01*
X016993Y002101D02*
X001997Y002101D01*
X002063Y002128D02*
X001776Y002010D01*
X001466Y002010D01*
X001179Y002128D01*
X000960Y002348D01*
X000841Y002635D01*
X000841Y002945D01*
X000960Y003231D01*
X001179Y003451D01*
X001466Y003570D01*
X001776Y003570D01*
X002063Y003451D01*
X002282Y003231D01*
X002401Y002945D01*
X002401Y002635D01*
X002282Y002348D01*
X002063Y002128D01*
X002134Y002200D02*
X003279Y002200D01*
X003274Y002202D02*
X003451Y002129D01*
X003642Y002129D01*
X003818Y002202D01*
X003953Y002337D01*
X004026Y002513D01*
X004026Y002704D01*
X003953Y002880D01*
X003818Y003015D01*
X003642Y003089D01*
X003451Y003089D01*
X003274Y003015D01*
X003139Y002880D01*
X003066Y002704D01*
X003066Y002513D01*
X003139Y002337D01*
X003274Y002202D01*
X003178Y002298D02*
X002232Y002298D01*
X002302Y002397D02*
X003115Y002397D01*
X003074Y002495D02*
X002343Y002495D01*
X002384Y002594D02*
X003066Y002594D01*
X003066Y002692D02*
X002401Y002692D01*
X002401Y002791D02*
X003102Y002791D01*
X003148Y002889D02*
X002401Y002889D01*
X002383Y002988D02*
X003246Y002988D01*
X003445Y003086D02*
X002342Y003086D01*
X002302Y003185D02*
X008871Y003185D01*
X008969Y003283D02*
X002231Y003283D01*
X002132Y003382D02*
X009068Y003382D01*
X009166Y003480D02*
X001992Y003480D01*
X001250Y003480D02*
X000590Y003480D01*
X000590Y003382D02*
X001110Y003382D01*
X001011Y003283D02*
X000590Y003283D01*
X000590Y003185D02*
X000940Y003185D01*
X000900Y003086D02*
X000590Y003086D01*
X000590Y002988D02*
X000859Y002988D01*
X000841Y002889D02*
X000590Y002889D01*
X000590Y002791D02*
X000841Y002791D01*
X000841Y002692D02*
X000590Y002692D01*
X000591Y002594D02*
X000858Y002594D01*
X000899Y002495D02*
X000599Y002495D01*
X000626Y002397D02*
X000940Y002397D01*
X001010Y002298D02*
X000658Y002298D01*
X000699Y002200D02*
X001108Y002200D01*
X001245Y002101D02*
X000771Y002101D01*
X000590Y003579D02*
X009192Y003579D01*
X009192Y003677D02*
X000590Y003677D01*
X000590Y003776D02*
X009192Y003776D01*
X009192Y003874D02*
X000590Y003874D01*
X000590Y003973D02*
X009192Y003973D01*
X009192Y004071D02*
X000590Y004071D01*
X000590Y004170D02*
X009192Y004170D01*
X009192Y004268D02*
X000590Y004268D01*
X000590Y004367D02*
X009192Y004367D01*
X009192Y004465D02*
X000590Y004465D01*
X000590Y004564D02*
X009192Y004564D01*
X009192Y004662D02*
X000590Y004662D01*
X000590Y004761D02*
X009192Y004761D01*
X009192Y004859D02*
X000590Y004859D01*
X000590Y004958D02*
X009192Y004958D01*
X009192Y005056D02*
X000590Y005056D01*
X000590Y005155D02*
X009192Y005155D01*
X009192Y005253D02*
X000590Y005253D01*
X000590Y005352D02*
X009192Y005352D01*
X009192Y005450D02*
X000590Y005450D01*
X000590Y005549D02*
X009192Y005549D01*
X009192Y005647D02*
X000590Y005647D01*
X000590Y005746D02*
X009192Y005746D01*
X009192Y005844D02*
X007941Y005844D01*
X007971Y005943D02*
X009192Y005943D01*
X009192Y006041D02*
X007971Y006041D01*
X008196Y006254D02*
X007684Y006254D01*
X007231Y006254D01*
X007046Y006439D01*
X006801Y006435D02*
X006550Y006435D01*
X006524Y006462D02*
X006593Y006393D01*
X006630Y006303D01*
X006630Y006205D01*
X006593Y006115D01*
X006524Y006047D01*
X006434Y006009D01*
X006336Y006009D01*
X006318Y006017D01*
X006318Y005874D01*
X006253Y005810D01*
X005808Y005810D01*
X005743Y005874D01*
X005743Y006634D01*
X005808Y006699D01*
X006253Y006699D01*
X006318Y006634D01*
X006318Y006492D01*
X006336Y006499D01*
X006434Y006499D01*
X006524Y006462D01*
X006616Y006337D02*
X006824Y006337D01*
X006901Y006238D02*
X006630Y006238D01*
X006603Y006140D02*
X007120Y006140D01*
X007397Y006041D02*
X006510Y006041D01*
X006318Y005943D02*
X007397Y005943D01*
X007427Y005844D02*
X006288Y005844D01*
X006385Y006254D02*
X006031Y006254D01*
X006318Y006534D02*
X006820Y006534D01*
X006893Y006632D02*
X006318Y006632D01*
X005743Y006632D02*
X003956Y006632D01*
X003956Y006534D02*
X005743Y006534D01*
X005743Y006435D02*
X003953Y006435D01*
X003854Y006337D02*
X005743Y006337D01*
X005743Y006238D02*
X003756Y006238D01*
X003546Y006609D02*
X004546Y007609D01*
X008246Y007609D01*
X008559Y007921D01*
X008559Y008219D01*
X008244Y008219D02*
X004156Y008219D01*
X003546Y007609D01*
X003270Y007913D02*
X002879Y007913D01*
X002780Y008011D02*
X003369Y008011D01*
X003376Y008199D02*
X003716Y008199D01*
X003956Y008439D01*
X003956Y008646D01*
X007301Y008646D01*
X007361Y008586D01*
X007952Y008586D01*
X008016Y008651D01*
X008016Y008962D01*
X008014Y008964D01*
X008016Y008966D01*
X008016Y009277D01*
X008014Y009279D01*
X008016Y009281D01*
X008016Y009497D01*
X008098Y009464D01*
X008195Y009464D01*
X008285Y009501D01*
X008354Y009570D01*
X008391Y009660D01*
X008391Y009757D01*
X008354Y009847D01*
X008285Y009916D01*
X008195Y009954D01*
X008098Y009954D01*
X008056Y009936D01*
X008056Y010061D01*
X007661Y010061D01*
X007661Y010071D01*
X008056Y010071D01*
X008056Y010196D01*
X008046Y010234D01*
X008026Y010268D01*
X008016Y010278D01*
X008016Y010484D01*
X008026Y010494D01*
X008046Y010528D01*
X008056Y010566D01*
X008056Y010691D01*
X007661Y010691D01*
X007661Y010701D01*
X008056Y010701D01*
X008056Y010826D01*
X008046Y010864D01*
X008026Y010898D01*
X008016Y010908D01*
X008016Y011166D01*
X007952Y011231D01*
X007361Y011231D01*
X007331Y011201D01*
X005716Y011201D01*
X004230Y012687D01*
X004119Y012799D01*
X002619Y012799D01*
X002230Y013187D01*
X002230Y013303D01*
X002364Y013169D01*
X002729Y013169D01*
X002986Y013426D01*
X002986Y013791D01*
X002971Y013807D01*
X003113Y013949D01*
X003206Y014042D01*
X003206Y014169D01*
X003922Y014169D01*
X003986Y014233D01*
X003986Y014449D01*
X005680Y014449D01*
X008084Y012045D01*
X008084Y011954D01*
X008024Y011894D01*
X008024Y011303D01*
X008088Y011239D01*
X008399Y011239D01*
X008401Y011240D01*
X008403Y011239D01*
X008714Y011239D01*
X008716Y011240D01*
X008718Y011239D01*
X009029Y011239D01*
X009031Y011240D01*
X009033Y011239D01*
X009344Y011239D01*
X009346Y011240D01*
X009348Y011239D01*
X009659Y011239D01*
X009661Y011240D01*
X009663Y011239D01*
X009974Y011239D01*
X009976Y011240D01*
X009978Y011239D01*
X010289Y011239D01*
X010291Y011240D01*
X010293Y011239D01*
X010604Y011239D01*
X010669Y011303D01*
X010669Y011894D01*
X010609Y011954D01*
X010609Y016199D01*
X010716Y016199D01*
X010956Y016439D01*
X010956Y016778D01*
X010716Y017019D01*
X010376Y017019D01*
X010136Y016778D01*
X010136Y016439D01*
X010289Y016286D01*
X010289Y015892D01*
X009849Y016332D01*
X009956Y016439D01*
X009956Y016778D01*
X009716Y017019D01*
X009376Y017019D01*
X009136Y016778D01*
X009136Y016439D01*
X009376Y016199D01*
X009530Y016199D01*
X009974Y015755D01*
X009974Y015207D01*
X008849Y016332D01*
X008956Y016439D01*
X008956Y016778D01*
X008716Y017019D01*
X008376Y017019D01*
X008136Y016778D01*
X008136Y016439D01*
X008376Y016199D01*
X008530Y016199D01*
X009659Y015070D01*
X009659Y014622D01*
X007899Y016382D01*
X007956Y016439D01*
X007956Y016778D01*
X007716Y017019D01*
X007376Y017019D01*
X007136Y016778D01*
X007136Y016439D01*
X007376Y016199D01*
X007630Y016199D01*
X009344Y014485D01*
X009344Y014037D01*
X006949Y016432D01*
X006956Y016439D01*
X006956Y016778D01*
X006716Y017019D01*
X006376Y017019D01*
X006136Y016778D01*
X006136Y016439D01*
X006376Y016199D01*
X006716Y016199D01*
X006723Y016206D01*
X009029Y013900D01*
X009029Y011959D01*
X008719Y011959D01*
X008719Y012262D01*
X005613Y015369D01*
X003180Y015369D01*
X003086Y015275D01*
X002886Y015075D01*
X002886Y014891D01*
X002733Y015044D01*
X002727Y015995D01*
X002795Y015995D01*
X002859Y016060D01*
X002859Y016545D01*
X002795Y016609D01*
X002271Y016609D01*
X002206Y016545D01*
X002206Y016060D01*
X002271Y015995D01*
X002347Y015995D01*
X002353Y015038D01*
X002106Y014791D01*
X002106Y014437D01*
X001850Y014181D01*
X001850Y013927D01*
X001729Y014049D01*
X001364Y014049D01*
X001106Y013791D01*
X001106Y013426D01*
X001364Y013169D01*
X001729Y013169D01*
X001850Y013290D01*
X001850Y013030D01*
X001961Y012919D01*
X002461Y012419D01*
X003961Y012419D01*
X005559Y010821D01*
X007256Y010821D01*
X007256Y010701D01*
X007651Y010701D01*
X007651Y010691D01*
X007256Y010691D01*
X007256Y010566D01*
X007266Y010528D01*
X007286Y010494D01*
X007296Y010484D01*
X007193Y010382D01*
X007193Y010395D01*
X006895Y010395D01*
X006895Y010492D01*
X006798Y010492D01*
X006798Y010810D01*
X006630Y010810D01*
X006592Y010800D01*
X006557Y010780D01*
X006529Y010752D01*
X006510Y010718D01*
X006499Y010679D01*
X006499Y010492D01*
X006798Y010492D01*
X006798Y010395D01*
X006499Y010395D01*
X006499Y010269D01*
X005113Y010269D01*
X003949Y011432D01*
X003956Y011439D01*
X003956Y011778D01*
X003716Y012019D01*
X003376Y012019D01*
X003136Y011778D01*
X003136Y011439D01*
X003376Y011199D01*
X003716Y011199D01*
X003723Y011206D01*
X004980Y009949D01*
X006539Y009949D01*
X006539Y009596D01*
X004785Y009596D01*
X003949Y010432D01*
X003956Y010439D01*
X003956Y010778D01*
X003716Y011019D01*
X003376Y011019D01*
X003136Y010778D01*
X003136Y010439D01*
X003376Y010199D01*
X003716Y010199D01*
X003723Y010206D01*
X004647Y009281D01*
X004100Y009281D01*
X003949Y009432D01*
X003956Y009439D01*
X003956Y009778D01*
X003716Y010019D01*
X003376Y010019D01*
X003136Y009778D01*
X003136Y009439D01*
X003376Y009199D01*
X003716Y009199D01*
X003723Y009206D01*
X003962Y008966D01*
X003768Y008966D01*
X003716Y009019D01*
X003376Y009019D01*
X003136Y008778D01*
X003136Y008439D01*
X003376Y008199D01*
X003367Y008208D02*
X002782Y008208D01*
X002733Y008159D02*
X002996Y008422D01*
X002996Y008559D01*
X002596Y008559D01*
X002596Y008659D01*
X002496Y008659D01*
X002496Y009059D01*
X002360Y009059D01*
X002096Y008795D01*
X002096Y008659D01*
X002496Y008659D01*
X002496Y008559D01*
X002096Y008559D01*
X002096Y008422D01*
X002360Y008159D01*
X002496Y008159D01*
X002496Y008559D01*
X002596Y008559D01*
X002596Y008159D01*
X002733Y008159D01*
X002733Y008059D02*
X002596Y008059D01*
X002596Y007659D01*
X002496Y007659D01*
X002496Y008059D01*
X002360Y008059D01*
X002096Y007795D01*
X002096Y007659D01*
X002496Y007659D01*
X002496Y007559D01*
X002096Y007559D01*
X002096Y007422D01*
X002360Y007159D01*
X002496Y007159D01*
X002496Y007559D01*
X002596Y007559D01*
X002596Y007659D01*
X002996Y007659D01*
X002996Y007795D01*
X002733Y008059D01*
X002596Y008011D02*
X002496Y008011D01*
X002496Y007913D02*
X002596Y007913D01*
X002596Y007814D02*
X002496Y007814D01*
X002496Y007716D02*
X002596Y007716D01*
X002596Y007617D02*
X003136Y007617D01*
X003136Y007519D02*
X002996Y007519D01*
X002996Y007559D02*
X002996Y007422D01*
X002733Y007159D01*
X002596Y007159D01*
X002596Y007559D01*
X002996Y007559D01*
X002994Y007420D02*
X003155Y007420D01*
X003253Y007322D02*
X002896Y007322D01*
X002797Y007223D02*
X003352Y007223D01*
X003285Y006928D02*
X002864Y006928D01*
X002765Y007026D02*
X003738Y007026D01*
X003836Y007125D02*
X000590Y007125D01*
X000590Y007223D02*
X001352Y007223D01*
X001376Y007199D02*
X001716Y007199D01*
X001956Y007439D01*
X001956Y007778D01*
X001716Y008019D01*
X001376Y008019D01*
X001136Y007778D01*
X001136Y007439D01*
X001376Y007199D01*
X001253Y007322D02*
X000590Y007322D01*
X000590Y007420D02*
X001155Y007420D01*
X001136Y007519D02*
X000590Y007519D01*
X000590Y007617D02*
X001136Y007617D01*
X001136Y007716D02*
X000590Y007716D01*
X000590Y007814D02*
X001172Y007814D01*
X001270Y007913D02*
X000590Y007913D01*
X000590Y008011D02*
X001369Y008011D01*
X001376Y008199D02*
X001716Y008199D01*
X001956Y008439D01*
X001956Y008778D01*
X001716Y009019D01*
X001376Y009019D01*
X001136Y008778D01*
X001136Y008439D01*
X001376Y008199D01*
X001367Y008208D02*
X000590Y008208D01*
X000590Y008110D02*
X003821Y008110D01*
X003726Y008208D02*
X003920Y008208D01*
X003824Y008307D02*
X004018Y008307D01*
X003923Y008405D02*
X008024Y008405D01*
X008024Y008504D02*
X003956Y008504D01*
X003956Y008602D02*
X007345Y008602D01*
X007656Y008806D02*
X003744Y008806D01*
X003546Y008609D01*
X003255Y008898D02*
X002894Y008898D01*
X002795Y008996D02*
X003354Y008996D01*
X003157Y008799D02*
X002992Y008799D01*
X002996Y008795D02*
X002733Y009059D01*
X002596Y009059D01*
X002596Y008659D01*
X002996Y008659D01*
X002996Y008795D01*
X002996Y008701D02*
X003136Y008701D01*
X003136Y008602D02*
X002596Y008602D01*
X002596Y008504D02*
X002496Y008504D01*
X002496Y008602D02*
X001956Y008602D01*
X001956Y008504D02*
X002096Y008504D01*
X002113Y008405D02*
X001923Y008405D01*
X001824Y008307D02*
X002212Y008307D01*
X002310Y008208D02*
X001726Y008208D01*
X001724Y008011D02*
X002312Y008011D01*
X002214Y007913D02*
X001822Y007913D01*
X001921Y007814D02*
X002115Y007814D01*
X002096Y007716D02*
X001956Y007716D01*
X001956Y007617D02*
X002496Y007617D01*
X002496Y007519D02*
X002596Y007519D01*
X002596Y007420D02*
X002496Y007420D01*
X002496Y007322D02*
X002596Y007322D01*
X002596Y007223D02*
X002496Y007223D01*
X002496Y007059D02*
X002360Y007059D01*
X002096Y006795D01*
X002096Y006659D01*
X002496Y006659D01*
X002496Y007059D01*
X002496Y007026D02*
X002596Y007026D01*
X002596Y007059D02*
X002733Y007059D01*
X002996Y006795D01*
X002996Y006659D01*
X002596Y006659D01*
X002496Y006659D01*
X002496Y006559D01*
X002096Y006559D01*
X002096Y006422D01*
X002360Y006159D01*
X002496Y006159D01*
X002496Y006559D01*
X002596Y006559D01*
X002596Y006659D01*
X002596Y007059D01*
X002596Y006928D02*
X002496Y006928D01*
X002496Y006829D02*
X002596Y006829D01*
X002596Y006731D02*
X002496Y006731D01*
X002496Y006632D02*
X001956Y006632D01*
X001956Y006534D02*
X002096Y006534D01*
X002096Y006435D02*
X001953Y006435D01*
X001956Y006439D02*
X001716Y006199D01*
X001376Y006199D01*
X001136Y006439D01*
X001136Y006778D01*
X001376Y007019D01*
X001716Y007019D01*
X001956Y006778D01*
X001956Y006439D01*
X001854Y006337D02*
X002182Y006337D01*
X002280Y006238D02*
X001756Y006238D01*
X001337Y006238D02*
X000590Y006238D01*
X000590Y006140D02*
X005743Y006140D01*
X005743Y006041D02*
X000590Y006041D01*
X000590Y005943D02*
X005743Y005943D01*
X005773Y005844D02*
X000590Y005844D01*
X000590Y006337D02*
X001238Y006337D01*
X001140Y006435D02*
X000590Y006435D01*
X000590Y006534D02*
X001136Y006534D01*
X001136Y006632D02*
X000590Y006632D01*
X000590Y006731D02*
X001136Y006731D01*
X001187Y006829D02*
X000590Y006829D01*
X000590Y006928D02*
X001285Y006928D01*
X001807Y006928D02*
X002229Y006928D01*
X002327Y007026D02*
X000590Y007026D01*
X001741Y007223D02*
X002295Y007223D01*
X002197Y007322D02*
X001839Y007322D01*
X001938Y007420D02*
X002098Y007420D01*
X002096Y007519D02*
X001956Y007519D01*
X001906Y006829D02*
X002130Y006829D01*
X002096Y006731D02*
X001956Y006731D01*
X002496Y006534D02*
X002596Y006534D01*
X002596Y006559D02*
X002596Y006159D01*
X002733Y006159D01*
X002996Y006422D01*
X002996Y006559D01*
X002596Y006559D01*
X002596Y006632D02*
X003136Y006632D01*
X003136Y006534D02*
X002996Y006534D01*
X002996Y006435D02*
X003140Y006435D01*
X003238Y006337D02*
X002911Y006337D01*
X002812Y006238D02*
X003337Y006238D01*
X003136Y006731D02*
X002996Y006731D01*
X002962Y006829D02*
X003187Y006829D01*
X003741Y007223D02*
X003935Y007223D01*
X003839Y007322D02*
X004033Y007322D01*
X003938Y007420D02*
X004132Y007420D01*
X004230Y007519D02*
X003956Y007519D01*
X003956Y007617D02*
X004329Y007617D01*
X004427Y007716D02*
X003956Y007716D01*
X003978Y007814D02*
X008226Y007814D01*
X008034Y007913D02*
X004077Y007913D01*
X004175Y008011D02*
X008024Y008011D01*
X007968Y008602D02*
X008714Y008602D01*
X008714Y008701D02*
X008016Y008701D01*
X008016Y008799D02*
X008714Y008799D01*
X008714Y008898D02*
X008016Y008898D01*
X008016Y008996D02*
X008714Y008996D01*
X008714Y009095D02*
X008016Y009095D01*
X008016Y009193D02*
X008726Y009193D01*
X008824Y009292D02*
X008016Y009292D01*
X008016Y009390D02*
X008901Y009390D01*
X008923Y009489D02*
X008255Y009489D01*
X008361Y009587D02*
X009000Y009587D01*
X009146Y009387D02*
X008874Y009115D01*
X008874Y008219D01*
X009189Y008219D02*
X009189Y008751D01*
X009346Y008909D01*
X009117Y008996D02*
X009034Y008996D01*
X009034Y008898D02*
X009101Y008898D01*
X009080Y009095D02*
X009186Y009095D01*
X009299Y009193D02*
X010676Y009193D01*
X010676Y009276D02*
X010676Y008966D01*
X010678Y008964D01*
X010676Y008962D01*
X010676Y008651D01*
X010741Y008586D01*
X011332Y008586D01*
X011392Y008646D01*
X013310Y008646D01*
X014013Y009349D01*
X014106Y009442D01*
X014106Y015275D01*
X012949Y016432D01*
X012956Y016439D01*
X012956Y016778D01*
X012716Y017019D01*
X012376Y017019D01*
X012136Y016778D01*
X012136Y016439D01*
X012376Y016199D01*
X012716Y016199D01*
X012723Y016206D01*
X013786Y015142D01*
X013786Y009575D01*
X013178Y008966D01*
X013030Y008966D01*
X013513Y009449D01*
X013606Y009542D01*
X013606Y014775D01*
X011949Y016432D01*
X011956Y016439D01*
X011956Y016778D01*
X011716Y017019D01*
X011376Y017019D01*
X011136Y016778D01*
X011136Y016439D01*
X011376Y016199D01*
X011716Y016199D01*
X011723Y016206D01*
X013286Y014642D01*
X013286Y011541D01*
X012422Y011541D01*
X012374Y011493D01*
X012283Y011493D01*
X012189Y011399D01*
X011961Y011171D01*
X011392Y011171D01*
X011332Y011231D01*
X010741Y011231D01*
X010676Y011166D01*
X010676Y010855D01*
X010678Y010853D01*
X010676Y010852D01*
X010676Y010593D01*
X010666Y010583D01*
X010646Y010549D01*
X010636Y010511D01*
X010636Y010386D01*
X011031Y010386D01*
X011031Y010376D01*
X010636Y010376D01*
X010636Y010336D01*
X010595Y010354D01*
X010498Y010354D01*
X010407Y010316D01*
X010339Y010247D01*
X010301Y010157D01*
X010301Y010060D01*
X010339Y009970D01*
X010407Y009901D01*
X010498Y009864D01*
X010595Y009864D01*
X010636Y009881D01*
X010636Y009756D01*
X011031Y009756D01*
X011031Y009746D01*
X010636Y009746D01*
X010636Y009621D01*
X010643Y009596D01*
X010591Y009596D01*
X010591Y009657D01*
X010554Y009747D01*
X010485Y009816D01*
X010395Y009854D01*
X010298Y009854D01*
X010207Y009816D01*
X010139Y009747D01*
X010101Y009657D01*
X010101Y009560D01*
X010139Y009470D01*
X010207Y009401D01*
X010298Y009364D01*
X010365Y009364D01*
X010452Y009276D01*
X010676Y009276D01*
X010676Y009095D02*
X009507Y009095D01*
X009575Y008996D02*
X010676Y008996D01*
X010676Y008898D02*
X009591Y008898D01*
X009566Y008799D02*
X010676Y008799D01*
X010676Y008701D02*
X009484Y008701D01*
X009349Y008602D02*
X010725Y008602D01*
X010669Y008504D02*
X013315Y008504D01*
X013414Y008602D02*
X011348Y008602D01*
X011036Y008806D02*
X013244Y008806D01*
X013946Y009509D01*
X013946Y015209D01*
X012546Y016609D01*
X012859Y016876D02*
X013234Y016876D01*
X013136Y016778D02*
X012956Y016778D01*
X012956Y016679D02*
X013136Y016679D01*
X013136Y016581D02*
X012956Y016581D01*
X012956Y016482D02*
X013136Y016482D01*
X013191Y016384D02*
X012997Y016384D01*
X013096Y016285D02*
X013290Y016285D01*
X013194Y016187D02*
X013742Y016187D01*
X013840Y016088D02*
X013293Y016088D01*
X013391Y015990D02*
X013939Y015990D01*
X014037Y015891D02*
X013490Y015891D01*
X013588Y015793D02*
X014136Y015793D01*
X014186Y015694D02*
X013687Y015694D01*
X013785Y015596D02*
X014186Y015596D01*
X014186Y015497D02*
X013884Y015497D01*
X013982Y015399D02*
X014186Y015399D01*
X014186Y015300D02*
X014081Y015300D01*
X014106Y015202D02*
X014186Y015202D01*
X014186Y015103D02*
X014106Y015103D01*
X014106Y015005D02*
X014186Y015005D01*
X014186Y014906D02*
X014106Y014906D01*
X014106Y014808D02*
X014186Y014808D01*
X014186Y014709D02*
X014106Y014709D01*
X014106Y014611D02*
X014186Y014611D01*
X014186Y014512D02*
X014106Y014512D01*
X014106Y014414D02*
X014186Y014414D01*
X014186Y014315D02*
X014106Y014315D01*
X014106Y014217D02*
X014186Y014217D01*
X014186Y014118D02*
X014106Y014118D01*
X014106Y014020D02*
X014186Y014020D01*
X014186Y013921D02*
X014106Y013921D01*
X014106Y013823D02*
X014186Y013823D01*
X014186Y013724D02*
X014106Y013724D01*
X014106Y013626D02*
X014186Y013626D01*
X014186Y013527D02*
X014106Y013527D01*
X014106Y013429D02*
X014186Y013429D01*
X014186Y013330D02*
X014106Y013330D01*
X014106Y013232D02*
X014186Y013232D01*
X014186Y013133D02*
X014106Y013133D01*
X014106Y013035D02*
X014186Y013035D01*
X014186Y012936D02*
X014106Y012936D01*
X014106Y012838D02*
X014186Y012838D01*
X014186Y012739D02*
X014106Y012739D01*
X014106Y012641D02*
X014186Y012641D01*
X014186Y012542D02*
X014106Y012542D01*
X014106Y012444D02*
X014186Y012444D01*
X014186Y012345D02*
X014106Y012345D01*
X014106Y012247D02*
X014186Y012247D01*
X014186Y012148D02*
X014106Y012148D01*
X014106Y012050D02*
X014186Y012050D01*
X014186Y011951D02*
X014106Y011951D01*
X014106Y011853D02*
X014186Y011853D01*
X014186Y011754D02*
X014106Y011754D01*
X014106Y011656D02*
X014186Y011656D01*
X014186Y011557D02*
X014106Y011557D01*
X014106Y011459D02*
X014186Y011459D01*
X014186Y011360D02*
X014106Y011360D01*
X014106Y011262D02*
X014186Y011262D01*
X014186Y011163D02*
X014106Y011163D01*
X014106Y011065D02*
X014186Y011065D01*
X014186Y010966D02*
X014106Y010966D01*
X014106Y010868D02*
X014186Y010868D01*
X014186Y010769D02*
X014106Y010769D01*
X014106Y010671D02*
X014186Y010671D01*
X014186Y010572D02*
X014106Y010572D01*
X014106Y010474D02*
X014186Y010474D01*
X014186Y010375D02*
X014106Y010375D01*
X014106Y010277D02*
X014186Y010277D01*
X014186Y010178D02*
X014106Y010178D01*
X014106Y010080D02*
X014186Y010080D01*
X014186Y009981D02*
X014106Y009981D01*
X014106Y009883D02*
X014186Y009883D01*
X014186Y009784D02*
X014106Y009784D01*
X014106Y009686D02*
X014186Y009686D01*
X014186Y009587D02*
X014106Y009587D01*
X014106Y009489D02*
X014186Y009489D01*
X014186Y009390D02*
X014054Y009390D01*
X014103Y009292D02*
X013956Y009292D01*
X014005Y009193D02*
X013857Y009193D01*
X013906Y009095D02*
X013759Y009095D01*
X013808Y008996D02*
X013660Y008996D01*
X013709Y008898D02*
X013562Y008898D01*
X013611Y008799D02*
X013463Y008799D01*
X013512Y008701D02*
X013365Y008701D01*
X013217Y008405D02*
X010669Y008405D01*
X010449Y008219D02*
X013256Y008219D01*
X014346Y009309D01*
X014346Y015809D01*
X013546Y016609D01*
X013859Y016876D02*
X014550Y016876D01*
X014500Y016926D02*
X014750Y016676D01*
X014750Y016150D01*
X014678Y016150D01*
X014613Y016086D01*
X014613Y015601D01*
X014678Y015536D01*
X015202Y015536D01*
X015266Y015601D01*
X015266Y016086D01*
X015202Y016150D01*
X015130Y016150D01*
X015130Y016676D01*
X015380Y016926D01*
X015380Y017291D01*
X015122Y017549D01*
X014758Y017549D01*
X014500Y017291D01*
X014500Y016926D01*
X014500Y016975D02*
X013760Y016975D01*
X013733Y017159D02*
X013596Y017159D01*
X013596Y017559D01*
X013596Y017659D01*
X013496Y017659D01*
X013496Y018059D01*
X013360Y018059D01*
X013096Y017795D01*
X013096Y017659D01*
X013496Y017659D01*
X013496Y017559D01*
X013096Y017559D01*
X013096Y017422D01*
X013360Y017159D01*
X013496Y017159D01*
X013496Y017559D01*
X013596Y017559D01*
X013996Y017559D01*
X013996Y017422D01*
X013733Y017159D01*
X013746Y017172D02*
X014500Y017172D01*
X014500Y017270D02*
X013844Y017270D01*
X013943Y017369D02*
X014578Y017369D01*
X014676Y017467D02*
X013996Y017467D01*
X013996Y017659D02*
X013996Y017795D01*
X013733Y018059D01*
X013596Y018059D01*
X013596Y017659D01*
X013996Y017659D01*
X013996Y017664D02*
X018400Y017664D01*
X018400Y017566D02*
X013596Y017566D01*
X013596Y017664D02*
X013496Y017664D01*
X013496Y017566D02*
X012596Y017566D01*
X012596Y017559D02*
X012596Y017659D01*
X012496Y017659D01*
X012496Y018059D01*
X012360Y018059D01*
X012096Y017795D01*
X012096Y017659D01*
X012496Y017659D01*
X012496Y017559D01*
X012096Y017559D01*
X012096Y017422D01*
X012360Y017159D01*
X012496Y017159D01*
X012496Y017559D01*
X012596Y017559D01*
X012996Y017559D01*
X012996Y017422D01*
X012733Y017159D01*
X012596Y017159D01*
X012596Y017559D01*
X012596Y017467D02*
X012496Y017467D01*
X012496Y017369D02*
X012596Y017369D01*
X012596Y017270D02*
X012496Y017270D01*
X012496Y017172D02*
X012596Y017172D01*
X012746Y017172D02*
X013347Y017172D01*
X013248Y017270D02*
X012844Y017270D01*
X012943Y017369D02*
X013150Y017369D01*
X013096Y017467D02*
X012996Y017467D01*
X012996Y017659D02*
X012996Y017795D01*
X012733Y018059D01*
X012596Y018059D01*
X012596Y017659D01*
X012996Y017659D01*
X012996Y017664D02*
X013096Y017664D01*
X013096Y017763D02*
X012996Y017763D01*
X012930Y017861D02*
X013162Y017861D01*
X013261Y017960D02*
X012832Y017960D01*
X012733Y018058D02*
X013359Y018058D01*
X013496Y018058D02*
X013596Y018058D01*
X013596Y017960D02*
X013496Y017960D01*
X013496Y017861D02*
X013596Y017861D01*
X013596Y017763D02*
X013496Y017763D01*
X013733Y018058D02*
X016746Y018058D01*
X016708Y018096D02*
X016927Y017877D01*
X017214Y017758D01*
X017524Y017758D01*
X017811Y017877D01*
X018030Y018096D01*
X018149Y018383D01*
X018149Y018693D01*
X018030Y018979D01*
X017811Y019199D01*
X017524Y019318D01*
X017214Y019318D01*
X016927Y019199D01*
X016708Y018979D01*
X016589Y018693D01*
X016589Y018383D01*
X016708Y018096D01*
X016683Y018157D02*
X002307Y018157D01*
X002282Y018096D02*
X002401Y018383D01*
X002401Y018693D01*
X002282Y018979D01*
X002063Y019199D01*
X001776Y019318D01*
X001466Y019318D01*
X001179Y019199D01*
X000960Y018979D01*
X000841Y018693D01*
X000841Y018383D01*
X000960Y018096D01*
X001179Y017877D01*
X001466Y017758D01*
X001776Y017758D01*
X002063Y017877D01*
X002282Y018096D01*
X002244Y018058D02*
X006359Y018058D01*
X006360Y018059D02*
X006096Y017795D01*
X006096Y017659D01*
X006496Y017659D01*
X006496Y018059D01*
X006360Y018059D01*
X006496Y018058D02*
X006596Y018058D01*
X006596Y018059D02*
X006596Y017659D01*
X006496Y017659D01*
X006496Y017559D01*
X006096Y017559D01*
X006096Y017422D01*
X006360Y017159D01*
X006496Y017159D01*
X006496Y017559D01*
X006596Y017559D01*
X006596Y017659D01*
X006996Y017659D01*
X006996Y017795D01*
X006733Y018059D01*
X006596Y018059D01*
X006596Y017960D02*
X006496Y017960D01*
X006496Y017861D02*
X006596Y017861D01*
X006596Y017763D02*
X006496Y017763D01*
X006496Y017664D02*
X006596Y017664D01*
X006596Y017566D02*
X007496Y017566D01*
X007496Y017559D02*
X007096Y017559D01*
X007096Y017422D01*
X007360Y017159D01*
X007496Y017159D01*
X007496Y017559D01*
X007496Y017659D01*
X007496Y018059D01*
X007360Y018059D01*
X007096Y017795D01*
X007096Y017659D01*
X007496Y017659D01*
X007596Y017659D01*
X007596Y018059D01*
X007733Y018059D01*
X007996Y017795D01*
X007996Y017659D01*
X007596Y017659D01*
X007596Y017559D01*
X007996Y017559D01*
X007996Y017422D01*
X007733Y017159D01*
X007596Y017159D01*
X007596Y017559D01*
X007496Y017559D01*
X007496Y017467D02*
X007596Y017467D01*
X007596Y017369D02*
X007496Y017369D01*
X007496Y017270D02*
X007596Y017270D01*
X007596Y017172D02*
X007496Y017172D01*
X007347Y017172D02*
X006746Y017172D01*
X006733Y017159D02*
X006996Y017422D01*
X006996Y017559D01*
X006596Y017559D01*
X006596Y017159D01*
X006733Y017159D01*
X006596Y017172D02*
X006496Y017172D01*
X006496Y017270D02*
X006596Y017270D01*
X006596Y017369D02*
X006496Y017369D01*
X006496Y017467D02*
X006596Y017467D01*
X006496Y017566D02*
X000590Y017566D01*
X000590Y017664D02*
X006096Y017664D01*
X006096Y017763D02*
X001788Y017763D01*
X002026Y017861D02*
X006162Y017861D01*
X006261Y017960D02*
X002146Y017960D01*
X002348Y018255D02*
X006320Y018255D01*
X006376Y018199D02*
X006136Y018439D01*
X006136Y018778D01*
X006376Y019019D01*
X006716Y019019D01*
X006956Y018778D01*
X006956Y018439D01*
X006716Y018199D01*
X006376Y018199D01*
X006221Y018354D02*
X002389Y018354D01*
X002401Y018452D02*
X006136Y018452D01*
X006136Y018551D02*
X002401Y018551D01*
X002401Y018649D02*
X006136Y018649D01*
X006136Y018748D02*
X002378Y018748D01*
X002337Y018846D02*
X006204Y018846D01*
X006302Y018945D02*
X002297Y018945D01*
X002219Y019043D02*
X016772Y019043D01*
X016693Y018945D02*
X013790Y018945D01*
X013716Y019019D02*
X013376Y019019D01*
X013136Y018778D01*
X013136Y018439D01*
X013376Y018199D01*
X013716Y018199D01*
X013956Y018439D01*
X013956Y018778D01*
X013716Y019019D01*
X013889Y018846D02*
X016653Y018846D01*
X016612Y018748D02*
X013956Y018748D01*
X013956Y018649D02*
X016589Y018649D01*
X016589Y018551D02*
X013956Y018551D01*
X013956Y018452D02*
X016589Y018452D01*
X016601Y018354D02*
X013871Y018354D01*
X013773Y018255D02*
X016642Y018255D01*
X016844Y017960D02*
X013832Y017960D01*
X013930Y017861D02*
X016965Y017861D01*
X017202Y017763D02*
X013996Y017763D01*
X013596Y017467D02*
X013496Y017467D01*
X013496Y017369D02*
X013596Y017369D01*
X013596Y017270D02*
X013496Y017270D01*
X013496Y017172D02*
X013596Y017172D01*
X013332Y016975D02*
X012760Y016975D01*
X012347Y017172D02*
X011746Y017172D01*
X011733Y017159D02*
X011996Y017422D01*
X011996Y017559D01*
X011596Y017559D01*
X011596Y017659D01*
X011496Y017659D01*
X011496Y018059D01*
X011360Y018059D01*
X011096Y017795D01*
X011096Y017659D01*
X011496Y017659D01*
X011496Y017559D01*
X011096Y017559D01*
X011096Y017422D01*
X011360Y017159D01*
X011496Y017159D01*
X011496Y017559D01*
X011596Y017559D01*
X011596Y017159D01*
X011733Y017159D01*
X011596Y017172D02*
X011496Y017172D01*
X011496Y017270D02*
X011596Y017270D01*
X011596Y017369D02*
X011496Y017369D01*
X011496Y017467D02*
X011596Y017467D01*
X011596Y017566D02*
X012496Y017566D01*
X012496Y017664D02*
X012596Y017664D01*
X012596Y017763D02*
X012496Y017763D01*
X012496Y017861D02*
X012596Y017861D01*
X012596Y017960D02*
X012496Y017960D01*
X012496Y018058D02*
X012596Y018058D01*
X012716Y018199D02*
X012376Y018199D01*
X012136Y018439D01*
X012136Y018778D01*
X012376Y019019D01*
X012716Y019019D01*
X012956Y018778D01*
X012956Y018439D01*
X012716Y018199D01*
X012773Y018255D02*
X013320Y018255D01*
X013221Y018354D02*
X012871Y018354D01*
X012956Y018452D02*
X013136Y018452D01*
X013136Y018551D02*
X012956Y018551D01*
X012956Y018649D02*
X013136Y018649D01*
X013136Y018748D02*
X012956Y018748D01*
X012889Y018846D02*
X013204Y018846D01*
X013302Y018945D02*
X012790Y018945D01*
X012302Y018945D02*
X011790Y018945D01*
X011716Y019019D02*
X011956Y018778D01*
X011956Y018439D01*
X011716Y018199D01*
X011376Y018199D01*
X011136Y018439D01*
X011136Y018778D01*
X011376Y019019D01*
X011716Y019019D01*
X011889Y018846D02*
X012204Y018846D01*
X012136Y018748D02*
X011956Y018748D01*
X011956Y018649D02*
X012136Y018649D01*
X012136Y018551D02*
X011956Y018551D01*
X011956Y018452D02*
X012136Y018452D01*
X012221Y018354D02*
X011871Y018354D01*
X011773Y018255D02*
X012320Y018255D01*
X012359Y018058D02*
X011733Y018058D01*
X011733Y018059D02*
X011596Y018059D01*
X011596Y017659D01*
X011996Y017659D01*
X011996Y017795D01*
X011733Y018059D01*
X011596Y018058D02*
X011496Y018058D01*
X011496Y017960D02*
X011596Y017960D01*
X011596Y017861D02*
X011496Y017861D01*
X011496Y017763D02*
X011596Y017763D01*
X011596Y017664D02*
X011496Y017664D01*
X011496Y017566D02*
X010596Y017566D01*
X010596Y017559D02*
X010596Y017659D01*
X010496Y017659D01*
X010496Y018059D01*
X010360Y018059D01*
X010096Y017795D01*
X010096Y017659D01*
X010496Y017659D01*
X010496Y017559D01*
X010096Y017559D01*
X010096Y017422D01*
X010360Y017159D01*
X010496Y017159D01*
X010496Y017559D01*
X010596Y017559D01*
X010996Y017559D01*
X010996Y017422D01*
X010733Y017159D01*
X010596Y017159D01*
X010596Y017559D01*
X010596Y017467D02*
X010496Y017467D01*
X010496Y017369D02*
X010596Y017369D01*
X010596Y017270D02*
X010496Y017270D01*
X010496Y017172D02*
X010596Y017172D01*
X010746Y017172D02*
X011347Y017172D01*
X011248Y017270D02*
X010844Y017270D01*
X010943Y017369D02*
X011150Y017369D01*
X011096Y017467D02*
X010996Y017467D01*
X010996Y017659D02*
X010996Y017795D01*
X010733Y018059D01*
X010596Y018059D01*
X010596Y017659D01*
X010996Y017659D01*
X010996Y017664D02*
X011096Y017664D01*
X011096Y017763D02*
X010996Y017763D01*
X010930Y017861D02*
X011162Y017861D01*
X011261Y017960D02*
X010832Y017960D01*
X010733Y018058D02*
X011359Y018058D01*
X011320Y018255D02*
X010773Y018255D01*
X010716Y018199D02*
X010956Y018439D01*
X010956Y018778D01*
X010716Y019019D01*
X010376Y019019D01*
X010136Y018778D01*
X010136Y018439D01*
X010376Y018199D01*
X010716Y018199D01*
X010596Y018058D02*
X010496Y018058D01*
X010496Y017960D02*
X010596Y017960D01*
X010596Y017861D02*
X010496Y017861D01*
X010496Y017763D02*
X010596Y017763D01*
X010596Y017664D02*
X010496Y017664D01*
X010496Y017566D02*
X009596Y017566D01*
X009596Y017559D02*
X009596Y017659D01*
X009496Y017659D01*
X009496Y018059D01*
X009360Y018059D01*
X009096Y017795D01*
X009096Y017659D01*
X009496Y017659D01*
X009496Y017559D01*
X009096Y017559D01*
X009096Y017422D01*
X009360Y017159D01*
X009496Y017159D01*
X009496Y017559D01*
X009596Y017559D01*
X009996Y017559D01*
X009996Y017422D01*
X009733Y017159D01*
X009596Y017159D01*
X009596Y017559D01*
X009596Y017467D02*
X009496Y017467D01*
X009496Y017369D02*
X009596Y017369D01*
X009596Y017270D02*
X009496Y017270D01*
X009496Y017172D02*
X009596Y017172D01*
X009746Y017172D02*
X010347Y017172D01*
X010248Y017270D02*
X009844Y017270D01*
X009943Y017369D02*
X010150Y017369D01*
X010096Y017467D02*
X009996Y017467D01*
X009996Y017659D02*
X009996Y017795D01*
X009733Y018059D01*
X009596Y018059D01*
X009596Y017659D01*
X009996Y017659D01*
X009996Y017664D02*
X010096Y017664D01*
X010096Y017763D02*
X009996Y017763D01*
X009930Y017861D02*
X010162Y017861D01*
X010261Y017960D02*
X009832Y017960D01*
X009733Y018058D02*
X010359Y018058D01*
X010320Y018255D02*
X009773Y018255D01*
X009716Y018199D02*
X009956Y018439D01*
X009956Y018778D01*
X009716Y019019D01*
X009376Y019019D01*
X009136Y018778D01*
X009136Y018439D01*
X009376Y018199D01*
X009716Y018199D01*
X009596Y018058D02*
X009496Y018058D01*
X009496Y017960D02*
X009596Y017960D01*
X009596Y017861D02*
X009496Y017861D01*
X009496Y017763D02*
X009596Y017763D01*
X009596Y017664D02*
X009496Y017664D01*
X009496Y017566D02*
X008596Y017566D01*
X008596Y017559D02*
X008596Y017659D01*
X008496Y017659D01*
X008496Y018059D01*
X008360Y018059D01*
X008096Y017795D01*
X008096Y017659D01*
X008496Y017659D01*
X008496Y017559D01*
X008096Y017559D01*
X008096Y017422D01*
X008360Y017159D01*
X008496Y017159D01*
X008496Y017559D01*
X008596Y017559D01*
X008996Y017559D01*
X008996Y017422D01*
X008733Y017159D01*
X008596Y017159D01*
X008596Y017559D01*
X008596Y017467D02*
X008496Y017467D01*
X008496Y017369D02*
X008596Y017369D01*
X008596Y017270D02*
X008496Y017270D01*
X008496Y017172D02*
X008596Y017172D01*
X008746Y017172D02*
X009347Y017172D01*
X009248Y017270D02*
X008844Y017270D01*
X008943Y017369D02*
X009150Y017369D01*
X009096Y017467D02*
X008996Y017467D01*
X008996Y017659D02*
X008996Y017795D01*
X008733Y018059D01*
X008596Y018059D01*
X008596Y017659D01*
X008996Y017659D01*
X008996Y017664D02*
X009096Y017664D01*
X009096Y017763D02*
X008996Y017763D01*
X008930Y017861D02*
X009162Y017861D01*
X009261Y017960D02*
X008832Y017960D01*
X008733Y018058D02*
X009359Y018058D01*
X009320Y018255D02*
X008773Y018255D01*
X008716Y018199D02*
X008956Y018439D01*
X008956Y018778D01*
X008716Y019019D01*
X008376Y019019D01*
X008136Y018778D01*
X008136Y018439D01*
X008376Y018199D01*
X008716Y018199D01*
X008596Y018058D02*
X008496Y018058D01*
X008496Y017960D02*
X008596Y017960D01*
X008596Y017861D02*
X008496Y017861D01*
X008496Y017763D02*
X008596Y017763D01*
X008596Y017664D02*
X008496Y017664D01*
X008496Y017566D02*
X007596Y017566D01*
X007596Y017664D02*
X007496Y017664D01*
X007496Y017763D02*
X007596Y017763D01*
X007596Y017861D02*
X007496Y017861D01*
X007496Y017960D02*
X007596Y017960D01*
X007596Y018058D02*
X007496Y018058D01*
X007359Y018058D02*
X006733Y018058D01*
X006832Y017960D02*
X007261Y017960D01*
X007162Y017861D02*
X006930Y017861D01*
X006996Y017763D02*
X007096Y017763D01*
X007096Y017664D02*
X006996Y017664D01*
X006996Y017467D02*
X007096Y017467D01*
X007150Y017369D02*
X006943Y017369D01*
X006844Y017270D02*
X007248Y017270D01*
X007332Y016975D02*
X006760Y016975D01*
X006859Y016876D02*
X007234Y016876D01*
X007136Y016778D02*
X006956Y016778D01*
X006956Y016679D02*
X007136Y016679D01*
X007136Y016581D02*
X006956Y016581D01*
X006956Y016482D02*
X007136Y016482D01*
X007191Y016384D02*
X006997Y016384D01*
X007096Y016285D02*
X007290Y016285D01*
X007194Y016187D02*
X007642Y016187D01*
X007740Y016088D02*
X007293Y016088D01*
X007391Y015990D02*
X007839Y015990D01*
X007937Y015891D02*
X007490Y015891D01*
X007588Y015793D02*
X008036Y015793D01*
X008134Y015694D02*
X007687Y015694D01*
X007785Y015596D02*
X008233Y015596D01*
X008331Y015497D02*
X007884Y015497D01*
X007982Y015399D02*
X008430Y015399D01*
X008528Y015300D02*
X008081Y015300D01*
X008179Y015202D02*
X008627Y015202D01*
X008725Y015103D02*
X008278Y015103D01*
X008376Y015005D02*
X008824Y015005D01*
X008922Y014906D02*
X008475Y014906D01*
X008573Y014808D02*
X009021Y014808D01*
X009119Y014709D02*
X008672Y014709D01*
X008770Y014611D02*
X009218Y014611D01*
X009316Y014512D02*
X008869Y014512D01*
X008967Y014414D02*
X009344Y014414D01*
X009344Y014315D02*
X009066Y014315D01*
X009164Y014217D02*
X009344Y014217D01*
X009344Y014118D02*
X009263Y014118D01*
X009189Y013966D02*
X006546Y016609D01*
X006234Y016876D02*
X004830Y016876D01*
X004880Y016926D02*
X004622Y016669D01*
X004258Y016669D01*
X004000Y016926D01*
X004000Y017291D01*
X004258Y017549D01*
X004622Y017549D01*
X004880Y017291D01*
X004880Y016926D01*
X004880Y016975D02*
X006332Y016975D01*
X006347Y017172D02*
X004880Y017172D01*
X004880Y017270D02*
X006248Y017270D01*
X006150Y017369D02*
X004802Y017369D01*
X004704Y017467D02*
X006096Y017467D01*
X006136Y016778D02*
X004731Y016778D01*
X004633Y016679D02*
X006136Y016679D01*
X006136Y016581D02*
X002823Y016581D01*
X002795Y016665D02*
X002859Y016729D01*
X002859Y016782D01*
X003145Y016782D01*
X003258Y016669D01*
X003622Y016669D01*
X003880Y016926D01*
X003880Y017291D01*
X003622Y017549D01*
X003258Y017549D01*
X003000Y017291D01*
X003000Y017162D01*
X002859Y017162D01*
X002859Y017214D01*
X002795Y017278D01*
X002271Y017278D01*
X002206Y017214D01*
X002206Y016729D01*
X002271Y016665D01*
X002795Y016665D01*
X002809Y016679D02*
X003247Y016679D01*
X003149Y016778D02*
X002859Y016778D01*
X002859Y016482D02*
X006136Y016482D01*
X006191Y016384D02*
X002859Y016384D01*
X002859Y016285D02*
X006290Y016285D01*
X006742Y016187D02*
X002859Y016187D01*
X002859Y016088D02*
X006840Y016088D01*
X006939Y015990D02*
X002727Y015990D01*
X002727Y015891D02*
X007037Y015891D01*
X007136Y015793D02*
X002728Y015793D01*
X002729Y015694D02*
X007234Y015694D01*
X007333Y015596D02*
X002729Y015596D01*
X002730Y015497D02*
X007431Y015497D01*
X007530Y015399D02*
X002731Y015399D01*
X002731Y015300D02*
X003112Y015300D01*
X003013Y015202D02*
X002732Y015202D01*
X002733Y015103D02*
X002915Y015103D01*
X002886Y015005D02*
X002772Y015005D01*
X002871Y014906D02*
X002886Y014906D01*
X003046Y015009D02*
X003246Y015209D01*
X005546Y015209D01*
X008559Y012196D01*
X008559Y011599D01*
X008244Y011599D02*
X008244Y012111D01*
X005746Y014609D01*
X003546Y014609D01*
X003206Y014118D02*
X006010Y014118D01*
X005912Y014217D02*
X003970Y014217D01*
X003986Y014315D02*
X005813Y014315D01*
X005715Y014414D02*
X003986Y014414D01*
X003745Y014089D02*
X003596Y014089D01*
X003596Y013659D01*
X003496Y013659D01*
X003496Y014089D01*
X003347Y014089D01*
X003066Y013807D01*
X003066Y013659D01*
X003496Y013659D01*
X003496Y013559D01*
X003066Y013559D01*
X003066Y013410D01*
X003347Y013129D01*
X003496Y013129D01*
X003496Y013559D01*
X003596Y013559D01*
X003596Y013659D01*
X004026Y013659D01*
X004026Y013807D01*
X003745Y014089D01*
X003814Y014020D02*
X006109Y014020D01*
X006207Y013921D02*
X003913Y013921D01*
X004011Y013823D02*
X006306Y013823D01*
X006404Y013724D02*
X004026Y013724D01*
X004026Y013559D02*
X003596Y013559D01*
X003596Y013129D01*
X003745Y013129D01*
X004026Y013410D01*
X004026Y013559D01*
X004026Y013527D02*
X006601Y013527D01*
X006503Y013626D02*
X003596Y013626D01*
X003596Y013724D02*
X003496Y013724D01*
X003496Y013626D02*
X002986Y013626D01*
X002986Y013724D02*
X003066Y013724D01*
X003081Y013823D02*
X002987Y013823D01*
X003085Y013921D02*
X003180Y013921D01*
X003184Y014020D02*
X003278Y014020D01*
X003496Y014020D02*
X003596Y014020D01*
X003596Y013921D02*
X003496Y013921D01*
X003496Y013823D02*
X003596Y013823D01*
X003596Y013527D02*
X003496Y013527D01*
X003496Y013429D02*
X003596Y013429D01*
X003596Y013330D02*
X003496Y013330D01*
X003496Y013232D02*
X003596Y013232D01*
X003596Y013133D02*
X003496Y013133D01*
X003343Y013133D02*
X002284Y013133D01*
X002301Y013232D02*
X002230Y013232D01*
X002383Y013035D02*
X007094Y013035D01*
X006995Y013133D02*
X003750Y013133D01*
X003848Y013232D02*
X006897Y013232D01*
X006798Y013330D02*
X003947Y013330D01*
X004026Y013429D02*
X006700Y013429D01*
X007159Y013823D02*
X009029Y013823D01*
X009029Y013724D02*
X007257Y013724D01*
X007356Y013626D02*
X009029Y013626D01*
X009029Y013527D02*
X007454Y013527D01*
X007553Y013429D02*
X009029Y013429D01*
X009029Y013330D02*
X007651Y013330D01*
X007750Y013232D02*
X009029Y013232D01*
X009029Y013133D02*
X007848Y013133D01*
X007947Y013035D02*
X009029Y013035D01*
X009029Y012936D02*
X008045Y012936D01*
X008144Y012838D02*
X009029Y012838D01*
X009029Y012739D02*
X008242Y012739D01*
X008341Y012641D02*
X009029Y012641D01*
X009029Y012542D02*
X008439Y012542D01*
X008538Y012444D02*
X009029Y012444D01*
X009029Y012345D02*
X008636Y012345D01*
X008719Y012247D02*
X009029Y012247D01*
X009029Y012148D02*
X008719Y012148D01*
X008719Y012050D02*
X009029Y012050D01*
X009189Y011599D02*
X009189Y013966D01*
X009007Y013921D02*
X007060Y013921D01*
X006962Y014020D02*
X008909Y014020D01*
X008810Y014118D02*
X006863Y014118D01*
X006765Y014217D02*
X008712Y014217D01*
X008613Y014315D02*
X006666Y014315D01*
X006568Y014414D02*
X008515Y014414D01*
X008416Y014512D02*
X006469Y014512D01*
X006370Y014611D02*
X008318Y014611D01*
X008219Y014709D02*
X006272Y014709D01*
X006173Y014808D02*
X008121Y014808D01*
X008022Y014906D02*
X006075Y014906D01*
X005976Y015005D02*
X007924Y015005D01*
X007825Y015103D02*
X005878Y015103D01*
X005779Y015202D02*
X007727Y015202D01*
X007628Y015300D02*
X005681Y015300D01*
X004880Y017073D02*
X014500Y017073D01*
X014649Y016778D02*
X013956Y016778D01*
X013956Y016679D02*
X014747Y016679D01*
X014750Y016581D02*
X013956Y016581D01*
X013956Y016482D02*
X014750Y016482D01*
X014750Y016384D02*
X013997Y016384D01*
X014096Y016285D02*
X014750Y016285D01*
X014750Y016187D02*
X014194Y016187D01*
X014293Y016088D02*
X014616Y016088D01*
X014613Y015990D02*
X014391Y015990D01*
X014490Y015891D02*
X014613Y015891D01*
X014613Y015793D02*
X014506Y015793D01*
X014506Y015694D02*
X014613Y015694D01*
X014619Y015596D02*
X014506Y015596D01*
X014506Y015497D02*
X014642Y015497D01*
X014631Y015491D02*
X014603Y015463D01*
X014584Y015429D01*
X014573Y015391D01*
X014573Y015222D01*
X014892Y015222D01*
X014892Y015125D01*
X014988Y015125D01*
X014988Y014827D01*
X015176Y014827D01*
X015214Y014837D01*
X015249Y014857D01*
X015277Y014885D01*
X015296Y014919D01*
X015306Y014957D01*
X015306Y015125D01*
X014988Y015125D01*
X014988Y015222D01*
X014892Y015222D01*
X014892Y015521D01*
X014704Y015521D01*
X014666Y015511D01*
X014631Y015491D01*
X014576Y015399D02*
X014506Y015399D01*
X014506Y015300D02*
X014573Y015300D01*
X014506Y015202D02*
X014892Y015202D01*
X014892Y015125D02*
X014573Y015125D01*
X014573Y014957D01*
X014584Y014919D01*
X014603Y014885D01*
X014631Y014857D01*
X014666Y014837D01*
X014704Y014827D01*
X014892Y014827D01*
X014892Y015125D01*
X014892Y015103D02*
X014988Y015103D01*
X014988Y015005D02*
X014892Y015005D01*
X014892Y014906D02*
X014988Y014906D01*
X014988Y015202D02*
X018400Y015202D01*
X018400Y015300D02*
X015306Y015300D01*
X015306Y015222D02*
X015306Y015391D01*
X015296Y015429D01*
X015277Y015463D01*
X015249Y015491D01*
X015214Y015511D01*
X015176Y015521D01*
X014988Y015521D01*
X014988Y015222D01*
X015306Y015222D01*
X015306Y015103D02*
X018400Y015103D01*
X018400Y015005D02*
X015306Y015005D01*
X015289Y014906D02*
X018400Y014906D01*
X018400Y014808D02*
X014506Y014808D01*
X014506Y014906D02*
X014591Y014906D01*
X014573Y015005D02*
X014506Y015005D01*
X014506Y015103D02*
X014573Y015103D01*
X014892Y015300D02*
X014988Y015300D01*
X014988Y015399D02*
X014892Y015399D01*
X014892Y015497D02*
X014988Y015497D01*
X015238Y015497D02*
X018400Y015497D01*
X018400Y015399D02*
X015304Y015399D01*
X015261Y015596D02*
X018400Y015596D01*
X018400Y015694D02*
X015266Y015694D01*
X015266Y015793D02*
X018400Y015793D01*
X018400Y015891D02*
X015266Y015891D01*
X015266Y015990D02*
X018400Y015990D01*
X018400Y016088D02*
X015264Y016088D01*
X015130Y016187D02*
X018400Y016187D01*
X018400Y016285D02*
X015130Y016285D01*
X015130Y016384D02*
X018400Y016384D01*
X018400Y016482D02*
X015130Y016482D01*
X015130Y016581D02*
X018400Y016581D01*
X018400Y016679D02*
X016133Y016679D01*
X016122Y016669D02*
X016380Y016926D01*
X016380Y017291D01*
X016122Y017549D01*
X015758Y017549D01*
X015500Y017291D01*
X015500Y016926D01*
X015758Y016669D01*
X016122Y016669D01*
X016231Y016778D02*
X018400Y016778D01*
X018400Y016876D02*
X016330Y016876D01*
X016380Y016975D02*
X018400Y016975D01*
X018400Y017073D02*
X016380Y017073D01*
X016380Y017172D02*
X018400Y017172D01*
X018400Y017270D02*
X016380Y017270D01*
X016302Y017369D02*
X018400Y017369D01*
X018400Y017467D02*
X016204Y017467D01*
X015676Y017467D02*
X015204Y017467D01*
X015302Y017369D02*
X015578Y017369D01*
X015500Y017270D02*
X015380Y017270D01*
X015380Y017172D02*
X015500Y017172D01*
X015500Y017073D02*
X015380Y017073D01*
X015380Y016975D02*
X015500Y016975D01*
X015550Y016876D02*
X015330Y016876D01*
X015231Y016778D02*
X015649Y016778D01*
X015747Y016679D02*
X015133Y016679D01*
X013727Y015202D02*
X013179Y015202D01*
X013081Y015300D02*
X013628Y015300D01*
X013530Y015399D02*
X012982Y015399D01*
X012884Y015497D02*
X013431Y015497D01*
X013333Y015596D02*
X012785Y015596D01*
X012687Y015694D02*
X013234Y015694D01*
X013136Y015793D02*
X012588Y015793D01*
X012490Y015891D02*
X013037Y015891D01*
X012939Y015990D02*
X012391Y015990D01*
X012293Y016088D02*
X012840Y016088D01*
X012742Y016187D02*
X012194Y016187D01*
X012290Y016285D02*
X012096Y016285D01*
X012191Y016384D02*
X011997Y016384D01*
X011956Y016482D02*
X012136Y016482D01*
X012136Y016581D02*
X011956Y016581D01*
X011956Y016679D02*
X012136Y016679D01*
X012136Y016778D02*
X011956Y016778D01*
X011859Y016876D02*
X012234Y016876D01*
X012332Y016975D02*
X011760Y016975D01*
X011844Y017270D02*
X012248Y017270D01*
X012150Y017369D02*
X011943Y017369D01*
X011996Y017467D02*
X012096Y017467D01*
X012096Y017664D02*
X011996Y017664D01*
X011996Y017763D02*
X012096Y017763D01*
X012162Y017861D02*
X011930Y017861D01*
X011832Y017960D02*
X012261Y017960D01*
X011221Y018354D02*
X010871Y018354D01*
X010956Y018452D02*
X011136Y018452D01*
X011136Y018551D02*
X010956Y018551D01*
X010956Y018649D02*
X011136Y018649D01*
X011136Y018748D02*
X010956Y018748D01*
X010889Y018846D02*
X011204Y018846D01*
X011302Y018945D02*
X010790Y018945D01*
X010302Y018945D02*
X009790Y018945D01*
X009889Y018846D02*
X010204Y018846D01*
X010136Y018748D02*
X009956Y018748D01*
X009956Y018649D02*
X010136Y018649D01*
X010136Y018551D02*
X009956Y018551D01*
X009956Y018452D02*
X010136Y018452D01*
X010221Y018354D02*
X009871Y018354D01*
X009221Y018354D02*
X008871Y018354D01*
X008956Y018452D02*
X009136Y018452D01*
X009136Y018551D02*
X008956Y018551D01*
X008956Y018649D02*
X009136Y018649D01*
X009136Y018748D02*
X008956Y018748D01*
X008889Y018846D02*
X009204Y018846D01*
X009302Y018945D02*
X008790Y018945D01*
X008302Y018945D02*
X007790Y018945D01*
X007716Y019019D02*
X007376Y019019D01*
X007136Y018778D01*
X007136Y018439D01*
X007376Y018199D01*
X007716Y018199D01*
X007956Y018439D01*
X007956Y018778D01*
X007716Y019019D01*
X007889Y018846D02*
X008204Y018846D01*
X008136Y018748D02*
X007956Y018748D01*
X007956Y018649D02*
X008136Y018649D01*
X008136Y018551D02*
X007956Y018551D01*
X007956Y018452D02*
X008136Y018452D01*
X008221Y018354D02*
X007871Y018354D01*
X007773Y018255D02*
X008320Y018255D01*
X008359Y018058D02*
X007733Y018058D01*
X007832Y017960D02*
X008261Y017960D01*
X008162Y017861D02*
X007930Y017861D01*
X007996Y017763D02*
X008096Y017763D01*
X008096Y017664D02*
X007996Y017664D01*
X007996Y017467D02*
X008096Y017467D01*
X008150Y017369D02*
X007943Y017369D01*
X007844Y017270D02*
X008248Y017270D01*
X008347Y017172D02*
X007746Y017172D01*
X007760Y016975D02*
X008332Y016975D01*
X008234Y016876D02*
X007859Y016876D01*
X007956Y016778D02*
X008136Y016778D01*
X008136Y016679D02*
X007956Y016679D01*
X007956Y016581D02*
X008136Y016581D01*
X008136Y016482D02*
X007956Y016482D01*
X007901Y016384D02*
X008191Y016384D01*
X008290Y016285D02*
X007996Y016285D01*
X008094Y016187D02*
X008542Y016187D01*
X008640Y016088D02*
X008193Y016088D01*
X008291Y015990D02*
X008739Y015990D01*
X008837Y015891D02*
X008390Y015891D01*
X008488Y015793D02*
X008936Y015793D01*
X009034Y015694D02*
X008587Y015694D01*
X008685Y015596D02*
X009133Y015596D01*
X009231Y015497D02*
X008784Y015497D01*
X008882Y015399D02*
X009330Y015399D01*
X009428Y015300D02*
X008981Y015300D01*
X009079Y015202D02*
X009527Y015202D01*
X009625Y015103D02*
X009178Y015103D01*
X009276Y015005D02*
X009659Y015005D01*
X009659Y014906D02*
X009375Y014906D01*
X009473Y014808D02*
X009659Y014808D01*
X009659Y014709D02*
X009572Y014709D01*
X009504Y014551D02*
X007546Y016509D01*
X007546Y016609D01*
X008546Y016609D02*
X008546Y016409D01*
X009819Y015136D01*
X009819Y011599D01*
X010134Y011599D02*
X010134Y015821D01*
X009546Y016409D01*
X009546Y016609D01*
X009859Y016876D02*
X010234Y016876D01*
X010136Y016778D02*
X009956Y016778D01*
X009956Y016679D02*
X010136Y016679D01*
X010136Y016581D02*
X009956Y016581D01*
X009956Y016482D02*
X010136Y016482D01*
X010191Y016384D02*
X009901Y016384D01*
X009896Y016285D02*
X010289Y016285D01*
X010289Y016187D02*
X009994Y016187D01*
X010093Y016088D02*
X010289Y016088D01*
X010289Y015990D02*
X010191Y015990D01*
X009936Y015793D02*
X009388Y015793D01*
X009290Y015891D02*
X009837Y015891D01*
X009739Y015990D02*
X009191Y015990D01*
X009093Y016088D02*
X009640Y016088D01*
X009542Y016187D02*
X008994Y016187D01*
X008896Y016285D02*
X009290Y016285D01*
X009191Y016384D02*
X008901Y016384D01*
X008956Y016482D02*
X009136Y016482D01*
X009136Y016581D02*
X008956Y016581D01*
X008956Y016679D02*
X009136Y016679D01*
X009136Y016778D02*
X008956Y016778D01*
X008859Y016876D02*
X009234Y016876D01*
X009332Y016975D02*
X008760Y016975D01*
X009760Y016975D02*
X010332Y016975D01*
X010546Y016609D02*
X010546Y016409D01*
X010449Y016306D01*
X010449Y011599D01*
X010669Y011557D02*
X013286Y011557D01*
X013286Y011656D02*
X010669Y011656D01*
X010669Y011754D02*
X013286Y011754D01*
X013286Y011853D02*
X010669Y011853D01*
X010612Y011951D02*
X013286Y011951D01*
X013286Y012050D02*
X010609Y012050D01*
X010609Y012148D02*
X013286Y012148D01*
X013286Y012247D02*
X010609Y012247D01*
X010609Y012345D02*
X013286Y012345D01*
X013286Y012444D02*
X010609Y012444D01*
X010609Y012542D02*
X013286Y012542D01*
X013286Y012641D02*
X010609Y012641D01*
X010609Y012739D02*
X013286Y012739D01*
X013286Y012838D02*
X010609Y012838D01*
X010609Y012936D02*
X013286Y012936D01*
X013286Y013035D02*
X010609Y013035D01*
X010609Y013133D02*
X013286Y013133D01*
X013286Y013232D02*
X010609Y013232D01*
X010609Y013330D02*
X013286Y013330D01*
X013286Y013429D02*
X010609Y013429D01*
X010609Y013527D02*
X013286Y013527D01*
X013286Y013626D02*
X010609Y013626D01*
X010609Y013724D02*
X013286Y013724D01*
X013286Y013823D02*
X010609Y013823D01*
X010609Y013921D02*
X013286Y013921D01*
X013286Y014020D02*
X010609Y014020D01*
X010609Y014118D02*
X013286Y014118D01*
X013286Y014217D02*
X010609Y014217D01*
X010609Y014315D02*
X013286Y014315D01*
X013286Y014414D02*
X010609Y014414D01*
X010609Y014512D02*
X013286Y014512D01*
X013286Y014611D02*
X010609Y014611D01*
X010609Y014709D02*
X013219Y014709D01*
X013121Y014808D02*
X010609Y014808D01*
X010609Y014906D02*
X013022Y014906D01*
X012924Y015005D02*
X010609Y015005D01*
X010609Y015103D02*
X012825Y015103D01*
X012727Y015202D02*
X010609Y015202D01*
X010609Y015300D02*
X012628Y015300D01*
X012530Y015399D02*
X010609Y015399D01*
X010609Y015497D02*
X012431Y015497D01*
X012333Y015596D02*
X010609Y015596D01*
X010609Y015694D02*
X012234Y015694D01*
X012136Y015793D02*
X010609Y015793D01*
X010609Y015891D02*
X012037Y015891D01*
X011939Y015990D02*
X010609Y015990D01*
X010609Y016088D02*
X011840Y016088D01*
X011742Y016187D02*
X010609Y016187D01*
X010803Y016285D02*
X011290Y016285D01*
X011191Y016384D02*
X010901Y016384D01*
X010956Y016482D02*
X011136Y016482D01*
X011136Y016581D02*
X010956Y016581D01*
X010956Y016679D02*
X011136Y016679D01*
X011136Y016778D02*
X010956Y016778D01*
X010859Y016876D02*
X011234Y016876D01*
X011332Y016975D02*
X010760Y016975D01*
X011546Y016609D02*
X013446Y014709D01*
X013446Y009609D01*
X012959Y009121D01*
X011036Y009121D01*
X011396Y009281D02*
X011396Y009539D01*
X011406Y009549D01*
X011426Y009583D01*
X011436Y009621D01*
X011436Y009746D01*
X011041Y009746D01*
X011041Y009756D01*
X011436Y009756D01*
X011436Y009881D01*
X011426Y009919D01*
X011406Y009953D01*
X011396Y009963D01*
X011396Y010169D01*
X011406Y010179D01*
X011426Y010213D01*
X011436Y010251D01*
X011436Y010376D01*
X011041Y010376D01*
X011041Y010386D01*
X011436Y010386D01*
X011436Y010511D01*
X011430Y010536D01*
X011956Y010536D01*
X012170Y010322D01*
X012263Y010228D01*
X012374Y010228D01*
X012422Y010180D01*
X013286Y010180D01*
X013286Y009675D01*
X012893Y009281D01*
X012134Y009281D01*
X012134Y009408D01*
X011836Y009408D01*
X011836Y009505D01*
X012134Y009505D01*
X012134Y009693D01*
X012124Y009731D01*
X012104Y009765D01*
X012076Y009793D01*
X012043Y009812D01*
X012094Y009864D01*
X012094Y010388D01*
X012030Y010452D01*
X011545Y010452D01*
X011480Y010388D01*
X011480Y009864D01*
X011532Y009812D01*
X011498Y009793D01*
X011470Y009765D01*
X011451Y009731D01*
X011440Y009693D01*
X011440Y009505D01*
X011739Y009505D01*
X011739Y009408D01*
X011440Y009408D01*
X011440Y009281D01*
X011396Y009281D01*
X011396Y009292D02*
X011440Y009292D01*
X011440Y009390D02*
X011396Y009390D01*
X011396Y009489D02*
X011739Y009489D01*
X011836Y009489D02*
X013100Y009489D01*
X013199Y009587D02*
X012134Y009587D01*
X012134Y009686D02*
X013286Y009686D01*
X013286Y009784D02*
X012085Y009784D01*
X012094Y009883D02*
X013286Y009883D01*
X013286Y009981D02*
X012094Y009981D01*
X012094Y010080D02*
X013286Y010080D01*
X013286Y010178D02*
X012094Y010178D01*
X012094Y010277D02*
X012215Y010277D01*
X012116Y010375D02*
X012094Y010375D01*
X012018Y010474D02*
X011436Y010474D01*
X011436Y010375D02*
X011480Y010375D01*
X011480Y010277D02*
X011436Y010277D01*
X011405Y010178D02*
X011480Y010178D01*
X011480Y010080D02*
X011396Y010080D01*
X011396Y009981D02*
X011480Y009981D01*
X011480Y009883D02*
X011436Y009883D01*
X011436Y009784D02*
X011489Y009784D01*
X011440Y009686D02*
X011436Y009686D01*
X011427Y009587D02*
X011440Y009587D01*
X011036Y009436D02*
X010519Y009436D01*
X010346Y009609D01*
X010175Y009784D02*
X008380Y009784D01*
X008391Y009686D02*
X010113Y009686D01*
X010101Y009587D02*
X009293Y009587D01*
X009369Y009489D02*
X010131Y009489D01*
X010234Y009390D02*
X009391Y009390D01*
X009372Y009292D02*
X010437Y009292D01*
X010580Y009686D02*
X010636Y009686D01*
X010636Y009784D02*
X010517Y009784D01*
X010452Y009883D02*
X008319Y009883D01*
X008146Y009709D02*
X008104Y009751D01*
X007656Y009751D01*
X006969Y009751D01*
X006846Y009774D01*
X006539Y009784D02*
X004597Y009784D01*
X004696Y009686D02*
X006539Y009686D01*
X006539Y009883D02*
X004499Y009883D01*
X004400Y009981D02*
X004947Y009981D01*
X004849Y010080D02*
X004302Y010080D01*
X004203Y010178D02*
X004750Y010178D01*
X004652Y010277D02*
X004105Y010277D01*
X004006Y010375D02*
X004553Y010375D01*
X004455Y010474D02*
X003956Y010474D01*
X003956Y010572D02*
X004356Y010572D01*
X004258Y010671D02*
X003956Y010671D01*
X003956Y010769D02*
X004159Y010769D01*
X004061Y010868D02*
X003867Y010868D01*
X003962Y010966D02*
X003769Y010966D01*
X003864Y011065D02*
X000590Y011065D01*
X000590Y011163D02*
X002355Y011163D01*
X002360Y011159D02*
X002496Y011159D01*
X002496Y011559D01*
X002096Y011559D01*
X002096Y011422D01*
X002360Y011159D01*
X002360Y011059D02*
X002096Y010795D01*
X002096Y010659D01*
X002496Y010659D01*
X002496Y011059D01*
X002360Y011059D01*
X002267Y010966D02*
X001769Y010966D01*
X001716Y011019D02*
X001376Y011019D01*
X001136Y010778D01*
X001136Y010439D01*
X001376Y010199D01*
X001716Y010199D01*
X001956Y010439D01*
X001956Y010778D01*
X001716Y011019D01*
X001716Y011199D02*
X001956Y011439D01*
X001956Y011778D01*
X001716Y012019D01*
X001376Y012019D01*
X001136Y011778D01*
X001136Y011439D01*
X001376Y011199D01*
X001716Y011199D01*
X001779Y011262D02*
X002257Y011262D01*
X002158Y011360D02*
X001878Y011360D01*
X001956Y011459D02*
X002096Y011459D01*
X002096Y011557D02*
X001956Y011557D01*
X001956Y011656D02*
X002496Y011656D01*
X002496Y011659D02*
X002496Y011559D01*
X002596Y011559D01*
X002596Y011659D01*
X002496Y011659D01*
X002496Y012059D01*
X002360Y012059D01*
X002096Y011795D01*
X002096Y011659D01*
X002496Y011659D01*
X002496Y011754D02*
X002596Y011754D01*
X002596Y011659D02*
X002596Y012059D01*
X002733Y012059D01*
X002996Y011795D01*
X002996Y011659D01*
X002596Y011659D01*
X002596Y011656D02*
X003136Y011656D01*
X003136Y011754D02*
X002996Y011754D01*
X002939Y011853D02*
X003210Y011853D01*
X003309Y011951D02*
X002840Y011951D01*
X002742Y012050D02*
X004330Y012050D01*
X004232Y012148D02*
X000590Y012148D01*
X000590Y012050D02*
X002351Y012050D01*
X002252Y011951D02*
X001784Y011951D01*
X001882Y011853D02*
X002154Y011853D01*
X002096Y011754D02*
X001956Y011754D01*
X002496Y011853D02*
X002596Y011853D01*
X002596Y011951D02*
X002496Y011951D01*
X002496Y012050D02*
X002596Y012050D01*
X002436Y012444D02*
X000590Y012444D01*
X000590Y012542D02*
X002338Y012542D01*
X002239Y012641D02*
X000590Y012641D01*
X000590Y012739D02*
X002141Y012739D01*
X002042Y012838D02*
X000590Y012838D01*
X000590Y012936D02*
X001944Y012936D01*
X001850Y013035D02*
X000590Y013035D01*
X000590Y013133D02*
X001850Y013133D01*
X001850Y013232D02*
X001792Y013232D01*
X001301Y013232D02*
X000590Y013232D01*
X000590Y013330D02*
X001202Y013330D01*
X001106Y013429D02*
X000590Y013429D01*
X000590Y013527D02*
X001106Y013527D01*
X001106Y013626D02*
X000590Y013626D01*
X000590Y013724D02*
X001106Y013724D01*
X001138Y013823D02*
X000590Y013823D01*
X000590Y013921D02*
X001237Y013921D01*
X001335Y014020D02*
X000590Y014020D01*
X000590Y014118D02*
X001850Y014118D01*
X001850Y014020D02*
X001757Y014020D01*
X001729Y014169D02*
X001986Y014426D01*
X001986Y014791D01*
X001729Y015049D01*
X001364Y015049D01*
X001106Y014791D01*
X001106Y014426D01*
X001364Y014169D01*
X001729Y014169D01*
X001777Y014217D02*
X001886Y014217D01*
X001875Y014315D02*
X001984Y014315D01*
X001974Y014414D02*
X002083Y014414D01*
X002106Y014512D02*
X001986Y014512D01*
X001986Y014611D02*
X002106Y014611D01*
X002106Y014709D02*
X001986Y014709D01*
X001969Y014808D02*
X002123Y014808D01*
X002222Y014906D02*
X001871Y014906D01*
X001772Y015005D02*
X002320Y015005D01*
X002353Y015103D02*
X000590Y015103D01*
X000590Y015005D02*
X001320Y015005D01*
X001222Y014906D02*
X000590Y014906D01*
X000590Y014808D02*
X001123Y014808D01*
X001106Y014709D02*
X000590Y014709D01*
X000590Y014611D02*
X001106Y014611D01*
X001106Y014512D02*
X000590Y014512D01*
X000590Y014414D02*
X001119Y014414D01*
X001217Y014315D02*
X000590Y014315D01*
X000590Y014217D02*
X001316Y014217D01*
X000590Y015202D02*
X002352Y015202D01*
X002351Y015300D02*
X000590Y015300D01*
X000590Y015399D02*
X002351Y015399D01*
X002350Y015497D02*
X000590Y015497D01*
X000590Y015596D02*
X002349Y015596D01*
X002349Y015694D02*
X000590Y015694D01*
X000590Y015793D02*
X002348Y015793D01*
X002347Y015891D02*
X000590Y015891D01*
X000590Y015990D02*
X002347Y015990D01*
X002206Y016088D02*
X000590Y016088D01*
X000590Y016187D02*
X002206Y016187D01*
X002206Y016285D02*
X000590Y016285D01*
X000590Y016384D02*
X002206Y016384D01*
X002206Y016482D02*
X000590Y016482D01*
X000590Y016581D02*
X002242Y016581D01*
X002256Y016679D02*
X000590Y016679D01*
X000590Y016778D02*
X002206Y016778D01*
X002206Y016876D02*
X000590Y016876D01*
X000590Y016975D02*
X002206Y016975D01*
X002206Y017073D02*
X000590Y017073D01*
X000590Y017172D02*
X002206Y017172D01*
X002262Y017270D02*
X000590Y017270D01*
X000590Y017369D02*
X003078Y017369D01*
X003000Y017270D02*
X002803Y017270D01*
X002859Y017172D02*
X003000Y017172D01*
X003176Y017467D02*
X000590Y017467D01*
X000590Y017763D02*
X001454Y017763D01*
X001216Y017861D02*
X000590Y017861D01*
X000590Y017960D02*
X001096Y017960D01*
X000998Y018058D02*
X000590Y018058D01*
X000590Y018157D02*
X000935Y018157D01*
X000894Y018255D02*
X000590Y018255D01*
X000590Y018354D02*
X000853Y018354D01*
X000841Y018452D02*
X000590Y018452D01*
X000590Y018551D02*
X000841Y018551D01*
X000841Y018649D02*
X000590Y018649D01*
X000592Y018748D02*
X000864Y018748D01*
X000905Y018846D02*
X000600Y018846D01*
X000631Y018945D02*
X000945Y018945D01*
X001023Y019043D02*
X000663Y019043D01*
X000709Y019142D02*
X001122Y019142D01*
X001279Y019240D02*
X000781Y019240D01*
X000865Y019339D02*
X018125Y019339D01*
X018209Y019240D02*
X017711Y019240D01*
X017868Y019142D02*
X018281Y019142D01*
X018328Y019043D02*
X017967Y019043D01*
X018045Y018945D02*
X018360Y018945D01*
X018390Y018846D02*
X018086Y018846D01*
X018126Y018748D02*
X018398Y018748D01*
X018400Y018649D02*
X018149Y018649D01*
X018149Y018551D02*
X018400Y018551D01*
X018400Y018452D02*
X018149Y018452D01*
X018137Y018354D02*
X018400Y018354D01*
X018400Y018255D02*
X018096Y018255D01*
X018055Y018157D02*
X018400Y018157D01*
X018400Y018058D02*
X017992Y018058D01*
X017894Y017960D02*
X018400Y017960D01*
X018400Y017861D02*
X017774Y017861D01*
X017536Y017763D02*
X018400Y017763D01*
X017027Y019240D02*
X001963Y019240D01*
X002120Y019142D02*
X016870Y019142D01*
X017753Y019536D02*
X001237Y019536D01*
X001000Y019437D02*
X017990Y019437D01*
X018400Y014709D02*
X014506Y014709D01*
X014506Y014611D02*
X018400Y014611D01*
X018400Y014512D02*
X014506Y014512D01*
X014506Y014414D02*
X018400Y014414D01*
X018400Y014315D02*
X014506Y014315D01*
X014506Y014217D02*
X018400Y014217D01*
X018400Y014118D02*
X014506Y014118D01*
X014506Y014020D02*
X016321Y014020D01*
X016360Y014059D02*
X016096Y013795D01*
X016096Y013659D01*
X016496Y013659D01*
X016496Y014059D01*
X016360Y014059D01*
X016496Y014020D02*
X016596Y014020D01*
X016596Y014059D02*
X016596Y013659D01*
X016496Y013659D01*
X016496Y013559D01*
X016096Y013559D01*
X016096Y013422D01*
X016360Y013159D01*
X016496Y013159D01*
X016496Y013559D01*
X016596Y013559D01*
X016596Y013659D01*
X016996Y013659D01*
X016996Y013795D01*
X016733Y014059D01*
X016596Y014059D01*
X016596Y013921D02*
X016496Y013921D01*
X016496Y013823D02*
X016596Y013823D01*
X016596Y013724D02*
X016496Y013724D01*
X016496Y013626D02*
X014506Y013626D01*
X014506Y013724D02*
X016096Y013724D01*
X016124Y013823D02*
X014506Y013823D01*
X014506Y013921D02*
X016222Y013921D01*
X016096Y013527D02*
X014506Y013527D01*
X014506Y013429D02*
X016096Y013429D01*
X016188Y013330D02*
X014506Y013330D01*
X014506Y013232D02*
X016287Y013232D01*
X016360Y013059D02*
X016096Y012795D01*
X016096Y012659D01*
X016496Y012659D01*
X016496Y013059D01*
X016360Y013059D01*
X016336Y013035D02*
X014506Y013035D01*
X014506Y013133D02*
X018400Y013133D01*
X018400Y013035D02*
X016757Y013035D01*
X016733Y013059D02*
X016596Y013059D01*
X016596Y012659D01*
X016496Y012659D01*
X016496Y012559D01*
X016096Y012559D01*
X016096Y012422D01*
X016360Y012159D01*
X016496Y012159D01*
X016496Y012559D01*
X016596Y012559D01*
X016596Y012659D01*
X016996Y012659D01*
X016996Y012795D01*
X016733Y013059D01*
X016733Y013159D02*
X016596Y013159D01*
X016596Y013559D01*
X016996Y013559D01*
X016996Y013422D01*
X016733Y013159D01*
X016806Y013232D02*
X017343Y013232D01*
X017376Y013199D02*
X017716Y013199D01*
X017956Y013439D01*
X017956Y013778D01*
X017716Y014019D01*
X017376Y014019D01*
X017136Y013778D01*
X017136Y013439D01*
X017376Y013199D01*
X017376Y013019D02*
X017136Y012778D01*
X017136Y012439D01*
X017376Y012199D01*
X017716Y012199D01*
X017956Y012439D01*
X017956Y012778D01*
X017716Y013019D01*
X017376Y013019D01*
X017294Y012936D02*
X016855Y012936D01*
X016954Y012838D02*
X017195Y012838D01*
X017136Y012739D02*
X016996Y012739D01*
X017136Y012641D02*
X016596Y012641D01*
X016596Y012559D02*
X016996Y012559D01*
X016996Y012422D01*
X016733Y012159D01*
X016596Y012159D01*
X016596Y012559D01*
X016596Y012542D02*
X016496Y012542D01*
X016496Y012444D02*
X016596Y012444D01*
X016596Y012345D02*
X016496Y012345D01*
X016496Y012247D02*
X016596Y012247D01*
X016596Y012059D02*
X016596Y011659D01*
X016496Y011659D01*
X016496Y012059D01*
X016360Y012059D01*
X016096Y011795D01*
X016096Y011659D01*
X016496Y011659D01*
X016496Y011559D01*
X016096Y011559D01*
X016096Y011422D01*
X016360Y011159D01*
X016496Y011159D01*
X016496Y011559D01*
X016596Y011559D01*
X016596Y011659D01*
X016996Y011659D01*
X016996Y011795D01*
X016733Y012059D01*
X016596Y012059D01*
X016596Y012050D02*
X016496Y012050D01*
X016496Y011951D02*
X016596Y011951D01*
X016596Y011853D02*
X016496Y011853D01*
X016496Y011754D02*
X016596Y011754D01*
X016596Y011656D02*
X017136Y011656D01*
X017136Y011754D02*
X016996Y011754D01*
X016939Y011853D02*
X017210Y011853D01*
X017136Y011778D02*
X017376Y012019D01*
X017716Y012019D01*
X017956Y011778D01*
X017956Y011439D01*
X017716Y011199D01*
X017376Y011199D01*
X017136Y011439D01*
X017136Y011778D01*
X017136Y011557D02*
X016996Y011557D01*
X016996Y011559D02*
X016596Y011559D01*
X016596Y011159D01*
X016733Y011159D01*
X016996Y011422D01*
X016996Y011559D01*
X016996Y011459D02*
X017136Y011459D01*
X017215Y011360D02*
X016934Y011360D01*
X016836Y011262D02*
X017313Y011262D01*
X017201Y011019D02*
X017136Y010954D01*
X017136Y010263D01*
X017201Y010199D01*
X017892Y010199D01*
X017956Y010263D01*
X017956Y010954D01*
X017892Y011019D01*
X017201Y011019D01*
X017148Y010966D02*
X016986Y010966D01*
X016966Y011001D01*
X016938Y011029D01*
X016904Y011048D01*
X016866Y011059D01*
X016596Y011059D01*
X016596Y010659D01*
X016496Y010659D01*
X016496Y011059D01*
X016227Y011059D01*
X016188Y011048D01*
X016154Y011029D01*
X016126Y011001D01*
X016106Y010966D01*
X014506Y010966D01*
X014506Y010868D02*
X016096Y010868D01*
X016096Y010928D02*
X016096Y010659D01*
X016496Y010659D01*
X016496Y010559D01*
X016096Y010559D01*
X016096Y010289D01*
X016106Y010251D01*
X016126Y010216D01*
X016154Y010189D01*
X016188Y010169D01*
X016227Y010159D01*
X016496Y010159D01*
X016496Y010559D01*
X016596Y010559D01*
X016596Y010659D01*
X016996Y010659D01*
X016996Y010928D01*
X016986Y010966D01*
X016996Y010868D02*
X017136Y010868D01*
X017136Y010769D02*
X016996Y010769D01*
X016996Y010671D02*
X017136Y010671D01*
X017136Y010572D02*
X016596Y010572D01*
X016596Y010559D02*
X016996Y010559D01*
X016996Y010289D01*
X016986Y010251D01*
X016966Y010216D01*
X016938Y010189D01*
X016904Y010169D01*
X016866Y010159D01*
X016596Y010159D01*
X016596Y010559D01*
X016596Y010474D02*
X016496Y010474D01*
X016496Y010572D02*
X014506Y010572D01*
X014506Y010474D02*
X016096Y010474D01*
X016096Y010375D02*
X014506Y010375D01*
X014506Y010277D02*
X016100Y010277D01*
X016172Y010178D02*
X014506Y010178D01*
X014506Y010080D02*
X018400Y010080D01*
X018400Y010178D02*
X016920Y010178D01*
X016993Y010277D02*
X017136Y010277D01*
X017136Y010375D02*
X016996Y010375D01*
X016996Y010474D02*
X017136Y010474D01*
X016596Y010375D02*
X016496Y010375D01*
X016496Y010277D02*
X016596Y010277D01*
X016596Y010178D02*
X016496Y010178D01*
X016496Y010671D02*
X016596Y010671D01*
X016596Y010769D02*
X016496Y010769D01*
X016496Y010868D02*
X016596Y010868D01*
X016596Y010966D02*
X016496Y010966D01*
X016496Y011163D02*
X016596Y011163D01*
X016596Y011262D02*
X016496Y011262D01*
X016496Y011360D02*
X016596Y011360D01*
X016596Y011459D02*
X016496Y011459D01*
X016496Y011557D02*
X016596Y011557D01*
X016496Y011656D02*
X014506Y011656D01*
X014506Y011754D02*
X016096Y011754D01*
X016154Y011853D02*
X014506Y011853D01*
X014506Y011951D02*
X016252Y011951D01*
X016351Y012050D02*
X014506Y012050D01*
X014506Y012148D02*
X018400Y012148D01*
X018400Y012050D02*
X016742Y012050D01*
X016840Y011951D02*
X017309Y011951D01*
X017328Y012247D02*
X016821Y012247D01*
X016919Y012345D02*
X017230Y012345D01*
X017136Y012444D02*
X016996Y012444D01*
X016996Y012542D02*
X017136Y012542D01*
X016596Y012739D02*
X016496Y012739D01*
X016496Y012641D02*
X014506Y012641D01*
X014506Y012739D02*
X016096Y012739D01*
X016139Y012838D02*
X014506Y012838D01*
X014506Y012936D02*
X016237Y012936D01*
X016496Y012936D02*
X016596Y012936D01*
X016596Y012838D02*
X016496Y012838D01*
X016496Y013035D02*
X016596Y013035D01*
X016596Y013232D02*
X016496Y013232D01*
X016496Y013330D02*
X016596Y013330D01*
X016596Y013429D02*
X016496Y013429D01*
X016496Y013527D02*
X016596Y013527D01*
X016596Y013626D02*
X017136Y013626D01*
X017136Y013724D02*
X016996Y013724D01*
X016969Y013823D02*
X017180Y013823D01*
X017279Y013921D02*
X016870Y013921D01*
X016772Y014020D02*
X018400Y014020D01*
X018400Y013921D02*
X017814Y013921D01*
X017912Y013823D02*
X018400Y013823D01*
X018400Y013724D02*
X017956Y013724D01*
X017956Y013626D02*
X018400Y013626D01*
X018400Y013527D02*
X017956Y013527D01*
X017946Y013429D02*
X018400Y013429D01*
X018400Y013330D02*
X017848Y013330D01*
X017749Y013232D02*
X018400Y013232D01*
X018400Y012936D02*
X017799Y012936D01*
X017897Y012838D02*
X018400Y012838D01*
X018400Y012739D02*
X017956Y012739D01*
X017956Y012641D02*
X018400Y012641D01*
X018400Y012542D02*
X017956Y012542D01*
X017956Y012444D02*
X018400Y012444D01*
X018400Y012345D02*
X017863Y012345D01*
X017764Y012247D02*
X018400Y012247D01*
X018400Y011951D02*
X017784Y011951D01*
X017882Y011853D02*
X018400Y011853D01*
X018400Y011754D02*
X017956Y011754D01*
X017956Y011656D02*
X018400Y011656D01*
X018400Y011557D02*
X017956Y011557D01*
X017956Y011459D02*
X018400Y011459D01*
X018400Y011360D02*
X017878Y011360D01*
X017779Y011262D02*
X018400Y011262D01*
X018400Y011163D02*
X016737Y011163D01*
X016355Y011163D02*
X014506Y011163D01*
X014506Y011065D02*
X018400Y011065D01*
X018400Y010966D02*
X017944Y010966D01*
X017956Y010868D02*
X018400Y010868D01*
X018400Y010769D02*
X017956Y010769D01*
X017956Y010671D02*
X018400Y010671D01*
X018400Y010572D02*
X017956Y010572D01*
X017956Y010474D02*
X018400Y010474D01*
X018400Y010375D02*
X017956Y010375D01*
X017956Y010277D02*
X018400Y010277D01*
X018400Y009981D02*
X014506Y009981D01*
X014506Y009883D02*
X018400Y009883D01*
X018400Y009784D02*
X014506Y009784D01*
X014506Y009686D02*
X018400Y009686D01*
X018400Y009587D02*
X014506Y009587D01*
X014506Y009489D02*
X018400Y009489D01*
X018400Y009390D02*
X014506Y009390D01*
X014506Y009292D02*
X018400Y009292D01*
X018400Y009193D02*
X014457Y009193D01*
X014359Y009095D02*
X018400Y009095D01*
X018400Y008996D02*
X016914Y008996D01*
X016892Y009019D02*
X016201Y009019D01*
X016136Y008954D01*
X016136Y008263D01*
X016201Y008199D01*
X016892Y008199D01*
X016956Y008263D01*
X016956Y008954D01*
X016892Y009019D01*
X016956Y008898D02*
X018400Y008898D01*
X018400Y008799D02*
X016956Y008799D01*
X016956Y008701D02*
X018400Y008701D01*
X018400Y008602D02*
X016956Y008602D01*
X016956Y008504D02*
X018400Y008504D01*
X018400Y008405D02*
X016956Y008405D01*
X016956Y008307D02*
X018400Y008307D01*
X018400Y008208D02*
X016901Y008208D01*
X016716Y008019D02*
X016376Y008019D01*
X016136Y007778D01*
X016136Y007439D01*
X016376Y007199D01*
X016716Y007199D01*
X016956Y007439D01*
X016956Y007778D01*
X016716Y008019D01*
X016724Y008011D02*
X018400Y008011D01*
X018400Y007913D02*
X016822Y007913D01*
X016921Y007814D02*
X018400Y007814D01*
X018400Y007716D02*
X016956Y007716D01*
X016956Y007617D02*
X018400Y007617D01*
X018400Y007519D02*
X016956Y007519D01*
X016938Y007420D02*
X018400Y007420D01*
X018400Y007322D02*
X016839Y007322D01*
X016741Y007223D02*
X018400Y007223D01*
X018400Y007125D02*
X010294Y007125D01*
X010294Y007223D02*
X016352Y007223D01*
X016253Y007322D02*
X010294Y007322D01*
X010294Y007420D02*
X016155Y007420D01*
X016136Y007519D02*
X010294Y007519D01*
X010294Y007617D02*
X016136Y007617D01*
X016136Y007716D02*
X010294Y007716D01*
X010294Y007814D02*
X016172Y007814D01*
X016270Y007913D02*
X010658Y007913D01*
X010669Y008011D02*
X016369Y008011D01*
X016191Y008208D02*
X013472Y008208D01*
X013374Y008110D02*
X018400Y008110D01*
X018400Y007026D02*
X010294Y007026D01*
X010294Y006928D02*
X018400Y006928D01*
X018400Y006829D02*
X010294Y006829D01*
X010339Y006731D02*
X018400Y006731D01*
X018400Y006632D02*
X010379Y006632D01*
X010376Y006534D02*
X018400Y006534D01*
X018400Y006435D02*
X010326Y006435D01*
X010134Y006590D02*
X010134Y008219D01*
X009819Y008219D02*
X009819Y007547D01*
X009914Y007322D02*
X009974Y007322D01*
X009974Y007223D02*
X009659Y007223D01*
X009659Y007125D02*
X009974Y007125D01*
X009974Y007026D02*
X009659Y007026D01*
X009659Y006928D02*
X009974Y006928D01*
X009974Y006829D02*
X009240Y006829D01*
X009045Y006632D02*
X009043Y006632D01*
X009045Y006534D02*
X008978Y006534D01*
X008978Y006435D02*
X009045Y006435D01*
X009045Y006337D02*
X008978Y006337D01*
X008975Y006238D02*
X009045Y006238D01*
X009192Y006140D02*
X008307Y006140D01*
X008196Y006254D02*
X008425Y006483D01*
X008652Y006483D01*
X008668Y006483D01*
X009352Y007167D01*
X009352Y007613D01*
X009504Y007764D01*
X009504Y008219D01*
X009327Y007814D02*
X008678Y007814D01*
X008580Y007716D02*
X009229Y007716D01*
X009192Y007617D02*
X008481Y007617D01*
X008415Y007500D02*
X008377Y007489D01*
X008343Y007470D01*
X008315Y007442D01*
X008295Y007407D01*
X008285Y007369D01*
X008285Y007201D01*
X008603Y007201D01*
X008603Y007104D01*
X008285Y007104D01*
X008285Y006936D01*
X008295Y006898D01*
X008315Y006864D01*
X008343Y006836D01*
X008377Y006816D01*
X008415Y006806D01*
X008603Y006806D01*
X008603Y007104D01*
X008700Y007104D01*
X008700Y007201D01*
X008603Y007201D01*
X008603Y007500D01*
X008415Y007500D01*
X008383Y007519D02*
X009192Y007519D01*
X009045Y007420D02*
X009001Y007420D01*
X009008Y007407D02*
X008988Y007442D01*
X008960Y007470D01*
X008926Y007489D01*
X008888Y007500D01*
X008700Y007500D01*
X008700Y007201D01*
X009018Y007201D01*
X009018Y007369D01*
X009008Y007407D01*
X009018Y007322D02*
X009045Y007322D01*
X009045Y007223D02*
X009018Y007223D01*
X009045Y007125D02*
X008700Y007125D01*
X008603Y007125D02*
X004289Y007125D01*
X004387Y007223D02*
X008285Y007223D01*
X008285Y007322D02*
X004486Y007322D01*
X004584Y007420D02*
X008303Y007420D01*
X008603Y007420D02*
X008700Y007420D01*
X008700Y007322D02*
X008603Y007322D01*
X008603Y007223D02*
X008700Y007223D01*
X008700Y007026D02*
X008603Y007026D01*
X008603Y006928D02*
X008700Y006928D01*
X008700Y006829D02*
X008603Y006829D01*
X008355Y006829D02*
X003993Y006829D01*
X003956Y006731D02*
X008330Y006731D01*
X008325Y006632D02*
X007971Y006632D01*
X007971Y006534D02*
X008249Y006534D01*
X008150Y006435D02*
X007971Y006435D01*
X008288Y006928D02*
X004092Y006928D01*
X004190Y007026D02*
X008285Y007026D01*
X007397Y006632D02*
X007200Y006632D01*
X007272Y006534D02*
X007397Y006534D01*
X007397Y006435D02*
X007291Y006435D01*
X009352Y006498D02*
X009352Y003439D01*
X008546Y002634D01*
X008546Y002609D01*
X008102Y002791D02*
X007990Y002791D01*
X008026Y002704D02*
X007953Y002880D01*
X007818Y003015D01*
X007642Y003089D01*
X007451Y003089D01*
X007274Y003015D01*
X007139Y002880D01*
X007066Y002704D01*
X007066Y002513D01*
X007139Y002337D01*
X007274Y002202D01*
X007451Y002129D01*
X007642Y002129D01*
X007818Y002202D01*
X007953Y002337D01*
X008026Y002513D01*
X008026Y002704D01*
X008026Y002692D02*
X008066Y002692D01*
X008066Y002594D02*
X008026Y002594D01*
X008019Y002495D02*
X008074Y002495D01*
X008115Y002397D02*
X007978Y002397D01*
X007915Y002298D02*
X008178Y002298D01*
X008279Y002200D02*
X007813Y002200D01*
X007279Y002200D02*
X006813Y002200D01*
X006818Y002202D02*
X006953Y002337D01*
X007026Y002513D01*
X007026Y002704D01*
X006953Y002880D01*
X006818Y003015D01*
X006642Y003089D01*
X006451Y003089D01*
X006274Y003015D01*
X006139Y002880D01*
X006066Y002704D01*
X006066Y002513D01*
X006139Y002337D01*
X006274Y002202D01*
X006451Y002129D01*
X006642Y002129D01*
X006818Y002202D01*
X006915Y002298D02*
X007178Y002298D01*
X007115Y002397D02*
X006978Y002397D01*
X007019Y002495D02*
X007074Y002495D01*
X007066Y002594D02*
X007026Y002594D01*
X007026Y002692D02*
X007066Y002692D01*
X007102Y002791D02*
X006990Y002791D01*
X006945Y002889D02*
X007148Y002889D01*
X007246Y002988D02*
X006846Y002988D01*
X006648Y003086D02*
X007445Y003086D01*
X007648Y003086D02*
X008445Y003086D01*
X008648Y003086D02*
X008772Y003086D01*
X009028Y002889D02*
X011136Y002889D01*
X011136Y002954D02*
X011136Y002263D01*
X011201Y002199D01*
X011892Y002199D01*
X011956Y002263D01*
X011956Y002954D01*
X011892Y003019D01*
X011201Y003019D01*
X011136Y002954D01*
X011170Y002988D02*
X009126Y002988D01*
X009225Y003086D02*
X016648Y003086D01*
X016607Y002988D02*
X014747Y002988D01*
X014716Y003019D02*
X014376Y003019D01*
X014136Y002778D01*
X014136Y002439D01*
X014376Y002199D01*
X014716Y002199D01*
X014956Y002439D01*
X014956Y002778D01*
X014716Y003019D01*
X014846Y002889D02*
X016589Y002889D01*
X016589Y002791D02*
X014944Y002791D01*
X014956Y002692D02*
X016589Y002692D01*
X016606Y002594D02*
X014956Y002594D01*
X014956Y002495D02*
X016647Y002495D01*
X016688Y002397D02*
X014914Y002397D01*
X014816Y002298D02*
X016758Y002298D01*
X016856Y002200D02*
X014717Y002200D01*
X014375Y002200D02*
X013717Y002200D01*
X013716Y002199D02*
X013956Y002439D01*
X013956Y002778D01*
X013716Y003019D01*
X013376Y003019D01*
X013136Y002778D01*
X013136Y002439D01*
X013376Y002199D01*
X013716Y002199D01*
X013816Y002298D02*
X014277Y002298D01*
X014178Y002397D02*
X013914Y002397D01*
X013956Y002495D02*
X014136Y002495D01*
X014136Y002594D02*
X013956Y002594D01*
X013956Y002692D02*
X014136Y002692D01*
X014148Y002791D02*
X013944Y002791D01*
X013846Y002889D02*
X014247Y002889D01*
X014345Y002988D02*
X013747Y002988D01*
X013801Y003283D02*
X014292Y003283D01*
X014193Y003382D02*
X013899Y003382D01*
X013956Y003776D02*
X014136Y003776D01*
X014232Y003874D02*
X013861Y003874D01*
X013762Y003973D02*
X014330Y003973D01*
X014546Y003609D02*
X013546Y003609D01*
X012546Y003609D01*
X011546Y003609D01*
X011956Y003776D02*
X012136Y003776D01*
X012232Y003874D02*
X011956Y003874D01*
X011938Y003973D02*
X012330Y003973D01*
X012376Y004199D02*
X012716Y004199D01*
X012956Y004439D01*
X012956Y004449D01*
X013136Y004449D01*
X013136Y004439D01*
X013376Y004199D01*
X013716Y004199D01*
X013956Y004439D01*
X013956Y004449D01*
X014136Y004449D01*
X014136Y004439D01*
X014376Y004199D01*
X014716Y004199D01*
X014956Y004439D01*
X014956Y004449D01*
X016126Y004449D01*
X016220Y004542D01*
X016372Y004694D01*
X016372Y004719D01*
X016474Y004719D01*
X016538Y004783D01*
X016538Y005268D01*
X016474Y005333D01*
X015950Y005333D01*
X015885Y005268D01*
X015885Y004783D01*
X015900Y004769D01*
X014956Y004769D01*
X014956Y004778D01*
X014716Y005019D01*
X014376Y005019D01*
X014136Y004778D01*
X014136Y004769D01*
X013956Y004769D01*
X013956Y004778D01*
X013716Y005019D01*
X013376Y005019D01*
X013136Y004778D01*
X013136Y004769D01*
X012956Y004769D01*
X012956Y004778D01*
X012716Y005019D01*
X012376Y005019D01*
X012136Y004778D01*
X012136Y004769D01*
X011956Y004769D01*
X011956Y004954D01*
X011892Y005019D01*
X011201Y005019D01*
X011136Y004954D01*
X011136Y004263D01*
X011201Y004199D01*
X011892Y004199D01*
X011956Y004263D01*
X011956Y004449D01*
X012136Y004449D01*
X012136Y004439D01*
X012376Y004199D01*
X012307Y004268D02*
X011956Y004268D01*
X011956Y004367D02*
X012208Y004367D01*
X012546Y004609D02*
X011546Y004609D01*
X011136Y004564D02*
X009512Y004564D01*
X009512Y004662D02*
X011136Y004662D01*
X011136Y004761D02*
X009512Y004761D01*
X009512Y004859D02*
X011136Y004859D01*
X011140Y004958D02*
X009512Y004958D01*
X009512Y005056D02*
X015885Y005056D01*
X015885Y004958D02*
X014777Y004958D01*
X014876Y004859D02*
X015885Y004859D01*
X015885Y005155D02*
X009512Y005155D01*
X009512Y005253D02*
X011106Y005253D01*
X011106Y005251D02*
X011126Y005216D01*
X011154Y005189D01*
X011188Y005169D01*
X011227Y005159D01*
X011496Y005159D01*
X011496Y005559D01*
X011096Y005559D01*
X011096Y005289D01*
X011106Y005251D01*
X011096Y005352D02*
X009512Y005352D01*
X009512Y005450D02*
X011096Y005450D01*
X011096Y005549D02*
X009512Y005549D01*
X009512Y005647D02*
X011496Y005647D01*
X011496Y005659D02*
X011496Y005559D01*
X011596Y005559D01*
X011596Y005659D01*
X011496Y005659D01*
X011496Y006059D01*
X011227Y006059D01*
X011188Y006048D01*
X011154Y006029D01*
X011126Y006001D01*
X011106Y005966D01*
X011096Y005928D01*
X011096Y005659D01*
X011496Y005659D01*
X011496Y005746D02*
X011596Y005746D01*
X011596Y005659D02*
X011596Y006059D01*
X011866Y006059D01*
X011904Y006048D01*
X011938Y006029D01*
X011966Y006001D01*
X011986Y005966D01*
X011996Y005928D01*
X011996Y005659D01*
X011596Y005659D01*
X011596Y005647D02*
X012496Y005647D01*
X012496Y005659D02*
X012496Y005559D01*
X012096Y005559D01*
X012096Y005422D01*
X012360Y005159D01*
X012496Y005159D01*
X012496Y005559D01*
X012596Y005559D01*
X012596Y005659D01*
X012496Y005659D01*
X012496Y006059D01*
X012360Y006059D01*
X012096Y005795D01*
X012096Y005659D01*
X012496Y005659D01*
X012496Y005746D02*
X012596Y005746D01*
X012596Y005659D02*
X012596Y006059D01*
X012733Y006059D01*
X012996Y005795D01*
X012996Y005659D01*
X012596Y005659D01*
X012596Y005647D02*
X013496Y005647D01*
X013496Y005659D02*
X013496Y005559D01*
X013096Y005559D01*
X013096Y005422D01*
X013360Y005159D01*
X013496Y005159D01*
X013496Y005559D01*
X013596Y005559D01*
X013596Y005659D01*
X013496Y005659D01*
X013496Y006059D01*
X013360Y006059D01*
X013096Y005795D01*
X013096Y005659D01*
X013496Y005659D01*
X013496Y005746D02*
X013596Y005746D01*
X013596Y005659D02*
X013596Y006059D01*
X013733Y006059D01*
X013996Y005795D01*
X013996Y005659D01*
X013596Y005659D01*
X013596Y005647D02*
X014496Y005647D01*
X014496Y005659D02*
X014496Y005559D01*
X014096Y005559D01*
X014096Y005422D01*
X014360Y005159D01*
X014496Y005159D01*
X014496Y005559D01*
X014596Y005559D01*
X014596Y005659D01*
X014496Y005659D01*
X014496Y006059D01*
X014360Y006059D01*
X014096Y005795D01*
X014096Y005659D01*
X014496Y005659D01*
X014496Y005746D02*
X014596Y005746D01*
X014596Y005659D02*
X014596Y006059D01*
X014733Y006059D01*
X014996Y005795D01*
X014996Y005659D01*
X014596Y005659D01*
X014596Y005647D02*
X016163Y005647D01*
X015845Y005647D01*
X015845Y005479D01*
X015855Y005440D01*
X015875Y005406D01*
X015903Y005378D01*
X015937Y005359D01*
X015975Y005348D01*
X016163Y005348D01*
X016163Y005647D01*
X016163Y005744D01*
X016163Y006042D01*
X015975Y006042D01*
X015937Y006032D01*
X015903Y006012D01*
X015875Y005984D01*
X015855Y005950D01*
X015845Y005912D01*
X015845Y005744D01*
X016163Y005744D01*
X016260Y005744D01*
X016260Y006042D01*
X016448Y006042D01*
X016486Y006032D01*
X016520Y006012D01*
X016544Y005988D01*
X016568Y006012D01*
X016603Y006032D01*
X016641Y006042D01*
X016829Y006042D01*
X016829Y005744D01*
X016925Y005744D01*
X016925Y006042D01*
X017113Y006042D01*
X017151Y006032D01*
X017186Y006012D01*
X017214Y005984D01*
X017233Y005950D01*
X017244Y005912D01*
X017244Y005744D01*
X016925Y005744D01*
X016925Y005647D01*
X016925Y005348D01*
X016925Y005352D02*
X016829Y005352D01*
X016829Y005348D02*
X016829Y005647D01*
X016260Y005647D01*
X016260Y005744D01*
X016829Y005744D01*
X016829Y005647D01*
X016925Y005647D01*
X016829Y005647D02*
X016578Y005647D01*
X016260Y005647D01*
X016260Y005348D01*
X016448Y005348D01*
X016486Y005359D01*
X016520Y005378D01*
X016544Y005402D01*
X016568Y005378D01*
X016603Y005359D01*
X016641Y005348D01*
X016829Y005348D01*
X016829Y005450D02*
X016925Y005450D01*
X016925Y005549D02*
X016829Y005549D01*
X016829Y005746D02*
X016925Y005746D01*
X016925Y005844D02*
X016829Y005844D01*
X016829Y005943D02*
X016925Y005943D01*
X016925Y006041D02*
X016829Y006041D01*
X016637Y006041D02*
X016451Y006041D01*
X016260Y006041D02*
X016163Y006041D01*
X016163Y005943D02*
X016260Y005943D01*
X016260Y005844D02*
X016163Y005844D01*
X016163Y005746D02*
X016260Y005746D01*
X016260Y005647D02*
X016163Y005647D01*
X016163Y005549D02*
X016260Y005549D01*
X016260Y005450D02*
X016163Y005450D01*
X016163Y005352D02*
X016260Y005352D01*
X015963Y005352D02*
X014926Y005352D01*
X014996Y005422D02*
X014733Y005159D01*
X014596Y005159D01*
X014596Y005559D01*
X014996Y005559D01*
X014996Y005422D01*
X014996Y005450D02*
X015853Y005450D01*
X015845Y005549D02*
X014996Y005549D01*
X014996Y005746D02*
X015845Y005746D01*
X015845Y005844D02*
X014947Y005844D01*
X014849Y005943D02*
X015853Y005943D01*
X015972Y006041D02*
X014750Y006041D01*
X014596Y006041D02*
X014496Y006041D01*
X014496Y005943D02*
X014596Y005943D01*
X014596Y005844D02*
X014496Y005844D01*
X014342Y006041D02*
X013750Y006041D01*
X013849Y005943D02*
X014244Y005943D01*
X014145Y005844D02*
X013947Y005844D01*
X013996Y005746D02*
X014096Y005746D01*
X014096Y005549D02*
X013996Y005549D01*
X013996Y005559D02*
X013596Y005559D01*
X013596Y005159D01*
X013733Y005159D01*
X013996Y005422D01*
X013996Y005559D01*
X013996Y005450D02*
X014096Y005450D01*
X014167Y005352D02*
X013926Y005352D01*
X013827Y005253D02*
X014265Y005253D01*
X014496Y005253D02*
X014596Y005253D01*
X014596Y005352D02*
X014496Y005352D01*
X014496Y005450D02*
X014596Y005450D01*
X014596Y005549D02*
X014496Y005549D01*
X014827Y005253D02*
X015885Y005253D01*
X016212Y005026D02*
X016212Y004761D01*
X016060Y004609D01*
X014546Y004609D01*
X013546Y004609D01*
X012546Y004609D01*
X012876Y004859D02*
X013217Y004859D01*
X013315Y004958D02*
X012777Y004958D01*
X012733Y005159D02*
X012596Y005159D01*
X012596Y005559D01*
X012996Y005559D01*
X012996Y005422D01*
X012733Y005159D01*
X012827Y005253D02*
X013265Y005253D01*
X013167Y005352D02*
X012926Y005352D01*
X012996Y005450D02*
X013096Y005450D01*
X013096Y005549D02*
X012996Y005549D01*
X012996Y005746D02*
X013096Y005746D01*
X013145Y005844D02*
X012947Y005844D01*
X012849Y005943D02*
X013244Y005943D01*
X013342Y006041D02*
X012750Y006041D01*
X012596Y006041D02*
X012496Y006041D01*
X012496Y005943D02*
X012596Y005943D01*
X012596Y005844D02*
X012496Y005844D01*
X012342Y006041D02*
X011917Y006041D01*
X011992Y005943D02*
X012244Y005943D01*
X012145Y005844D02*
X011996Y005844D01*
X011996Y005746D02*
X012096Y005746D01*
X012096Y005549D02*
X011996Y005549D01*
X011996Y005559D02*
X011596Y005559D01*
X011596Y005159D01*
X011866Y005159D01*
X011904Y005169D01*
X011938Y005189D01*
X011966Y005216D01*
X011986Y005251D01*
X011996Y005289D01*
X011996Y005559D01*
X011996Y005450D02*
X012096Y005450D01*
X012167Y005352D02*
X011996Y005352D01*
X011987Y005253D02*
X012265Y005253D01*
X012496Y005253D02*
X012596Y005253D01*
X012596Y005352D02*
X012496Y005352D01*
X012496Y005450D02*
X012596Y005450D01*
X012596Y005549D02*
X012496Y005549D01*
X012315Y004958D02*
X011953Y004958D01*
X011956Y004859D02*
X012217Y004859D01*
X011596Y005253D02*
X011496Y005253D01*
X011496Y005352D02*
X011596Y005352D01*
X011596Y005450D02*
X011496Y005450D01*
X011496Y005549D02*
X011596Y005549D01*
X011596Y005844D02*
X011496Y005844D01*
X011496Y005943D02*
X011596Y005943D01*
X011596Y006041D02*
X011496Y006041D01*
X011176Y006041D02*
X009512Y006041D01*
X009512Y005943D02*
X011100Y005943D01*
X011096Y005844D02*
X009512Y005844D01*
X009512Y005746D02*
X011096Y005746D01*
X011136Y004465D02*
X009512Y004465D01*
X009512Y004367D02*
X011136Y004367D01*
X011136Y004268D02*
X009512Y004268D01*
X009512Y004170D02*
X016081Y004170D01*
X016179Y004268D02*
X014786Y004268D01*
X014884Y004367D02*
X016278Y004367D01*
X016376Y004465D02*
X016142Y004465D01*
X016241Y004564D02*
X016475Y004564D01*
X016573Y004662D02*
X016339Y004662D01*
X016515Y004761D02*
X016573Y004761D01*
X016550Y004859D02*
X016538Y004859D01*
X016538Y004958D02*
X016550Y004958D01*
X016538Y005056D02*
X016550Y005056D01*
X016538Y005155D02*
X016550Y005155D01*
X016538Y005253D02*
X016550Y005253D01*
X016629Y005352D02*
X016460Y005352D01*
X017244Y005746D02*
X018400Y005746D01*
X018400Y005844D02*
X017244Y005844D01*
X017235Y005943D02*
X018400Y005943D01*
X018400Y006041D02*
X017117Y006041D01*
X018400Y006140D02*
X009512Y006140D01*
X009659Y006238D02*
X018400Y006238D01*
X018400Y006337D02*
X009659Y006337D01*
X009659Y006435D02*
X009942Y006435D01*
X009892Y006534D02*
X009659Y006534D01*
X009659Y006632D02*
X009889Y006632D01*
X009928Y006731D02*
X009659Y006731D01*
X009659Y007322D02*
X009723Y007322D01*
X007656Y009121D02*
X004034Y009121D01*
X003546Y009609D01*
X003240Y009883D02*
X002909Y009883D01*
X002996Y009795D02*
X002733Y010059D01*
X002596Y010059D01*
X002596Y009659D01*
X002496Y009659D01*
X002496Y010059D01*
X002360Y010059D01*
X002096Y009795D01*
X002096Y009659D01*
X002496Y009659D01*
X002496Y009559D01*
X002096Y009559D01*
X002096Y009422D01*
X002360Y009159D01*
X002496Y009159D01*
X002496Y009559D01*
X002596Y009559D01*
X002596Y009659D01*
X002996Y009659D01*
X002996Y009795D01*
X002996Y009784D02*
X003142Y009784D01*
X003136Y009686D02*
X002996Y009686D01*
X002996Y009559D02*
X002596Y009559D01*
X002596Y009159D01*
X002733Y009159D01*
X002996Y009422D01*
X002996Y009559D01*
X002996Y009489D02*
X003136Y009489D01*
X003136Y009587D02*
X002596Y009587D01*
X002596Y009489D02*
X002496Y009489D01*
X002496Y009587D02*
X001956Y009587D01*
X001956Y009489D02*
X002096Y009489D01*
X002128Y009390D02*
X001908Y009390D01*
X001956Y009439D02*
X001716Y009199D01*
X001376Y009199D01*
X001136Y009439D01*
X001136Y009778D01*
X001376Y010019D01*
X001716Y010019D01*
X001956Y009778D01*
X001956Y009439D01*
X001809Y009292D02*
X002227Y009292D01*
X002325Y009193D02*
X000590Y009193D01*
X000590Y009095D02*
X003834Y009095D01*
X003739Y008996D02*
X003932Y008996D01*
X004090Y009292D02*
X004637Y009292D01*
X004538Y009390D02*
X003991Y009390D01*
X003956Y009489D02*
X004440Y009489D01*
X004341Y009587D02*
X003956Y009587D01*
X003956Y009686D02*
X004243Y009686D01*
X004144Y009784D02*
X003951Y009784D01*
X004046Y009883D02*
X003852Y009883D01*
X003947Y009981D02*
X003754Y009981D01*
X003849Y010080D02*
X000590Y010080D01*
X000590Y010178D02*
X002340Y010178D01*
X002360Y010159D02*
X002496Y010159D01*
X002496Y010559D01*
X002096Y010559D01*
X002096Y010422D01*
X002360Y010159D01*
X002496Y010178D02*
X002596Y010178D01*
X002596Y010159D02*
X002733Y010159D01*
X002996Y010422D01*
X002996Y010559D01*
X002596Y010559D01*
X002596Y010659D01*
X002496Y010659D01*
X002496Y010559D01*
X002596Y010559D01*
X002596Y010159D01*
X002596Y010277D02*
X002496Y010277D01*
X002496Y010375D02*
X002596Y010375D01*
X002596Y010474D02*
X002496Y010474D01*
X002496Y010572D02*
X001956Y010572D01*
X001956Y010474D02*
X002096Y010474D01*
X002143Y010375D02*
X001893Y010375D01*
X001794Y010277D02*
X002242Y010277D01*
X002282Y009981D02*
X001754Y009981D01*
X001852Y009883D02*
X002184Y009883D01*
X002096Y009784D02*
X001951Y009784D01*
X001956Y009686D02*
X002096Y009686D01*
X002496Y009686D02*
X002596Y009686D01*
X002596Y009784D02*
X002496Y009784D01*
X002496Y009883D02*
X002596Y009883D01*
X002596Y009981D02*
X002496Y009981D01*
X002752Y010178D02*
X003750Y010178D01*
X003546Y010609D02*
X004719Y009436D01*
X007656Y009436D01*
X008016Y009489D02*
X008037Y009489D01*
X008056Y009981D02*
X010334Y009981D01*
X010301Y010080D02*
X008056Y010080D01*
X008056Y010178D02*
X010310Y010178D01*
X010368Y010277D02*
X008018Y010277D01*
X008016Y010375D02*
X010636Y010375D01*
X010636Y010474D02*
X008016Y010474D01*
X008056Y010572D02*
X010660Y010572D01*
X010676Y010671D02*
X008056Y010671D01*
X008056Y010769D02*
X010676Y010769D01*
X010676Y010868D02*
X008044Y010868D01*
X008016Y010966D02*
X010676Y010966D01*
X010676Y011065D02*
X008016Y011065D01*
X008016Y011163D02*
X010676Y011163D01*
X010627Y011262D02*
X012052Y011262D01*
X012150Y011360D02*
X010669Y011360D01*
X010669Y011459D02*
X012249Y011459D01*
X012349Y011333D02*
X012861Y011333D01*
X012349Y011333D02*
X012027Y011011D01*
X011036Y011011D01*
X011036Y010696D02*
X012022Y010696D01*
X012330Y010388D01*
X012861Y010388D01*
X012861Y010861D02*
X012310Y010861D01*
X011824Y010163D02*
X011787Y010126D01*
X012134Y009390D02*
X013002Y009390D01*
X012903Y009292D02*
X012134Y009292D01*
X013060Y008996D02*
X013208Y008996D01*
X013159Y009095D02*
X013306Y009095D01*
X013257Y009193D02*
X013405Y009193D01*
X013356Y009292D02*
X013503Y009292D01*
X013454Y009390D02*
X013602Y009390D01*
X013553Y009489D02*
X013700Y009489D01*
X013786Y009587D02*
X013606Y009587D01*
X013606Y009686D02*
X013786Y009686D01*
X013786Y009784D02*
X013606Y009784D01*
X013606Y009883D02*
X013786Y009883D01*
X013786Y009981D02*
X013606Y009981D01*
X013606Y010080D02*
X013786Y010080D01*
X013786Y010178D02*
X013606Y010178D01*
X013606Y010277D02*
X013786Y010277D01*
X013786Y010375D02*
X013606Y010375D01*
X013606Y010474D02*
X013786Y010474D01*
X013786Y010572D02*
X013606Y010572D01*
X013606Y010671D02*
X013786Y010671D01*
X013786Y010769D02*
X013606Y010769D01*
X013606Y010868D02*
X013786Y010868D01*
X013786Y010966D02*
X013606Y010966D01*
X013606Y011065D02*
X013786Y011065D01*
X013786Y011163D02*
X013606Y011163D01*
X013606Y011262D02*
X013786Y011262D01*
X013786Y011360D02*
X013606Y011360D01*
X013606Y011459D02*
X013786Y011459D01*
X013786Y011557D02*
X013606Y011557D01*
X013606Y011656D02*
X013786Y011656D01*
X013786Y011754D02*
X013606Y011754D01*
X013606Y011853D02*
X013786Y011853D01*
X013786Y011951D02*
X013606Y011951D01*
X013606Y012050D02*
X013786Y012050D01*
X013786Y012148D02*
X013606Y012148D01*
X013606Y012247D02*
X013786Y012247D01*
X013786Y012345D02*
X013606Y012345D01*
X013606Y012444D02*
X013786Y012444D01*
X013786Y012542D02*
X013606Y012542D01*
X013606Y012641D02*
X013786Y012641D01*
X013786Y012739D02*
X013606Y012739D01*
X013606Y012838D02*
X013786Y012838D01*
X013786Y012936D02*
X013606Y012936D01*
X013606Y013035D02*
X013786Y013035D01*
X013786Y013133D02*
X013606Y013133D01*
X013606Y013232D02*
X013786Y013232D01*
X013786Y013330D02*
X013606Y013330D01*
X013606Y013429D02*
X013786Y013429D01*
X013786Y013527D02*
X013606Y013527D01*
X013606Y013626D02*
X013786Y013626D01*
X013786Y013724D02*
X013606Y013724D01*
X013606Y013823D02*
X013786Y013823D01*
X013786Y013921D02*
X013606Y013921D01*
X013606Y014020D02*
X013786Y014020D01*
X013786Y014118D02*
X013606Y014118D01*
X013606Y014217D02*
X013786Y014217D01*
X013786Y014315D02*
X013606Y014315D01*
X013606Y014414D02*
X013786Y014414D01*
X013786Y014512D02*
X013606Y014512D01*
X013606Y014611D02*
X013786Y014611D01*
X013786Y014709D02*
X013606Y014709D01*
X013573Y014808D02*
X013786Y014808D01*
X013786Y014906D02*
X013475Y014906D01*
X013376Y015005D02*
X013786Y015005D01*
X013786Y015103D02*
X013278Y015103D01*
X014506Y012542D02*
X016096Y012542D01*
X016096Y012444D02*
X014506Y012444D01*
X014506Y012345D02*
X016173Y012345D01*
X016272Y012247D02*
X014506Y012247D01*
X014506Y011557D02*
X016096Y011557D01*
X016096Y011459D02*
X014506Y011459D01*
X014506Y011360D02*
X016158Y011360D01*
X016257Y011262D02*
X014506Y011262D01*
X014506Y010769D02*
X016096Y010769D01*
X016096Y010671D02*
X014506Y010671D01*
X014260Y008996D02*
X016178Y008996D01*
X016136Y008898D02*
X014162Y008898D01*
X014063Y008799D02*
X016136Y008799D01*
X016136Y008701D02*
X013965Y008701D01*
X013866Y008602D02*
X016136Y008602D01*
X016136Y008504D02*
X013768Y008504D01*
X013669Y008405D02*
X016136Y008405D01*
X016136Y008307D02*
X013571Y008307D01*
X013596Y006041D02*
X013496Y006041D01*
X013496Y005943D02*
X013596Y005943D01*
X013596Y005844D02*
X013496Y005844D01*
X013496Y005549D02*
X013596Y005549D01*
X013596Y005450D02*
X013496Y005450D01*
X013496Y005352D02*
X013596Y005352D01*
X013596Y005253D02*
X013496Y005253D01*
X013777Y004958D02*
X014315Y004958D01*
X014217Y004859D02*
X013876Y004859D01*
X013884Y004367D02*
X014208Y004367D01*
X014307Y004268D02*
X013786Y004268D01*
X013307Y004268D02*
X012786Y004268D01*
X012884Y004367D02*
X013208Y004367D01*
X013330Y003973D02*
X012762Y003973D01*
X012861Y003874D02*
X013232Y003874D01*
X013136Y003776D02*
X012956Y003776D01*
X012899Y003382D02*
X013193Y003382D01*
X013292Y003283D02*
X012801Y003283D01*
X012716Y003019D02*
X012376Y003019D01*
X012136Y002778D01*
X012136Y002439D01*
X012376Y002199D01*
X012716Y002199D01*
X012956Y002439D01*
X012956Y002778D01*
X012716Y003019D01*
X012747Y002988D02*
X013345Y002988D01*
X013247Y002889D02*
X012846Y002889D01*
X012944Y002791D02*
X013148Y002791D01*
X013136Y002692D02*
X012956Y002692D01*
X012956Y002594D02*
X013136Y002594D01*
X013136Y002495D02*
X012956Y002495D01*
X012914Y002397D02*
X013178Y002397D01*
X013277Y002298D02*
X012816Y002298D01*
X012717Y002200D02*
X013375Y002200D01*
X012375Y002200D02*
X011893Y002200D01*
X011956Y002298D02*
X012277Y002298D01*
X012178Y002397D02*
X011956Y002397D01*
X011956Y002495D02*
X012136Y002495D01*
X012136Y002594D02*
X011956Y002594D01*
X011956Y002692D02*
X012136Y002692D01*
X012148Y002791D02*
X011956Y002791D01*
X011956Y002889D02*
X012247Y002889D01*
X012345Y002988D02*
X011923Y002988D01*
X011956Y003283D02*
X012292Y003283D01*
X012193Y003382D02*
X011956Y003382D01*
X011136Y002791D02*
X008990Y002791D01*
X009026Y002692D02*
X011136Y002692D01*
X011136Y002594D02*
X009026Y002594D01*
X009019Y002495D02*
X011136Y002495D01*
X011136Y002397D02*
X008978Y002397D01*
X008915Y002298D02*
X011136Y002298D01*
X011200Y002200D02*
X008813Y002200D01*
X008148Y002889D02*
X007945Y002889D01*
X007846Y002988D02*
X008246Y002988D01*
X006445Y003086D02*
X005648Y003086D01*
X005642Y003089D02*
X005451Y003089D01*
X005274Y003015D01*
X005139Y002880D01*
X005066Y002704D01*
X005066Y002513D01*
X005139Y002337D01*
X005274Y002202D01*
X005451Y002129D01*
X005642Y002129D01*
X005818Y002202D01*
X005953Y002337D01*
X006026Y002513D01*
X006026Y002704D01*
X005953Y002880D01*
X005818Y003015D01*
X005642Y003089D01*
X005445Y003086D02*
X004648Y003086D01*
X004642Y003089D02*
X004451Y003089D01*
X004274Y003015D01*
X004139Y002880D01*
X004066Y002704D01*
X004066Y002513D01*
X004139Y002337D01*
X004274Y002202D01*
X004451Y002129D01*
X004642Y002129D01*
X004818Y002202D01*
X004953Y002337D01*
X005026Y002513D01*
X005026Y002704D01*
X004953Y002880D01*
X004818Y003015D01*
X004642Y003089D01*
X004445Y003086D02*
X003648Y003086D01*
X003846Y002988D02*
X004246Y002988D01*
X004148Y002889D02*
X003945Y002889D01*
X003990Y002791D02*
X004102Y002791D01*
X004066Y002692D02*
X004026Y002692D01*
X004026Y002594D02*
X004066Y002594D01*
X004074Y002495D02*
X004019Y002495D01*
X003978Y002397D02*
X004115Y002397D01*
X004178Y002298D02*
X003915Y002298D01*
X003813Y002200D02*
X004279Y002200D01*
X004813Y002200D02*
X005279Y002200D01*
X005178Y002298D02*
X004915Y002298D01*
X004978Y002397D02*
X005115Y002397D01*
X005074Y002495D02*
X005019Y002495D01*
X005026Y002594D02*
X005066Y002594D01*
X005066Y002692D02*
X005026Y002692D01*
X004990Y002791D02*
X005102Y002791D01*
X005148Y002889D02*
X004945Y002889D01*
X004846Y002988D02*
X005246Y002988D01*
X005846Y002988D02*
X006246Y002988D01*
X006148Y002889D02*
X005945Y002889D01*
X005990Y002791D02*
X006102Y002791D01*
X006066Y002692D02*
X006026Y002692D01*
X006026Y002594D02*
X006066Y002594D01*
X006074Y002495D02*
X006019Y002495D01*
X005978Y002397D02*
X006115Y002397D01*
X006178Y002298D02*
X005915Y002298D01*
X005813Y002200D02*
X006279Y002200D01*
X002596Y006238D02*
X002496Y006238D01*
X002496Y006337D02*
X002596Y006337D01*
X002596Y006435D02*
X002496Y006435D01*
X002996Y007716D02*
X003136Y007716D01*
X003172Y007814D02*
X002977Y007814D01*
X002881Y008307D02*
X003268Y008307D01*
X003170Y008405D02*
X002979Y008405D01*
X002996Y008504D02*
X003136Y008504D01*
X002596Y008405D02*
X002496Y008405D01*
X002496Y008307D02*
X002596Y008307D01*
X002596Y008208D02*
X002496Y008208D01*
X002496Y008701D02*
X002596Y008701D01*
X002596Y008799D02*
X002496Y008799D01*
X002496Y008898D02*
X002596Y008898D01*
X002596Y008996D02*
X002496Y008996D01*
X002496Y009193D02*
X002596Y009193D01*
X002596Y009292D02*
X002496Y009292D01*
X002496Y009390D02*
X002596Y009390D01*
X002767Y009193D02*
X003735Y009193D01*
X003283Y009292D02*
X002866Y009292D01*
X002964Y009390D02*
X003185Y009390D01*
X003339Y009981D02*
X002810Y009981D01*
X002851Y010277D02*
X003298Y010277D01*
X003200Y010375D02*
X002949Y010375D01*
X002996Y010474D02*
X003136Y010474D01*
X003136Y010572D02*
X002596Y010572D01*
X002596Y010659D02*
X002996Y010659D01*
X002996Y010795D01*
X002733Y011059D01*
X002596Y011059D01*
X002596Y010659D01*
X002596Y010671D02*
X002496Y010671D01*
X002496Y010769D02*
X002596Y010769D01*
X002596Y010868D02*
X002496Y010868D01*
X002496Y010966D02*
X002596Y010966D01*
X002596Y011159D02*
X002733Y011159D01*
X002996Y011422D01*
X002996Y011559D01*
X002596Y011559D01*
X002596Y011159D01*
X002596Y011163D02*
X002496Y011163D01*
X002496Y011262D02*
X002596Y011262D01*
X002596Y011360D02*
X002496Y011360D01*
X002496Y011459D02*
X002596Y011459D01*
X002596Y011557D02*
X002496Y011557D01*
X002836Y011262D02*
X003313Y011262D01*
X003215Y011360D02*
X002934Y011360D01*
X002996Y011459D02*
X003136Y011459D01*
X003136Y011557D02*
X002996Y011557D01*
X002737Y011163D02*
X003765Y011163D01*
X004021Y011360D02*
X005020Y011360D01*
X005118Y011262D02*
X004120Y011262D01*
X004218Y011163D02*
X005217Y011163D01*
X005315Y011065D02*
X004317Y011065D01*
X004415Y010966D02*
X005414Y010966D01*
X005512Y010868D02*
X004514Y010868D01*
X004612Y010769D02*
X006547Y010769D01*
X006499Y010671D02*
X004711Y010671D01*
X004809Y010572D02*
X006499Y010572D01*
X006499Y010375D02*
X005006Y010375D01*
X005105Y010277D02*
X006499Y010277D01*
X006798Y010474D02*
X004908Y010474D01*
X005046Y010109D02*
X003546Y011609D01*
X003882Y011853D02*
X004527Y011853D01*
X004429Y011951D02*
X003784Y011951D01*
X003956Y011754D02*
X004626Y011754D01*
X004724Y011656D02*
X003956Y011656D01*
X003956Y011557D02*
X004823Y011557D01*
X004921Y011459D02*
X003956Y011459D01*
X003324Y010966D02*
X002825Y010966D01*
X002924Y010868D02*
X003225Y010868D01*
X003136Y010769D02*
X002996Y010769D01*
X002996Y010671D02*
X003136Y010671D01*
X002169Y010868D02*
X001867Y010868D01*
X001956Y010769D02*
X002096Y010769D01*
X002096Y010671D02*
X001956Y010671D01*
X001324Y010966D02*
X000590Y010966D01*
X000590Y010868D02*
X001225Y010868D01*
X001136Y010769D02*
X000590Y010769D01*
X000590Y010671D02*
X001136Y010671D01*
X001136Y010572D02*
X000590Y010572D01*
X000590Y010474D02*
X001136Y010474D01*
X001200Y010375D02*
X000590Y010375D01*
X000590Y010277D02*
X001298Y010277D01*
X001339Y009981D02*
X000590Y009981D01*
X000590Y009883D02*
X001240Y009883D01*
X001142Y009784D02*
X000590Y009784D01*
X000590Y009686D02*
X001136Y009686D01*
X001136Y009587D02*
X000590Y009587D01*
X000590Y009489D02*
X001136Y009489D01*
X001185Y009390D02*
X000590Y009390D01*
X000590Y009292D02*
X001283Y009292D01*
X001354Y008996D02*
X000590Y008996D01*
X000590Y008898D02*
X001255Y008898D01*
X001157Y008799D02*
X000590Y008799D01*
X000590Y008701D02*
X001136Y008701D01*
X001136Y008602D02*
X000590Y008602D01*
X000590Y008504D02*
X001136Y008504D01*
X001170Y008405D02*
X000590Y008405D01*
X000590Y008307D02*
X001268Y008307D01*
X001837Y008898D02*
X002199Y008898D01*
X002297Y008996D02*
X001739Y008996D01*
X001936Y008799D02*
X002100Y008799D01*
X002096Y008701D02*
X001956Y008701D01*
X001313Y011262D02*
X000590Y011262D01*
X000590Y011360D02*
X001215Y011360D01*
X001136Y011459D02*
X000590Y011459D01*
X000590Y011557D02*
X001136Y011557D01*
X001136Y011656D02*
X000590Y011656D01*
X000590Y011754D02*
X001136Y011754D01*
X001210Y011853D02*
X000590Y011853D01*
X000590Y011951D02*
X001309Y011951D01*
X000590Y012247D02*
X004133Y012247D01*
X004035Y012345D02*
X000590Y012345D01*
X002481Y012936D02*
X007192Y012936D01*
X007291Y012838D02*
X002580Y012838D01*
X002792Y013232D02*
X003244Y013232D01*
X003146Y013330D02*
X002890Y013330D01*
X002986Y013429D02*
X003066Y013429D01*
X003066Y013527D02*
X002986Y013527D01*
X002546Y013609D02*
X003046Y014109D01*
X003046Y015009D01*
X003633Y016679D02*
X004247Y016679D01*
X004149Y016778D02*
X003731Y016778D01*
X003830Y016876D02*
X004050Y016876D01*
X004000Y016975D02*
X003880Y016975D01*
X003880Y017073D02*
X004000Y017073D01*
X004000Y017172D02*
X003880Y017172D01*
X003880Y017270D02*
X004000Y017270D01*
X004078Y017369D02*
X003802Y017369D01*
X003704Y017467D02*
X004176Y017467D01*
X006773Y018255D02*
X007320Y018255D01*
X007221Y018354D02*
X006871Y018354D01*
X006956Y018452D02*
X007136Y018452D01*
X007136Y018551D02*
X006956Y018551D01*
X006956Y018649D02*
X007136Y018649D01*
X007136Y018748D02*
X006956Y018748D01*
X006889Y018846D02*
X007204Y018846D01*
X007302Y018945D02*
X006790Y018945D01*
X009487Y015694D02*
X009974Y015694D01*
X009974Y015596D02*
X009585Y015596D01*
X009684Y015497D02*
X009974Y015497D01*
X009974Y015399D02*
X009782Y015399D01*
X009881Y015300D02*
X009974Y015300D01*
X009504Y014551D02*
X009504Y011599D01*
X008081Y011951D02*
X004966Y011951D01*
X004868Y012050D02*
X008079Y012050D01*
X007980Y012148D02*
X004769Y012148D01*
X004671Y012247D02*
X007882Y012247D01*
X007783Y012345D02*
X004572Y012345D01*
X004474Y012444D02*
X007685Y012444D01*
X007586Y012542D02*
X004375Y012542D01*
X004277Y012641D02*
X007488Y012641D01*
X007389Y012739D02*
X004178Y012739D01*
X005065Y011853D02*
X008024Y011853D01*
X008024Y011754D02*
X005163Y011754D01*
X005262Y011656D02*
X008024Y011656D01*
X008024Y011557D02*
X005360Y011557D01*
X005459Y011459D02*
X008024Y011459D01*
X008024Y011360D02*
X005557Y011360D01*
X005656Y011262D02*
X008065Y011262D01*
X007656Y010381D02*
X007419Y010381D01*
X007146Y010109D01*
X005046Y010109D01*
X006798Y010572D02*
X006895Y010572D01*
X006895Y010492D02*
X006895Y010810D01*
X007063Y010810D01*
X007101Y010800D01*
X007135Y010780D01*
X007163Y010752D01*
X007183Y010718D01*
X007193Y010679D01*
X007193Y010492D01*
X006895Y010492D01*
X006895Y010474D02*
X007285Y010474D01*
X007256Y010572D02*
X007193Y010572D01*
X007193Y010671D02*
X007256Y010671D01*
X007256Y010769D02*
X007146Y010769D01*
X006895Y010769D02*
X006798Y010769D01*
X006798Y010671D02*
X006895Y010671D01*
X010546Y010109D02*
X010589Y010066D01*
X011036Y010066D01*
X016096Y010928D02*
X016106Y010966D01*
X016904Y013330D02*
X017245Y013330D01*
X017146Y013429D02*
X016996Y013429D01*
X016996Y013527D02*
X017136Y013527D01*
D23*
X012310Y010861D03*
X011824Y010163D03*
X010546Y010109D03*
X010346Y009609D03*
X009346Y008909D03*
X009146Y009387D03*
X008146Y009709D03*
X009819Y007547D03*
X010134Y006590D03*
X007046Y006439D03*
X006385Y006254D03*
X005558Y006097D03*
M02*
