G75*
G70*
%OFA0B0*%
%FSLAX24Y24*%
%IPPOS*%
%LPD*%
%AMOC8*
5,1,8,0,0,1.08239X$1,22.5*
%
%ADD10R,0.0500X0.0220*%
%ADD11R,0.0220X0.0500*%
%ADD12R,0.0433X0.0394*%
%ADD13R,0.0394X0.0433*%
%ADD14R,0.0787X0.0197*%
%ADD15R,0.0354X0.0669*%
D10*
X007656Y008806D03*
X007656Y009121D03*
X007656Y009436D03*
X007656Y009751D03*
X007656Y010066D03*
X007656Y010381D03*
X007656Y010696D03*
X007656Y011011D03*
X011036Y011011D03*
X011036Y010696D03*
X011036Y010381D03*
X011036Y010066D03*
X011036Y009751D03*
X011036Y009436D03*
X011036Y009121D03*
X011036Y008806D03*
D11*
X010449Y008219D03*
X010134Y008219D03*
X009819Y008219D03*
X009504Y008219D03*
X009189Y008219D03*
X008874Y008219D03*
X008559Y008219D03*
X008244Y008219D03*
X008244Y011599D03*
X008559Y011599D03*
X008874Y011599D03*
X009189Y011599D03*
X009504Y011599D03*
X009819Y011599D03*
X010134Y011599D03*
X010449Y011599D03*
D12*
X008652Y007153D03*
X008652Y006483D03*
X016212Y005695D03*
X016212Y005026D03*
X016877Y005026D03*
X016877Y005695D03*
X014940Y015174D03*
X014940Y015843D03*
X002533Y016302D03*
X002533Y016972D03*
D13*
X006846Y010443D03*
X006846Y009774D03*
X009352Y007167D03*
X009352Y006498D03*
X011787Y009457D03*
X011787Y010126D03*
D14*
X012861Y010388D03*
X012861Y010861D03*
X012861Y011333D03*
D15*
X006031Y006254D03*
X007684Y006254D03*
M02*
