G75*
G70*
%OFA0B0*%
%FSLAX24Y24*%
%IPPOS*%
%LPD*%
%AMOC8*
5,1,8,0,0,1.08239X$1,22.5*
%
%ADD10C,0.0080*%
%ADD11C,0.0090*%
%ADD12C,0.0160*%
D10*
X002586Y000743D02*
X002639Y000690D01*
X002853Y000690D01*
X002906Y000743D01*
X002906Y000850D01*
X002853Y000904D01*
X002746Y000904D01*
X002746Y000797D01*
X002639Y000904D02*
X002586Y000850D01*
X002586Y000743D01*
X002586Y001058D02*
X002586Y001218D01*
X002639Y001272D01*
X002746Y001272D01*
X002800Y001218D01*
X002800Y001058D01*
X002906Y001058D02*
X002586Y001058D01*
X002800Y001165D02*
X002906Y001272D01*
X002906Y001427D02*
X002586Y001427D01*
X002906Y001640D01*
X002586Y001640D01*
X003034Y001400D02*
X003284Y001650D01*
X003784Y001650D01*
X004034Y001400D01*
X004284Y001650D01*
X004784Y001650D01*
X005034Y001400D01*
X005284Y001650D01*
X005784Y001650D01*
X006034Y001400D01*
X006284Y001650D01*
X006784Y001650D01*
X007034Y001400D01*
X007284Y001650D01*
X007784Y001650D01*
X008034Y001400D01*
X008284Y001650D01*
X008784Y001650D01*
X009034Y001400D01*
X009034Y000900D01*
X008784Y000650D01*
X008284Y000650D01*
X008034Y000900D01*
X007784Y000650D01*
X007284Y000650D01*
X007034Y000900D01*
X006784Y000650D01*
X006284Y000650D01*
X006034Y000900D01*
X005784Y000650D01*
X005284Y000650D01*
X005034Y000900D01*
X004784Y000650D01*
X004284Y000650D01*
X004034Y000900D01*
X003784Y000650D01*
X003284Y000650D01*
X003034Y000900D01*
X003034Y001400D01*
X003286Y001890D02*
X003286Y002050D01*
X003339Y002104D01*
X003553Y002104D01*
X003606Y002050D01*
X003606Y001890D01*
X003286Y001890D01*
X003286Y002258D02*
X003286Y002472D01*
X003286Y002365D02*
X003606Y002365D01*
X003606Y002627D02*
X003286Y002627D01*
X003286Y002787D01*
X003339Y002840D01*
X003446Y002840D01*
X003500Y002787D01*
X003500Y002627D01*
X003500Y002733D02*
X003606Y002840D01*
X004080Y002418D02*
X004133Y002472D01*
X004347Y002258D01*
X004400Y002312D01*
X004400Y002418D01*
X004347Y002472D01*
X004133Y002472D01*
X004080Y002418D02*
X004080Y002312D01*
X004133Y002258D01*
X004347Y002258D01*
X004347Y002104D02*
X004133Y002104D01*
X004080Y002050D01*
X004080Y001890D01*
X004400Y001890D01*
X004400Y002050D01*
X004347Y002104D01*
X004586Y002050D02*
X004586Y001890D01*
X004906Y001890D01*
X004800Y001890D02*
X004800Y002050D01*
X004746Y002104D01*
X004639Y002104D01*
X004586Y002050D01*
X004586Y002258D02*
X004906Y002472D01*
X004906Y002627D02*
X004906Y002733D01*
X004906Y002680D02*
X004586Y002680D01*
X004586Y002627D02*
X004586Y002733D01*
X004586Y002472D02*
X004906Y002258D01*
X004906Y002104D02*
X004800Y001997D01*
X005180Y002000D02*
X005180Y001840D01*
X005500Y001840D01*
X005500Y002000D01*
X005447Y002054D01*
X005233Y002054D01*
X005180Y002000D01*
X005286Y002208D02*
X005180Y002315D01*
X005500Y002315D01*
X005500Y002208D02*
X005500Y002422D01*
X005686Y002422D02*
X006006Y002208D01*
X006006Y001947D02*
X005686Y001947D01*
X005686Y001840D02*
X005686Y002054D01*
X005686Y002208D02*
X006006Y002422D01*
X005953Y002577D02*
X006006Y002630D01*
X006006Y002737D01*
X005953Y002790D01*
X005739Y002790D01*
X005686Y002737D01*
X005686Y002630D01*
X005739Y002577D01*
X005953Y002577D01*
X006386Y002680D02*
X006439Y002627D01*
X006653Y002627D01*
X006706Y002680D01*
X006706Y002787D01*
X006653Y002840D01*
X006439Y002840D02*
X006386Y002787D01*
X006386Y002680D01*
X006439Y002472D02*
X006386Y002418D01*
X006386Y002312D01*
X006439Y002258D01*
X006653Y002258D01*
X006706Y002312D01*
X006706Y002418D01*
X006653Y002472D01*
X006600Y002104D02*
X006386Y002104D01*
X006600Y002104D02*
X006706Y001997D01*
X006600Y001890D01*
X006386Y001890D01*
X006417Y003140D02*
X006207Y003140D01*
X006207Y003560D01*
X006417Y003560D01*
X006487Y003490D01*
X006487Y003210D01*
X006417Y003140D01*
X006667Y003140D02*
X006808Y003140D01*
X006737Y003140D02*
X006737Y003560D01*
X006667Y003560D02*
X006808Y003560D01*
X006027Y003560D02*
X005747Y003560D01*
X005887Y003560D02*
X005887Y003140D01*
X005566Y003560D02*
X005286Y003560D01*
X005286Y003140D01*
X005286Y003350D02*
X005426Y003350D01*
X006070Y004205D02*
X006070Y004402D01*
X006070Y004205D02*
X007645Y004205D01*
X007645Y004402D01*
X008140Y004990D02*
X008060Y005070D01*
X008300Y005070D01*
X008300Y004990D02*
X008300Y005150D01*
X008260Y005285D02*
X008100Y005285D01*
X008060Y005325D01*
X008060Y005405D01*
X008100Y005445D01*
X008260Y005285D01*
X008300Y005325D01*
X008300Y005405D01*
X008260Y005445D01*
X008100Y005445D01*
X008060Y005579D02*
X008300Y005579D01*
X008220Y005579D02*
X008060Y005739D01*
X008180Y005619D02*
X008300Y005739D01*
X007823Y005903D02*
X007610Y005903D01*
X007717Y005903D02*
X007717Y005583D01*
X007645Y005386D02*
X007645Y005189D01*
X007645Y005386D02*
X006070Y005386D01*
X006070Y005189D01*
X006137Y005583D02*
X006137Y005903D01*
X006297Y005903D01*
X006350Y005850D01*
X006350Y005743D01*
X006297Y005690D01*
X006137Y005690D01*
X006243Y005690D02*
X006350Y005583D01*
X006505Y005583D02*
X006718Y005583D01*
X006873Y005636D02*
X006927Y005583D01*
X007033Y005583D01*
X007087Y005636D01*
X007087Y005690D01*
X007033Y005743D01*
X006927Y005743D01*
X006873Y005796D01*
X006873Y005850D01*
X006927Y005903D01*
X007033Y005903D01*
X007087Y005850D01*
X007242Y005903D02*
X007242Y005583D01*
X007455Y005583D01*
X007348Y005743D02*
X007242Y005743D01*
X007242Y005903D02*
X007455Y005903D01*
X006718Y005903D02*
X006505Y005903D01*
X006505Y005583D01*
X006505Y005743D02*
X006612Y005743D01*
X006503Y004796D02*
X006505Y004833D01*
X006511Y004870D01*
X006520Y004905D01*
X006534Y004940D01*
X006550Y004973D01*
X006571Y005004D01*
X006594Y005033D01*
X006620Y005059D01*
X006649Y005082D01*
X006680Y005103D01*
X006713Y005119D01*
X006748Y005133D01*
X006783Y005142D01*
X006820Y005148D01*
X006857Y005150D01*
X006894Y005148D01*
X006931Y005142D01*
X006966Y005133D01*
X007001Y005119D01*
X007034Y005103D01*
X007065Y005082D01*
X007094Y005059D01*
X007120Y005033D01*
X007143Y005004D01*
X007164Y004973D01*
X007180Y004940D01*
X007194Y004905D01*
X007203Y004870D01*
X007209Y004833D01*
X007211Y004796D01*
X007209Y004759D01*
X007203Y004722D01*
X007194Y004687D01*
X007180Y004652D01*
X007164Y004619D01*
X007143Y004588D01*
X007120Y004559D01*
X007094Y004533D01*
X007065Y004510D01*
X007034Y004489D01*
X007001Y004473D01*
X006966Y004459D01*
X006931Y004450D01*
X006894Y004444D01*
X006857Y004442D01*
X006820Y004444D01*
X006783Y004450D01*
X006748Y004459D01*
X006713Y004473D01*
X006680Y004489D01*
X006649Y004510D01*
X006620Y004533D01*
X006594Y004559D01*
X006571Y004588D01*
X006550Y004619D01*
X006534Y004652D01*
X006520Y004687D01*
X006511Y004722D01*
X006505Y004759D01*
X006503Y004796D01*
X005624Y006428D02*
X005694Y006498D01*
X005694Y006638D01*
X005624Y006708D01*
X005344Y006708D01*
X005274Y006638D01*
X005274Y006498D01*
X005344Y006428D01*
X005484Y006428D01*
X005484Y006568D01*
X005344Y006888D02*
X005624Y006888D01*
X005694Y006958D01*
X005694Y007098D01*
X005624Y007168D01*
X005344Y007168D01*
X005274Y007098D01*
X005274Y006958D01*
X005344Y006888D01*
X005274Y007349D02*
X005274Y007629D01*
X005694Y007629D01*
X005554Y007809D02*
X005274Y007809D01*
X005484Y007809D02*
X005484Y008089D01*
X005554Y008089D02*
X005694Y007949D01*
X005554Y007809D01*
X005554Y008089D02*
X005274Y008089D01*
X005274Y008269D02*
X005694Y008269D01*
X005694Y008550D02*
X005274Y008550D01*
X005274Y008730D02*
X005554Y008730D01*
X005694Y008870D01*
X005554Y009010D01*
X005274Y009010D01*
X005484Y009010D02*
X005484Y008730D01*
X005694Y008550D02*
X005274Y008269D01*
X004868Y008207D02*
X004868Y007993D01*
X004815Y007940D01*
X004708Y007940D01*
X004655Y007993D01*
X004868Y008207D01*
X004815Y008260D01*
X004708Y008260D01*
X004655Y008207D01*
X004655Y007993D01*
X004500Y007940D02*
X004500Y008154D01*
X004393Y008260D01*
X004286Y008154D01*
X004286Y007940D01*
X004286Y008100D02*
X004500Y008100D01*
X004046Y007900D02*
X003796Y007650D01*
X003296Y007650D01*
X003046Y007400D01*
X002796Y007650D01*
X002296Y007650D01*
X002046Y007400D01*
X001796Y007650D01*
X001296Y007650D01*
X001046Y007400D01*
X001046Y006900D01*
X001296Y006650D01*
X001796Y006650D01*
X002046Y006400D01*
X002296Y006650D01*
X002796Y006650D01*
X003046Y006400D01*
X003296Y006650D01*
X003796Y006650D01*
X004046Y006400D01*
X004046Y005900D01*
X003796Y005650D01*
X003296Y005650D01*
X003046Y005400D01*
X002796Y005650D01*
X002296Y005650D01*
X002046Y005400D01*
X001796Y005650D01*
X001296Y005650D01*
X001046Y005400D01*
X001046Y004900D01*
X001296Y004650D01*
X001796Y004650D01*
X002046Y004900D01*
X002046Y005400D01*
X001796Y005650D02*
X002046Y005900D01*
X002046Y006400D01*
X001796Y006650D02*
X002046Y006900D01*
X002046Y007400D01*
X001796Y007650D02*
X002046Y007900D01*
X002046Y008400D01*
X001796Y008650D01*
X001296Y008650D01*
X001046Y008900D01*
X001046Y009400D01*
X001296Y009650D01*
X001796Y009650D01*
X002046Y009400D01*
X002296Y009650D01*
X002796Y009650D01*
X003046Y009400D01*
X003296Y009650D01*
X003796Y009650D01*
X004046Y009400D01*
X004046Y008900D01*
X003796Y008650D01*
X003296Y008650D01*
X003046Y008900D01*
X002796Y008650D01*
X002296Y008650D01*
X002046Y008900D01*
X001796Y008650D01*
X002046Y008400D02*
X002296Y008650D01*
X002046Y008900D02*
X002046Y009400D01*
X001796Y009650D02*
X002046Y009900D01*
X002046Y010400D01*
X001796Y010650D01*
X001296Y010650D01*
X001046Y010400D01*
X001046Y009900D01*
X001296Y009650D01*
X002046Y009900D02*
X002296Y009650D01*
X002796Y009650D02*
X003046Y009900D01*
X003046Y010400D01*
X002796Y010650D01*
X002296Y010650D01*
X002046Y010400D01*
X002080Y010790D02*
X002200Y010790D01*
X002240Y010830D01*
X002240Y010990D01*
X002200Y011030D01*
X002080Y011030D01*
X002080Y010790D01*
X002375Y010790D02*
X002535Y010790D01*
X002455Y010790D02*
X002455Y011030D01*
X002375Y010950D01*
X002421Y011190D02*
X002501Y011190D01*
X002541Y011230D01*
X002541Y011390D01*
X002501Y011430D01*
X002421Y011430D01*
X002381Y011390D01*
X002381Y011230D01*
X002421Y011190D01*
X002246Y011190D02*
X002246Y011430D01*
X002166Y011350D01*
X002086Y011430D01*
X002086Y011190D01*
X001636Y011230D02*
X001636Y011390D01*
X001596Y011430D01*
X001476Y011430D01*
X001476Y011190D01*
X001596Y011190D01*
X001636Y011230D01*
X001341Y011190D02*
X001341Y011430D01*
X001181Y011430D02*
X001341Y011190D01*
X001181Y011190D02*
X001181Y011430D01*
X001046Y011390D02*
X001006Y011430D01*
X000926Y011430D01*
X000886Y011390D01*
X000886Y011230D01*
X000926Y011190D01*
X001006Y011190D01*
X001046Y011230D01*
X001046Y011310D01*
X000966Y011310D01*
X001046Y011650D02*
X004046Y011650D01*
X004046Y013650D01*
X004046Y013950D01*
X003046Y013950D01*
X003046Y013650D01*
X004046Y013650D01*
X001046Y013650D01*
X001046Y011650D01*
X002676Y011390D02*
X002676Y011350D01*
X002716Y011310D01*
X002796Y011310D01*
X002836Y011270D01*
X002836Y011230D01*
X002796Y011190D01*
X002716Y011190D01*
X002676Y011230D01*
X002676Y011390D02*
X002716Y011430D01*
X002796Y011430D01*
X002836Y011390D01*
X002970Y011430D02*
X003050Y011430D01*
X003010Y011430D02*
X003010Y011190D01*
X002970Y011190D02*
X003050Y011190D01*
X003044Y010990D02*
X003044Y010830D01*
X003124Y010830D02*
X002964Y010990D01*
X002964Y010910D02*
X003124Y010910D01*
X003124Y010990D02*
X002964Y010830D01*
X002829Y010790D02*
X002669Y010790D01*
X002749Y010790D02*
X002749Y011030D01*
X002669Y010950D01*
X003046Y010400D02*
X003296Y010650D01*
X003796Y010650D01*
X004046Y010400D01*
X004046Y009900D01*
X003796Y009650D01*
X004286Y009940D02*
X004286Y010154D01*
X004393Y010260D01*
X004500Y010154D01*
X004500Y009940D01*
X004500Y010100D02*
X004286Y010100D01*
X004655Y010100D02*
X004815Y010100D01*
X004868Y010047D01*
X004868Y009993D01*
X004815Y009940D01*
X004708Y009940D01*
X004655Y009993D01*
X004655Y010100D01*
X004761Y010207D01*
X004868Y010260D01*
X004868Y009260D02*
X004655Y009260D01*
X004500Y009154D02*
X004500Y008940D01*
X004655Y008940D02*
X004655Y008993D01*
X004868Y009207D01*
X004868Y009260D01*
X004500Y009154D02*
X004393Y009260D01*
X004286Y009154D01*
X004286Y008940D01*
X004286Y009100D02*
X004500Y009100D01*
X004046Y008400D02*
X003796Y008650D01*
X004046Y008400D02*
X004046Y007900D01*
X003796Y007650D02*
X004046Y007400D01*
X004046Y006900D01*
X003796Y006650D01*
X004286Y006940D02*
X004286Y007154D01*
X004393Y007260D01*
X004500Y007154D01*
X004500Y006940D01*
X004655Y006940D02*
X004868Y006940D01*
X004761Y006940D02*
X004761Y007260D01*
X004655Y007154D01*
X004500Y007100D02*
X004286Y007100D01*
X004393Y006260D02*
X004500Y006154D01*
X004500Y005940D01*
X004655Y005940D02*
X004868Y006154D01*
X004868Y006207D01*
X004815Y006260D01*
X004708Y006260D01*
X004655Y006207D01*
X004500Y006100D02*
X004286Y006100D01*
X004286Y006154D02*
X004393Y006260D01*
X004286Y006154D02*
X004286Y005940D01*
X004655Y005940D02*
X004868Y005940D01*
X004815Y005360D02*
X004868Y005307D01*
X004868Y005254D01*
X004815Y005200D01*
X004868Y005147D01*
X004868Y005093D01*
X004815Y005040D01*
X004708Y005040D01*
X004655Y005093D01*
X004761Y005200D02*
X004815Y005200D01*
X004815Y005360D02*
X004708Y005360D01*
X004655Y005307D01*
X004500Y005254D02*
X004500Y005040D01*
X004500Y005200D02*
X004286Y005200D01*
X004286Y005254D02*
X004393Y005360D01*
X004500Y005254D01*
X004286Y005254D02*
X004286Y005040D01*
X004046Y004900D02*
X003796Y004650D01*
X003296Y004650D01*
X003046Y004900D01*
X002796Y004650D01*
X002296Y004650D01*
X002046Y004900D01*
X001653Y004410D02*
X001440Y004410D01*
X001386Y004357D01*
X001386Y004250D01*
X001440Y004196D01*
X001546Y004196D01*
X001546Y004303D01*
X001653Y004196D02*
X001707Y004250D01*
X001707Y004357D01*
X001653Y004410D01*
X001707Y004042D02*
X001386Y004042D01*
X001386Y003828D02*
X001707Y003828D01*
X001707Y003673D02*
X001707Y003513D01*
X001653Y003460D01*
X001440Y003460D01*
X001386Y003513D01*
X001386Y003673D01*
X001707Y003673D01*
X001386Y003828D02*
X001707Y004042D01*
X002386Y003988D02*
X002386Y003882D01*
X002440Y003828D01*
X002440Y003673D02*
X002386Y003620D01*
X002386Y003513D01*
X002440Y003460D01*
X002653Y003460D02*
X002707Y003513D01*
X002707Y003620D01*
X002653Y003673D01*
X002440Y003673D01*
X002653Y003828D02*
X002707Y003882D01*
X002707Y003988D01*
X002653Y004042D01*
X002440Y004042D01*
X002386Y003988D01*
X002493Y004196D02*
X002707Y004196D01*
X002493Y004196D02*
X002386Y004303D01*
X002493Y004410D01*
X002707Y004410D01*
X003046Y004900D02*
X003046Y005400D01*
X003296Y005650D02*
X003046Y005900D01*
X002796Y005650D01*
X003046Y005900D02*
X003046Y006400D01*
X002796Y006650D02*
X003046Y006900D01*
X003046Y007400D01*
X003296Y007650D02*
X003046Y007900D01*
X002796Y007650D01*
X003046Y007900D02*
X003046Y008400D01*
X002796Y008650D01*
X003046Y008900D02*
X003046Y009400D01*
X003296Y009650D02*
X003046Y009900D01*
X003296Y008650D02*
X003046Y008400D01*
X002296Y007650D02*
X002046Y007900D01*
X001296Y007650D02*
X001046Y007900D01*
X001046Y008400D01*
X001296Y008650D01*
X002046Y006900D02*
X002296Y006650D01*
X002046Y005900D02*
X002296Y005650D01*
X001296Y005650D02*
X001046Y005900D01*
X001046Y006400D01*
X001296Y006650D01*
X003046Y006900D02*
X003296Y006650D01*
X003796Y005650D02*
X004046Y005400D01*
X004046Y004900D01*
X006130Y007940D02*
X006290Y007940D01*
X006210Y007940D02*
X006210Y008180D01*
X006130Y008100D01*
X006425Y008140D02*
X006425Y007980D01*
X006585Y008140D01*
X006585Y007980D01*
X006545Y007940D01*
X006465Y007940D01*
X006425Y007980D01*
X006425Y008140D02*
X006465Y008180D01*
X006545Y008180D01*
X006585Y008140D01*
X006719Y008060D02*
X006879Y008060D01*
X006839Y007940D02*
X006839Y008180D01*
X006719Y008060D01*
X007966Y007070D02*
X010586Y007070D01*
X010726Y007210D01*
X010726Y009830D01*
X007966Y009830D01*
X007966Y007070D01*
X009730Y005665D02*
X009850Y005545D01*
X009850Y005705D01*
X009970Y005665D02*
X009730Y005665D01*
X009770Y005411D02*
X009730Y005371D01*
X009730Y005291D01*
X009770Y005251D01*
X009930Y005251D01*
X009770Y005411D01*
X009930Y005411D01*
X009970Y005371D01*
X009970Y005291D01*
X009930Y005251D01*
X009970Y005116D02*
X009970Y004956D01*
X009970Y005036D02*
X009730Y005036D01*
X009810Y004956D01*
X009875Y004310D02*
X009875Y004097D01*
X009982Y003990D01*
X010089Y004097D01*
X010089Y004310D01*
X010243Y004257D02*
X010243Y004043D01*
X010297Y003990D01*
X010403Y003990D01*
X010457Y004043D01*
X010612Y004043D02*
X010665Y003990D01*
X010772Y003990D01*
X010825Y004043D01*
X010612Y004043D02*
X010612Y004257D01*
X010665Y004310D01*
X010772Y004310D01*
X010825Y004257D01*
X011046Y004400D02*
X011296Y004650D01*
X011796Y004650D01*
X012046Y004400D01*
X012296Y004650D01*
X012796Y004650D01*
X013046Y004400D01*
X013046Y003900D01*
X012796Y003650D01*
X013046Y003400D01*
X013046Y002900D01*
X012796Y002650D01*
X012296Y002650D01*
X012046Y002900D01*
X011796Y002650D01*
X011296Y002650D01*
X011046Y002900D01*
X011046Y003400D01*
X011296Y003650D01*
X011796Y003650D01*
X012046Y003400D01*
X012296Y003650D01*
X012796Y003650D01*
X013046Y003400D02*
X013296Y003650D01*
X013796Y003650D01*
X014046Y003400D01*
X014296Y003650D01*
X014796Y003650D01*
X015046Y003400D01*
X015296Y003650D01*
X015796Y003650D01*
X016046Y003400D01*
X016046Y002900D01*
X015796Y002650D01*
X015296Y002650D01*
X015046Y002900D01*
X014796Y002650D01*
X014296Y002650D01*
X014046Y002900D01*
X013796Y002650D01*
X013296Y002650D01*
X013046Y002900D01*
X012796Y002650D02*
X013046Y002400D01*
X013046Y001900D01*
X012796Y001650D01*
X013046Y001400D01*
X013046Y000900D01*
X012796Y000650D01*
X012296Y000650D01*
X012046Y000900D01*
X011796Y000650D01*
X011296Y000650D01*
X011046Y000900D01*
X011046Y001400D01*
X011296Y001650D01*
X011796Y001650D01*
X012046Y001400D01*
X012296Y001650D01*
X012796Y001650D01*
X013046Y001400D02*
X013296Y001650D01*
X013796Y001650D01*
X014046Y001400D01*
X014296Y001650D01*
X014796Y001650D01*
X015046Y001400D01*
X015296Y001650D01*
X015796Y001650D01*
X016046Y001400D01*
X016046Y000900D01*
X015796Y000650D01*
X015296Y000650D01*
X015046Y000900D01*
X014796Y000650D01*
X014296Y000650D01*
X014046Y000900D01*
X013796Y000650D01*
X013296Y000650D01*
X013046Y000900D01*
X013296Y001650D02*
X013046Y001900D01*
X013046Y002400D02*
X013296Y002650D01*
X013796Y002650D02*
X014046Y002400D01*
X014296Y002650D01*
X014046Y002400D02*
X014046Y001900D01*
X014296Y001650D01*
X014046Y001900D02*
X013796Y001650D01*
X014046Y001400D02*
X014046Y000900D01*
X014796Y001650D02*
X015046Y001900D01*
X015296Y001650D01*
X015046Y001400D02*
X015046Y000900D01*
X015796Y001650D02*
X016046Y001900D01*
X016046Y002400D01*
X015796Y002650D01*
X015296Y002650D02*
X015046Y002400D01*
X015046Y001900D01*
X015046Y002400D02*
X014796Y002650D01*
X015046Y002900D02*
X015046Y003400D01*
X015296Y003650D02*
X015046Y003900D01*
X014796Y003650D01*
X015046Y003900D02*
X015046Y004400D01*
X015296Y004650D01*
X015796Y004650D01*
X016046Y004400D01*
X016046Y003900D01*
X015796Y003650D01*
X016331Y003832D02*
X016371Y003792D01*
X016331Y003832D02*
X016331Y003912D01*
X016371Y003952D01*
X016411Y003952D01*
X016572Y003792D01*
X016572Y003952D01*
X016572Y004087D02*
X016331Y004087D01*
X016452Y004127D02*
X016572Y004247D01*
X016572Y004381D02*
X016411Y004541D01*
X016371Y004541D01*
X016331Y004501D01*
X016331Y004421D01*
X016371Y004381D01*
X016331Y004247D02*
X016492Y004087D01*
X016572Y004381D02*
X016572Y004541D01*
X016796Y005650D02*
X016296Y005650D01*
X016046Y005900D01*
X016046Y006400D01*
X016296Y006650D01*
X016046Y006900D01*
X016046Y007400D01*
X016296Y007650D01*
X016796Y007650D01*
X017046Y007400D01*
X017046Y006900D01*
X016796Y006650D01*
X017046Y006400D01*
X017046Y005900D01*
X016796Y005650D01*
X016796Y006650D02*
X016296Y006650D01*
X015719Y007040D02*
X015719Y007360D01*
X015505Y007360D02*
X015505Y007040D01*
X015367Y007040D02*
X015260Y007040D01*
X015313Y007040D02*
X015313Y007360D01*
X015260Y007360D02*
X015367Y007360D01*
X015505Y007360D02*
X015719Y007040D01*
X015105Y007147D02*
X015105Y007360D01*
X015105Y007147D02*
X014998Y007040D01*
X014891Y007147D01*
X014891Y007360D01*
X014706Y007890D02*
X014386Y007890D01*
X014386Y008050D01*
X014439Y008104D01*
X014546Y008104D01*
X014600Y008050D01*
X014600Y007890D01*
X014600Y007997D02*
X014706Y008104D01*
X014653Y008258D02*
X014546Y008258D01*
X014493Y008312D01*
X014493Y008418D01*
X014546Y008472D01*
X014600Y008472D01*
X014600Y008258D01*
X014653Y008258D02*
X014706Y008312D01*
X014706Y008418D01*
X014493Y008627D02*
X014706Y008733D01*
X014493Y008840D01*
X014439Y009363D02*
X014386Y009417D01*
X014386Y009523D01*
X014439Y009577D01*
X014653Y009363D01*
X014706Y009417D01*
X014706Y009523D01*
X014653Y009577D01*
X014439Y009577D01*
X014653Y009732D02*
X014653Y009785D01*
X014706Y009785D01*
X014706Y009732D01*
X014653Y009732D01*
X014706Y009916D02*
X014493Y010129D01*
X014439Y010129D01*
X014386Y010076D01*
X014386Y009969D01*
X014439Y009916D01*
X014706Y009916D02*
X014706Y010129D01*
X015286Y010220D02*
X015356Y010150D01*
X015636Y010150D01*
X015706Y010220D01*
X015706Y010361D01*
X015636Y010431D01*
X015356Y010431D01*
X015286Y010361D01*
X015286Y010220D01*
X015356Y009970D02*
X015496Y009970D01*
X015566Y009900D01*
X015566Y009690D01*
X015706Y009690D02*
X015286Y009690D01*
X015286Y009900D01*
X015356Y009970D01*
X015286Y010611D02*
X015706Y010611D01*
X015566Y010751D01*
X015706Y010891D01*
X015286Y010891D01*
X015286Y011071D02*
X015706Y011071D01*
X015706Y011351D01*
X015706Y011532D02*
X015286Y011532D01*
X015286Y011742D01*
X015356Y011812D01*
X015496Y011812D01*
X015566Y011742D01*
X015566Y011532D01*
X015566Y011672D02*
X015706Y011812D01*
X016046Y011900D02*
X016296Y011650D01*
X016796Y011650D01*
X017046Y011900D01*
X017046Y012400D01*
X016796Y012650D01*
X016296Y012650D01*
X016046Y012400D01*
X016046Y011900D01*
X016296Y011650D02*
X016046Y011400D01*
X016046Y010900D01*
X016296Y010650D01*
X016796Y010650D01*
X017046Y010400D01*
X017046Y009900D01*
X016796Y009650D01*
X017046Y009400D01*
X017046Y008900D01*
X016796Y008650D01*
X016296Y008650D01*
X016046Y008900D01*
X016046Y009400D01*
X016296Y009650D01*
X016046Y009900D01*
X016046Y010400D01*
X016296Y010650D01*
X016796Y010650D02*
X017046Y010900D01*
X017046Y011400D01*
X016796Y011650D01*
X017046Y011900D02*
X017296Y011650D01*
X017796Y011650D01*
X018046Y011900D01*
X018046Y012400D01*
X017796Y012650D01*
X017296Y012650D01*
X017046Y012400D01*
X017389Y012890D02*
X017603Y012890D01*
X017656Y012943D01*
X017656Y013050D01*
X017603Y013104D01*
X017496Y013104D01*
X017496Y012997D01*
X017389Y013104D02*
X017336Y013050D01*
X017336Y012943D01*
X017389Y012890D01*
X017336Y013258D02*
X017656Y013472D01*
X017336Y013472D01*
X017336Y013627D02*
X017336Y013787D01*
X017389Y013840D01*
X017603Y013840D01*
X017656Y013787D01*
X017656Y013627D01*
X017336Y013627D01*
X017336Y013258D02*
X017656Y013258D01*
X016656Y013312D02*
X016656Y013418D01*
X016603Y013472D01*
X016603Y013627D02*
X016389Y013627D01*
X016336Y013680D01*
X016336Y013787D01*
X016389Y013840D01*
X016603Y013840D02*
X016656Y013787D01*
X016656Y013680D01*
X016603Y013627D01*
X016389Y013472D02*
X016336Y013418D01*
X016336Y013312D01*
X016389Y013258D01*
X016603Y013258D01*
X016656Y013312D01*
X016550Y013104D02*
X016336Y013104D01*
X016550Y013104D02*
X016656Y012997D01*
X016550Y012890D01*
X016336Y012890D01*
X016030Y013806D02*
X016070Y013846D01*
X016070Y013926D01*
X016030Y013966D01*
X015990Y013966D01*
X015950Y013926D01*
X015950Y013886D01*
X015950Y013926D02*
X015910Y013966D01*
X015870Y013966D01*
X015830Y013926D01*
X015830Y013846D01*
X015870Y013806D01*
X015870Y014101D02*
X015830Y014141D01*
X015830Y014221D01*
X015870Y014261D01*
X015910Y014261D01*
X015950Y014221D01*
X015990Y014261D01*
X016030Y014261D01*
X016070Y014221D01*
X016070Y014141D01*
X016030Y014101D01*
X015950Y014181D02*
X015950Y014221D01*
X016030Y014395D02*
X015870Y014395D01*
X015830Y014435D01*
X015830Y014515D01*
X015870Y014555D01*
X016030Y014395D01*
X016070Y014435D01*
X016070Y014515D01*
X016030Y014555D01*
X015870Y014555D01*
X015790Y014900D02*
X015745Y014902D01*
X015699Y014907D01*
X015655Y014915D01*
X015611Y014927D01*
X015568Y014943D01*
X015526Y014961D01*
X015486Y014983D01*
X015448Y015007D01*
X015412Y015034D01*
X015377Y015064D01*
X015346Y015097D01*
X015316Y015132D01*
X015790Y016100D02*
X015837Y016098D01*
X015885Y016092D01*
X015931Y016083D01*
X015977Y016070D01*
X016021Y016054D01*
X016065Y016033D01*
X016106Y016010D01*
X016145Y015984D01*
X016182Y015954D01*
X016217Y015921D01*
X016249Y015886D01*
X016278Y015849D01*
X016150Y016220D02*
X016030Y016220D01*
X015990Y016260D01*
X015990Y016340D01*
X016030Y016380D01*
X016150Y016380D01*
X016150Y016460D02*
X016150Y016220D01*
X015855Y016220D02*
X015855Y016460D01*
X015775Y016380D01*
X015695Y016460D01*
X015695Y016220D01*
X015561Y016220D02*
X015441Y016220D01*
X015401Y016260D01*
X015401Y016340D01*
X015441Y016380D01*
X015561Y016380D01*
X015561Y016460D02*
X015561Y016220D01*
X015481Y016380D02*
X015401Y016460D01*
X015270Y016510D02*
X015270Y016790D01*
X015130Y016650D02*
X015410Y016650D01*
X016264Y015132D02*
X016234Y015097D01*
X016203Y015064D01*
X016168Y015034D01*
X016132Y015007D01*
X016094Y014983D01*
X016054Y014961D01*
X016012Y014943D01*
X015969Y014927D01*
X015925Y014915D01*
X015881Y014907D01*
X015835Y014902D01*
X015790Y014900D01*
X015310Y015860D02*
X015339Y015896D01*
X015371Y015930D01*
X015406Y015961D01*
X015442Y015989D01*
X015481Y016014D01*
X015522Y016037D01*
X015564Y016056D01*
X015607Y016072D01*
X015652Y016084D01*
X015698Y016093D01*
X015744Y016098D01*
X015790Y016100D01*
X014046Y015900D02*
X013796Y015650D01*
X014046Y015400D01*
X014046Y014900D01*
X013796Y014650D01*
X013296Y014650D01*
X013046Y014900D01*
X013046Y015400D01*
X012796Y015650D01*
X013046Y015900D01*
X013046Y016400D01*
X012796Y016650D01*
X013046Y016900D01*
X013046Y017400D01*
X012796Y017650D01*
X012296Y017650D01*
X012046Y017400D01*
X012046Y016900D01*
X011796Y016650D01*
X012046Y016400D01*
X012046Y015900D01*
X011796Y015650D01*
X012046Y015400D01*
X012046Y014900D01*
X011796Y014650D01*
X011296Y014650D01*
X011046Y014900D01*
X011046Y015400D01*
X010796Y015650D01*
X011046Y015900D01*
X011046Y016400D01*
X010796Y016650D01*
X011046Y016900D01*
X011046Y017400D01*
X010796Y017650D01*
X010296Y017650D01*
X010046Y017400D01*
X010046Y016900D01*
X009796Y016650D01*
X010046Y016400D01*
X010046Y015900D01*
X009796Y015650D01*
X010046Y015400D01*
X010046Y014900D01*
X009796Y014650D01*
X009296Y014650D01*
X009046Y014900D01*
X009046Y015400D01*
X008796Y015650D01*
X009046Y015900D01*
X009046Y016400D01*
X008796Y016650D01*
X009046Y016900D01*
X009046Y017400D01*
X008796Y017650D01*
X008296Y017650D01*
X008046Y017400D01*
X008046Y016900D01*
X007796Y016650D01*
X008046Y016400D01*
X008046Y015900D01*
X007796Y015650D01*
X008046Y015400D01*
X008046Y014900D01*
X007796Y014650D01*
X007296Y014650D01*
X007046Y014900D01*
X007046Y015400D01*
X006796Y015650D01*
X007046Y015900D01*
X007046Y016400D01*
X006796Y016650D01*
X007046Y016900D01*
X007046Y017400D01*
X006796Y017650D01*
X006296Y017650D01*
X006046Y017400D01*
X006046Y016900D01*
X006296Y016650D01*
X006796Y016650D01*
X007046Y016400D02*
X007296Y016650D01*
X007046Y016900D01*
X007296Y016650D02*
X007796Y016650D01*
X008046Y016400D02*
X008296Y016650D01*
X008046Y016900D01*
X008296Y016650D02*
X008796Y016650D01*
X009046Y016400D02*
X009296Y016650D01*
X009046Y016900D01*
X009296Y016650D02*
X009796Y016650D01*
X010046Y016400D02*
X010296Y016650D01*
X010046Y016900D01*
X010296Y016650D02*
X010796Y016650D01*
X011046Y016400D02*
X011296Y016650D01*
X011046Y016900D01*
X011296Y016650D02*
X011796Y016650D01*
X012046Y016400D02*
X012296Y016650D01*
X012046Y016900D01*
X012296Y016650D02*
X012796Y016650D01*
X013046Y016400D02*
X013296Y016650D01*
X013046Y016900D01*
X013296Y016650D02*
X013796Y016650D01*
X014046Y016900D01*
X014046Y017400D01*
X013796Y017650D01*
X013296Y017650D01*
X013046Y017400D01*
X013796Y016650D02*
X014046Y016400D01*
X014046Y015900D01*
X013796Y015650D02*
X013296Y015650D01*
X013046Y015900D01*
X012796Y015650D02*
X012296Y015650D01*
X012046Y015900D01*
X012296Y015650D02*
X012046Y015400D01*
X011796Y015650D02*
X011296Y015650D01*
X011046Y015900D01*
X010796Y015650D02*
X010296Y015650D01*
X010046Y015900D01*
X009796Y015650D02*
X009296Y015650D01*
X009046Y015900D01*
X009296Y015650D02*
X009046Y015400D01*
X008796Y015650D02*
X008296Y015650D01*
X008046Y015900D01*
X007796Y015650D02*
X007296Y015650D01*
X007046Y015900D01*
X006796Y015650D02*
X006296Y015650D01*
X006046Y015900D01*
X006046Y016400D01*
X006296Y016650D01*
X006040Y016400D02*
X006040Y015900D01*
X005790Y015650D01*
X006040Y015400D01*
X006040Y014900D01*
X005790Y014650D01*
X005290Y014650D01*
X005040Y014900D01*
X005040Y015400D01*
X005290Y015650D01*
X005040Y015900D01*
X005040Y016400D01*
X005290Y016650D01*
X005040Y016900D01*
X005040Y017400D01*
X005290Y017650D01*
X005790Y017650D01*
X006040Y017400D01*
X006040Y016900D01*
X005790Y016650D01*
X006040Y016400D01*
X005790Y016650D02*
X005290Y016650D01*
X004856Y017043D02*
X004856Y017257D01*
X004803Y017310D01*
X004696Y017310D01*
X004643Y017257D01*
X004643Y017150D01*
X004750Y017150D01*
X004856Y017043D02*
X004803Y016990D01*
X004696Y016990D01*
X004643Y017043D01*
X004488Y016990D02*
X004274Y017310D01*
X004274Y016990D01*
X004120Y016990D02*
X003959Y016990D01*
X003906Y017043D01*
X003906Y017257D01*
X003959Y017310D01*
X004120Y017310D01*
X004120Y016990D01*
X004488Y016990D02*
X004488Y017310D01*
X003550Y016460D02*
X003430Y016460D01*
X003390Y016420D01*
X003390Y016260D01*
X003430Y016220D01*
X003550Y016220D01*
X003550Y016460D01*
X003255Y016460D02*
X003095Y016460D01*
X003175Y016460D02*
X003175Y016220D01*
X003255Y016300D01*
X002961Y016260D02*
X002921Y016220D01*
X002841Y016220D01*
X002801Y016260D01*
X002801Y016300D01*
X002841Y016340D01*
X002801Y016380D01*
X002801Y016420D01*
X002841Y016460D01*
X002921Y016460D01*
X002961Y016420D01*
X002881Y016340D02*
X002841Y016340D01*
X003190Y016100D02*
X003235Y016098D01*
X003281Y016093D01*
X003325Y016085D01*
X003369Y016073D01*
X003412Y016057D01*
X003454Y016039D01*
X003494Y016017D01*
X003532Y015993D01*
X003568Y015966D01*
X003603Y015936D01*
X003634Y015903D01*
X003664Y015868D01*
X003856Y015993D02*
X003909Y015940D01*
X004016Y015940D01*
X004070Y015993D01*
X004070Y016207D01*
X004016Y016260D01*
X003909Y016260D01*
X003856Y016207D01*
X004224Y016207D02*
X004278Y016260D01*
X004385Y016260D01*
X004438Y016207D01*
X004438Y015993D01*
X004385Y015940D01*
X004278Y015940D01*
X004224Y015993D01*
X004593Y015940D02*
X004593Y016153D01*
X004700Y016260D01*
X004806Y016153D01*
X004806Y015940D01*
X005290Y015650D02*
X005790Y015650D01*
X006046Y015400D02*
X006296Y015650D01*
X006046Y015400D02*
X006046Y014900D01*
X006296Y014650D01*
X006796Y014650D01*
X007046Y014900D01*
X007336Y014410D02*
X007336Y014250D01*
X007390Y014196D01*
X007603Y014196D01*
X007657Y014250D01*
X007657Y014410D01*
X007336Y014410D01*
X007390Y014042D02*
X007443Y014042D01*
X007496Y013988D01*
X007496Y013882D01*
X007443Y013828D01*
X007390Y013828D01*
X007336Y013882D01*
X007336Y013988D01*
X007390Y014042D01*
X007496Y013988D02*
X007550Y014042D01*
X007603Y014042D01*
X007657Y013988D01*
X007657Y013882D01*
X007603Y013828D01*
X007550Y013828D01*
X007496Y013882D01*
X007500Y013416D02*
X007500Y013096D01*
X007607Y013203D01*
X007713Y013096D01*
X007713Y013416D01*
X007868Y013416D02*
X007868Y013096D01*
X007975Y013310D02*
X007868Y013416D01*
X007975Y013310D02*
X008082Y013416D01*
X008082Y013096D01*
X008236Y013149D02*
X008236Y013256D01*
X008290Y013310D01*
X008450Y013310D01*
X008450Y013416D02*
X008450Y013096D01*
X008290Y013096D01*
X008236Y013149D01*
X008858Y013010D02*
X009138Y013010D01*
X009138Y012590D01*
X009318Y012730D02*
X009318Y013010D01*
X009318Y012800D02*
X009599Y012800D01*
X009599Y012730D02*
X009459Y012590D01*
X009318Y012730D01*
X009599Y012730D02*
X009599Y013010D01*
X009919Y013010D02*
X009919Y012590D01*
X010059Y012590D02*
X009779Y012590D01*
X010226Y012590D02*
X010366Y012590D01*
X010296Y012590D02*
X010296Y013010D01*
X010366Y013010D02*
X010226Y013010D01*
X010546Y012940D02*
X010546Y012800D01*
X010686Y012800D01*
X010546Y012940D02*
X010616Y013010D01*
X010756Y013010D01*
X010826Y012940D01*
X010826Y012660D01*
X010756Y012590D01*
X010616Y012590D01*
X010546Y012660D01*
X010993Y012590D02*
X011133Y012590D01*
X011063Y012590D02*
X011063Y013010D01*
X011133Y013010D02*
X010993Y013010D01*
X011313Y012940D02*
X011313Y012660D01*
X011383Y012590D01*
X011594Y012590D01*
X011594Y013010D01*
X011383Y013010D01*
X011313Y012940D01*
X010603Y013460D02*
X010390Y013673D01*
X010390Y013567D02*
X010603Y013567D01*
X010603Y013673D02*
X010390Y013460D01*
X010496Y013460D02*
X010496Y013673D01*
X010496Y013828D02*
X010390Y013828D01*
X010336Y013882D01*
X010336Y013988D01*
X010390Y014042D01*
X010496Y014042D02*
X010550Y013935D01*
X010550Y013882D01*
X010496Y013828D01*
X010657Y013828D02*
X010657Y014042D01*
X010496Y014042D01*
X010390Y014196D02*
X010603Y014196D01*
X010657Y014250D01*
X010657Y014410D01*
X010336Y014410D01*
X010336Y014250D01*
X010390Y014196D01*
X010296Y014650D02*
X010046Y014900D01*
X010296Y014650D02*
X010796Y014650D01*
X011046Y014900D01*
X011336Y014410D02*
X011336Y014250D01*
X011390Y014196D01*
X011603Y014196D01*
X011657Y014250D01*
X011657Y014410D01*
X011336Y014410D01*
X011496Y014042D02*
X011496Y013828D01*
X011336Y013882D02*
X011657Y013882D01*
X011496Y014042D01*
X012336Y013988D02*
X012390Y014042D01*
X012336Y013988D02*
X012336Y013882D01*
X012390Y013828D01*
X012443Y013828D01*
X012496Y013882D01*
X012496Y013935D01*
X012496Y013882D02*
X012550Y013828D01*
X012603Y013828D01*
X012657Y013882D01*
X012657Y013988D01*
X012603Y014042D01*
X012603Y014196D02*
X012390Y014196D01*
X012336Y014250D01*
X012336Y014410D01*
X012657Y014410D01*
X012657Y014250D01*
X012603Y014196D01*
X012796Y014650D02*
X012296Y014650D01*
X012046Y014900D01*
X012796Y014650D02*
X013046Y014900D01*
X013336Y014410D02*
X013336Y014250D01*
X013390Y014196D01*
X013603Y014196D01*
X013657Y014250D01*
X013657Y014410D01*
X013336Y014410D01*
X013336Y014042D02*
X013550Y013828D01*
X013603Y013828D01*
X013657Y013882D01*
X013657Y013988D01*
X013603Y014042D01*
X013336Y014042D02*
X013336Y013828D01*
X012603Y013673D02*
X012390Y013460D01*
X012496Y013460D02*
X012496Y013673D01*
X012390Y013673D02*
X012603Y013460D01*
X012603Y013567D02*
X012390Y013567D01*
X013046Y015400D02*
X013296Y015650D01*
X012046Y017400D02*
X011796Y017650D01*
X011296Y017650D01*
X011046Y017400D01*
X010046Y017400D02*
X009796Y017650D01*
X009296Y017650D01*
X009046Y017400D01*
X008046Y017400D02*
X007796Y017650D01*
X007296Y017650D01*
X007046Y017400D01*
X007296Y015650D02*
X007046Y015400D01*
X008046Y015400D02*
X008296Y015650D01*
X008046Y014900D02*
X008296Y014650D01*
X008796Y014650D01*
X009046Y014900D01*
X009336Y014410D02*
X009336Y014250D01*
X009390Y014196D01*
X009603Y014196D01*
X009657Y014250D01*
X009657Y014410D01*
X009336Y014410D01*
X009390Y014042D02*
X009336Y013988D01*
X009336Y013882D01*
X009390Y013828D01*
X009443Y013828D01*
X009496Y013882D01*
X009496Y014042D01*
X009390Y014042D01*
X009496Y014042D02*
X009603Y013935D01*
X009657Y013828D01*
X009603Y013673D02*
X009390Y013460D01*
X009496Y013460D02*
X009496Y013673D01*
X009390Y013673D02*
X009603Y013460D01*
X009603Y013567D02*
X009390Y013567D01*
X008657Y013828D02*
X008603Y013828D01*
X008390Y014042D01*
X008336Y014042D01*
X008390Y014196D02*
X008603Y014196D01*
X008657Y014250D01*
X008657Y014410D01*
X008336Y014410D01*
X008336Y014250D01*
X008390Y014196D01*
X008657Y014042D02*
X008657Y013828D01*
X007345Y013363D02*
X007132Y013149D01*
X007238Y013149D02*
X007238Y013363D01*
X007132Y013363D02*
X007345Y013149D01*
X007345Y013256D02*
X007132Y013256D01*
X006603Y013460D02*
X006390Y013673D01*
X006390Y013567D02*
X006603Y013567D01*
X006603Y013673D02*
X006390Y013460D01*
X006496Y013460D02*
X006496Y013673D01*
X006496Y013828D02*
X006496Y013988D01*
X006550Y014042D01*
X006603Y014042D01*
X006657Y013988D01*
X006657Y013882D01*
X006603Y013828D01*
X006390Y013828D01*
X006336Y013882D01*
X006336Y013988D01*
X006390Y014042D01*
X006390Y014196D02*
X006336Y014250D01*
X006336Y014410D01*
X006657Y014410D01*
X006657Y014250D01*
X006603Y014196D01*
X006390Y014196D01*
X005650Y014250D02*
X005650Y014410D01*
X005330Y014410D01*
X005330Y014250D01*
X005383Y014196D01*
X005597Y014196D01*
X005650Y014250D01*
X005543Y014042D02*
X005650Y013935D01*
X005330Y013935D01*
X005330Y014042D02*
X005330Y013828D01*
X005383Y013673D02*
X005597Y013460D01*
X005383Y013460D01*
X005330Y013513D01*
X005330Y013620D01*
X005383Y013673D01*
X005597Y013673D01*
X005650Y013620D01*
X005650Y013513D01*
X005597Y013460D01*
X005597Y013305D02*
X005383Y013092D01*
X005383Y013198D02*
X005597Y013198D01*
X005597Y013092D02*
X005383Y013305D01*
X005490Y013305D02*
X005490Y013092D01*
X004783Y013162D02*
X004783Y012952D01*
X004713Y012882D01*
X004572Y012882D01*
X004502Y012952D01*
X004502Y013162D01*
X004362Y013162D02*
X004783Y013162D01*
X004713Y013343D02*
X004783Y013413D01*
X004783Y013553D01*
X004713Y013623D01*
X004642Y013623D01*
X004572Y013553D01*
X004572Y013413D01*
X004502Y013343D01*
X004432Y013343D01*
X004362Y013413D01*
X004362Y013553D01*
X004432Y013623D01*
X004362Y013790D02*
X004362Y013930D01*
X004362Y013860D02*
X004783Y013860D01*
X004783Y013930D02*
X004783Y013790D01*
X004232Y014130D02*
X004232Y014290D01*
X004192Y014330D01*
X004112Y014330D01*
X004072Y014290D01*
X004072Y014130D01*
X004112Y014090D01*
X004192Y014090D01*
X004232Y014130D01*
X003937Y014130D02*
X003897Y014090D01*
X003817Y014090D01*
X003777Y014130D01*
X003817Y014210D02*
X003897Y014210D01*
X003937Y014170D01*
X003937Y014130D01*
X003817Y014210D02*
X003777Y014250D01*
X003777Y014290D01*
X003817Y014330D01*
X003897Y014330D01*
X003937Y014290D01*
X003750Y014350D02*
X003470Y014350D01*
X003446Y014330D02*
X003446Y014090D01*
X003581Y014090D02*
X003661Y014090D01*
X003621Y014090D02*
X003621Y014330D01*
X003581Y014330D02*
X003661Y014330D01*
X003610Y014210D02*
X003610Y014490D01*
X003575Y014490D02*
X003735Y014490D01*
X003655Y014490D02*
X003655Y014730D01*
X003575Y014650D01*
X003440Y014690D02*
X003440Y014530D01*
X003400Y014490D01*
X003280Y014490D01*
X003280Y014730D01*
X003400Y014730D01*
X003440Y014690D01*
X003446Y014330D02*
X003366Y014250D01*
X003286Y014330D01*
X003286Y014090D01*
X003046Y013888D02*
X004046Y013888D01*
X004046Y013809D02*
X003046Y013809D01*
X003046Y013731D02*
X004046Y013731D01*
X004046Y013652D02*
X003046Y013652D01*
X002936Y014090D02*
X002816Y014210D01*
X002776Y014170D02*
X002936Y014330D01*
X002776Y014330D02*
X002776Y014090D01*
X002641Y014130D02*
X002601Y014090D01*
X002521Y014090D01*
X002481Y014130D01*
X002481Y014290D01*
X002521Y014330D01*
X002601Y014330D01*
X002641Y014290D01*
X002635Y014490D02*
X002475Y014490D01*
X002555Y014490D02*
X002555Y014730D01*
X002475Y014650D01*
X002340Y014690D02*
X002340Y014530D01*
X002300Y014490D01*
X002180Y014490D01*
X002180Y014730D01*
X002300Y014730D01*
X002340Y014690D01*
X002306Y014330D02*
X002226Y014330D01*
X002186Y014290D01*
X002186Y014250D01*
X002226Y014210D01*
X002306Y014210D01*
X002346Y014170D01*
X002346Y014130D01*
X002306Y014090D01*
X002226Y014090D01*
X002186Y014130D01*
X002346Y014290D02*
X002306Y014330D01*
X002769Y014530D02*
X002809Y014490D01*
X002889Y014490D01*
X002929Y014530D01*
X002929Y014570D01*
X002889Y014610D01*
X002849Y014610D01*
X002889Y014610D02*
X002929Y014650D01*
X002929Y014690D01*
X002889Y014730D01*
X002809Y014730D01*
X002769Y014690D01*
X003190Y014900D02*
X003236Y014902D01*
X003282Y014907D01*
X003328Y014916D01*
X003373Y014928D01*
X003416Y014944D01*
X003458Y014963D01*
X003499Y014986D01*
X003538Y015011D01*
X003574Y015039D01*
X003609Y015070D01*
X003641Y015104D01*
X003670Y015140D01*
X003909Y014730D02*
X003869Y014690D01*
X003909Y014730D02*
X003989Y014730D01*
X004029Y014690D01*
X004029Y014650D01*
X003869Y014490D01*
X004029Y014490D01*
X003190Y014900D02*
X003143Y014902D01*
X003095Y014908D01*
X003049Y014917D01*
X003003Y014930D01*
X002959Y014946D01*
X002915Y014967D01*
X002874Y014990D01*
X002835Y015016D01*
X002798Y015046D01*
X002763Y015079D01*
X002731Y015114D01*
X002702Y015151D01*
X002716Y015868D02*
X002746Y015903D01*
X002777Y015936D01*
X002812Y015966D01*
X002848Y015993D01*
X002886Y016017D01*
X002926Y016039D01*
X002968Y016057D01*
X003011Y016073D01*
X003055Y016085D01*
X003099Y016093D01*
X003145Y016098D01*
X003190Y016100D01*
X001736Y014490D02*
X001146Y014490D01*
X001226Y014330D02*
X001186Y014290D01*
X001186Y014250D01*
X001226Y014210D01*
X001306Y014210D01*
X001346Y014170D01*
X001346Y014130D01*
X001306Y014090D01*
X001226Y014090D01*
X001186Y014130D01*
X001226Y014330D02*
X001306Y014330D01*
X001346Y014290D01*
X001481Y014290D02*
X001481Y014250D01*
X001521Y014210D01*
X001601Y014210D01*
X001641Y014170D01*
X001641Y014130D01*
X001601Y014090D01*
X001521Y014090D01*
X001481Y014130D01*
X001481Y014290D02*
X001521Y014330D01*
X001601Y014330D01*
X001641Y014290D01*
X001035Y014920D02*
X001075Y014960D01*
X001075Y015040D01*
X001035Y015080D01*
X000995Y015080D01*
X000955Y015040D01*
X000955Y015000D01*
X000955Y015040D02*
X000915Y015080D01*
X000875Y015080D01*
X000835Y015040D01*
X000835Y014960D01*
X000875Y014920D01*
X000875Y015214D02*
X000835Y015254D01*
X000835Y015334D01*
X000875Y015374D01*
X000915Y015374D01*
X000955Y015334D01*
X000995Y015374D01*
X001035Y015374D01*
X001075Y015334D01*
X001075Y015254D01*
X001035Y015214D01*
X000955Y015294D02*
X000955Y015334D01*
X001035Y015509D02*
X000875Y015509D01*
X000835Y015549D01*
X000835Y015629D01*
X000875Y015669D01*
X001035Y015509D01*
X001075Y015549D01*
X001075Y015629D01*
X001035Y015669D01*
X000875Y015669D01*
X004362Y012702D02*
X004783Y012702D01*
X004713Y012549D02*
X004642Y012549D01*
X004572Y012478D01*
X004572Y012338D01*
X004502Y012268D01*
X004432Y012268D01*
X004362Y012338D01*
X004362Y012478D01*
X004432Y012549D01*
X004713Y012549D02*
X004783Y012478D01*
X004783Y012338D01*
X004713Y012268D01*
X004783Y012088D02*
X004783Y011878D01*
X004713Y011808D01*
X004572Y011808D01*
X004502Y011878D01*
X004502Y012088D01*
X004362Y012088D02*
X004783Y012088D01*
X004783Y011628D02*
X004783Y011488D01*
X004783Y011558D02*
X004362Y011558D01*
X004362Y011628D02*
X004362Y011488D01*
X004136Y011390D02*
X004096Y011430D01*
X004016Y011430D01*
X003976Y011390D01*
X003976Y011230D01*
X004016Y011190D01*
X004096Y011190D01*
X004136Y011230D01*
X003841Y011230D02*
X003801Y011190D01*
X003721Y011190D01*
X003681Y011230D01*
X003681Y011390D01*
X003721Y011430D01*
X003801Y011430D01*
X003841Y011390D01*
X003546Y011430D02*
X003546Y011270D01*
X003466Y011190D01*
X003386Y011270D01*
X003386Y011430D01*
X006130Y009850D02*
X006210Y009930D01*
X006210Y009690D01*
X006130Y009690D02*
X006290Y009690D01*
X006425Y009730D02*
X006425Y009890D01*
X006465Y009930D01*
X006545Y009930D01*
X006585Y009890D01*
X006425Y009730D01*
X006465Y009690D01*
X006545Y009690D01*
X006585Y009730D01*
X006585Y009890D01*
X006719Y009810D02*
X006879Y009810D01*
X006839Y009690D02*
X006839Y009930D01*
X006719Y009810D01*
X007872Y010710D02*
X007912Y010670D01*
X008032Y010670D01*
X008032Y010910D01*
X008032Y010830D02*
X007912Y010830D01*
X007872Y010790D01*
X007872Y010710D01*
X008166Y010710D02*
X008206Y010670D01*
X008286Y010670D01*
X008326Y010710D01*
X008326Y010750D01*
X008286Y010790D01*
X008206Y010790D01*
X008166Y010830D01*
X008166Y010870D01*
X008206Y010910D01*
X008286Y010910D01*
X008326Y010870D01*
X008326Y010830D01*
X008286Y010790D01*
X008206Y010790D02*
X008166Y010750D01*
X008166Y010710D01*
X008461Y010710D02*
X008501Y010670D01*
X008581Y010670D01*
X008621Y010710D01*
X008756Y010710D02*
X008756Y010750D01*
X008796Y010790D01*
X008756Y010830D01*
X008756Y010870D01*
X008796Y010910D01*
X008876Y010910D01*
X008916Y010870D01*
X008836Y010790D02*
X008796Y010790D01*
X008756Y010710D02*
X008796Y010670D01*
X008876Y010670D01*
X008916Y010710D01*
X009050Y010790D02*
X009050Y010910D01*
X009170Y010910D01*
X009210Y010870D01*
X009170Y010830D01*
X009050Y010830D01*
X009050Y010790D02*
X009090Y010750D01*
X009170Y010750D01*
X009345Y010750D02*
X009345Y010950D01*
X009385Y010990D01*
X009425Y010990D01*
X009465Y010910D02*
X009345Y010910D01*
X009465Y010910D02*
X009505Y010870D01*
X009505Y010790D01*
X009465Y010750D01*
X009345Y010750D01*
X009640Y010790D02*
X009640Y010830D01*
X009800Y010830D01*
X009800Y010870D02*
X009800Y010790D01*
X009760Y010750D01*
X009680Y010750D01*
X009640Y010790D01*
X009680Y010910D02*
X009760Y010910D01*
X009800Y010870D01*
X009934Y010910D02*
X009934Y010790D01*
X009974Y010750D01*
X010014Y010790D01*
X010014Y010910D01*
X010094Y010910D02*
X010094Y010750D01*
X010054Y010750D01*
X010014Y010790D01*
X010229Y010670D02*
X010389Y010670D01*
X010309Y010670D02*
X010309Y010910D01*
X010524Y010910D02*
X010524Y010750D01*
X010604Y010670D01*
X010684Y010750D01*
X010684Y010910D01*
X010684Y010790D02*
X010524Y010790D01*
X008621Y010910D02*
X008461Y010750D01*
X008461Y010710D01*
X008461Y010910D02*
X008621Y010910D01*
X011632Y007872D02*
X011712Y007952D01*
X011712Y007712D01*
X011632Y007712D02*
X011792Y007712D01*
X011926Y007752D02*
X012087Y007912D01*
X012087Y007752D01*
X012047Y007712D01*
X011967Y007712D01*
X011926Y007752D01*
X011926Y007912D01*
X011967Y007952D01*
X012047Y007952D01*
X012087Y007912D01*
X012221Y007832D02*
X012341Y007952D01*
X012341Y007712D01*
X012381Y007832D02*
X012221Y007832D01*
X012468Y008733D02*
X013255Y008733D01*
X013255Y010071D02*
X012468Y010071D01*
X014439Y009363D02*
X014653Y009363D01*
X016296Y009650D02*
X016796Y009650D01*
X017046Y009400D02*
X017296Y009650D01*
X017046Y009900D01*
X017296Y009650D02*
X017796Y009650D01*
X018046Y009900D01*
X018046Y010400D01*
X017796Y010650D01*
X017296Y010650D01*
X017046Y010400D01*
X017296Y010650D02*
X017046Y010900D01*
X017046Y011400D02*
X017296Y011650D01*
X017796Y011650D02*
X018046Y011400D01*
X018046Y010900D01*
X017796Y010650D01*
X017796Y009650D02*
X018046Y009400D01*
X018046Y008900D01*
X017796Y008650D01*
X017296Y008650D01*
X017046Y008900D01*
X015496Y011071D02*
X015496Y011211D01*
X015286Y011351D02*
X015286Y011071D01*
X011046Y015400D02*
X011296Y015650D01*
X010296Y015650D02*
X010046Y015400D01*
X010285Y007370D02*
X010287Y007393D01*
X010293Y007416D01*
X010302Y007437D01*
X010315Y007457D01*
X010331Y007474D01*
X010349Y007488D01*
X010369Y007499D01*
X010391Y007507D01*
X010414Y007511D01*
X010438Y007511D01*
X010461Y007507D01*
X010483Y007499D01*
X010503Y007488D01*
X010521Y007474D01*
X010537Y007457D01*
X010550Y007437D01*
X010559Y007416D01*
X010565Y007393D01*
X010567Y007370D01*
X010565Y007347D01*
X010559Y007324D01*
X010550Y007303D01*
X010537Y007283D01*
X010521Y007266D01*
X010503Y007252D01*
X010483Y007241D01*
X010461Y007233D01*
X010438Y007229D01*
X010414Y007229D01*
X010391Y007233D01*
X010369Y007241D01*
X010349Y007252D01*
X010331Y007266D01*
X010315Y007283D01*
X010302Y007303D01*
X010293Y007324D01*
X010287Y007347D01*
X010285Y007370D01*
X012986Y005410D02*
X013126Y005410D01*
X013056Y005410D02*
X013056Y004990D01*
X012986Y004990D02*
X013126Y004990D01*
X013293Y004990D02*
X013573Y005270D01*
X013573Y005340D01*
X013503Y005410D01*
X013363Y005410D01*
X013293Y005340D01*
X013293Y004990D02*
X013573Y004990D01*
X013754Y005060D02*
X013824Y004990D01*
X013964Y004990D01*
X014034Y005060D01*
X013754Y005060D02*
X013754Y005340D01*
X013824Y005410D01*
X013964Y005410D01*
X014034Y005340D01*
X013796Y004650D02*
X013296Y004650D01*
X013046Y004400D01*
X013046Y003900D02*
X013296Y003650D01*
X013796Y003650D02*
X014046Y003900D01*
X014296Y003650D01*
X014046Y003900D02*
X014046Y004400D01*
X014296Y004650D01*
X014796Y004650D01*
X015046Y004400D01*
X014046Y004400D02*
X013796Y004650D01*
X014046Y003400D02*
X014046Y002900D01*
X012296Y002650D02*
X012046Y002400D01*
X012046Y001900D01*
X012296Y001650D01*
X012046Y001400D02*
X012046Y000900D01*
X011796Y001650D02*
X012046Y001900D01*
X012046Y002400D02*
X011796Y002650D01*
X012046Y002900D02*
X012046Y003400D01*
X012296Y003650D02*
X012046Y003900D01*
X011796Y003650D01*
X012046Y003900D02*
X012046Y004400D01*
X011296Y003650D02*
X011046Y003900D01*
X011046Y004400D01*
X010457Y004257D02*
X010403Y004310D01*
X010297Y004310D01*
X010243Y004257D01*
X010243Y003360D02*
X010403Y003360D01*
X010457Y003307D01*
X010457Y003093D01*
X010403Y003040D01*
X010243Y003040D01*
X010243Y003360D01*
X010089Y003307D02*
X010035Y003360D01*
X009928Y003360D01*
X009875Y003307D01*
X009875Y003254D01*
X009928Y003200D01*
X010035Y003200D01*
X010089Y003147D01*
X010089Y003093D01*
X010035Y003040D01*
X009928Y003040D01*
X009875Y003093D01*
X010612Y003040D02*
X010612Y003254D01*
X010718Y003360D01*
X010825Y003254D01*
X010825Y003040D01*
X010825Y003200D02*
X010612Y003200D01*
X011296Y002650D02*
X011046Y002400D01*
X011046Y001900D01*
X011296Y001650D01*
X010825Y001940D02*
X010612Y001940D01*
X010612Y002260D01*
X010457Y002207D02*
X010403Y002260D01*
X010297Y002260D01*
X010243Y002207D01*
X010243Y001993D01*
X010297Y001940D01*
X010403Y001940D01*
X010457Y001993D01*
X010089Y001993D02*
X010035Y001940D01*
X009928Y001940D01*
X009875Y001993D01*
X009928Y002100D02*
X010035Y002100D01*
X010089Y002047D01*
X010089Y001993D01*
X009928Y002100D02*
X009875Y002154D01*
X009875Y002207D01*
X009928Y002260D01*
X010035Y002260D01*
X010089Y002207D01*
X009506Y001640D02*
X009346Y001480D01*
X009400Y001427D02*
X009186Y001640D01*
X009186Y001427D02*
X009506Y001427D01*
X009506Y001272D02*
X009506Y001058D01*
X009186Y001058D01*
X009239Y000904D02*
X009293Y000904D01*
X009346Y000850D01*
X009346Y000690D01*
X009186Y000690D02*
X009186Y000850D01*
X009239Y000904D01*
X009346Y000850D02*
X009400Y000904D01*
X009453Y000904D01*
X009506Y000850D01*
X009506Y000690D01*
X009186Y000690D01*
X009875Y000993D02*
X009875Y001207D01*
X009928Y001260D01*
X010035Y001260D01*
X010089Y001207D01*
X010089Y001100D02*
X009982Y001100D01*
X010089Y001100D02*
X010089Y000993D01*
X010035Y000940D01*
X009928Y000940D01*
X009875Y000993D01*
X010243Y000940D02*
X010243Y001260D01*
X010457Y000940D01*
X010457Y001260D01*
X010612Y001260D02*
X010612Y000940D01*
X010772Y000940D01*
X010825Y000993D01*
X010825Y001207D01*
X010772Y001260D01*
X010612Y001260D01*
X008706Y001943D02*
X008706Y002050D01*
X008653Y002104D01*
X008546Y002104D01*
X008546Y001997D01*
X008439Y002104D02*
X008386Y002050D01*
X008386Y001943D01*
X008439Y001890D01*
X008653Y001890D01*
X008706Y001943D01*
X008706Y002258D02*
X008386Y002258D01*
X008706Y002472D01*
X008386Y002472D01*
X008386Y002627D02*
X008386Y002787D01*
X008439Y002840D01*
X008653Y002840D01*
X008706Y002787D01*
X008706Y002627D01*
X008386Y002627D01*
X014769Y006043D02*
X014822Y005990D01*
X014929Y005990D01*
X014982Y006043D01*
X014982Y006150D01*
X014875Y006150D01*
X014769Y006257D02*
X014769Y006043D01*
X014769Y006257D02*
X014822Y006310D01*
X014929Y006310D01*
X014982Y006257D01*
X015137Y006310D02*
X015137Y005990D01*
X015351Y005990D02*
X015351Y006310D01*
X015505Y006310D02*
X015665Y006310D01*
X015719Y006257D01*
X015719Y006043D01*
X015665Y005990D01*
X015505Y005990D01*
X015505Y006310D01*
X015351Y005990D02*
X015137Y006310D01*
X017817Y004494D02*
X017817Y004414D01*
X017857Y004374D01*
X017817Y004494D02*
X017857Y004534D01*
X017897Y004534D01*
X018057Y004374D01*
X018057Y004534D01*
X018057Y004239D02*
X017937Y004119D01*
X017977Y004079D02*
X017817Y004239D01*
X017817Y004079D02*
X018057Y004079D01*
X018057Y003945D02*
X018057Y003784D01*
X017897Y003945D01*
X017857Y003945D01*
X017817Y003904D01*
X017817Y003824D01*
X017857Y003784D01*
D11*
X014101Y006595D02*
X013531Y006595D01*
X013531Y006880D01*
X013626Y006975D01*
X013816Y006975D01*
X013911Y006880D01*
X013911Y006595D01*
X014101Y007203D02*
X014101Y007393D01*
X014101Y007298D02*
X013531Y007298D01*
X013531Y007203D02*
X013531Y007393D01*
X013531Y007608D02*
X013531Y007893D01*
X013626Y007988D01*
X013816Y007988D01*
X013911Y007893D01*
X013911Y007608D01*
X014101Y007608D02*
X013531Y007608D01*
X013816Y008216D02*
X013721Y008311D01*
X013721Y008596D01*
X013531Y008596D02*
X014101Y008596D01*
X014101Y008311D01*
X014006Y008216D01*
X013816Y008216D01*
X013721Y008823D02*
X014006Y008823D01*
X014101Y008918D01*
X014101Y009204D01*
X013721Y009204D01*
X013721Y009431D02*
X013721Y009526D01*
X014101Y009526D01*
X014101Y009431D02*
X014101Y009621D01*
X014101Y009836D02*
X013721Y009836D01*
X013721Y010121D01*
X013816Y010216D01*
X014101Y010216D01*
X014006Y010444D02*
X014101Y010539D01*
X014101Y010729D01*
X014006Y010824D01*
X013816Y010824D01*
X013721Y010729D01*
X013721Y010539D01*
X013816Y010444D01*
X014006Y010444D01*
X013531Y009526D02*
X013436Y009526D01*
D12*
X015546Y009350D02*
X015546Y009050D01*
X015746Y008850D01*
X015546Y012150D02*
X015546Y012350D01*
X015746Y012550D01*
X013546Y013050D02*
X013346Y012850D01*
X011946Y012850D01*
X008646Y012850D02*
X006746Y012850D01*
X006546Y013050D01*
X005246Y010150D02*
X005446Y009950D01*
X005446Y009350D01*
X005446Y006050D02*
X005446Y005450D01*
X005246Y005250D01*
X004846Y003350D02*
X003446Y003350D01*
X003246Y003150D01*
X007046Y003350D02*
X008546Y003350D01*
X008746Y003150D01*
X011046Y004950D02*
X011246Y005150D01*
X012746Y005150D01*
X014246Y005150D02*
X015846Y005150D01*
X016046Y004950D01*
M02*
