G75*
G70*
%OFA0B0*%
%FSLAX24Y24*%
%IPPOS*%
%LPD*%
%AMOC8*
5,1,8,0,0,1.08239X$1,22.5*
%
%ADD10C,0.1320*%
%ADD11R,0.0769X0.0690*%
%ADD12R,0.0720X0.0720*%
%ADD13OC8,0.0720*%
%ADD14C,0.0800*%
%ADD15R,0.0660X0.0660*%
%ADD16OC8,0.0660*%
%ADD17R,0.0690X0.0769*%
%ADD18R,0.0560X0.0310*%
%ADD19R,0.0540X0.0940*%
%ADD20R,0.1477X0.0926*%
%ADD21R,0.0769X0.0847*%
D10*
X001621Y002790D03*
X001621Y018538D03*
X017369Y018538D03*
X017369Y002790D03*
D11*
X015309Y012407D03*
X015309Y013509D03*
D12*
X003546Y014609D03*
D13*
X002546Y014609D03*
X001546Y014609D03*
X001546Y013609D03*
X002546Y013609D03*
X003546Y013609D03*
X003440Y017109D03*
X004440Y017109D03*
X014940Y017109D03*
X015940Y017109D03*
D14*
X008546Y002609D03*
X007546Y002609D03*
X006546Y002609D03*
X005546Y002609D03*
X004546Y002609D03*
X003546Y002609D03*
D15*
X011546Y002609D03*
X011546Y003609D03*
X011546Y004609D03*
X011546Y005609D03*
X016546Y008609D03*
X016546Y010609D03*
X017546Y010609D03*
D16*
X017546Y011609D03*
X017546Y012609D03*
X017546Y013609D03*
X016546Y013609D03*
X016546Y012609D03*
X016546Y011609D03*
X016546Y007609D03*
X014546Y005609D03*
X013546Y005609D03*
X012546Y005609D03*
X012546Y004609D03*
X013546Y004609D03*
X014546Y004609D03*
X014546Y003609D03*
X013546Y003609D03*
X012546Y003609D03*
X012546Y002609D03*
X013546Y002609D03*
X014546Y002609D03*
X003546Y006609D03*
X003546Y007609D03*
X003546Y008609D03*
X003546Y009609D03*
X003546Y010609D03*
X003546Y011609D03*
X002546Y011609D03*
X001546Y011609D03*
X001546Y010609D03*
X002546Y010609D03*
X002546Y009609D03*
X001546Y009609D03*
X001546Y008609D03*
X002546Y008609D03*
X002546Y007609D03*
X001546Y007609D03*
X001546Y006609D03*
X002546Y006609D03*
X006546Y016609D03*
X006546Y017609D03*
X006546Y018609D03*
X007546Y018609D03*
X008546Y018609D03*
X008546Y017609D03*
X007546Y017609D03*
X007546Y016609D03*
X008546Y016609D03*
X009546Y016609D03*
X009546Y017609D03*
X009546Y018609D03*
X010546Y018609D03*
X011546Y018609D03*
X011546Y017609D03*
X010546Y017609D03*
X010546Y016609D03*
X011546Y016609D03*
X012546Y016609D03*
X012546Y017609D03*
X012546Y018609D03*
X013546Y018609D03*
X013546Y017609D03*
X013546Y016609D03*
D17*
X011790Y012396D03*
X010687Y012396D03*
D18*
X006446Y014300D03*
X006446Y014650D03*
X006446Y015000D03*
D19*
X012561Y012396D03*
X013471Y012396D03*
X014381Y012396D03*
D20*
X013471Y014837D03*
D21*
X005558Y005555D03*
X005558Y003961D03*
M02*
