G75*
G70*
%OFA0B0*%
%FSLAX24Y24*%
%IPPOS*%
%LPD*%
%AMOC8*
5,1,8,0,0,1.08239X$1,22.5*
%
%ADD10C,0.0000*%
D10*
X001440Y001609D02*
X017550Y001609D01*
X017610Y001611D01*
X017671Y001616D01*
X017730Y001625D01*
X017789Y001638D01*
X017848Y001654D01*
X017905Y001674D01*
X017960Y001697D01*
X018015Y001724D01*
X018067Y001753D01*
X018118Y001786D01*
X018167Y001822D01*
X018213Y001860D01*
X018257Y001902D01*
X018299Y001946D01*
X018337Y001992D01*
X018373Y002041D01*
X018406Y002092D01*
X018435Y002144D01*
X018462Y002199D01*
X018485Y002254D01*
X018505Y002311D01*
X018521Y002370D01*
X018534Y002429D01*
X018543Y002488D01*
X018548Y002549D01*
X018550Y002609D01*
X018550Y018719D01*
X018548Y018779D01*
X018543Y018840D01*
X018534Y018899D01*
X018521Y018958D01*
X018505Y019017D01*
X018485Y019074D01*
X018462Y019129D01*
X018435Y019184D01*
X018406Y019236D01*
X018373Y019287D01*
X018337Y019336D01*
X018299Y019382D01*
X018257Y019426D01*
X018213Y019468D01*
X018167Y019506D01*
X018118Y019542D01*
X018067Y019575D01*
X018015Y019604D01*
X017960Y019631D01*
X017905Y019654D01*
X017848Y019674D01*
X017789Y019690D01*
X017730Y019703D01*
X017671Y019712D01*
X017610Y019717D01*
X017550Y019719D01*
X001440Y019719D01*
X001380Y019717D01*
X001319Y019712D01*
X001260Y019703D01*
X001201Y019690D01*
X001142Y019674D01*
X001085Y019654D01*
X001030Y019631D01*
X000975Y019604D01*
X000923Y019575D01*
X000872Y019542D01*
X000823Y019506D01*
X000777Y019468D01*
X000733Y019426D01*
X000691Y019382D01*
X000653Y019336D01*
X000617Y019287D01*
X000584Y019236D01*
X000555Y019184D01*
X000528Y019129D01*
X000505Y019074D01*
X000485Y019017D01*
X000469Y018958D01*
X000456Y018899D01*
X000447Y018840D01*
X000442Y018779D01*
X000440Y018719D01*
X000440Y002609D01*
X000442Y002549D01*
X000447Y002488D01*
X000456Y002429D01*
X000469Y002370D01*
X000485Y002311D01*
X000505Y002254D01*
X000528Y002199D01*
X000555Y002144D01*
X000584Y002092D01*
X000617Y002041D01*
X000653Y001992D01*
X000691Y001946D01*
X000733Y001902D01*
X000777Y001860D01*
X000823Y001822D01*
X000872Y001786D01*
X000923Y001753D01*
X000975Y001724D01*
X001030Y001697D01*
X001085Y001674D01*
X001142Y001654D01*
X001201Y001638D01*
X001260Y001625D01*
X001319Y001616D01*
X001380Y001611D01*
X001440Y001609D01*
X000991Y002790D02*
X000993Y002840D01*
X000999Y002890D01*
X001009Y002939D01*
X001023Y002987D01*
X001040Y003034D01*
X001061Y003079D01*
X001086Y003123D01*
X001114Y003164D01*
X001146Y003203D01*
X001180Y003240D01*
X001217Y003274D01*
X001257Y003304D01*
X001299Y003331D01*
X001343Y003355D01*
X001389Y003376D01*
X001436Y003392D01*
X001484Y003405D01*
X001534Y003414D01*
X001583Y003419D01*
X001634Y003420D01*
X001684Y003417D01*
X001733Y003410D01*
X001782Y003399D01*
X001830Y003384D01*
X001876Y003366D01*
X001921Y003344D01*
X001964Y003318D01*
X002005Y003289D01*
X002044Y003257D01*
X002080Y003222D01*
X002112Y003184D01*
X002142Y003144D01*
X002169Y003101D01*
X002192Y003057D01*
X002211Y003011D01*
X002227Y002963D01*
X002239Y002914D01*
X002247Y002865D01*
X002251Y002815D01*
X002251Y002765D01*
X002247Y002715D01*
X002239Y002666D01*
X002227Y002617D01*
X002211Y002569D01*
X002192Y002523D01*
X002169Y002479D01*
X002142Y002436D01*
X002112Y002396D01*
X002080Y002358D01*
X002044Y002323D01*
X002005Y002291D01*
X001964Y002262D01*
X001921Y002236D01*
X001876Y002214D01*
X001830Y002196D01*
X001782Y002181D01*
X001733Y002170D01*
X001684Y002163D01*
X001634Y002160D01*
X001583Y002161D01*
X001534Y002166D01*
X001484Y002175D01*
X001436Y002188D01*
X001389Y002204D01*
X001343Y002225D01*
X001299Y002249D01*
X001257Y002276D01*
X001217Y002306D01*
X001180Y002340D01*
X001146Y002377D01*
X001114Y002416D01*
X001086Y002457D01*
X001061Y002501D01*
X001040Y002546D01*
X001023Y002593D01*
X001009Y002641D01*
X000999Y002690D01*
X000993Y002740D01*
X000991Y002790D01*
X000991Y018538D02*
X000993Y018588D01*
X000999Y018638D01*
X001009Y018687D01*
X001023Y018735D01*
X001040Y018782D01*
X001061Y018827D01*
X001086Y018871D01*
X001114Y018912D01*
X001146Y018951D01*
X001180Y018988D01*
X001217Y019022D01*
X001257Y019052D01*
X001299Y019079D01*
X001343Y019103D01*
X001389Y019124D01*
X001436Y019140D01*
X001484Y019153D01*
X001534Y019162D01*
X001583Y019167D01*
X001634Y019168D01*
X001684Y019165D01*
X001733Y019158D01*
X001782Y019147D01*
X001830Y019132D01*
X001876Y019114D01*
X001921Y019092D01*
X001964Y019066D01*
X002005Y019037D01*
X002044Y019005D01*
X002080Y018970D01*
X002112Y018932D01*
X002142Y018892D01*
X002169Y018849D01*
X002192Y018805D01*
X002211Y018759D01*
X002227Y018711D01*
X002239Y018662D01*
X002247Y018613D01*
X002251Y018563D01*
X002251Y018513D01*
X002247Y018463D01*
X002239Y018414D01*
X002227Y018365D01*
X002211Y018317D01*
X002192Y018271D01*
X002169Y018227D01*
X002142Y018184D01*
X002112Y018144D01*
X002080Y018106D01*
X002044Y018071D01*
X002005Y018039D01*
X001964Y018010D01*
X001921Y017984D01*
X001876Y017962D01*
X001830Y017944D01*
X001782Y017929D01*
X001733Y017918D01*
X001684Y017911D01*
X001634Y017908D01*
X001583Y017909D01*
X001534Y017914D01*
X001484Y017923D01*
X001436Y017936D01*
X001389Y017952D01*
X001343Y017973D01*
X001299Y017997D01*
X001257Y018024D01*
X001217Y018054D01*
X001180Y018088D01*
X001146Y018125D01*
X001114Y018164D01*
X001086Y018205D01*
X001061Y018249D01*
X001040Y018294D01*
X001023Y018341D01*
X001009Y018389D01*
X000999Y018438D01*
X000993Y018488D01*
X000991Y018538D01*
X016739Y018538D02*
X016741Y018588D01*
X016747Y018638D01*
X016757Y018687D01*
X016771Y018735D01*
X016788Y018782D01*
X016809Y018827D01*
X016834Y018871D01*
X016862Y018912D01*
X016894Y018951D01*
X016928Y018988D01*
X016965Y019022D01*
X017005Y019052D01*
X017047Y019079D01*
X017091Y019103D01*
X017137Y019124D01*
X017184Y019140D01*
X017232Y019153D01*
X017282Y019162D01*
X017331Y019167D01*
X017382Y019168D01*
X017432Y019165D01*
X017481Y019158D01*
X017530Y019147D01*
X017578Y019132D01*
X017624Y019114D01*
X017669Y019092D01*
X017712Y019066D01*
X017753Y019037D01*
X017792Y019005D01*
X017828Y018970D01*
X017860Y018932D01*
X017890Y018892D01*
X017917Y018849D01*
X017940Y018805D01*
X017959Y018759D01*
X017975Y018711D01*
X017987Y018662D01*
X017995Y018613D01*
X017999Y018563D01*
X017999Y018513D01*
X017995Y018463D01*
X017987Y018414D01*
X017975Y018365D01*
X017959Y018317D01*
X017940Y018271D01*
X017917Y018227D01*
X017890Y018184D01*
X017860Y018144D01*
X017828Y018106D01*
X017792Y018071D01*
X017753Y018039D01*
X017712Y018010D01*
X017669Y017984D01*
X017624Y017962D01*
X017578Y017944D01*
X017530Y017929D01*
X017481Y017918D01*
X017432Y017911D01*
X017382Y017908D01*
X017331Y017909D01*
X017282Y017914D01*
X017232Y017923D01*
X017184Y017936D01*
X017137Y017952D01*
X017091Y017973D01*
X017047Y017997D01*
X017005Y018024D01*
X016965Y018054D01*
X016928Y018088D01*
X016894Y018125D01*
X016862Y018164D01*
X016834Y018205D01*
X016809Y018249D01*
X016788Y018294D01*
X016771Y018341D01*
X016757Y018389D01*
X016747Y018438D01*
X016741Y018488D01*
X016739Y018538D01*
X016739Y002790D02*
X016741Y002840D01*
X016747Y002890D01*
X016757Y002939D01*
X016771Y002987D01*
X016788Y003034D01*
X016809Y003079D01*
X016834Y003123D01*
X016862Y003164D01*
X016894Y003203D01*
X016928Y003240D01*
X016965Y003274D01*
X017005Y003304D01*
X017047Y003331D01*
X017091Y003355D01*
X017137Y003376D01*
X017184Y003392D01*
X017232Y003405D01*
X017282Y003414D01*
X017331Y003419D01*
X017382Y003420D01*
X017432Y003417D01*
X017481Y003410D01*
X017530Y003399D01*
X017578Y003384D01*
X017624Y003366D01*
X017669Y003344D01*
X017712Y003318D01*
X017753Y003289D01*
X017792Y003257D01*
X017828Y003222D01*
X017860Y003184D01*
X017890Y003144D01*
X017917Y003101D01*
X017940Y003057D01*
X017959Y003011D01*
X017975Y002963D01*
X017987Y002914D01*
X017995Y002865D01*
X017999Y002815D01*
X017999Y002765D01*
X017995Y002715D01*
X017987Y002666D01*
X017975Y002617D01*
X017959Y002569D01*
X017940Y002523D01*
X017917Y002479D01*
X017890Y002436D01*
X017860Y002396D01*
X017828Y002358D01*
X017792Y002323D01*
X017753Y002291D01*
X017712Y002262D01*
X017669Y002236D01*
X017624Y002214D01*
X017578Y002196D01*
X017530Y002181D01*
X017481Y002170D01*
X017432Y002163D01*
X017382Y002160D01*
X017331Y002161D01*
X017282Y002166D01*
X017232Y002175D01*
X017184Y002188D01*
X017137Y002204D01*
X017091Y002225D01*
X017047Y002249D01*
X017005Y002276D01*
X016965Y002306D01*
X016928Y002340D01*
X016894Y002377D01*
X016862Y002416D01*
X016834Y002457D01*
X016809Y002501D01*
X016788Y002546D01*
X016771Y002593D01*
X016757Y002641D01*
X016747Y002690D01*
X016741Y002740D01*
X016739Y002790D01*
M02*
