G75*
G70*
%OFA0B0*%
%FSLAX24Y24*%
%IPPOS*%
%LPD*%
%AMOC8*
5,1,8,0,0,1.08239X$1,22.5*
%
%ADD10C,0.1320*%
%ADD11R,0.0560X0.0280*%
%ADD12R,0.0280X0.0560*%
%ADD13R,0.0493X0.0454*%
%ADD14R,0.0454X0.0493*%
%ADD15R,0.0720X0.0720*%
%ADD16OC8,0.0720*%
%ADD17R,0.0847X0.0257*%
%ADD18C,0.0800*%
%ADD19R,0.0660X0.0660*%
%ADD20OC8,0.0660*%
%ADD21R,0.0414X0.0729*%
D10*
X001621Y002790D03*
X001621Y018538D03*
X017369Y018538D03*
X017369Y002790D03*
D11*
X011036Y008806D03*
X011036Y009121D03*
X011036Y009436D03*
X011036Y009751D03*
X011036Y010066D03*
X011036Y010381D03*
X011036Y010696D03*
X011036Y011011D03*
X007656Y011011D03*
X007656Y010696D03*
X007656Y010381D03*
X007656Y010066D03*
X007656Y009751D03*
X007656Y009436D03*
X007656Y009121D03*
X007656Y008806D03*
D12*
X008244Y008219D03*
X008559Y008219D03*
X008874Y008219D03*
X009189Y008219D03*
X009504Y008219D03*
X009819Y008219D03*
X010134Y008219D03*
X010449Y008219D03*
X010449Y011599D03*
X010134Y011599D03*
X009819Y011599D03*
X009504Y011599D03*
X009189Y011599D03*
X008874Y011599D03*
X008559Y011599D03*
X008244Y011599D03*
D13*
X008652Y007153D03*
X008652Y006483D03*
X016212Y005695D03*
X016212Y005026D03*
X016877Y005026D03*
X016877Y005695D03*
X014940Y015174D03*
X014940Y015843D03*
X002533Y016302D03*
X002533Y016972D03*
D14*
X006846Y010443D03*
X006846Y009774D03*
X009352Y007167D03*
X009352Y006498D03*
X011787Y009457D03*
X011787Y010126D03*
D15*
X003546Y014609D03*
D16*
X002546Y014609D03*
X001546Y014609D03*
X001546Y013609D03*
X002546Y013609D03*
X003546Y013609D03*
X003440Y017109D03*
X004440Y017109D03*
X014940Y017109D03*
X015940Y017109D03*
D17*
X012861Y011333D03*
X012861Y010861D03*
X012861Y010388D03*
D18*
X008546Y002609D03*
X007546Y002609D03*
X006546Y002609D03*
X005546Y002609D03*
X004546Y002609D03*
X003546Y002609D03*
D19*
X011546Y002609D03*
X011546Y003609D03*
X011546Y004609D03*
X011546Y005609D03*
X016546Y008609D03*
X016546Y010609D03*
X017546Y010609D03*
D20*
X017546Y011609D03*
X017546Y012609D03*
X017546Y013609D03*
X016546Y013609D03*
X016546Y012609D03*
X016546Y011609D03*
X016546Y007609D03*
X014546Y005609D03*
X013546Y005609D03*
X012546Y005609D03*
X012546Y004609D03*
X013546Y004609D03*
X014546Y004609D03*
X014546Y003609D03*
X013546Y003609D03*
X012546Y003609D03*
X012546Y002609D03*
X013546Y002609D03*
X014546Y002609D03*
X003546Y006609D03*
X003546Y007609D03*
X003546Y008609D03*
X003546Y009609D03*
X003546Y010609D03*
X003546Y011609D03*
X002546Y011609D03*
X001546Y011609D03*
X001546Y010609D03*
X002546Y010609D03*
X002546Y009609D03*
X001546Y009609D03*
X001546Y008609D03*
X002546Y008609D03*
X002546Y007609D03*
X001546Y007609D03*
X001546Y006609D03*
X002546Y006609D03*
X006546Y016609D03*
X006546Y017609D03*
X006546Y018609D03*
X007546Y018609D03*
X008546Y018609D03*
X008546Y017609D03*
X007546Y017609D03*
X007546Y016609D03*
X008546Y016609D03*
X009546Y016609D03*
X009546Y017609D03*
X009546Y018609D03*
X010546Y018609D03*
X011546Y018609D03*
X011546Y017609D03*
X010546Y017609D03*
X010546Y016609D03*
X011546Y016609D03*
X012546Y016609D03*
X012546Y017609D03*
X012546Y018609D03*
X013546Y018609D03*
X013546Y017609D03*
X013546Y016609D03*
D21*
X007684Y006254D03*
X006031Y006254D03*
M02*
