G75*
G70*
%OFA0B0*%
%FSLAX24Y24*%
%IPPOS*%
%LPD*%
%AMOC8*
5,1,8,0,0,1.08239X$1,22.5*
%
%ADD10R,0.0709X0.0630*%
%ADD11R,0.0660X0.0660*%
%ADD12OC8,0.0660*%
%ADD13C,0.0740*%
%ADD14R,0.0600X0.0600*%
%ADD15OC8,0.0600*%
%ADD16R,0.0630X0.0709*%
%ADD17R,0.0500X0.0250*%
%ADD18R,0.0480X0.0880*%
%ADD19R,0.1417X0.0866*%
%ADD20R,0.0709X0.0787*%
%ADD21C,0.0100*%
%ADD22C,0.0270*%
%ADD23C,0.0320*%
%ADD24C,0.0240*%
D10*
X015309Y012407D03*
X015309Y013509D03*
D11*
X003546Y014609D03*
D12*
X002546Y014609D03*
X001546Y014609D03*
X001546Y013609D03*
X002546Y013609D03*
X003546Y013609D03*
X003440Y017109D03*
X004440Y017109D03*
X014940Y017109D03*
X015940Y017109D03*
D13*
X008546Y002609D03*
X007546Y002609D03*
X006546Y002609D03*
X005546Y002609D03*
X004546Y002609D03*
X003546Y002609D03*
D14*
X011546Y002609D03*
X011546Y003609D03*
X011546Y004609D03*
X011546Y005609D03*
X016546Y008609D03*
X016546Y010609D03*
X017546Y010609D03*
D15*
X017546Y011609D03*
X017546Y012609D03*
X017546Y013609D03*
X016546Y013609D03*
X016546Y012609D03*
X016546Y011609D03*
X016546Y007609D03*
X014546Y005609D03*
X013546Y005609D03*
X012546Y005609D03*
X012546Y004609D03*
X013546Y004609D03*
X014546Y004609D03*
X014546Y003609D03*
X013546Y003609D03*
X012546Y003609D03*
X012546Y002609D03*
X013546Y002609D03*
X014546Y002609D03*
X003546Y006609D03*
X003546Y007609D03*
X003546Y008609D03*
X003546Y009609D03*
X003546Y010609D03*
X003546Y011609D03*
X002546Y011609D03*
X001546Y011609D03*
X001546Y010609D03*
X002546Y010609D03*
X002546Y009609D03*
X001546Y009609D03*
X001546Y008609D03*
X002546Y008609D03*
X002546Y007609D03*
X001546Y007609D03*
X001546Y006609D03*
X002546Y006609D03*
X006546Y016609D03*
X006546Y017609D03*
X006546Y018609D03*
X007546Y018609D03*
X008546Y018609D03*
X008546Y017609D03*
X007546Y017609D03*
X007546Y016609D03*
X008546Y016609D03*
X009546Y016609D03*
X009546Y017609D03*
X009546Y018609D03*
X010546Y018609D03*
X011546Y018609D03*
X011546Y017609D03*
X010546Y017609D03*
X010546Y016609D03*
X011546Y016609D03*
X012546Y016609D03*
X012546Y017609D03*
X012546Y018609D03*
X013546Y018609D03*
X013546Y017609D03*
X013546Y016609D03*
D16*
X011790Y012396D03*
X010687Y012396D03*
D17*
X006446Y014300D03*
X006446Y014650D03*
X006446Y015000D03*
D18*
X012561Y012396D03*
X013471Y012396D03*
X014381Y012396D03*
D19*
X013471Y014837D03*
D20*
X005558Y005555D03*
X005558Y003961D03*
D21*
X001307Y001769D02*
X001054Y001851D01*
X000839Y002008D01*
X000683Y002223D01*
X000600Y002476D01*
X000590Y002609D01*
X000590Y018719D01*
X000600Y018852D01*
X000683Y019105D01*
X000839Y019320D01*
X001054Y019476D01*
X001307Y019558D01*
X001440Y019569D01*
X017550Y019569D01*
X017683Y019558D01*
X017936Y019476D01*
X018151Y019320D01*
X018308Y019105D01*
X018390Y018852D01*
X018400Y018719D01*
X018400Y002609D01*
X018390Y002476D01*
X018308Y002223D01*
X018151Y002008D01*
X017936Y001851D01*
X017683Y001769D01*
X017550Y001759D01*
X001440Y001759D01*
X001307Y001769D01*
X001195Y001806D02*
X017796Y001806D01*
X018009Y001904D02*
X000981Y001904D01*
X000846Y002003D02*
X018144Y002003D01*
X018219Y002101D02*
X017745Y002101D01*
X017811Y002128D02*
X017524Y002010D01*
X017214Y002010D01*
X016927Y002128D01*
X016708Y002348D01*
X016589Y002635D01*
X016589Y002945D01*
X016708Y003231D01*
X016927Y003451D01*
X017214Y003570D01*
X017524Y003570D01*
X017811Y003451D01*
X018030Y003231D01*
X018149Y002945D01*
X018149Y002635D01*
X018030Y002348D01*
X017811Y002128D01*
X017882Y002200D02*
X018291Y002200D01*
X018332Y002298D02*
X017980Y002298D01*
X018050Y002397D02*
X018364Y002397D01*
X018391Y002495D02*
X018091Y002495D01*
X018132Y002594D02*
X018399Y002594D01*
X018400Y002692D02*
X018149Y002692D01*
X018149Y002791D02*
X018400Y002791D01*
X018400Y002889D02*
X018149Y002889D01*
X018131Y002988D02*
X018400Y002988D01*
X018400Y003086D02*
X018091Y003086D01*
X018050Y003185D02*
X018400Y003185D01*
X018400Y003283D02*
X017979Y003283D01*
X017880Y003382D02*
X018400Y003382D01*
X018400Y003480D02*
X017740Y003480D01*
X018400Y003579D02*
X014956Y003579D01*
X014956Y003677D02*
X018400Y003677D01*
X018400Y003776D02*
X014956Y003776D01*
X014956Y003778D02*
X014716Y004019D01*
X014376Y004019D01*
X014136Y003778D01*
X014136Y003439D01*
X014376Y003199D01*
X014716Y003199D01*
X014956Y003439D01*
X014956Y003778D01*
X014861Y003874D02*
X018400Y003874D01*
X018400Y003973D02*
X014762Y003973D01*
X014716Y004199D02*
X014376Y004199D01*
X014136Y004439D01*
X014136Y004778D01*
X014376Y005019D01*
X014716Y005019D01*
X014956Y004778D01*
X014956Y004439D01*
X014716Y004199D01*
X014786Y004268D02*
X018400Y004268D01*
X018400Y004170D02*
X011212Y004170D01*
X011201Y004199D02*
X011892Y004199D01*
X011956Y004263D01*
X011956Y004954D01*
X011892Y005019D01*
X011363Y005019D01*
X011106Y005275D01*
X011106Y008375D01*
X011013Y008469D01*
X009934Y009547D01*
X009333Y009547D01*
X009285Y009595D01*
X009195Y009632D01*
X009098Y009632D01*
X009007Y009595D01*
X008939Y009526D01*
X008901Y009436D01*
X008901Y009339D01*
X008939Y009249D01*
X009007Y009180D01*
X009098Y009142D01*
X009195Y009142D01*
X009285Y009180D01*
X009333Y009227D01*
X009801Y009227D01*
X010786Y008242D01*
X010786Y005142D01*
X011136Y004792D01*
X011136Y004263D01*
X011201Y004199D01*
X011136Y004268D02*
X011113Y004268D01*
X011136Y004367D02*
X011015Y004367D01*
X010916Y004465D02*
X011136Y004465D01*
X011136Y004564D02*
X010818Y004564D01*
X010719Y004662D02*
X011136Y004662D01*
X011136Y004761D02*
X010706Y004761D01*
X010706Y004675D02*
X010706Y008175D01*
X010613Y008269D01*
X009813Y009069D01*
X009533Y009069D01*
X009485Y009116D01*
X009395Y009154D01*
X009298Y009154D01*
X009207Y009116D01*
X009139Y009047D01*
X009101Y008957D01*
X009101Y008860D01*
X009139Y008770D01*
X009207Y008701D01*
X009298Y008664D01*
X009395Y008664D01*
X009485Y008701D01*
X009533Y008749D01*
X009680Y008749D01*
X010386Y008042D01*
X010386Y004542D01*
X010480Y004449D01*
X011136Y003792D01*
X011136Y003263D01*
X011201Y003199D01*
X011892Y003199D01*
X011956Y003263D01*
X011956Y003492D01*
X012006Y003542D01*
X012006Y003675D01*
X011956Y003725D01*
X011956Y003954D01*
X011892Y004019D01*
X011363Y004019D01*
X010706Y004675D01*
X010546Y004609D02*
X011546Y003609D01*
X011846Y003609D01*
X012006Y003579D02*
X012136Y003579D01*
X012136Y003677D02*
X012004Y003677D01*
X011956Y003776D02*
X012136Y003776D01*
X012136Y003778D02*
X012136Y003439D01*
X012376Y003199D01*
X012716Y003199D01*
X012956Y003439D01*
X012956Y003778D01*
X012716Y004019D01*
X012376Y004019D01*
X012136Y003778D01*
X012232Y003874D02*
X011956Y003874D01*
X011938Y003973D02*
X012330Y003973D01*
X012376Y004199D02*
X012716Y004199D01*
X012956Y004439D01*
X012956Y004778D01*
X012716Y005019D01*
X012376Y005019D01*
X012136Y004778D01*
X012136Y004439D01*
X012376Y004199D01*
X012307Y004268D02*
X011956Y004268D01*
X011956Y004367D02*
X012208Y004367D01*
X012136Y004465D02*
X011956Y004465D01*
X011956Y004564D02*
X012136Y004564D01*
X012136Y004662D02*
X011956Y004662D01*
X011956Y004761D02*
X012136Y004761D01*
X012217Y004859D02*
X011956Y004859D01*
X011953Y004958D02*
X012315Y004958D01*
X012376Y005199D02*
X012716Y005199D01*
X012956Y005439D01*
X012956Y005778D01*
X012716Y006019D01*
X012376Y006019D01*
X012136Y005778D01*
X012136Y005439D01*
X012376Y005199D01*
X012322Y005253D02*
X011946Y005253D01*
X011956Y005263D02*
X011892Y005199D01*
X011201Y005199D01*
X011136Y005263D01*
X011136Y005954D01*
X011201Y006019D01*
X011892Y006019D01*
X011956Y005954D01*
X011956Y005263D01*
X011956Y005352D02*
X012223Y005352D01*
X012136Y005450D02*
X011956Y005450D01*
X011956Y005549D02*
X012136Y005549D01*
X012136Y005647D02*
X011956Y005647D01*
X011956Y005746D02*
X012136Y005746D01*
X012202Y005844D02*
X011956Y005844D01*
X011956Y005943D02*
X012300Y005943D01*
X012792Y005943D02*
X013300Y005943D01*
X013376Y006019D02*
X013136Y005778D01*
X013136Y005439D01*
X013376Y005199D01*
X013716Y005199D01*
X013956Y005439D01*
X013956Y005778D01*
X013716Y006019D01*
X013376Y006019D01*
X013202Y005844D02*
X012891Y005844D01*
X012956Y005746D02*
X013136Y005746D01*
X013136Y005647D02*
X012956Y005647D01*
X012956Y005549D02*
X013136Y005549D01*
X013136Y005450D02*
X012956Y005450D01*
X012869Y005352D02*
X013223Y005352D01*
X013322Y005253D02*
X012771Y005253D01*
X012777Y004958D02*
X013315Y004958D01*
X013376Y005019D02*
X013136Y004778D01*
X013136Y004439D01*
X013376Y004199D01*
X013716Y004199D01*
X013956Y004439D01*
X013956Y004778D01*
X013716Y005019D01*
X013376Y005019D01*
X013217Y004859D02*
X012876Y004859D01*
X012956Y004761D02*
X013136Y004761D01*
X013136Y004662D02*
X012956Y004662D01*
X012956Y004564D02*
X013136Y004564D01*
X013136Y004465D02*
X012956Y004465D01*
X012884Y004367D02*
X013208Y004367D01*
X013307Y004268D02*
X012786Y004268D01*
X012762Y003973D02*
X013330Y003973D01*
X013376Y004019D02*
X013136Y003778D01*
X013136Y003439D01*
X013376Y003199D01*
X013716Y003199D01*
X013956Y003439D01*
X013956Y003778D01*
X013716Y004019D01*
X013376Y004019D01*
X013232Y003874D02*
X012861Y003874D01*
X012956Y003776D02*
X013136Y003776D01*
X013136Y003677D02*
X012956Y003677D01*
X012956Y003579D02*
X013136Y003579D01*
X013136Y003480D02*
X012956Y003480D01*
X012899Y003382D02*
X013193Y003382D01*
X013292Y003283D02*
X012801Y003283D01*
X012733Y003059D02*
X012596Y003059D01*
X012596Y002659D01*
X012496Y002659D01*
X012496Y003059D01*
X012360Y003059D01*
X012096Y002795D01*
X012096Y002659D01*
X012496Y002659D01*
X012496Y002559D01*
X012096Y002559D01*
X012096Y002422D01*
X012360Y002159D01*
X012496Y002159D01*
X012496Y002559D01*
X012596Y002559D01*
X012596Y002659D01*
X012996Y002659D01*
X012996Y002795D01*
X012733Y003059D01*
X012804Y002988D02*
X013289Y002988D01*
X013360Y003059D02*
X013096Y002795D01*
X013096Y002659D01*
X013496Y002659D01*
X013496Y003059D01*
X013360Y003059D01*
X013496Y002988D02*
X013596Y002988D01*
X013596Y003059D02*
X013733Y003059D01*
X013996Y002795D01*
X013996Y002659D01*
X013596Y002659D01*
X013496Y002659D01*
X013496Y002559D01*
X013096Y002559D01*
X013096Y002422D01*
X013360Y002159D01*
X013496Y002159D01*
X013496Y002559D01*
X013596Y002559D01*
X013596Y002659D01*
X013596Y003059D01*
X013596Y002889D02*
X013496Y002889D01*
X013496Y002791D02*
X013596Y002791D01*
X013596Y002692D02*
X013496Y002692D01*
X013496Y002594D02*
X012596Y002594D01*
X012596Y002559D02*
X012996Y002559D01*
X012996Y002422D01*
X012733Y002159D01*
X012596Y002159D01*
X012596Y002559D01*
X012596Y002495D02*
X012496Y002495D01*
X012496Y002397D02*
X012596Y002397D01*
X012596Y002298D02*
X012496Y002298D01*
X012496Y002200D02*
X012596Y002200D01*
X012774Y002200D02*
X013319Y002200D01*
X013220Y002298D02*
X012872Y002298D01*
X012971Y002397D02*
X013122Y002397D01*
X013096Y002495D02*
X012996Y002495D01*
X012996Y002692D02*
X013096Y002692D01*
X013096Y002791D02*
X012996Y002791D01*
X012902Y002889D02*
X013190Y002889D01*
X013496Y002495D02*
X013596Y002495D01*
X013596Y002559D02*
X013596Y002159D01*
X013733Y002159D01*
X013996Y002422D01*
X013996Y002559D01*
X013596Y002559D01*
X013596Y002594D02*
X014496Y002594D01*
X014496Y002559D02*
X014496Y002659D01*
X014496Y003059D01*
X014360Y003059D01*
X014096Y002795D01*
X014096Y002659D01*
X014496Y002659D01*
X014596Y002659D01*
X014596Y003059D01*
X014733Y003059D01*
X014996Y002795D01*
X014996Y002659D01*
X014596Y002659D01*
X014596Y002559D01*
X014996Y002559D01*
X014996Y002422D01*
X014733Y002159D01*
X014596Y002159D01*
X014596Y002559D01*
X014496Y002559D01*
X014096Y002559D01*
X014096Y002422D01*
X014360Y002159D01*
X014496Y002159D01*
X014496Y002559D01*
X014496Y002495D02*
X014596Y002495D01*
X014596Y002397D02*
X014496Y002397D01*
X014496Y002298D02*
X014596Y002298D01*
X014596Y002200D02*
X014496Y002200D01*
X014319Y002200D02*
X013774Y002200D01*
X013872Y002298D02*
X014220Y002298D01*
X014122Y002397D02*
X013971Y002397D01*
X013996Y002495D02*
X014096Y002495D01*
X014096Y002692D02*
X013996Y002692D01*
X013996Y002791D02*
X014096Y002791D01*
X014190Y002889D02*
X013902Y002889D01*
X013804Y002988D02*
X014289Y002988D01*
X014496Y002988D02*
X014596Y002988D01*
X014596Y002889D02*
X014496Y002889D01*
X014496Y002791D02*
X014596Y002791D01*
X014596Y002692D02*
X014496Y002692D01*
X014596Y002594D02*
X016606Y002594D01*
X016589Y002692D02*
X014996Y002692D01*
X014996Y002791D02*
X016589Y002791D01*
X016589Y002889D02*
X014902Y002889D01*
X014804Y002988D02*
X016607Y002988D01*
X016648Y003086D02*
X008648Y003086D01*
X008642Y003089D02*
X008451Y003089D01*
X008274Y003015D01*
X008139Y002880D01*
X008066Y002704D01*
X008066Y002513D01*
X008139Y002337D01*
X008274Y002202D01*
X008451Y002129D01*
X008642Y002129D01*
X008818Y002202D01*
X008953Y002337D01*
X009026Y002513D01*
X009026Y002704D01*
X008953Y002880D01*
X008818Y003015D01*
X008642Y003089D01*
X008445Y003086D02*
X007706Y003086D01*
X007706Y003062D02*
X007706Y003936D01*
X010115Y006345D01*
X010182Y006345D01*
X010272Y006382D01*
X010341Y006451D01*
X010379Y006541D01*
X010379Y006638D01*
X010341Y006728D01*
X010272Y006797D01*
X010182Y006835D01*
X010085Y006835D01*
X009995Y006797D01*
X009926Y006728D01*
X009889Y006638D01*
X009889Y006571D01*
X007480Y004162D01*
X007386Y004069D01*
X007386Y003062D01*
X007274Y003015D01*
X007139Y002880D01*
X007066Y002704D01*
X007066Y002513D01*
X007139Y002337D01*
X007274Y002202D01*
X007451Y002129D01*
X007642Y002129D01*
X007818Y002202D01*
X007953Y002337D01*
X008026Y002513D01*
X008026Y002704D01*
X007953Y002880D01*
X007818Y003015D01*
X007706Y003062D01*
X007706Y003185D02*
X016688Y003185D01*
X016760Y003283D02*
X014801Y003283D01*
X014899Y003382D02*
X016858Y003382D01*
X016998Y003480D02*
X014956Y003480D01*
X014292Y003283D02*
X013801Y003283D01*
X013899Y003382D02*
X014193Y003382D01*
X014136Y003480D02*
X013956Y003480D01*
X013956Y003579D02*
X014136Y003579D01*
X014136Y003677D02*
X013956Y003677D01*
X013956Y003776D02*
X014136Y003776D01*
X014232Y003874D02*
X013861Y003874D01*
X013762Y003973D02*
X014330Y003973D01*
X014307Y004268D02*
X013786Y004268D01*
X013884Y004367D02*
X014208Y004367D01*
X014136Y004465D02*
X013956Y004465D01*
X013956Y004564D02*
X014136Y004564D01*
X014136Y004662D02*
X013956Y004662D01*
X013956Y004761D02*
X014136Y004761D01*
X014217Y004859D02*
X013876Y004859D01*
X013777Y004958D02*
X014315Y004958D01*
X014376Y005199D02*
X014716Y005199D01*
X014956Y005439D01*
X014956Y005778D01*
X014716Y006019D01*
X014376Y006019D01*
X014136Y005778D01*
X014136Y005439D01*
X014376Y005199D01*
X014322Y005253D02*
X013771Y005253D01*
X013869Y005352D02*
X014223Y005352D01*
X014136Y005450D02*
X013956Y005450D01*
X013956Y005549D02*
X014136Y005549D01*
X014136Y005647D02*
X013956Y005647D01*
X013956Y005746D02*
X014136Y005746D01*
X014202Y005844D02*
X013891Y005844D01*
X013792Y005943D02*
X014300Y005943D01*
X014792Y005943D02*
X018400Y005943D01*
X018400Y006041D02*
X011106Y006041D01*
X011106Y005943D02*
X011136Y005943D01*
X011136Y005844D02*
X011106Y005844D01*
X011106Y005746D02*
X011136Y005746D01*
X011136Y005647D02*
X011106Y005647D01*
X011106Y005549D02*
X011136Y005549D01*
X011136Y005450D02*
X011106Y005450D01*
X011106Y005352D02*
X011136Y005352D01*
X011128Y005253D02*
X011146Y005253D01*
X011227Y005155D02*
X018400Y005155D01*
X018400Y005253D02*
X014771Y005253D01*
X014869Y005352D02*
X018400Y005352D01*
X018400Y005450D02*
X014956Y005450D01*
X014956Y005549D02*
X018400Y005549D01*
X018400Y005647D02*
X014956Y005647D01*
X014956Y005746D02*
X018400Y005746D01*
X018400Y005844D02*
X014891Y005844D01*
X014777Y004958D02*
X018400Y004958D01*
X018400Y005056D02*
X011325Y005056D01*
X011069Y004859D02*
X010706Y004859D01*
X010706Y004958D02*
X010971Y004958D01*
X010872Y005056D02*
X010706Y005056D01*
X010706Y005155D02*
X010786Y005155D01*
X010786Y005253D02*
X010706Y005253D01*
X010706Y005352D02*
X010786Y005352D01*
X010786Y005450D02*
X010706Y005450D01*
X010706Y005549D02*
X010786Y005549D01*
X010786Y005647D02*
X010706Y005647D01*
X010706Y005746D02*
X010786Y005746D01*
X010786Y005844D02*
X010706Y005844D01*
X010706Y005943D02*
X010786Y005943D01*
X010786Y006041D02*
X010706Y006041D01*
X010706Y006140D02*
X010786Y006140D01*
X010786Y006238D02*
X010706Y006238D01*
X010706Y006337D02*
X010786Y006337D01*
X010786Y006435D02*
X010706Y006435D01*
X010706Y006534D02*
X010786Y006534D01*
X010786Y006632D02*
X010706Y006632D01*
X010706Y006731D02*
X010786Y006731D01*
X010786Y006829D02*
X010706Y006829D01*
X010706Y006928D02*
X010786Y006928D01*
X010786Y007026D02*
X010706Y007026D01*
X010706Y007125D02*
X010786Y007125D01*
X010786Y007223D02*
X010706Y007223D01*
X010706Y007322D02*
X010786Y007322D01*
X010786Y007420D02*
X010706Y007420D01*
X010706Y007519D02*
X010786Y007519D01*
X010786Y007617D02*
X010706Y007617D01*
X010706Y007716D02*
X010786Y007716D01*
X010786Y007814D02*
X010706Y007814D01*
X010706Y007913D02*
X010786Y007913D01*
X010786Y008011D02*
X010706Y008011D01*
X010706Y008110D02*
X010786Y008110D01*
X010786Y008208D02*
X010673Y008208D01*
X010722Y008307D02*
X010575Y008307D01*
X010623Y008405D02*
X010476Y008405D01*
X010525Y008504D02*
X010378Y008504D01*
X010426Y008602D02*
X010279Y008602D01*
X010328Y008701D02*
X010181Y008701D01*
X010229Y008799D02*
X010082Y008799D01*
X010131Y008898D02*
X009984Y008898D01*
X010032Y008996D02*
X009885Y008996D01*
X009934Y009095D02*
X009507Y009095D01*
X009299Y009193D02*
X009835Y009193D01*
X009868Y009387D02*
X010946Y008309D01*
X010946Y005209D01*
X011546Y004609D01*
X011310Y004071D02*
X018400Y004071D01*
X018400Y004367D02*
X014884Y004367D01*
X014956Y004465D02*
X018400Y004465D01*
X018400Y004564D02*
X014956Y004564D01*
X014956Y004662D02*
X018400Y004662D01*
X018400Y004761D02*
X014956Y004761D01*
X014876Y004859D02*
X018400Y004859D01*
X018400Y006140D02*
X011106Y006140D01*
X011106Y006238D02*
X018400Y006238D01*
X018400Y006337D02*
X011106Y006337D01*
X011106Y006435D02*
X018400Y006435D01*
X018400Y006534D02*
X011106Y006534D01*
X011106Y006632D02*
X018400Y006632D01*
X018400Y006731D02*
X011106Y006731D01*
X011106Y006829D02*
X018400Y006829D01*
X018400Y006928D02*
X011106Y006928D01*
X011106Y007026D02*
X018400Y007026D01*
X018400Y007125D02*
X011106Y007125D01*
X011106Y007223D02*
X016295Y007223D01*
X016360Y007159D02*
X016096Y007422D01*
X016096Y007559D01*
X016496Y007559D01*
X016496Y007659D01*
X016496Y008059D01*
X016360Y008059D01*
X016096Y007795D01*
X016096Y007659D01*
X016496Y007659D01*
X016596Y007659D01*
X016596Y008059D01*
X016733Y008059D01*
X016996Y007795D01*
X016996Y007659D01*
X016596Y007659D01*
X016596Y007559D01*
X016996Y007559D01*
X016996Y007422D01*
X016733Y007159D01*
X016596Y007159D01*
X016596Y007559D01*
X016496Y007559D01*
X016496Y007159D01*
X016360Y007159D01*
X016496Y007223D02*
X016596Y007223D01*
X016596Y007322D02*
X016496Y007322D01*
X016496Y007420D02*
X016596Y007420D01*
X016596Y007519D02*
X016496Y007519D01*
X016496Y007617D02*
X011106Y007617D01*
X011106Y007519D02*
X016096Y007519D01*
X016098Y007420D02*
X011106Y007420D01*
X011106Y007322D02*
X016197Y007322D01*
X016096Y007716D02*
X011106Y007716D01*
X011106Y007814D02*
X016115Y007814D01*
X016214Y007913D02*
X011106Y007913D01*
X011106Y008011D02*
X016312Y008011D01*
X016496Y008011D02*
X016596Y008011D01*
X016596Y007913D02*
X016496Y007913D01*
X016496Y007814D02*
X016596Y007814D01*
X016596Y007716D02*
X016496Y007716D01*
X016596Y007617D02*
X018400Y007617D01*
X018400Y007519D02*
X016996Y007519D01*
X016994Y007420D02*
X018400Y007420D01*
X018400Y007322D02*
X016896Y007322D01*
X016797Y007223D02*
X018400Y007223D01*
X018400Y007716D02*
X016996Y007716D01*
X016977Y007814D02*
X018400Y007814D01*
X018400Y007913D02*
X016879Y007913D01*
X016780Y008011D02*
X018400Y008011D01*
X018400Y008110D02*
X011106Y008110D01*
X011106Y008208D02*
X016191Y008208D01*
X016201Y008199D02*
X016892Y008199D01*
X016956Y008263D01*
X016956Y008954D01*
X016892Y009019D01*
X016201Y009019D01*
X016136Y008954D01*
X016136Y008879D01*
X016031Y008879D01*
X012911Y011962D01*
X012911Y012827D01*
X013121Y012827D01*
X013121Y011911D01*
X013186Y011846D01*
X013757Y011846D01*
X013821Y011911D01*
X013821Y012827D01*
X013991Y012827D01*
X013991Y012446D01*
X014331Y012446D01*
X014331Y012346D01*
X014431Y012346D01*
X014431Y011806D01*
X014641Y011806D01*
X014679Y011817D01*
X014714Y011836D01*
X014741Y011864D01*
X014761Y011899D01*
X014771Y011937D01*
X014771Y012346D01*
X014431Y012346D01*
X014431Y012446D01*
X014771Y012446D01*
X014771Y012827D01*
X014847Y012827D01*
X014835Y012814D01*
X014815Y012780D01*
X014805Y012742D01*
X014805Y012457D01*
X015259Y012457D01*
X015259Y012357D01*
X014805Y012357D01*
X014805Y012072D01*
X014815Y012034D01*
X014835Y012000D01*
X014863Y011972D01*
X014897Y011952D01*
X014935Y011942D01*
X015259Y011942D01*
X015259Y012357D01*
X015359Y012357D01*
X015359Y011942D01*
X015683Y011942D01*
X015721Y011952D01*
X015756Y011972D01*
X015784Y012000D01*
X015803Y012034D01*
X015814Y012072D01*
X015814Y012357D01*
X015359Y012357D01*
X015359Y012457D01*
X015814Y012457D01*
X015814Y012742D01*
X015803Y012780D01*
X015784Y012814D01*
X015771Y012827D01*
X015831Y012827D01*
X015831Y010086D01*
X015925Y009992D01*
X017042Y009992D01*
X017135Y010086D01*
X017135Y010207D01*
X017154Y010189D01*
X017188Y010169D01*
X017227Y010159D01*
X017496Y010159D01*
X017496Y010559D01*
X017596Y010559D01*
X017596Y010659D01*
X017496Y010659D01*
X017496Y011059D01*
X017227Y011059D01*
X017188Y011048D01*
X017154Y011029D01*
X017135Y011010D01*
X017135Y011383D01*
X017360Y011159D01*
X017496Y011159D01*
X017496Y011559D01*
X017596Y011559D01*
X017596Y011659D01*
X017496Y011659D01*
X017496Y012059D01*
X017360Y012059D01*
X017135Y011834D01*
X017135Y012383D01*
X017360Y012159D01*
X017496Y012159D01*
X017496Y012559D01*
X017596Y012559D01*
X017596Y012659D01*
X017496Y012659D01*
X017496Y013059D01*
X017360Y013059D01*
X017135Y012834D01*
X017135Y013383D01*
X017360Y013159D01*
X017496Y013159D01*
X017496Y013559D01*
X017596Y013559D01*
X017596Y013659D01*
X017496Y013659D01*
X017496Y014059D01*
X017360Y014059D01*
X017135Y013834D01*
X017135Y016084D01*
X017042Y016178D01*
X010846Y016178D01*
X010752Y016084D01*
X010752Y012920D01*
X010772Y012900D01*
X010737Y012900D01*
X010737Y012446D01*
X010637Y012446D01*
X010637Y012346D01*
X010222Y012346D01*
X010222Y012022D01*
X010232Y011984D01*
X010252Y011950D01*
X010280Y011922D01*
X010314Y011902D01*
X010352Y011892D01*
X010637Y011892D01*
X010637Y012346D01*
X010737Y012346D01*
X010737Y011892D01*
X011022Y011892D01*
X011060Y011902D01*
X011094Y011922D01*
X011122Y011950D01*
X011142Y011984D01*
X011152Y012022D01*
X011152Y012346D01*
X010737Y012346D01*
X010737Y012446D01*
X011152Y012446D01*
X011152Y012770D01*
X011142Y012808D01*
X011131Y012827D01*
X011395Y012827D01*
X011365Y012796D01*
X011365Y011996D01*
X011429Y011932D01*
X012150Y011932D01*
X012211Y011993D01*
X012211Y011911D01*
X012276Y011846D01*
X012305Y011846D01*
X012317Y011819D01*
X012337Y011771D01*
X012338Y011770D01*
X012338Y011769D01*
X012376Y011732D01*
X012413Y011695D01*
X012414Y011694D01*
X015730Y008417D01*
X015767Y008380D01*
X015768Y008379D01*
X015769Y008379D01*
X015818Y008359D01*
X015867Y008339D01*
X015868Y008338D01*
X015921Y008339D01*
X016136Y008339D01*
X016136Y008263D01*
X016201Y008199D01*
X016136Y008307D02*
X011106Y008307D01*
X011076Y008405D02*
X015742Y008405D01*
X015642Y008504D02*
X010978Y008504D01*
X010879Y008602D02*
X015543Y008602D01*
X015443Y008701D02*
X010781Y008701D01*
X010682Y008799D02*
X015343Y008799D01*
X015244Y008898D02*
X010584Y008898D01*
X010485Y008996D02*
X015144Y008996D01*
X015044Y009095D02*
X010387Y009095D01*
X010288Y009193D02*
X014945Y009193D01*
X014845Y009292D02*
X010190Y009292D01*
X010091Y009390D02*
X014745Y009390D01*
X014646Y009489D02*
X009993Y009489D01*
X009868Y009387D02*
X009146Y009387D01*
X008921Y009292D02*
X006601Y009292D01*
X006601Y009390D02*
X008901Y009390D01*
X008923Y009489D02*
X006601Y009489D01*
X006601Y009587D02*
X009000Y009587D01*
X009293Y009587D02*
X014546Y009587D01*
X014446Y009686D02*
X006601Y009686D01*
X006601Y009784D02*
X014347Y009784D01*
X014247Y009883D02*
X006601Y009883D01*
X006601Y009981D02*
X014147Y009981D01*
X014048Y010080D02*
X006602Y010080D01*
X006602Y010178D02*
X013948Y010178D01*
X013848Y010277D02*
X006602Y010277D01*
X006602Y010375D02*
X013749Y010375D01*
X013649Y010474D02*
X006602Y010474D01*
X006602Y010572D02*
X013549Y010572D01*
X013450Y010671D02*
X006602Y010671D01*
X006602Y010769D02*
X013350Y010769D01*
X013250Y010868D02*
X006602Y010868D01*
X006603Y010966D02*
X013151Y010966D01*
X013051Y011065D02*
X006603Y011065D01*
X006603Y011163D02*
X012951Y011163D01*
X012852Y011262D02*
X006603Y011262D01*
X006603Y011360D02*
X012752Y011360D01*
X012652Y011459D02*
X006603Y011459D01*
X006603Y011557D02*
X012553Y011557D01*
X012453Y011656D02*
X006603Y011656D01*
X006603Y011754D02*
X012353Y011754D01*
X012270Y011853D02*
X006604Y011853D01*
X006604Y011951D02*
X010251Y011951D01*
X010222Y012050D02*
X006604Y012050D01*
X006604Y012148D02*
X010222Y012148D01*
X010222Y012247D02*
X006604Y012247D01*
X006604Y012345D02*
X010222Y012345D01*
X010222Y012446D02*
X010637Y012446D01*
X010637Y012900D01*
X010352Y012900D01*
X010314Y012890D01*
X010280Y012870D01*
X010252Y012842D01*
X010232Y012808D01*
X010222Y012770D01*
X010222Y012446D01*
X010222Y012542D02*
X006604Y012542D01*
X006604Y012444D02*
X010637Y012444D01*
X010637Y012542D02*
X010737Y012542D01*
X010737Y012444D02*
X011365Y012444D01*
X011365Y012542D02*
X011152Y012542D01*
X011152Y012641D02*
X011365Y012641D01*
X011365Y012739D02*
X011152Y012739D01*
X010912Y012987D02*
X010912Y016018D01*
X016975Y016018D01*
X016975Y013816D01*
X016733Y014059D01*
X016596Y014059D01*
X016596Y013659D01*
X016496Y013659D01*
X016496Y014059D01*
X016360Y014059D01*
X016096Y013795D01*
X016096Y013659D01*
X016496Y013659D01*
X016496Y013559D01*
X016096Y013559D01*
X016096Y013422D01*
X016360Y013159D01*
X016496Y013159D01*
X016496Y013559D01*
X016596Y013559D01*
X016596Y013159D01*
X016733Y013159D01*
X016975Y013401D01*
X016975Y012816D01*
X016733Y013059D01*
X016596Y013059D01*
X016596Y012659D01*
X016496Y012659D01*
X016496Y013059D01*
X016360Y013059D01*
X016096Y012795D01*
X016096Y012659D01*
X016496Y012659D01*
X016496Y012559D01*
X016096Y012559D01*
X016096Y012422D01*
X016360Y012159D01*
X016496Y012159D01*
X016496Y012559D01*
X016596Y012559D01*
X016596Y012159D01*
X016733Y012159D01*
X016975Y012401D01*
X016975Y011816D01*
X016733Y012059D01*
X016596Y012059D01*
X016596Y011659D01*
X016496Y011659D01*
X016496Y012059D01*
X016360Y012059D01*
X016096Y011795D01*
X016096Y011659D01*
X016496Y011659D01*
X016496Y011559D01*
X016096Y011559D01*
X016096Y011422D01*
X016360Y011159D01*
X016496Y011159D01*
X016496Y011559D01*
X016596Y011559D01*
X016596Y011159D01*
X016733Y011159D01*
X016975Y011401D01*
X016975Y010985D01*
X016966Y011001D01*
X016938Y011029D01*
X016904Y011048D01*
X016866Y011059D01*
X016596Y011059D01*
X016596Y010659D01*
X016496Y010659D01*
X016496Y011059D01*
X016227Y011059D01*
X016188Y011048D01*
X016154Y011029D01*
X016126Y011001D01*
X016106Y010966D01*
X015991Y010966D01*
X015991Y010868D02*
X016096Y010868D01*
X016096Y010928D02*
X016096Y010659D01*
X016496Y010659D01*
X016496Y010559D01*
X016096Y010559D01*
X016096Y010289D01*
X016106Y010251D01*
X016126Y010216D01*
X016154Y010189D01*
X016188Y010169D01*
X016227Y010159D01*
X016496Y010159D01*
X016496Y010559D01*
X016596Y010559D01*
X016596Y010159D01*
X016866Y010159D01*
X016904Y010169D01*
X016938Y010189D01*
X016966Y010216D01*
X016975Y010232D01*
X016975Y010152D01*
X015991Y010152D01*
X015991Y012987D01*
X010912Y012987D01*
X010912Y013035D02*
X016336Y013035D01*
X016237Y012936D02*
X015991Y012936D01*
X015991Y012838D02*
X016139Y012838D01*
X016096Y012739D02*
X015991Y012739D01*
X015991Y012641D02*
X016496Y012641D01*
X016496Y012739D02*
X016596Y012739D01*
X016596Y012838D02*
X016496Y012838D01*
X016496Y012936D02*
X016596Y012936D01*
X016596Y013035D02*
X016496Y013035D01*
X016496Y013232D02*
X016596Y013232D01*
X016596Y013330D02*
X016496Y013330D01*
X016496Y013429D02*
X016596Y013429D01*
X016596Y013527D02*
X016496Y013527D01*
X016496Y013626D02*
X015814Y013626D01*
X015814Y013559D02*
X015814Y013844D01*
X015803Y013882D01*
X015784Y013916D01*
X015756Y013944D01*
X015721Y013964D01*
X015683Y013974D01*
X015359Y013974D01*
X015359Y013559D01*
X015814Y013559D01*
X015814Y013459D02*
X015814Y013175D01*
X015803Y013136D01*
X015784Y013102D01*
X015756Y013074D01*
X015721Y013055D01*
X015683Y013044D01*
X015359Y013044D01*
X015359Y013459D01*
X015259Y013459D01*
X015259Y013044D01*
X014935Y013044D01*
X014897Y013055D01*
X014863Y013074D01*
X014835Y013102D01*
X014815Y013136D01*
X014805Y013175D01*
X014805Y013459D01*
X015259Y013459D01*
X015259Y013559D01*
X014805Y013559D01*
X014805Y013844D01*
X014815Y013882D01*
X014835Y013916D01*
X014863Y013944D01*
X014897Y013964D01*
X014935Y013974D01*
X015259Y013974D01*
X015259Y013559D01*
X015359Y013559D01*
X015359Y013459D01*
X015814Y013459D01*
X015814Y013429D02*
X016096Y013429D01*
X016096Y013527D02*
X015359Y013527D01*
X015359Y013429D02*
X015259Y013429D01*
X015259Y013527D02*
X010912Y013527D01*
X010912Y013429D02*
X014805Y013429D01*
X014805Y013330D02*
X010912Y013330D01*
X010912Y013232D02*
X014805Y013232D01*
X014817Y013133D02*
X010912Y013133D01*
X010752Y013133D02*
X006605Y013133D01*
X006605Y013035D02*
X010752Y013035D01*
X010752Y012936D02*
X006605Y012936D01*
X006605Y012838D02*
X010249Y012838D01*
X010222Y012739D02*
X006605Y012739D01*
X006604Y012641D02*
X010222Y012641D01*
X010637Y012641D02*
X010737Y012641D01*
X010737Y012739D02*
X010637Y012739D01*
X010637Y012838D02*
X010737Y012838D01*
X010752Y013232D02*
X006605Y013232D01*
X006605Y013330D02*
X010752Y013330D01*
X010752Y013429D02*
X006605Y013429D01*
X006605Y013527D02*
X010752Y013527D01*
X010752Y013626D02*
X006605Y013626D01*
X006606Y013724D02*
X010752Y013724D01*
X010752Y013823D02*
X006606Y013823D01*
X006606Y013921D02*
X010752Y013921D01*
X010752Y014020D02*
X006606Y014020D01*
X006606Y014065D02*
X006742Y014065D01*
X006806Y014129D01*
X006806Y014470D01*
X006802Y014475D01*
X006806Y014479D01*
X006806Y014820D01*
X006802Y014825D01*
X006806Y014829D01*
X006806Y015170D01*
X006742Y015235D01*
X006606Y015235D01*
X006606Y016199D01*
X006716Y016199D01*
X006956Y016439D01*
X006956Y016778D01*
X006716Y017019D01*
X006376Y017019D01*
X006136Y016778D01*
X006136Y016439D01*
X006286Y016289D01*
X006286Y015235D01*
X006151Y015235D01*
X006086Y015170D01*
X006086Y014829D01*
X006091Y014825D01*
X006086Y014820D01*
X006086Y014810D01*
X004765Y014810D01*
X004206Y015369D01*
X002074Y015369D01*
X001980Y015275D01*
X001741Y015036D01*
X001729Y015049D01*
X001364Y015049D01*
X001106Y014791D01*
X001106Y014426D01*
X001364Y014169D01*
X001729Y014169D01*
X001986Y014426D01*
X001986Y014791D01*
X001967Y014810D01*
X002206Y015049D01*
X004074Y015049D01*
X004539Y014583D01*
X004633Y014490D01*
X006086Y014490D01*
X006086Y014479D01*
X006091Y014475D01*
X006086Y014470D01*
X006086Y014129D01*
X006151Y014065D01*
X006286Y014065D01*
X006280Y008775D01*
X006280Y008775D01*
X006280Y008709D01*
X006280Y008642D01*
X006326Y008596D01*
X006374Y008549D01*
X006886Y008036D01*
X006886Y006626D01*
X006839Y006578D01*
X006801Y006488D01*
X006801Y006391D01*
X006839Y006300D01*
X006907Y006232D01*
X006998Y006194D01*
X007095Y006194D01*
X007185Y006232D01*
X007254Y006300D01*
X007291Y006391D01*
X007291Y006488D01*
X007254Y006578D01*
X007206Y006626D01*
X007206Y008169D01*
X007113Y008262D01*
X006600Y008775D01*
X006606Y014065D01*
X006795Y014118D02*
X010752Y014118D01*
X010752Y014217D02*
X006806Y014217D01*
X006806Y014315D02*
X010752Y014315D01*
X010752Y014414D02*
X006806Y014414D01*
X006806Y014512D02*
X010752Y014512D01*
X010752Y014611D02*
X006806Y014611D01*
X006806Y014709D02*
X010752Y014709D01*
X010752Y014808D02*
X006806Y014808D01*
X006806Y014906D02*
X010752Y014906D01*
X010752Y015005D02*
X006806Y015005D01*
X006806Y015103D02*
X010752Y015103D01*
X010752Y015202D02*
X006775Y015202D01*
X006606Y015300D02*
X010752Y015300D01*
X010752Y015399D02*
X006606Y015399D01*
X006606Y015497D02*
X010752Y015497D01*
X010752Y015596D02*
X006606Y015596D01*
X006606Y015694D02*
X010752Y015694D01*
X010752Y015793D02*
X006606Y015793D01*
X006606Y015891D02*
X010752Y015891D01*
X010752Y015990D02*
X006606Y015990D01*
X006606Y016088D02*
X010756Y016088D01*
X010716Y016199D02*
X010956Y016439D01*
X010956Y016778D01*
X010716Y017019D01*
X010376Y017019D01*
X010136Y016778D01*
X010136Y016439D01*
X010376Y016199D01*
X010716Y016199D01*
X010803Y016285D02*
X011290Y016285D01*
X011376Y016199D02*
X011716Y016199D01*
X011956Y016439D01*
X011956Y016778D01*
X011716Y017019D01*
X011376Y017019D01*
X011136Y016778D01*
X011136Y016439D01*
X011376Y016199D01*
X011191Y016384D02*
X010901Y016384D01*
X010956Y016482D02*
X011136Y016482D01*
X011136Y016581D02*
X010956Y016581D01*
X010956Y016679D02*
X011136Y016679D01*
X011136Y016778D02*
X010956Y016778D01*
X010859Y016876D02*
X011234Y016876D01*
X011332Y016975D02*
X010760Y016975D01*
X010716Y017199D02*
X010956Y017439D01*
X010956Y017778D01*
X010716Y018019D01*
X010376Y018019D01*
X010136Y017778D01*
X010136Y017439D01*
X010376Y017199D01*
X010716Y017199D01*
X010788Y017270D02*
X011305Y017270D01*
X011376Y017199D02*
X011716Y017199D01*
X011956Y017439D01*
X011956Y017778D01*
X011716Y018019D01*
X011376Y018019D01*
X011136Y017778D01*
X011136Y017439D01*
X011376Y017199D01*
X011206Y017369D02*
X010886Y017369D01*
X010956Y017467D02*
X011136Y017467D01*
X011136Y017566D02*
X010956Y017566D01*
X010956Y017664D02*
X011136Y017664D01*
X011136Y017763D02*
X010956Y017763D01*
X010874Y017861D02*
X011219Y017861D01*
X011317Y017960D02*
X010775Y017960D01*
X010733Y018159D02*
X010596Y018159D01*
X010596Y018559D01*
X010596Y018659D01*
X010496Y018659D01*
X010496Y019059D01*
X010360Y019059D01*
X010096Y018795D01*
X010096Y018659D01*
X010496Y018659D01*
X010496Y018559D01*
X010096Y018559D01*
X010096Y018422D01*
X010360Y018159D01*
X010496Y018159D01*
X010496Y018559D01*
X010596Y018559D01*
X010996Y018559D01*
X010996Y018422D01*
X010733Y018159D01*
X010829Y018255D02*
X011263Y018255D01*
X011360Y018159D02*
X011096Y018422D01*
X011096Y018559D01*
X011496Y018559D01*
X011496Y018659D01*
X011496Y019059D01*
X011360Y019059D01*
X011096Y018795D01*
X011096Y018659D01*
X011496Y018659D01*
X011596Y018659D01*
X011596Y019059D01*
X011733Y019059D01*
X011996Y018795D01*
X011996Y018659D01*
X011596Y018659D01*
X011596Y018559D01*
X011996Y018559D01*
X011996Y018422D01*
X011733Y018159D01*
X011596Y018159D01*
X011596Y018559D01*
X011496Y018559D01*
X011496Y018159D01*
X011360Y018159D01*
X011496Y018255D02*
X011596Y018255D01*
X011596Y018354D02*
X011496Y018354D01*
X011496Y018452D02*
X011596Y018452D01*
X011596Y018551D02*
X011496Y018551D01*
X011496Y018649D02*
X010596Y018649D01*
X010596Y018659D02*
X010996Y018659D01*
X010996Y018795D01*
X010733Y019059D01*
X010596Y019059D01*
X010596Y018659D01*
X010596Y018748D02*
X010496Y018748D01*
X010496Y018846D02*
X010596Y018846D01*
X010596Y018945D02*
X010496Y018945D01*
X010496Y019043D02*
X010596Y019043D01*
X010748Y019043D02*
X011344Y019043D01*
X011246Y018945D02*
X010847Y018945D01*
X010945Y018846D02*
X011147Y018846D01*
X011096Y018748D02*
X010996Y018748D01*
X010996Y018551D02*
X011096Y018551D01*
X011096Y018452D02*
X010996Y018452D01*
X010928Y018354D02*
X011165Y018354D01*
X011496Y018748D02*
X011596Y018748D01*
X011596Y018846D02*
X011496Y018846D01*
X011496Y018945D02*
X011596Y018945D01*
X011596Y019043D02*
X011496Y019043D01*
X011748Y019043D02*
X012344Y019043D01*
X012360Y019059D02*
X012096Y018795D01*
X012096Y018659D01*
X012496Y018659D01*
X012496Y019059D01*
X012360Y019059D01*
X012496Y019043D02*
X012596Y019043D01*
X012596Y019059D02*
X012596Y018659D01*
X012496Y018659D01*
X012496Y018559D01*
X012096Y018559D01*
X012096Y018422D01*
X012360Y018159D01*
X012496Y018159D01*
X012496Y018559D01*
X012596Y018559D01*
X012596Y018659D01*
X012996Y018659D01*
X012996Y018795D01*
X012733Y019059D01*
X012596Y019059D01*
X012596Y018945D02*
X012496Y018945D01*
X012496Y018846D02*
X012596Y018846D01*
X012596Y018748D02*
X012496Y018748D01*
X012496Y018649D02*
X011596Y018649D01*
X011945Y018846D02*
X012147Y018846D01*
X012096Y018748D02*
X011996Y018748D01*
X011996Y018551D02*
X012096Y018551D01*
X012096Y018452D02*
X011996Y018452D01*
X011928Y018354D02*
X012165Y018354D01*
X012263Y018255D02*
X011829Y018255D01*
X011775Y017960D02*
X012317Y017960D01*
X012376Y018019D02*
X012136Y017778D01*
X012136Y017439D01*
X012376Y017199D01*
X012716Y017199D01*
X012956Y017439D01*
X012956Y017778D01*
X012716Y018019D01*
X012376Y018019D01*
X012219Y017861D02*
X011874Y017861D01*
X011956Y017763D02*
X012136Y017763D01*
X012136Y017664D02*
X011956Y017664D01*
X011956Y017566D02*
X012136Y017566D01*
X012136Y017467D02*
X011956Y017467D01*
X011886Y017369D02*
X012206Y017369D01*
X012305Y017270D02*
X011788Y017270D01*
X011760Y016975D02*
X012332Y016975D01*
X012376Y017019D02*
X012136Y016778D01*
X012136Y016439D01*
X012376Y016199D01*
X012716Y016199D01*
X012956Y016439D01*
X012956Y016778D01*
X012716Y017019D01*
X012376Y017019D01*
X012234Y016876D02*
X011859Y016876D01*
X011956Y016778D02*
X012136Y016778D01*
X012136Y016679D02*
X011956Y016679D01*
X011956Y016581D02*
X012136Y016581D01*
X012136Y016482D02*
X011956Y016482D01*
X011901Y016384D02*
X012191Y016384D01*
X012290Y016285D02*
X011803Y016285D01*
X012671Y015390D02*
X012643Y015362D01*
X012623Y015327D01*
X012613Y015289D01*
X012613Y014887D01*
X013421Y014887D01*
X013421Y015420D01*
X012743Y015420D01*
X012705Y015409D01*
X012671Y015390D01*
X012686Y015399D02*
X010912Y015399D01*
X010912Y015497D02*
X016975Y015497D01*
X016975Y015399D02*
X014257Y015399D01*
X014272Y015390D02*
X014238Y015409D01*
X014200Y015420D01*
X013521Y015420D01*
X013521Y014887D01*
X013421Y014887D01*
X013421Y014787D01*
X012613Y014787D01*
X012613Y014384D01*
X012623Y014346D01*
X012643Y014311D01*
X012671Y014283D01*
X012705Y014264D01*
X012743Y014253D01*
X013421Y014253D01*
X013421Y014787D01*
X013521Y014787D01*
X013521Y014887D01*
X014330Y014887D01*
X014330Y015289D01*
X014320Y015327D01*
X014300Y015362D01*
X014272Y015390D01*
X014327Y015300D02*
X016975Y015300D01*
X016975Y015202D02*
X014330Y015202D01*
X014330Y015103D02*
X016975Y015103D01*
X016975Y015005D02*
X014330Y015005D01*
X014330Y014906D02*
X016975Y014906D01*
X016975Y014808D02*
X013521Y014808D01*
X013521Y014787D02*
X014330Y014787D01*
X014330Y014384D01*
X014320Y014346D01*
X014300Y014311D01*
X014272Y014283D01*
X014238Y014264D01*
X014200Y014253D01*
X013521Y014253D01*
X013521Y014787D01*
X013521Y014709D02*
X013421Y014709D01*
X013421Y014611D02*
X013521Y014611D01*
X013521Y014512D02*
X013421Y014512D01*
X013421Y014414D02*
X013521Y014414D01*
X013521Y014315D02*
X013421Y014315D01*
X013421Y014808D02*
X010912Y014808D01*
X010912Y014906D02*
X012613Y014906D01*
X012613Y015005D02*
X010912Y015005D01*
X010912Y015103D02*
X012613Y015103D01*
X012613Y015202D02*
X010912Y015202D01*
X010912Y015300D02*
X012616Y015300D01*
X012613Y014709D02*
X010912Y014709D01*
X010912Y014611D02*
X012613Y014611D01*
X012613Y014512D02*
X010912Y014512D01*
X010912Y014414D02*
X012613Y014414D01*
X012641Y014315D02*
X010912Y014315D01*
X010912Y014217D02*
X016975Y014217D01*
X016975Y014315D02*
X014302Y014315D01*
X014330Y014414D02*
X016975Y014414D01*
X016975Y014512D02*
X014330Y014512D01*
X014330Y014611D02*
X016975Y014611D01*
X016975Y014709D02*
X014330Y014709D01*
X013521Y014906D02*
X013421Y014906D01*
X013421Y015005D02*
X013521Y015005D01*
X013521Y015103D02*
X013421Y015103D01*
X013421Y015202D02*
X013521Y015202D01*
X013521Y015300D02*
X013421Y015300D01*
X013421Y015399D02*
X013521Y015399D01*
X013376Y016199D02*
X013716Y016199D01*
X013956Y016439D01*
X013956Y016778D01*
X013716Y017019D01*
X013376Y017019D01*
X013136Y016778D01*
X013136Y016439D01*
X013376Y016199D01*
X013290Y016285D02*
X012803Y016285D01*
X012901Y016384D02*
X013191Y016384D01*
X013136Y016482D02*
X012956Y016482D01*
X012956Y016581D02*
X013136Y016581D01*
X013136Y016679D02*
X012956Y016679D01*
X012956Y016778D02*
X013136Y016778D01*
X013234Y016876D02*
X012859Y016876D01*
X012760Y016975D02*
X013332Y016975D01*
X013376Y017199D02*
X013716Y017199D01*
X013956Y017439D01*
X013956Y017778D01*
X013716Y018019D01*
X013376Y018019D01*
X013136Y017778D01*
X013136Y017439D01*
X013376Y017199D01*
X013305Y017270D02*
X012788Y017270D01*
X012886Y017369D02*
X013206Y017369D01*
X013136Y017467D02*
X012956Y017467D01*
X012956Y017566D02*
X013136Y017566D01*
X013136Y017664D02*
X012956Y017664D01*
X012956Y017763D02*
X013136Y017763D01*
X013219Y017861D02*
X012874Y017861D01*
X012775Y017960D02*
X013317Y017960D01*
X013360Y018159D02*
X013096Y018422D01*
X013096Y018559D01*
X013496Y018559D01*
X013496Y018659D01*
X013496Y019059D01*
X013360Y019059D01*
X013096Y018795D01*
X013096Y018659D01*
X013496Y018659D01*
X013596Y018659D01*
X013596Y019059D01*
X013733Y019059D01*
X013996Y018795D01*
X013996Y018659D01*
X013596Y018659D01*
X013596Y018559D01*
X013996Y018559D01*
X013996Y018422D01*
X013733Y018159D01*
X013596Y018159D01*
X013596Y018559D01*
X013496Y018559D01*
X013496Y018159D01*
X013360Y018159D01*
X013263Y018255D02*
X012829Y018255D01*
X012733Y018159D02*
X012996Y018422D01*
X012996Y018559D01*
X012596Y018559D01*
X012596Y018159D01*
X012733Y018159D01*
X012596Y018255D02*
X012496Y018255D01*
X012496Y018354D02*
X012596Y018354D01*
X012596Y018452D02*
X012496Y018452D01*
X012496Y018551D02*
X012596Y018551D01*
X012596Y018649D02*
X013496Y018649D01*
X013496Y018551D02*
X013596Y018551D01*
X013596Y018649D02*
X016589Y018649D01*
X016589Y018693D02*
X016589Y018383D01*
X016708Y018096D01*
X016927Y017877D01*
X017214Y017758D01*
X017524Y017758D01*
X017811Y017877D01*
X018030Y018096D01*
X018149Y018383D01*
X018149Y018693D01*
X018030Y018979D01*
X017811Y019199D01*
X017524Y019318D01*
X017214Y019318D01*
X016927Y019199D01*
X016708Y018979D01*
X016589Y018693D01*
X016612Y018748D02*
X013996Y018748D01*
X013945Y018846D02*
X016653Y018846D01*
X016693Y018945D02*
X013847Y018945D01*
X013748Y019043D02*
X016772Y019043D01*
X016870Y019142D02*
X002120Y019142D01*
X002063Y019199D02*
X001776Y019318D01*
X001466Y019318D01*
X001179Y019199D01*
X000960Y018979D01*
X000841Y018693D01*
X000841Y018383D01*
X000960Y018096D01*
X001179Y017877D01*
X001466Y017758D01*
X001776Y017758D01*
X002063Y017877D01*
X002282Y018096D01*
X002401Y018383D01*
X002401Y018693D01*
X002282Y018979D01*
X002063Y019199D01*
X001963Y019240D02*
X017027Y019240D01*
X017711Y019240D02*
X018209Y019240D01*
X018281Y019142D02*
X017868Y019142D01*
X017967Y019043D02*
X018328Y019043D01*
X018360Y018945D02*
X018045Y018945D01*
X018086Y018846D02*
X018390Y018846D01*
X018398Y018748D02*
X018126Y018748D01*
X018149Y018649D02*
X018400Y018649D01*
X018400Y018551D02*
X018149Y018551D01*
X018149Y018452D02*
X018400Y018452D01*
X018400Y018354D02*
X018137Y018354D01*
X018096Y018255D02*
X018400Y018255D01*
X018400Y018157D02*
X018055Y018157D01*
X017992Y018058D02*
X018400Y018058D01*
X018400Y017960D02*
X017894Y017960D01*
X017774Y017861D02*
X018400Y017861D01*
X018400Y017763D02*
X017536Y017763D01*
X017202Y017763D02*
X013956Y017763D01*
X013956Y017664D02*
X018400Y017664D01*
X018400Y017566D02*
X016162Y017566D01*
X016139Y017589D02*
X015970Y017589D01*
X015970Y017139D01*
X015910Y017139D01*
X015910Y017589D01*
X015741Y017589D01*
X015460Y017307D01*
X015460Y017139D01*
X015910Y017139D01*
X015910Y017079D01*
X015460Y017079D01*
X015460Y016910D01*
X015741Y016629D01*
X015910Y016629D01*
X015910Y017079D01*
X015970Y017079D01*
X015970Y017139D01*
X016420Y017139D01*
X016420Y017307D01*
X016139Y017589D01*
X015970Y017566D02*
X015910Y017566D01*
X015910Y017467D02*
X015970Y017467D01*
X015970Y017369D02*
X015910Y017369D01*
X015910Y017270D02*
X015970Y017270D01*
X015970Y017172D02*
X015910Y017172D01*
X015910Y017073D02*
X015970Y017073D01*
X015970Y017079D02*
X015970Y016629D01*
X016139Y016629D01*
X016420Y016910D01*
X016420Y017079D01*
X015970Y017079D01*
X015970Y016975D02*
X015910Y016975D01*
X015910Y016876D02*
X015970Y016876D01*
X015970Y016778D02*
X015910Y016778D01*
X015910Y016679D02*
X015970Y016679D01*
X016189Y016679D02*
X018400Y016679D01*
X018400Y016581D02*
X013956Y016581D01*
X013956Y016679D02*
X014747Y016679D01*
X014758Y016669D02*
X015122Y016669D01*
X015380Y016926D01*
X015380Y017291D01*
X015122Y017549D01*
X014758Y017549D01*
X014500Y017291D01*
X014500Y016926D01*
X014758Y016669D01*
X014649Y016778D02*
X013956Y016778D01*
X013859Y016876D02*
X014550Y016876D01*
X014500Y016975D02*
X013760Y016975D01*
X013788Y017270D02*
X014500Y017270D01*
X014500Y017172D02*
X004920Y017172D01*
X004920Y017139D02*
X004920Y017307D01*
X004639Y017589D01*
X004470Y017589D01*
X004470Y017139D01*
X004410Y017139D01*
X004410Y017589D01*
X004241Y017589D01*
X003960Y017307D01*
X003960Y017139D01*
X004410Y017139D01*
X004410Y017079D01*
X003960Y017079D01*
X003960Y016910D01*
X004241Y016629D01*
X004410Y016629D01*
X004410Y017079D01*
X004470Y017079D01*
X004470Y017139D01*
X004920Y017139D01*
X004920Y017079D02*
X004470Y017079D01*
X004470Y016629D01*
X004639Y016629D01*
X004920Y016910D01*
X004920Y017079D01*
X004920Y017073D02*
X014500Y017073D01*
X014578Y017369D02*
X013886Y017369D01*
X013956Y017467D02*
X014676Y017467D01*
X015204Y017467D02*
X015620Y017467D01*
X015718Y017566D02*
X013956Y017566D01*
X013874Y017861D02*
X016965Y017861D01*
X016844Y017960D02*
X013775Y017960D01*
X013829Y018255D02*
X016642Y018255D01*
X016683Y018157D02*
X002307Y018157D01*
X002348Y018255D02*
X006263Y018255D01*
X006360Y018159D02*
X006096Y018422D01*
X006096Y018559D01*
X006496Y018559D01*
X006496Y018659D01*
X006496Y019059D01*
X006360Y019059D01*
X006096Y018795D01*
X006096Y018659D01*
X006496Y018659D01*
X006596Y018659D01*
X006596Y019059D01*
X006733Y019059D01*
X006996Y018795D01*
X006996Y018659D01*
X006596Y018659D01*
X006596Y018559D01*
X006996Y018559D01*
X006996Y018422D01*
X006733Y018159D01*
X006596Y018159D01*
X006596Y018559D01*
X006496Y018559D01*
X006496Y018159D01*
X006360Y018159D01*
X006376Y018019D02*
X006136Y017778D01*
X006136Y017439D01*
X006376Y017199D01*
X006716Y017199D01*
X006956Y017439D01*
X006956Y017778D01*
X006716Y018019D01*
X006376Y018019D01*
X006317Y017960D02*
X002146Y017960D01*
X002244Y018058D02*
X016746Y018058D01*
X016601Y018354D02*
X013928Y018354D01*
X013996Y018452D02*
X016589Y018452D01*
X016589Y018551D02*
X013996Y018551D01*
X013596Y018452D02*
X013496Y018452D01*
X013496Y018354D02*
X013596Y018354D01*
X013596Y018255D02*
X013496Y018255D01*
X013165Y018354D02*
X012928Y018354D01*
X012996Y018452D02*
X013096Y018452D01*
X013096Y018551D02*
X012996Y018551D01*
X012996Y018748D02*
X013096Y018748D01*
X013147Y018846D02*
X012945Y018846D01*
X012847Y018945D02*
X013246Y018945D01*
X013344Y019043D02*
X012748Y019043D01*
X012246Y018945D02*
X011847Y018945D01*
X010596Y018551D02*
X010496Y018551D01*
X010496Y018649D02*
X009596Y018649D01*
X009596Y018659D02*
X009996Y018659D01*
X009996Y018795D01*
X009733Y019059D01*
X009596Y019059D01*
X009596Y018659D01*
X009496Y018659D01*
X009496Y019059D01*
X009360Y019059D01*
X009096Y018795D01*
X009096Y018659D01*
X009496Y018659D01*
X009496Y018559D01*
X009096Y018559D01*
X009096Y018422D01*
X009360Y018159D01*
X009496Y018159D01*
X009496Y018559D01*
X009596Y018559D01*
X009596Y018659D01*
X009596Y018748D02*
X009496Y018748D01*
X009496Y018846D02*
X009596Y018846D01*
X009596Y018945D02*
X009496Y018945D01*
X009496Y019043D02*
X009596Y019043D01*
X009748Y019043D02*
X010344Y019043D01*
X010246Y018945D02*
X009847Y018945D01*
X009945Y018846D02*
X010147Y018846D01*
X010096Y018748D02*
X009996Y018748D01*
X009996Y018559D02*
X009596Y018559D01*
X009596Y018159D01*
X009733Y018159D01*
X009996Y018422D01*
X009996Y018559D01*
X009996Y018551D02*
X010096Y018551D01*
X010096Y018452D02*
X009996Y018452D01*
X009928Y018354D02*
X010165Y018354D01*
X010263Y018255D02*
X009829Y018255D01*
X009596Y018255D02*
X009496Y018255D01*
X009496Y018354D02*
X009596Y018354D01*
X009596Y018452D02*
X009496Y018452D01*
X009496Y018551D02*
X009596Y018551D01*
X009496Y018649D02*
X008596Y018649D01*
X008596Y018659D02*
X008996Y018659D01*
X008996Y018795D01*
X008733Y019059D01*
X008596Y019059D01*
X008596Y018659D01*
X008496Y018659D01*
X008496Y019059D01*
X008360Y019059D01*
X008096Y018795D01*
X008096Y018659D01*
X008496Y018659D01*
X008496Y018559D01*
X008096Y018559D01*
X008096Y018422D01*
X008360Y018159D01*
X008496Y018159D01*
X008496Y018559D01*
X008596Y018559D01*
X008596Y018659D01*
X008596Y018748D02*
X008496Y018748D01*
X008496Y018846D02*
X008596Y018846D01*
X008596Y018945D02*
X008496Y018945D01*
X008496Y019043D02*
X008596Y019043D01*
X008748Y019043D02*
X009344Y019043D01*
X009246Y018945D02*
X008847Y018945D01*
X008945Y018846D02*
X009147Y018846D01*
X009096Y018748D02*
X008996Y018748D01*
X008996Y018559D02*
X008596Y018559D01*
X008596Y018159D01*
X008733Y018159D01*
X008996Y018422D01*
X008996Y018559D01*
X008996Y018551D02*
X009096Y018551D01*
X009096Y018452D02*
X008996Y018452D01*
X008928Y018354D02*
X009165Y018354D01*
X009263Y018255D02*
X008829Y018255D01*
X008716Y018019D02*
X008376Y018019D01*
X008136Y017778D01*
X008136Y017439D01*
X008376Y017199D01*
X008716Y017199D01*
X008956Y017439D01*
X008956Y017778D01*
X008716Y018019D01*
X008775Y017960D02*
X009317Y017960D01*
X009376Y018019D02*
X009136Y017778D01*
X009136Y017439D01*
X009376Y017199D01*
X009716Y017199D01*
X009956Y017439D01*
X009956Y017778D01*
X009716Y018019D01*
X009376Y018019D01*
X009219Y017861D02*
X008874Y017861D01*
X008956Y017763D02*
X009136Y017763D01*
X009136Y017664D02*
X008956Y017664D01*
X008956Y017566D02*
X009136Y017566D01*
X009136Y017467D02*
X008956Y017467D01*
X008886Y017369D02*
X009206Y017369D01*
X009305Y017270D02*
X008788Y017270D01*
X008716Y017019D02*
X008376Y017019D01*
X008136Y016778D01*
X008136Y016439D01*
X008376Y016199D01*
X008716Y016199D01*
X008956Y016439D01*
X008956Y016778D01*
X008716Y017019D01*
X008760Y016975D02*
X009332Y016975D01*
X009376Y017019D02*
X009136Y016778D01*
X009136Y016439D01*
X009376Y016199D01*
X009716Y016199D01*
X009956Y016439D01*
X009956Y016778D01*
X009716Y017019D01*
X009376Y017019D01*
X009234Y016876D02*
X008859Y016876D01*
X008956Y016778D02*
X009136Y016778D01*
X009136Y016679D02*
X008956Y016679D01*
X008956Y016581D02*
X009136Y016581D01*
X009136Y016482D02*
X008956Y016482D01*
X008901Y016384D02*
X009191Y016384D01*
X009290Y016285D02*
X008803Y016285D01*
X008290Y016285D02*
X007803Y016285D01*
X007716Y016199D02*
X007956Y016439D01*
X007956Y016778D01*
X007716Y017019D01*
X007376Y017019D01*
X007136Y016778D01*
X007136Y016439D01*
X007376Y016199D01*
X007716Y016199D01*
X007901Y016384D02*
X008191Y016384D01*
X008136Y016482D02*
X007956Y016482D01*
X007956Y016581D02*
X008136Y016581D01*
X008136Y016679D02*
X007956Y016679D01*
X007956Y016778D02*
X008136Y016778D01*
X008234Y016876D02*
X007859Y016876D01*
X007760Y016975D02*
X008332Y016975D01*
X008305Y017270D02*
X007788Y017270D01*
X007716Y017199D02*
X007956Y017439D01*
X007956Y017778D01*
X007716Y018019D01*
X007376Y018019D01*
X007136Y017778D01*
X007136Y017439D01*
X007376Y017199D01*
X007716Y017199D01*
X007886Y017369D02*
X008206Y017369D01*
X008136Y017467D02*
X007956Y017467D01*
X007956Y017566D02*
X008136Y017566D01*
X008136Y017664D02*
X007956Y017664D01*
X007956Y017763D02*
X008136Y017763D01*
X008219Y017861D02*
X007874Y017861D01*
X007775Y017960D02*
X008317Y017960D01*
X008263Y018255D02*
X007829Y018255D01*
X007733Y018159D02*
X007996Y018422D01*
X007996Y018559D01*
X007596Y018559D01*
X007596Y018659D01*
X007496Y018659D01*
X007496Y019059D01*
X007360Y019059D01*
X007096Y018795D01*
X007096Y018659D01*
X007496Y018659D01*
X007496Y018559D01*
X007096Y018559D01*
X007096Y018422D01*
X007360Y018159D01*
X007496Y018159D01*
X007496Y018559D01*
X007596Y018559D01*
X007596Y018159D01*
X007733Y018159D01*
X007596Y018255D02*
X007496Y018255D01*
X007496Y018354D02*
X007596Y018354D01*
X007596Y018452D02*
X007496Y018452D01*
X007496Y018551D02*
X007596Y018551D01*
X007596Y018649D02*
X008496Y018649D01*
X008496Y018551D02*
X008596Y018551D01*
X008596Y018452D02*
X008496Y018452D01*
X008496Y018354D02*
X008596Y018354D01*
X008596Y018255D02*
X008496Y018255D01*
X008165Y018354D02*
X007928Y018354D01*
X007996Y018452D02*
X008096Y018452D01*
X008096Y018551D02*
X007996Y018551D01*
X007996Y018659D02*
X007996Y018795D01*
X007733Y019059D01*
X007596Y019059D01*
X007596Y018659D01*
X007996Y018659D01*
X007996Y018748D02*
X008096Y018748D01*
X008147Y018846D02*
X007945Y018846D01*
X007847Y018945D02*
X008246Y018945D01*
X008344Y019043D02*
X007748Y019043D01*
X007596Y019043D02*
X007496Y019043D01*
X007496Y018945D02*
X007596Y018945D01*
X007596Y018846D02*
X007496Y018846D01*
X007496Y018748D02*
X007596Y018748D01*
X007496Y018649D02*
X006596Y018649D01*
X006596Y018551D02*
X006496Y018551D01*
X006496Y018649D02*
X002401Y018649D01*
X002401Y018551D02*
X006096Y018551D01*
X006096Y018452D02*
X002401Y018452D01*
X002389Y018354D02*
X006165Y018354D01*
X006496Y018354D02*
X006596Y018354D01*
X006596Y018452D02*
X006496Y018452D01*
X006496Y018255D02*
X006596Y018255D01*
X006829Y018255D02*
X007263Y018255D01*
X007165Y018354D02*
X006928Y018354D01*
X006996Y018452D02*
X007096Y018452D01*
X007096Y018551D02*
X006996Y018551D01*
X006996Y018748D02*
X007096Y018748D01*
X007147Y018846D02*
X006945Y018846D01*
X006847Y018945D02*
X007246Y018945D01*
X007344Y019043D02*
X006748Y019043D01*
X006596Y019043D02*
X006496Y019043D01*
X006496Y018945D02*
X006596Y018945D01*
X006596Y018846D02*
X006496Y018846D01*
X006496Y018748D02*
X006596Y018748D01*
X006344Y019043D02*
X002219Y019043D01*
X002297Y018945D02*
X006246Y018945D01*
X006147Y018846D02*
X002337Y018846D01*
X002378Y018748D02*
X006096Y018748D01*
X006775Y017960D02*
X007317Y017960D01*
X007219Y017861D02*
X006874Y017861D01*
X006956Y017763D02*
X007136Y017763D01*
X007136Y017664D02*
X006956Y017664D01*
X006956Y017566D02*
X007136Y017566D01*
X007136Y017467D02*
X006956Y017467D01*
X006886Y017369D02*
X007206Y017369D01*
X007305Y017270D02*
X006788Y017270D01*
X006760Y016975D02*
X007332Y016975D01*
X007234Y016876D02*
X006859Y016876D01*
X006956Y016778D02*
X007136Y016778D01*
X007136Y016679D02*
X006956Y016679D01*
X006956Y016581D02*
X007136Y016581D01*
X007136Y016482D02*
X006956Y016482D01*
X006901Y016384D02*
X007191Y016384D01*
X007290Y016285D02*
X006803Y016285D01*
X006606Y016187D02*
X018400Y016187D01*
X018400Y016285D02*
X013803Y016285D01*
X013901Y016384D02*
X018400Y016384D01*
X018400Y016482D02*
X013956Y016482D01*
X015133Y016679D02*
X015691Y016679D01*
X015592Y016778D02*
X015231Y016778D01*
X015330Y016876D02*
X015494Y016876D01*
X015460Y016975D02*
X015380Y016975D01*
X015380Y017073D02*
X015460Y017073D01*
X015460Y017172D02*
X015380Y017172D01*
X015380Y017270D02*
X015460Y017270D01*
X015521Y017369D02*
X015302Y017369D01*
X016260Y017467D02*
X018400Y017467D01*
X018400Y017369D02*
X016359Y017369D01*
X016420Y017270D02*
X018400Y017270D01*
X018400Y017172D02*
X016420Y017172D01*
X016420Y017073D02*
X018400Y017073D01*
X018400Y016975D02*
X016420Y016975D01*
X016386Y016876D02*
X018400Y016876D01*
X018400Y016778D02*
X016288Y016778D01*
X016975Y015990D02*
X010912Y015990D01*
X010912Y015891D02*
X016975Y015891D01*
X016975Y015793D02*
X010912Y015793D01*
X010912Y015694D02*
X016975Y015694D01*
X016975Y015596D02*
X010912Y015596D01*
X010290Y016285D02*
X009803Y016285D01*
X009901Y016384D02*
X010191Y016384D01*
X010136Y016482D02*
X009956Y016482D01*
X009956Y016581D02*
X010136Y016581D01*
X010136Y016679D02*
X009956Y016679D01*
X009956Y016778D02*
X010136Y016778D01*
X010234Y016876D02*
X009859Y016876D01*
X009760Y016975D02*
X010332Y016975D01*
X010305Y017270D02*
X009788Y017270D01*
X009886Y017369D02*
X010206Y017369D01*
X010136Y017467D02*
X009956Y017467D01*
X009956Y017566D02*
X010136Y017566D01*
X010136Y017664D02*
X009956Y017664D01*
X009956Y017763D02*
X010136Y017763D01*
X010219Y017861D02*
X009874Y017861D01*
X009775Y017960D02*
X010317Y017960D01*
X010496Y018255D02*
X010596Y018255D01*
X010596Y018354D02*
X010496Y018354D01*
X010496Y018452D02*
X010596Y018452D01*
X013496Y018748D02*
X013596Y018748D01*
X013596Y018846D02*
X013496Y018846D01*
X013496Y018945D02*
X013596Y018945D01*
X013596Y019043D02*
X013496Y019043D01*
X017132Y016088D02*
X018400Y016088D01*
X018400Y015990D02*
X017135Y015990D01*
X017135Y015891D02*
X018400Y015891D01*
X018400Y015793D02*
X017135Y015793D01*
X017135Y015694D02*
X018400Y015694D01*
X018400Y015596D02*
X017135Y015596D01*
X017135Y015497D02*
X018400Y015497D01*
X018400Y015399D02*
X017135Y015399D01*
X017135Y015300D02*
X018400Y015300D01*
X018400Y015202D02*
X017135Y015202D01*
X017135Y015103D02*
X018400Y015103D01*
X018400Y015005D02*
X017135Y015005D01*
X017135Y014906D02*
X018400Y014906D01*
X018400Y014808D02*
X017135Y014808D01*
X017135Y014709D02*
X018400Y014709D01*
X018400Y014611D02*
X017135Y014611D01*
X017135Y014512D02*
X018400Y014512D01*
X018400Y014414D02*
X017135Y014414D01*
X017135Y014315D02*
X018400Y014315D01*
X018400Y014217D02*
X017135Y014217D01*
X017135Y014118D02*
X018400Y014118D01*
X018400Y014020D02*
X017772Y014020D01*
X017733Y014059D02*
X017996Y013795D01*
X017996Y013659D01*
X017596Y013659D01*
X017596Y014059D01*
X017733Y014059D01*
X017596Y014020D02*
X017496Y014020D01*
X017496Y013921D02*
X017596Y013921D01*
X017596Y013823D02*
X017496Y013823D01*
X017496Y013724D02*
X017596Y013724D01*
X017596Y013626D02*
X018400Y013626D01*
X018400Y013724D02*
X017996Y013724D01*
X017969Y013823D02*
X018400Y013823D01*
X018400Y013921D02*
X017870Y013921D01*
X017996Y013559D02*
X017596Y013559D01*
X017596Y013159D01*
X017733Y013159D01*
X017996Y013422D01*
X017996Y013559D01*
X017996Y013527D02*
X018400Y013527D01*
X018400Y013429D02*
X017996Y013429D01*
X017904Y013330D02*
X018400Y013330D01*
X018400Y013232D02*
X017806Y013232D01*
X017733Y013059D02*
X017596Y013059D01*
X017596Y012659D01*
X017996Y012659D01*
X017996Y012795D01*
X017733Y013059D01*
X017757Y013035D02*
X018400Y013035D01*
X018400Y013133D02*
X017135Y013133D01*
X017135Y013035D02*
X017336Y013035D01*
X017237Y012936D02*
X017135Y012936D01*
X017135Y012838D02*
X017139Y012838D01*
X016975Y012838D02*
X016954Y012838D01*
X016975Y012936D02*
X016855Y012936D01*
X016757Y013035D02*
X016975Y013035D01*
X016975Y013133D02*
X015801Y013133D01*
X015814Y013232D02*
X016287Y013232D01*
X016188Y013330D02*
X015814Y013330D01*
X015814Y013724D02*
X016096Y013724D01*
X016124Y013823D02*
X015814Y013823D01*
X015779Y013921D02*
X016222Y013921D01*
X016321Y014020D02*
X010912Y014020D01*
X010912Y014118D02*
X016975Y014118D01*
X016975Y014020D02*
X016772Y014020D01*
X016870Y013921D02*
X016975Y013921D01*
X016969Y013823D02*
X016975Y013823D01*
X017135Y013921D02*
X017222Y013921D01*
X017135Y014020D02*
X017321Y014020D01*
X017496Y013527D02*
X017596Y013527D01*
X017596Y013429D02*
X017496Y013429D01*
X017496Y013330D02*
X017596Y013330D01*
X017596Y013232D02*
X017496Y013232D01*
X017496Y013035D02*
X017596Y013035D01*
X017596Y012936D02*
X017496Y012936D01*
X017496Y012838D02*
X017596Y012838D01*
X017596Y012739D02*
X017496Y012739D01*
X017596Y012641D02*
X018400Y012641D01*
X018400Y012739D02*
X017996Y012739D01*
X017954Y012838D02*
X018400Y012838D01*
X018400Y012936D02*
X017855Y012936D01*
X017996Y012559D02*
X017596Y012559D01*
X017596Y012159D01*
X017733Y012159D01*
X017996Y012422D01*
X017996Y012559D01*
X017996Y012542D02*
X018400Y012542D01*
X018400Y012444D02*
X017996Y012444D01*
X017919Y012345D02*
X018400Y012345D01*
X018400Y012247D02*
X017821Y012247D01*
X017733Y012059D02*
X017596Y012059D01*
X017596Y011659D01*
X017996Y011659D01*
X017996Y011795D01*
X017733Y012059D01*
X017742Y012050D02*
X018400Y012050D01*
X018400Y012148D02*
X017135Y012148D01*
X017135Y012050D02*
X017351Y012050D01*
X017252Y011951D02*
X017135Y011951D01*
X017135Y011853D02*
X017154Y011853D01*
X016975Y011853D02*
X016939Y011853D01*
X016975Y011951D02*
X016840Y011951D01*
X016742Y012050D02*
X016975Y012050D01*
X016975Y012148D02*
X015991Y012148D01*
X015991Y012050D02*
X016351Y012050D01*
X016252Y011951D02*
X015991Y011951D01*
X015991Y011853D02*
X016154Y011853D01*
X016096Y011754D02*
X015991Y011754D01*
X015991Y011656D02*
X016496Y011656D01*
X016496Y011754D02*
X016596Y011754D01*
X016596Y011853D02*
X016496Y011853D01*
X016496Y011951D02*
X016596Y011951D01*
X016596Y012050D02*
X016496Y012050D01*
X016496Y012247D02*
X016596Y012247D01*
X016596Y012345D02*
X016496Y012345D01*
X016496Y012444D02*
X016596Y012444D01*
X016596Y012542D02*
X016496Y012542D01*
X016272Y012247D02*
X015991Y012247D01*
X015991Y012345D02*
X016173Y012345D01*
X016096Y012444D02*
X015991Y012444D01*
X015991Y012542D02*
X016096Y012542D01*
X015831Y012542D02*
X015814Y012542D01*
X015814Y012641D02*
X015831Y012641D01*
X015831Y012739D02*
X015814Y012739D01*
X015831Y012444D02*
X015359Y012444D01*
X015359Y012345D02*
X015259Y012345D01*
X015259Y012247D02*
X015359Y012247D01*
X015359Y012148D02*
X015259Y012148D01*
X015259Y012050D02*
X015359Y012050D01*
X015359Y011951D02*
X015259Y011951D01*
X014901Y011951D02*
X014771Y011951D01*
X014771Y012050D02*
X014811Y012050D01*
X014805Y012148D02*
X014771Y012148D01*
X014771Y012247D02*
X014805Y012247D01*
X014805Y012345D02*
X014771Y012345D01*
X014771Y012542D02*
X014805Y012542D01*
X014805Y012641D02*
X014771Y012641D01*
X014771Y012739D02*
X014805Y012739D01*
X014431Y012444D02*
X015259Y012444D01*
X015814Y012345D02*
X015831Y012345D01*
X015831Y012247D02*
X015814Y012247D01*
X015814Y012148D02*
X015831Y012148D01*
X015831Y012050D02*
X015808Y012050D01*
X015831Y011951D02*
X015717Y011951D01*
X015831Y011853D02*
X014730Y011853D01*
X014431Y011853D02*
X014331Y011853D01*
X014331Y011806D02*
X014331Y012346D01*
X013991Y012346D01*
X013991Y011937D01*
X014002Y011899D01*
X014021Y011864D01*
X014049Y011836D01*
X014084Y011817D01*
X014122Y011806D01*
X014331Y011806D01*
X014331Y011951D02*
X014431Y011951D01*
X014431Y012050D02*
X014331Y012050D01*
X014331Y012148D02*
X014431Y012148D01*
X014431Y012247D02*
X014331Y012247D01*
X014331Y012345D02*
X014431Y012345D01*
X014331Y012444D02*
X013821Y012444D01*
X013821Y012542D02*
X013991Y012542D01*
X013991Y012641D02*
X013821Y012641D01*
X013821Y012739D02*
X013991Y012739D01*
X013991Y012345D02*
X013821Y012345D01*
X013821Y012247D02*
X013991Y012247D01*
X013991Y012148D02*
X013821Y012148D01*
X013821Y012050D02*
X013991Y012050D01*
X013991Y011951D02*
X013821Y011951D01*
X013763Y011853D02*
X014033Y011853D01*
X013520Y011360D02*
X015831Y011360D01*
X015831Y011262D02*
X013620Y011262D01*
X013720Y011163D02*
X015831Y011163D01*
X015831Y011065D02*
X013819Y011065D01*
X013919Y010966D02*
X015831Y010966D01*
X015831Y010868D02*
X014019Y010868D01*
X014118Y010769D02*
X015831Y010769D01*
X015831Y010671D02*
X014218Y010671D01*
X014318Y010572D02*
X015831Y010572D01*
X015831Y010474D02*
X014417Y010474D01*
X014517Y010375D02*
X015831Y010375D01*
X015831Y010277D02*
X014617Y010277D01*
X014716Y010178D02*
X015831Y010178D01*
X015837Y010080D02*
X014816Y010080D01*
X014916Y009981D02*
X018400Y009981D01*
X018400Y009883D02*
X015015Y009883D01*
X015115Y009784D02*
X018400Y009784D01*
X018400Y009686D02*
X015215Y009686D01*
X015314Y009587D02*
X018400Y009587D01*
X018400Y009489D02*
X015414Y009489D01*
X015514Y009390D02*
X018400Y009390D01*
X018400Y009292D02*
X015613Y009292D01*
X015713Y009193D02*
X018400Y009193D01*
X018400Y009095D02*
X015813Y009095D01*
X015912Y008996D02*
X016178Y008996D01*
X016136Y008898D02*
X016012Y008898D01*
X015867Y008339D02*
X015867Y008339D01*
X016901Y008208D02*
X018400Y008208D01*
X018400Y008307D02*
X016956Y008307D01*
X016956Y008405D02*
X018400Y008405D01*
X018400Y008504D02*
X016956Y008504D01*
X016956Y008602D02*
X018400Y008602D01*
X018400Y008701D02*
X016956Y008701D01*
X016956Y008799D02*
X018400Y008799D01*
X018400Y008898D02*
X016956Y008898D01*
X016914Y008996D02*
X018400Y008996D01*
X018400Y010080D02*
X017129Y010080D01*
X017135Y010178D02*
X017172Y010178D01*
X016975Y010178D02*
X016920Y010178D01*
X016596Y010178D02*
X016496Y010178D01*
X016496Y010277D02*
X016596Y010277D01*
X016596Y010375D02*
X016496Y010375D01*
X016496Y010474D02*
X016596Y010474D01*
X016496Y010572D02*
X015991Y010572D01*
X015991Y010474D02*
X016096Y010474D01*
X016096Y010375D02*
X015991Y010375D01*
X015991Y010277D02*
X016100Y010277D01*
X016172Y010178D02*
X015991Y010178D01*
X015991Y010671D02*
X016096Y010671D01*
X016096Y010769D02*
X015991Y010769D01*
X016096Y010928D02*
X016106Y010966D01*
X015991Y011065D02*
X016975Y011065D01*
X016975Y011163D02*
X016737Y011163D01*
X016836Y011262D02*
X016975Y011262D01*
X016975Y011360D02*
X016934Y011360D01*
X017135Y011360D02*
X017158Y011360D01*
X017135Y011262D02*
X017257Y011262D01*
X017355Y011163D02*
X017135Y011163D01*
X017135Y011065D02*
X018400Y011065D01*
X018400Y011163D02*
X017737Y011163D01*
X017733Y011159D02*
X017996Y011422D01*
X017996Y011559D01*
X017596Y011559D01*
X017596Y011159D01*
X017733Y011159D01*
X017596Y011163D02*
X017496Y011163D01*
X017496Y011262D02*
X017596Y011262D01*
X017596Y011360D02*
X017496Y011360D01*
X017496Y011459D02*
X017596Y011459D01*
X017596Y011557D02*
X017496Y011557D01*
X017596Y011656D02*
X018400Y011656D01*
X018400Y011754D02*
X017996Y011754D01*
X017939Y011853D02*
X018400Y011853D01*
X018400Y011951D02*
X017840Y011951D01*
X017596Y011951D02*
X017496Y011951D01*
X017496Y011853D02*
X017596Y011853D01*
X017596Y011754D02*
X017496Y011754D01*
X017496Y012050D02*
X017596Y012050D01*
X017596Y012247D02*
X017496Y012247D01*
X017496Y012345D02*
X017596Y012345D01*
X017596Y012444D02*
X017496Y012444D01*
X017496Y012542D02*
X017596Y012542D01*
X017272Y012247D02*
X017135Y012247D01*
X017135Y012345D02*
X017173Y012345D01*
X016975Y012345D02*
X016919Y012345D01*
X016975Y012247D02*
X016821Y012247D01*
X016596Y011557D02*
X016496Y011557D01*
X016496Y011459D02*
X016596Y011459D01*
X016596Y011360D02*
X016496Y011360D01*
X016496Y011262D02*
X016596Y011262D01*
X016596Y011163D02*
X016496Y011163D01*
X016355Y011163D02*
X015991Y011163D01*
X015991Y011262D02*
X016257Y011262D01*
X016158Y011360D02*
X015991Y011360D01*
X015991Y011459D02*
X016096Y011459D01*
X016096Y011557D02*
X015991Y011557D01*
X015831Y011557D02*
X013321Y011557D01*
X013421Y011459D02*
X015831Y011459D01*
X015831Y011656D02*
X013221Y011656D01*
X013122Y011754D02*
X015831Y011754D01*
X016496Y010966D02*
X016596Y010966D01*
X016596Y010868D02*
X016496Y010868D01*
X016496Y010769D02*
X016596Y010769D01*
X016596Y010671D02*
X016496Y010671D01*
X017496Y010671D02*
X017596Y010671D01*
X017596Y010659D02*
X017596Y011059D01*
X017866Y011059D01*
X017904Y011048D01*
X017938Y011029D01*
X017966Y011001D01*
X017986Y010966D01*
X018400Y010966D01*
X018400Y010868D02*
X017996Y010868D01*
X017996Y010928D02*
X017996Y010659D01*
X017596Y010659D01*
X017596Y010572D02*
X018400Y010572D01*
X018400Y010474D02*
X017996Y010474D01*
X017996Y010559D02*
X017996Y010289D01*
X017986Y010251D01*
X017966Y010216D01*
X017938Y010189D01*
X017904Y010169D01*
X017866Y010159D01*
X017596Y010159D01*
X017596Y010559D01*
X017996Y010559D01*
X017996Y010671D02*
X018400Y010671D01*
X018400Y010769D02*
X017996Y010769D01*
X017996Y010928D02*
X017986Y010966D01*
X017836Y011262D02*
X018400Y011262D01*
X018400Y011360D02*
X017934Y011360D01*
X017996Y011459D02*
X018400Y011459D01*
X018400Y011557D02*
X017996Y011557D01*
X017596Y010966D02*
X017496Y010966D01*
X017496Y010868D02*
X017596Y010868D01*
X017596Y010769D02*
X017496Y010769D01*
X017496Y010474D02*
X017596Y010474D01*
X017596Y010375D02*
X017496Y010375D01*
X017496Y010277D02*
X017596Y010277D01*
X017596Y010178D02*
X017496Y010178D01*
X017920Y010178D02*
X018400Y010178D01*
X018400Y010277D02*
X017993Y010277D01*
X017996Y010375D02*
X018400Y010375D01*
X017287Y013232D02*
X017135Y013232D01*
X017135Y013330D02*
X017188Y013330D01*
X016975Y013330D02*
X016904Y013330D01*
X016975Y013232D02*
X016806Y013232D01*
X016596Y013724D02*
X016496Y013724D01*
X016496Y013823D02*
X016596Y013823D01*
X016596Y013921D02*
X016496Y013921D01*
X016496Y014020D02*
X016596Y014020D01*
X015359Y013921D02*
X015259Y013921D01*
X015259Y013823D02*
X015359Y013823D01*
X015359Y013724D02*
X015259Y013724D01*
X015259Y013626D02*
X015359Y013626D01*
X015359Y013330D02*
X015259Y013330D01*
X015259Y013232D02*
X015359Y013232D01*
X015359Y013133D02*
X015259Y013133D01*
X014805Y013626D02*
X010912Y013626D01*
X010912Y013724D02*
X014805Y013724D01*
X014805Y013823D02*
X010912Y013823D01*
X010912Y013921D02*
X014840Y013921D01*
X013121Y012739D02*
X012911Y012739D01*
X012911Y012641D02*
X013121Y012641D01*
X013121Y012542D02*
X012911Y012542D01*
X012911Y012444D02*
X013121Y012444D01*
X013121Y012345D02*
X012911Y012345D01*
X012911Y012247D02*
X013121Y012247D01*
X013121Y012148D02*
X012911Y012148D01*
X012911Y012050D02*
X013121Y012050D01*
X013121Y011951D02*
X012922Y011951D01*
X013022Y011853D02*
X013180Y011853D01*
X012211Y011951D02*
X012170Y011951D01*
X011410Y011951D02*
X011123Y011951D01*
X011152Y012050D02*
X011365Y012050D01*
X011365Y012148D02*
X011152Y012148D01*
X011152Y012247D02*
X011365Y012247D01*
X011365Y012345D02*
X011152Y012345D01*
X010737Y012345D02*
X010637Y012345D01*
X010637Y012247D02*
X010737Y012247D01*
X010737Y012148D02*
X010637Y012148D01*
X010637Y012050D02*
X010737Y012050D01*
X010737Y011951D02*
X010637Y011951D01*
X008994Y009193D02*
X006601Y009193D01*
X006600Y009095D02*
X009186Y009095D01*
X009117Y008996D02*
X006600Y008996D01*
X006600Y008898D02*
X009101Y008898D01*
X009126Y008799D02*
X006600Y008799D01*
X006674Y008701D02*
X009208Y008701D01*
X009346Y008909D02*
X009746Y008909D01*
X010546Y008109D01*
X010546Y004609D01*
X010463Y004465D02*
X008235Y004465D01*
X008137Y004367D02*
X010562Y004367D01*
X010480Y004449D02*
X010480Y004449D01*
X010386Y004564D02*
X008334Y004564D01*
X008432Y004662D02*
X010386Y004662D01*
X010386Y004761D02*
X008531Y004761D01*
X008629Y004859D02*
X010386Y004859D01*
X010386Y004958D02*
X008728Y004958D01*
X008826Y005056D02*
X010386Y005056D01*
X010386Y005155D02*
X008925Y005155D01*
X009023Y005253D02*
X010386Y005253D01*
X010386Y005352D02*
X009122Y005352D01*
X009220Y005450D02*
X010386Y005450D01*
X010386Y005549D02*
X009319Y005549D01*
X009417Y005647D02*
X010386Y005647D01*
X010386Y005746D02*
X009516Y005746D01*
X009614Y005844D02*
X010386Y005844D01*
X010386Y005943D02*
X009713Y005943D01*
X009811Y006041D02*
X010386Y006041D01*
X010386Y006140D02*
X009910Y006140D01*
X010008Y006238D02*
X010386Y006238D01*
X010386Y006337D02*
X010107Y006337D01*
X010326Y006435D02*
X010386Y006435D01*
X010376Y006534D02*
X010386Y006534D01*
X010379Y006632D02*
X010386Y006632D01*
X010386Y006731D02*
X010339Y006731D01*
X010386Y006829D02*
X010196Y006829D01*
X010071Y006829D02*
X009327Y006829D01*
X009425Y006928D02*
X010386Y006928D01*
X010386Y007026D02*
X009524Y007026D01*
X009622Y007125D02*
X010386Y007125D01*
X010386Y007223D02*
X009721Y007223D01*
X009800Y007302D02*
X009867Y007302D01*
X009957Y007339D01*
X010026Y007408D01*
X010064Y007498D01*
X010064Y007596D01*
X010026Y007686D01*
X009957Y007755D01*
X009867Y007792D01*
X009770Y007792D01*
X009680Y007755D01*
X009611Y007686D01*
X009574Y007596D01*
X009574Y007528D01*
X006480Y004435D01*
X006386Y004341D01*
X006386Y003062D01*
X006274Y003015D01*
X006139Y002880D01*
X006066Y002704D01*
X006066Y002513D01*
X006139Y002337D01*
X006274Y002202D01*
X006451Y002129D01*
X006642Y002129D01*
X006818Y002202D01*
X006953Y002337D01*
X007026Y002513D01*
X007026Y002704D01*
X006953Y002880D01*
X006818Y003015D01*
X006706Y003062D01*
X006706Y004208D01*
X009800Y007302D01*
X009914Y007322D02*
X010386Y007322D01*
X010386Y007420D02*
X010031Y007420D01*
X010064Y007519D02*
X010386Y007519D01*
X010386Y007617D02*
X010055Y007617D01*
X009997Y007716D02*
X010386Y007716D01*
X010386Y007814D02*
X007206Y007814D01*
X007206Y007716D02*
X009641Y007716D01*
X009582Y007617D02*
X007206Y007617D01*
X007206Y007519D02*
X009564Y007519D01*
X009465Y007420D02*
X007206Y007420D01*
X007206Y007322D02*
X009367Y007322D01*
X009268Y007223D02*
X007206Y007223D01*
X007206Y007125D02*
X009170Y007125D01*
X009071Y007026D02*
X007206Y007026D01*
X007206Y006928D02*
X008973Y006928D01*
X008874Y006829D02*
X007206Y006829D01*
X007206Y006731D02*
X008776Y006731D01*
X008677Y006632D02*
X007206Y006632D01*
X007272Y006534D02*
X008579Y006534D01*
X008480Y006435D02*
X007291Y006435D01*
X007269Y006337D02*
X008382Y006337D01*
X008283Y006238D02*
X007192Y006238D01*
X007046Y006439D02*
X007046Y008102D01*
X006440Y008709D01*
X006446Y014300D01*
X006286Y014020D02*
X003757Y014020D01*
X003729Y014049D02*
X003986Y013791D01*
X003986Y013426D01*
X003729Y013169D01*
X003364Y013169D01*
X003106Y013426D01*
X003106Y013791D01*
X003364Y014049D01*
X003729Y014049D01*
X003856Y013921D02*
X006286Y013921D01*
X006286Y013823D02*
X003954Y013823D01*
X003986Y013724D02*
X006286Y013724D01*
X006286Y013626D02*
X003986Y013626D01*
X003986Y013527D02*
X006285Y013527D01*
X006285Y013429D02*
X003986Y013429D01*
X003890Y013330D02*
X006285Y013330D01*
X006285Y013232D02*
X003792Y013232D01*
X003301Y013232D02*
X002792Y013232D01*
X002729Y013169D02*
X002986Y013426D01*
X002986Y013791D01*
X002729Y014049D01*
X002364Y014049D01*
X002106Y013791D01*
X002106Y013426D01*
X002364Y013169D01*
X002729Y013169D01*
X002890Y013330D02*
X003202Y013330D01*
X003106Y013429D02*
X002986Y013429D01*
X002986Y013527D02*
X003106Y013527D01*
X003106Y013626D02*
X002986Y013626D01*
X002986Y013724D02*
X003106Y013724D01*
X003138Y013823D02*
X002954Y013823D01*
X002856Y013921D02*
X003237Y013921D01*
X003335Y014020D02*
X002757Y014020D01*
X002729Y014169D02*
X002986Y014426D01*
X002986Y014791D01*
X002729Y015049D01*
X002364Y015049D01*
X002106Y014791D01*
X002106Y014426D01*
X002364Y014169D01*
X002729Y014169D01*
X002777Y014217D02*
X003123Y014217D01*
X003106Y014233D02*
X003171Y014169D01*
X003922Y014169D01*
X003986Y014233D01*
X003986Y014984D01*
X003922Y015049D01*
X003171Y015049D01*
X003106Y014984D01*
X003106Y014233D01*
X003106Y014315D02*
X002875Y014315D01*
X002974Y014414D02*
X003106Y014414D01*
X003106Y014512D02*
X002986Y014512D01*
X002986Y014611D02*
X003106Y014611D01*
X003106Y014709D02*
X002986Y014709D01*
X002969Y014808D02*
X003106Y014808D01*
X003106Y014906D02*
X002871Y014906D01*
X002772Y015005D02*
X003127Y015005D01*
X002320Y015005D02*
X002162Y015005D01*
X002222Y014906D02*
X002064Y014906D01*
X002123Y014808D02*
X001969Y014808D01*
X001986Y014709D02*
X002106Y014709D01*
X002106Y014611D02*
X001986Y014611D01*
X001986Y014512D02*
X002106Y014512D01*
X002119Y014414D02*
X001974Y014414D01*
X001875Y014315D02*
X002217Y014315D01*
X002316Y014217D02*
X001777Y014217D01*
X001745Y014089D02*
X001596Y014089D01*
X001596Y013659D01*
X001496Y013659D01*
X001496Y014089D01*
X001347Y014089D01*
X001066Y013807D01*
X001066Y013659D01*
X001496Y013659D01*
X001496Y013559D01*
X001066Y013559D01*
X001066Y013410D01*
X001347Y013129D01*
X001496Y013129D01*
X001496Y013559D01*
X001596Y013559D01*
X001596Y013659D01*
X002026Y013659D01*
X002026Y013807D01*
X001745Y014089D01*
X001814Y014020D02*
X002335Y014020D01*
X002237Y013921D02*
X001913Y013921D01*
X002011Y013823D02*
X002138Y013823D01*
X002106Y013724D02*
X002026Y013724D01*
X002106Y013626D02*
X001596Y013626D01*
X001596Y013559D02*
X002026Y013559D01*
X002026Y013410D01*
X001745Y013129D01*
X001596Y013129D01*
X001596Y013559D01*
X001596Y013527D02*
X001496Y013527D01*
X001496Y013429D02*
X001596Y013429D01*
X001596Y013330D02*
X001496Y013330D01*
X001496Y013232D02*
X001596Y013232D01*
X001596Y013133D02*
X001496Y013133D01*
X001343Y013133D02*
X000590Y013133D01*
X000590Y013035D02*
X006285Y013035D01*
X006285Y013133D02*
X001750Y013133D01*
X001848Y013232D02*
X002301Y013232D01*
X002202Y013330D02*
X001947Y013330D01*
X002026Y013429D02*
X002106Y013429D01*
X002106Y013527D02*
X002026Y013527D01*
X001596Y013724D02*
X001496Y013724D01*
X001496Y013626D02*
X000590Y013626D01*
X000590Y013724D02*
X001066Y013724D01*
X001081Y013823D02*
X000590Y013823D01*
X000590Y013921D02*
X001180Y013921D01*
X001278Y014020D02*
X000590Y014020D01*
X000590Y014118D02*
X006097Y014118D01*
X006086Y014217D02*
X003970Y014217D01*
X003986Y014315D02*
X006086Y014315D01*
X006086Y014414D02*
X003986Y014414D01*
X003986Y014512D02*
X004610Y014512D01*
X004512Y014611D02*
X003986Y014611D01*
X003986Y014709D02*
X004413Y014709D01*
X004315Y014808D02*
X003986Y014808D01*
X003986Y014906D02*
X004216Y014906D01*
X004118Y015005D02*
X003966Y015005D01*
X004140Y015209D02*
X004699Y014650D01*
X006446Y014650D01*
X006446Y015000D02*
X006446Y016509D01*
X006546Y016609D01*
X006234Y016876D02*
X004886Y016876D01*
X004920Y016975D02*
X006332Y016975D01*
X006136Y016778D02*
X004788Y016778D01*
X004689Y016679D02*
X006136Y016679D01*
X006136Y016581D02*
X000590Y016581D01*
X000590Y016679D02*
X003247Y016679D01*
X003258Y016669D02*
X003622Y016669D01*
X003880Y016926D01*
X003880Y017291D01*
X003622Y017549D01*
X003258Y017549D01*
X003000Y017291D01*
X003000Y016926D01*
X003258Y016669D01*
X003149Y016778D02*
X000590Y016778D01*
X000590Y016876D02*
X003050Y016876D01*
X003000Y016975D02*
X000590Y016975D01*
X000590Y017073D02*
X003000Y017073D01*
X003000Y017172D02*
X000590Y017172D01*
X000590Y017270D02*
X003000Y017270D01*
X003078Y017369D02*
X000590Y017369D01*
X000590Y017467D02*
X003176Y017467D01*
X003704Y017467D02*
X004120Y017467D01*
X004218Y017566D02*
X000590Y017566D01*
X000590Y017664D02*
X006136Y017664D01*
X006136Y017566D02*
X004662Y017566D01*
X004760Y017467D02*
X006136Y017467D01*
X006206Y017369D02*
X004859Y017369D01*
X004920Y017270D02*
X006305Y017270D01*
X006136Y017763D02*
X001788Y017763D01*
X002026Y017861D02*
X006219Y017861D01*
X006136Y016482D02*
X000590Y016482D01*
X000590Y016384D02*
X006191Y016384D01*
X006286Y016285D02*
X000590Y016285D01*
X000590Y016187D02*
X006286Y016187D01*
X006286Y016088D02*
X000590Y016088D01*
X000590Y015990D02*
X006286Y015990D01*
X006286Y015891D02*
X000590Y015891D01*
X000590Y015793D02*
X006286Y015793D01*
X006286Y015694D02*
X000590Y015694D01*
X000590Y015596D02*
X006286Y015596D01*
X006286Y015497D02*
X000590Y015497D01*
X000590Y015399D02*
X006286Y015399D01*
X006286Y015300D02*
X004275Y015300D01*
X004373Y015202D02*
X006118Y015202D01*
X006086Y015103D02*
X004472Y015103D01*
X004570Y015005D02*
X006086Y015005D01*
X006086Y014906D02*
X004669Y014906D01*
X004140Y015209D02*
X002140Y015209D01*
X001551Y014619D01*
X001550Y014620D02*
X001547Y014615D01*
X001546Y014609D01*
X001222Y014906D02*
X000590Y014906D01*
X000590Y014808D02*
X001123Y014808D01*
X001106Y014709D02*
X000590Y014709D01*
X000590Y014611D02*
X001106Y014611D01*
X001106Y014512D02*
X000590Y014512D01*
X000590Y014414D02*
X001119Y014414D01*
X001217Y014315D02*
X000590Y014315D01*
X000590Y014217D02*
X001316Y014217D01*
X001496Y014020D02*
X001596Y014020D01*
X001596Y013921D02*
X001496Y013921D01*
X001496Y013823D02*
X001596Y013823D01*
X001146Y013330D02*
X000590Y013330D01*
X000590Y013232D02*
X001244Y013232D01*
X001066Y013429D02*
X000590Y013429D01*
X000590Y013527D02*
X001066Y013527D01*
X000590Y012936D02*
X006285Y012936D01*
X006285Y012838D02*
X000590Y012838D01*
X000590Y012739D02*
X006285Y012739D01*
X006284Y012641D02*
X000590Y012641D01*
X000590Y012542D02*
X006284Y012542D01*
X006284Y012444D02*
X000590Y012444D01*
X000590Y012345D02*
X006284Y012345D01*
X006284Y012247D02*
X000590Y012247D01*
X000590Y012148D02*
X006284Y012148D01*
X006284Y012050D02*
X001742Y012050D01*
X001733Y012059D02*
X001596Y012059D01*
X001596Y011659D01*
X001496Y011659D01*
X001496Y012059D01*
X001360Y012059D01*
X001096Y011795D01*
X001096Y011659D01*
X001496Y011659D01*
X001496Y011559D01*
X001096Y011559D01*
X001096Y011422D01*
X001360Y011159D01*
X001496Y011159D01*
X001496Y011559D01*
X001596Y011559D01*
X001596Y011659D01*
X001996Y011659D01*
X001996Y011795D01*
X001733Y012059D01*
X001596Y012050D02*
X001496Y012050D01*
X001496Y011951D02*
X001596Y011951D01*
X001596Y011853D02*
X001496Y011853D01*
X001496Y011754D02*
X001596Y011754D01*
X001596Y011656D02*
X002136Y011656D01*
X002136Y011754D02*
X001996Y011754D01*
X001939Y011853D02*
X002210Y011853D01*
X002136Y011778D02*
X002136Y011439D01*
X002376Y011199D01*
X002716Y011199D01*
X002956Y011439D01*
X002956Y011778D01*
X002716Y012019D01*
X002376Y012019D01*
X002136Y011778D01*
X002136Y011557D02*
X001996Y011557D01*
X001996Y011559D02*
X001596Y011559D01*
X001596Y011159D01*
X001733Y011159D01*
X001996Y011422D01*
X001996Y011559D01*
X001996Y011459D02*
X002136Y011459D01*
X002215Y011360D02*
X001934Y011360D01*
X001836Y011262D02*
X002313Y011262D01*
X002376Y011019D02*
X002136Y010778D01*
X002136Y010439D01*
X002376Y010199D01*
X002716Y010199D01*
X002956Y010439D01*
X002956Y010778D01*
X002716Y011019D01*
X002376Y011019D01*
X002324Y010966D02*
X001825Y010966D01*
X001733Y011059D02*
X001596Y011059D01*
X001596Y010659D01*
X001496Y010659D01*
X001496Y011059D01*
X001360Y011059D01*
X001096Y010795D01*
X001096Y010659D01*
X001496Y010659D01*
X001496Y010559D01*
X001096Y010559D01*
X001096Y010422D01*
X001360Y010159D01*
X001496Y010159D01*
X001496Y010559D01*
X001596Y010559D01*
X001596Y010659D01*
X001996Y010659D01*
X001996Y010795D01*
X001733Y011059D01*
X001737Y011163D02*
X006283Y011163D01*
X006283Y011065D02*
X000590Y011065D01*
X000590Y011163D02*
X001355Y011163D01*
X001257Y011262D02*
X000590Y011262D01*
X000590Y011360D02*
X001158Y011360D01*
X001096Y011459D02*
X000590Y011459D01*
X000590Y011557D02*
X001096Y011557D01*
X001096Y011754D02*
X000590Y011754D01*
X000590Y011656D02*
X001496Y011656D01*
X001496Y011557D02*
X001596Y011557D01*
X001596Y011459D02*
X001496Y011459D01*
X001496Y011360D02*
X001596Y011360D01*
X001596Y011262D02*
X001496Y011262D01*
X001496Y011163D02*
X001596Y011163D01*
X001596Y010966D02*
X001496Y010966D01*
X001496Y010868D02*
X001596Y010868D01*
X001596Y010769D02*
X001496Y010769D01*
X001496Y010671D02*
X001596Y010671D01*
X001596Y010572D02*
X002136Y010572D01*
X002136Y010474D02*
X001996Y010474D01*
X001996Y010422D02*
X001996Y010559D01*
X001596Y010559D01*
X001596Y010159D01*
X001733Y010159D01*
X001996Y010422D01*
X001949Y010375D02*
X002200Y010375D01*
X002298Y010277D02*
X001851Y010277D01*
X001752Y010178D02*
X006282Y010178D01*
X006282Y010080D02*
X000590Y010080D01*
X000590Y010178D02*
X001340Y010178D01*
X001360Y010059D02*
X001096Y009795D01*
X001096Y009659D01*
X001496Y009659D01*
X001496Y010059D01*
X001360Y010059D01*
X001282Y009981D02*
X000590Y009981D01*
X000590Y009883D02*
X001184Y009883D01*
X001096Y009784D02*
X000590Y009784D01*
X000590Y009686D02*
X001096Y009686D01*
X001096Y009559D02*
X001096Y009422D01*
X001360Y009159D01*
X001496Y009159D01*
X001496Y009559D01*
X001096Y009559D01*
X001096Y009489D02*
X000590Y009489D01*
X000590Y009587D02*
X001496Y009587D01*
X001496Y009559D02*
X001496Y009659D01*
X001596Y009659D01*
X001596Y010059D01*
X001733Y010059D01*
X001996Y009795D01*
X001996Y009659D01*
X001596Y009659D01*
X001596Y009559D01*
X001996Y009559D01*
X001996Y009422D01*
X001733Y009159D01*
X001596Y009159D01*
X001596Y009559D01*
X001496Y009559D01*
X001496Y009489D02*
X001596Y009489D01*
X001596Y009587D02*
X002136Y009587D01*
X002136Y009489D02*
X001996Y009489D01*
X001964Y009390D02*
X002185Y009390D01*
X002136Y009439D02*
X002376Y009199D01*
X002716Y009199D01*
X002956Y009439D01*
X002956Y009778D01*
X002716Y010019D01*
X002376Y010019D01*
X002136Y009778D01*
X002136Y009439D01*
X002283Y009292D02*
X001866Y009292D01*
X001767Y009193D02*
X006281Y009193D01*
X006280Y009095D02*
X000590Y009095D01*
X000590Y009193D02*
X001325Y009193D01*
X001360Y009059D02*
X001096Y008795D01*
X001096Y008659D01*
X001496Y008659D01*
X001496Y009059D01*
X001360Y009059D01*
X001297Y008996D02*
X000590Y008996D01*
X000590Y008898D02*
X001199Y008898D01*
X001100Y008799D02*
X000590Y008799D01*
X000590Y008701D02*
X001096Y008701D01*
X001096Y008559D02*
X001096Y008422D01*
X001360Y008159D01*
X001496Y008159D01*
X001496Y008559D01*
X001096Y008559D01*
X001096Y008504D02*
X000590Y008504D01*
X000590Y008602D02*
X001496Y008602D01*
X001496Y008559D02*
X001496Y008659D01*
X001596Y008659D01*
X001596Y009059D01*
X001733Y009059D01*
X001996Y008795D01*
X001996Y008659D01*
X001596Y008659D01*
X001596Y008559D01*
X001996Y008559D01*
X001996Y008422D01*
X001733Y008159D01*
X001596Y008159D01*
X001596Y008559D01*
X001496Y008559D01*
X001496Y008504D02*
X001596Y008504D01*
X001596Y008602D02*
X002136Y008602D01*
X002136Y008504D02*
X001996Y008504D01*
X001979Y008405D02*
X002170Y008405D01*
X002136Y008439D02*
X002376Y008199D01*
X002716Y008199D01*
X002956Y008439D01*
X002956Y008778D01*
X002716Y009019D01*
X002376Y009019D01*
X002136Y008778D01*
X002136Y008439D01*
X002268Y008307D02*
X001881Y008307D01*
X001782Y008208D02*
X002367Y008208D01*
X002376Y008019D02*
X002136Y007778D01*
X002136Y007439D01*
X002376Y007199D01*
X002716Y007199D01*
X002956Y007439D01*
X002956Y007778D01*
X002716Y008019D01*
X002376Y008019D01*
X002369Y008011D02*
X001780Y008011D01*
X001733Y008059D02*
X001596Y008059D01*
X001596Y007659D01*
X001496Y007659D01*
X001496Y008059D01*
X001360Y008059D01*
X001096Y007795D01*
X001096Y007659D01*
X001496Y007659D01*
X001496Y007559D01*
X001096Y007559D01*
X001096Y007422D01*
X001360Y007159D01*
X001496Y007159D01*
X001496Y007559D01*
X001596Y007559D01*
X001596Y007659D01*
X001996Y007659D01*
X001996Y007795D01*
X001733Y008059D01*
X001596Y008011D02*
X001496Y008011D01*
X001496Y007913D02*
X001596Y007913D01*
X001596Y007814D02*
X001496Y007814D01*
X001496Y007716D02*
X001596Y007716D01*
X001596Y007617D02*
X002136Y007617D01*
X002136Y007519D02*
X001996Y007519D01*
X001996Y007559D02*
X001996Y007422D01*
X001733Y007159D01*
X001596Y007159D01*
X001596Y007559D01*
X001996Y007559D01*
X001994Y007420D02*
X002155Y007420D01*
X002253Y007322D02*
X001896Y007322D01*
X001797Y007223D02*
X002352Y007223D01*
X002376Y007019D02*
X002136Y006778D01*
X002136Y006439D01*
X002376Y006199D01*
X002716Y006199D01*
X002956Y006439D01*
X002956Y006778D01*
X002716Y007019D01*
X002376Y007019D01*
X002285Y006928D02*
X001864Y006928D01*
X001765Y007026D02*
X006886Y007026D01*
X006886Y006928D02*
X003807Y006928D01*
X003716Y007019D02*
X003376Y007019D01*
X003136Y006778D01*
X003136Y006439D01*
X003376Y006199D01*
X003716Y006199D01*
X003956Y006439D01*
X003956Y006778D01*
X003716Y007019D01*
X003716Y007199D02*
X003376Y007199D01*
X003136Y007439D01*
X003136Y007778D01*
X003376Y008019D01*
X003716Y008019D01*
X003956Y007778D01*
X003956Y007439D01*
X003716Y007199D01*
X003741Y007223D02*
X006886Y007223D01*
X006886Y007125D02*
X000590Y007125D01*
X000590Y007223D02*
X001295Y007223D01*
X001197Y007322D02*
X000590Y007322D01*
X000590Y007420D02*
X001098Y007420D01*
X001096Y007519D02*
X000590Y007519D01*
X000590Y007617D02*
X001496Y007617D01*
X001496Y007519D02*
X001596Y007519D01*
X001596Y007420D02*
X001496Y007420D01*
X001496Y007322D02*
X001596Y007322D01*
X001596Y007223D02*
X001496Y007223D01*
X001496Y007059D02*
X001360Y007059D01*
X001096Y006795D01*
X001096Y006659D01*
X001496Y006659D01*
X001496Y007059D01*
X001496Y007026D02*
X001596Y007026D01*
X001596Y007059D02*
X001733Y007059D01*
X001996Y006795D01*
X001996Y006659D01*
X001596Y006659D01*
X001496Y006659D01*
X001496Y006559D01*
X001096Y006559D01*
X001096Y006422D01*
X001360Y006159D01*
X001496Y006159D01*
X001496Y006559D01*
X001596Y006559D01*
X001596Y006659D01*
X001596Y007059D01*
X001596Y006928D02*
X001496Y006928D01*
X001496Y006829D02*
X001596Y006829D01*
X001596Y006731D02*
X001496Y006731D01*
X001496Y006632D02*
X000590Y006632D01*
X000590Y006534D02*
X001096Y006534D01*
X001096Y006435D02*
X000590Y006435D01*
X000590Y006337D02*
X001182Y006337D01*
X001280Y006238D02*
X000590Y006238D01*
X000590Y006140D02*
X005313Y006140D01*
X005313Y006145D02*
X005313Y006059D01*
X005158Y006059D01*
X005094Y005995D01*
X005094Y005116D01*
X005158Y005052D01*
X005958Y005052D01*
X006022Y005116D01*
X006022Y005995D01*
X005958Y006059D01*
X005803Y006059D01*
X005803Y006145D01*
X005790Y006178D01*
X005790Y006188D01*
X005782Y006196D01*
X005766Y006236D01*
X005697Y006304D01*
X005664Y006318D01*
X005658Y006325D01*
X005647Y006325D01*
X005607Y006342D01*
X005509Y006342D01*
X005477Y006328D01*
X005467Y006328D01*
X005459Y006321D01*
X005419Y006304D01*
X005350Y006236D01*
X005337Y006203D01*
X005330Y006196D01*
X005330Y006186D01*
X005313Y006145D01*
X005353Y006238D02*
X003756Y006238D01*
X003854Y006337D02*
X005497Y006337D01*
X005619Y006337D02*
X006824Y006337D01*
X006801Y006435D02*
X003953Y006435D01*
X003956Y006534D02*
X006820Y006534D01*
X006886Y006632D02*
X003956Y006632D01*
X003956Y006731D02*
X006886Y006731D01*
X006886Y006829D02*
X003906Y006829D01*
X003839Y007322D02*
X006886Y007322D01*
X006886Y007420D02*
X003938Y007420D01*
X003956Y007519D02*
X006886Y007519D01*
X006886Y007617D02*
X003956Y007617D01*
X003956Y007716D02*
X006886Y007716D01*
X006886Y007814D02*
X003921Y007814D01*
X003822Y007913D02*
X006886Y007913D01*
X006886Y008011D02*
X003724Y008011D01*
X003716Y008199D02*
X003376Y008199D01*
X003136Y008439D01*
X003136Y008778D01*
X003376Y009019D01*
X003716Y009019D01*
X003956Y008778D01*
X003956Y008439D01*
X003716Y008199D01*
X003726Y008208D02*
X006714Y008208D01*
X006616Y008307D02*
X003824Y008307D01*
X003923Y008405D02*
X006517Y008405D01*
X006419Y008504D02*
X003956Y008504D01*
X003956Y008602D02*
X006320Y008602D01*
X006280Y008642D02*
X006280Y008642D01*
X006280Y008642D01*
X006280Y008701D02*
X003956Y008701D01*
X003936Y008799D02*
X006280Y008799D01*
X006280Y008898D02*
X003837Y008898D01*
X003739Y008996D02*
X006280Y008996D01*
X006281Y009292D02*
X003809Y009292D01*
X003716Y009199D02*
X003956Y009439D01*
X003956Y009778D01*
X003716Y010019D01*
X003376Y010019D01*
X003136Y009778D01*
X003136Y009439D01*
X003376Y009199D01*
X003716Y009199D01*
X003908Y009390D02*
X006281Y009390D01*
X006281Y009489D02*
X003956Y009489D01*
X003956Y009587D02*
X006281Y009587D01*
X006281Y009686D02*
X003956Y009686D01*
X003951Y009784D02*
X006281Y009784D01*
X006281Y009883D02*
X003852Y009883D01*
X003754Y009981D02*
X006281Y009981D01*
X006282Y010277D02*
X003794Y010277D01*
X003716Y010199D02*
X003956Y010439D01*
X003956Y010778D01*
X003716Y011019D01*
X003376Y011019D01*
X003136Y010778D01*
X003136Y010439D01*
X003376Y010199D01*
X003716Y010199D01*
X003893Y010375D02*
X006282Y010375D01*
X006282Y010474D02*
X003956Y010474D01*
X003956Y010572D02*
X006282Y010572D01*
X006282Y010671D02*
X003956Y010671D01*
X003956Y010769D02*
X006282Y010769D01*
X006282Y010868D02*
X003867Y010868D01*
X003769Y010966D02*
X006283Y010966D01*
X006283Y011262D02*
X003779Y011262D01*
X003716Y011199D02*
X003956Y011439D01*
X003956Y011778D01*
X003716Y012019D01*
X003376Y012019D01*
X003136Y011778D01*
X003136Y011439D01*
X003376Y011199D01*
X003716Y011199D01*
X003878Y011360D02*
X006283Y011360D01*
X006283Y011459D02*
X003956Y011459D01*
X003956Y011557D02*
X006283Y011557D01*
X006283Y011656D02*
X003956Y011656D01*
X003956Y011754D02*
X006283Y011754D01*
X006284Y011853D02*
X003882Y011853D01*
X003784Y011951D02*
X006284Y011951D01*
X003309Y011951D02*
X002784Y011951D01*
X002882Y011853D02*
X003210Y011853D01*
X003136Y011754D02*
X002956Y011754D01*
X002956Y011656D02*
X003136Y011656D01*
X003136Y011557D02*
X002956Y011557D01*
X002956Y011459D02*
X003136Y011459D01*
X003215Y011360D02*
X002878Y011360D01*
X002779Y011262D02*
X003313Y011262D01*
X003324Y010966D02*
X002769Y010966D01*
X002867Y010868D02*
X003225Y010868D01*
X003136Y010769D02*
X002956Y010769D01*
X002956Y010671D02*
X003136Y010671D01*
X003136Y010572D02*
X002956Y010572D01*
X002956Y010474D02*
X003136Y010474D01*
X003200Y010375D02*
X002893Y010375D01*
X002794Y010277D02*
X003298Y010277D01*
X003339Y009981D02*
X002754Y009981D01*
X002852Y009883D02*
X003240Y009883D01*
X003142Y009784D02*
X002951Y009784D01*
X002956Y009686D02*
X003136Y009686D01*
X003136Y009587D02*
X002956Y009587D01*
X002956Y009489D02*
X003136Y009489D01*
X003185Y009390D02*
X002908Y009390D01*
X002809Y009292D02*
X003283Y009292D01*
X003354Y008996D02*
X002739Y008996D01*
X002837Y008898D02*
X003255Y008898D01*
X003157Y008799D02*
X002936Y008799D01*
X002956Y008701D02*
X003136Y008701D01*
X003136Y008602D02*
X002956Y008602D01*
X002956Y008504D02*
X003136Y008504D01*
X003170Y008405D02*
X002923Y008405D01*
X002824Y008307D02*
X003268Y008307D01*
X003367Y008208D02*
X002726Y008208D01*
X002724Y008011D02*
X003369Y008011D01*
X003270Y007913D02*
X002822Y007913D01*
X002921Y007814D02*
X003172Y007814D01*
X003136Y007716D02*
X002956Y007716D01*
X002956Y007617D02*
X003136Y007617D01*
X003136Y007519D02*
X002956Y007519D01*
X002938Y007420D02*
X003155Y007420D01*
X003253Y007322D02*
X002839Y007322D01*
X002741Y007223D02*
X003352Y007223D01*
X003285Y006928D02*
X002807Y006928D01*
X002906Y006829D02*
X003187Y006829D01*
X003136Y006731D02*
X002956Y006731D01*
X002956Y006632D02*
X003136Y006632D01*
X003136Y006534D02*
X002956Y006534D01*
X002953Y006435D02*
X003140Y006435D01*
X003238Y006337D02*
X002854Y006337D01*
X002756Y006238D02*
X003337Y006238D01*
X002337Y006238D02*
X001812Y006238D01*
X001733Y006159D02*
X001596Y006159D01*
X001596Y006559D01*
X001996Y006559D01*
X001996Y006422D01*
X001733Y006159D01*
X001596Y006238D02*
X001496Y006238D01*
X001496Y006337D02*
X001596Y006337D01*
X001596Y006435D02*
X001496Y006435D01*
X001496Y006534D02*
X001596Y006534D01*
X001596Y006632D02*
X002136Y006632D01*
X002136Y006534D02*
X001996Y006534D01*
X001996Y006435D02*
X002140Y006435D01*
X002238Y006337D02*
X001911Y006337D01*
X001996Y006731D02*
X002136Y006731D01*
X002187Y006829D02*
X001962Y006829D01*
X001327Y007026D02*
X000590Y007026D01*
X000590Y006928D02*
X001229Y006928D01*
X001130Y006829D02*
X000590Y006829D01*
X000590Y006731D02*
X001096Y006731D01*
X000590Y006041D02*
X005140Y006041D01*
X005094Y005943D02*
X000590Y005943D01*
X000590Y005844D02*
X005094Y005844D01*
X005094Y005746D02*
X000590Y005746D01*
X000590Y005647D02*
X005094Y005647D01*
X005094Y005549D02*
X000590Y005549D01*
X000590Y005450D02*
X005094Y005450D01*
X005094Y005352D02*
X000590Y005352D01*
X000590Y005253D02*
X005094Y005253D01*
X005094Y005155D02*
X000590Y005155D01*
X000590Y005056D02*
X005154Y005056D01*
X005158Y004465D02*
X005094Y004400D01*
X005094Y003522D01*
X005158Y003457D01*
X005328Y003457D01*
X005328Y003038D01*
X005274Y003015D01*
X005139Y002880D01*
X005066Y002704D01*
X005066Y002513D01*
X005139Y002337D01*
X005274Y002202D01*
X005451Y002129D01*
X005642Y002129D01*
X005818Y002202D01*
X005953Y002337D01*
X006026Y002513D01*
X006026Y002704D01*
X005953Y002880D01*
X005818Y003015D01*
X005788Y003028D01*
X005788Y003457D01*
X005958Y003457D01*
X006022Y003522D01*
X006022Y004400D01*
X005958Y004465D01*
X005158Y004465D01*
X005094Y004367D02*
X000590Y004367D01*
X000590Y004465D02*
X006510Y004465D01*
X006412Y004367D02*
X006022Y004367D01*
X006022Y004268D02*
X006386Y004268D01*
X006386Y004170D02*
X006022Y004170D01*
X006022Y004071D02*
X006386Y004071D01*
X006386Y003973D02*
X006022Y003973D01*
X006022Y003874D02*
X006386Y003874D01*
X006386Y003776D02*
X006022Y003776D01*
X006022Y003677D02*
X006386Y003677D01*
X006386Y003579D02*
X006022Y003579D01*
X005981Y003480D02*
X006386Y003480D01*
X006386Y003382D02*
X005788Y003382D01*
X005788Y003283D02*
X006386Y003283D01*
X006386Y003185D02*
X005788Y003185D01*
X005788Y003086D02*
X006386Y003086D01*
X006246Y002988D02*
X005846Y002988D01*
X005945Y002889D02*
X006148Y002889D01*
X006102Y002791D02*
X005990Y002791D01*
X006026Y002692D02*
X006066Y002692D01*
X006066Y002594D02*
X006026Y002594D01*
X006019Y002495D02*
X006074Y002495D01*
X006115Y002397D02*
X005978Y002397D01*
X005915Y002298D02*
X006178Y002298D01*
X006279Y002200D02*
X005813Y002200D01*
X005279Y002200D02*
X004813Y002200D01*
X004818Y002202D02*
X004953Y002337D01*
X005026Y002513D01*
X005026Y002704D01*
X004953Y002880D01*
X004818Y003015D01*
X004642Y003089D01*
X004451Y003089D01*
X004274Y003015D01*
X004139Y002880D01*
X004066Y002704D01*
X004066Y002513D01*
X004139Y002337D01*
X004274Y002202D01*
X004451Y002129D01*
X004642Y002129D01*
X004818Y002202D01*
X004915Y002298D02*
X005178Y002298D01*
X005115Y002397D02*
X004978Y002397D01*
X005019Y002495D02*
X005074Y002495D01*
X005066Y002594D02*
X005026Y002594D01*
X005026Y002692D02*
X005066Y002692D01*
X005102Y002791D02*
X004990Y002791D01*
X004945Y002889D02*
X005148Y002889D01*
X005246Y002988D02*
X004846Y002988D01*
X004648Y003086D02*
X005328Y003086D01*
X005328Y003185D02*
X002302Y003185D01*
X002282Y003231D02*
X002063Y003451D01*
X001776Y003570D01*
X001466Y003570D01*
X001179Y003451D01*
X000960Y003231D01*
X000841Y002945D01*
X000841Y002635D01*
X000960Y002348D01*
X001179Y002128D01*
X001466Y002010D01*
X001776Y002010D01*
X002063Y002128D01*
X002282Y002348D01*
X002401Y002635D01*
X002401Y002945D01*
X002282Y003231D01*
X002231Y003283D02*
X005328Y003283D01*
X005328Y003382D02*
X002132Y003382D01*
X001992Y003480D02*
X005135Y003480D01*
X005094Y003579D02*
X000590Y003579D01*
X000590Y003677D02*
X005094Y003677D01*
X005094Y003776D02*
X000590Y003776D01*
X000590Y003874D02*
X005094Y003874D01*
X005094Y003973D02*
X000590Y003973D01*
X000590Y004071D02*
X005094Y004071D01*
X005094Y004170D02*
X000590Y004170D01*
X000590Y004268D02*
X005094Y004268D01*
X005962Y005056D02*
X007101Y005056D01*
X007003Y004958D02*
X000590Y004958D01*
X000590Y004859D02*
X006904Y004859D01*
X006806Y004761D02*
X000590Y004761D01*
X000590Y004662D02*
X006707Y004662D01*
X006609Y004564D02*
X000590Y004564D01*
X000590Y003480D02*
X001250Y003480D01*
X001110Y003382D02*
X000590Y003382D01*
X000590Y003283D02*
X001011Y003283D01*
X000940Y003185D02*
X000590Y003185D01*
X000590Y003086D02*
X000900Y003086D01*
X000859Y002988D02*
X000590Y002988D01*
X000590Y002889D02*
X000841Y002889D01*
X000841Y002791D02*
X000590Y002791D01*
X000590Y002692D02*
X000841Y002692D01*
X000858Y002594D02*
X000591Y002594D01*
X000599Y002495D02*
X000899Y002495D01*
X000940Y002397D02*
X000626Y002397D01*
X000658Y002298D02*
X001010Y002298D01*
X001108Y002200D02*
X000699Y002200D01*
X000771Y002101D02*
X001245Y002101D01*
X001997Y002101D02*
X003426Y002101D01*
X003424Y002101D02*
X003347Y002127D01*
X003274Y002164D01*
X003208Y002212D01*
X003150Y002270D01*
X003102Y002336D01*
X003064Y002409D01*
X003039Y002487D01*
X003028Y002559D01*
X003496Y002559D01*
X003496Y002659D01*
X003496Y003127D01*
X003424Y003116D01*
X003347Y003090D01*
X003274Y003053D01*
X003208Y003005D01*
X003150Y002947D01*
X003102Y002881D01*
X003064Y002808D01*
X003039Y002730D01*
X003028Y002659D01*
X003496Y002659D01*
X003596Y002659D01*
X003596Y003127D01*
X003668Y003116D01*
X003746Y003090D01*
X003819Y003053D01*
X003885Y003005D01*
X003943Y002947D01*
X003991Y002881D01*
X004028Y002808D01*
X004053Y002730D01*
X004065Y002659D01*
X003596Y002659D01*
X003596Y002559D01*
X004065Y002559D01*
X004053Y002487D01*
X004028Y002409D01*
X003991Y002336D01*
X003943Y002270D01*
X003885Y002212D01*
X003819Y002164D01*
X003746Y002127D01*
X003668Y002101D01*
X003596Y002090D01*
X003596Y002559D01*
X003496Y002559D01*
X003496Y002090D01*
X003424Y002101D01*
X003496Y002101D02*
X003596Y002101D01*
X003666Y002101D02*
X016993Y002101D01*
X016856Y002200D02*
X014774Y002200D01*
X014872Y002298D02*
X016758Y002298D01*
X016688Y002397D02*
X014971Y002397D01*
X014996Y002495D02*
X016647Y002495D01*
X013596Y002397D02*
X013496Y002397D01*
X013496Y002298D02*
X013596Y002298D01*
X013596Y002200D02*
X013496Y002200D01*
X012596Y002692D02*
X012496Y002692D01*
X012496Y002594D02*
X011596Y002594D01*
X011596Y002559D02*
X011596Y002659D01*
X011496Y002659D01*
X011496Y003059D01*
X011227Y003059D01*
X011188Y003048D01*
X011154Y003029D01*
X011126Y003001D01*
X011106Y002966D01*
X011096Y002928D01*
X011096Y002659D01*
X011496Y002659D01*
X011496Y002559D01*
X011096Y002559D01*
X011096Y002289D01*
X011106Y002251D01*
X011126Y002216D01*
X011154Y002189D01*
X011188Y002169D01*
X011227Y002159D01*
X011496Y002159D01*
X011496Y002559D01*
X011596Y002559D01*
X011996Y002559D01*
X011996Y002289D01*
X011986Y002251D01*
X011966Y002216D01*
X011938Y002189D01*
X011904Y002169D01*
X011866Y002159D01*
X011596Y002159D01*
X011596Y002559D01*
X011596Y002495D02*
X011496Y002495D01*
X011496Y002397D02*
X011596Y002397D01*
X011596Y002298D02*
X011496Y002298D01*
X011496Y002200D02*
X011596Y002200D01*
X011949Y002200D02*
X012319Y002200D01*
X012220Y002298D02*
X011996Y002298D01*
X011996Y002397D02*
X012122Y002397D01*
X012096Y002495D02*
X011996Y002495D01*
X011996Y002659D02*
X011996Y002928D01*
X011986Y002966D01*
X011966Y003001D01*
X011938Y003029D01*
X011904Y003048D01*
X011866Y003059D01*
X011596Y003059D01*
X011596Y002659D01*
X011996Y002659D01*
X011996Y002692D02*
X012096Y002692D01*
X012096Y002791D02*
X011996Y002791D01*
X011996Y002889D02*
X012190Y002889D01*
X012289Y002988D02*
X011974Y002988D01*
X011956Y003283D02*
X012292Y003283D01*
X012193Y003382D02*
X011956Y003382D01*
X011956Y003480D02*
X012136Y003480D01*
X012496Y002988D02*
X012596Y002988D01*
X012596Y002889D02*
X012496Y002889D01*
X012496Y002791D02*
X012596Y002791D01*
X011596Y002791D02*
X011496Y002791D01*
X011496Y002889D02*
X011596Y002889D01*
X011596Y002988D02*
X011496Y002988D01*
X011496Y002692D02*
X011596Y002692D01*
X011496Y002594D02*
X009026Y002594D01*
X009026Y002692D02*
X011096Y002692D01*
X011096Y002791D02*
X008990Y002791D01*
X008945Y002889D02*
X011096Y002889D01*
X011119Y002988D02*
X008846Y002988D01*
X009019Y002495D02*
X011096Y002495D01*
X011096Y002397D02*
X008978Y002397D01*
X008915Y002298D02*
X011096Y002298D01*
X011143Y002200D02*
X008813Y002200D01*
X008279Y002200D02*
X007813Y002200D01*
X007915Y002298D02*
X008178Y002298D01*
X008115Y002397D02*
X007978Y002397D01*
X008019Y002495D02*
X008074Y002495D01*
X008066Y002594D02*
X008026Y002594D01*
X008026Y002692D02*
X008066Y002692D01*
X008102Y002791D02*
X007990Y002791D01*
X007945Y002889D02*
X008148Y002889D01*
X008246Y002988D02*
X007846Y002988D01*
X007706Y003283D02*
X011136Y003283D01*
X011136Y003382D02*
X007706Y003382D01*
X007706Y003480D02*
X011136Y003480D01*
X011136Y003579D02*
X007706Y003579D01*
X007706Y003677D02*
X011136Y003677D01*
X011136Y003776D02*
X007706Y003776D01*
X007706Y003874D02*
X011054Y003874D01*
X010956Y003973D02*
X007743Y003973D01*
X007841Y004071D02*
X010857Y004071D01*
X010759Y004170D02*
X007940Y004170D01*
X008038Y004268D02*
X010660Y004268D01*
X009260Y005943D02*
X008440Y005943D01*
X008539Y006041D02*
X009359Y006041D01*
X009457Y006140D02*
X008637Y006140D01*
X008736Y006238D02*
X009556Y006238D01*
X009654Y006337D02*
X008834Y006337D01*
X008933Y006435D02*
X009753Y006435D01*
X009851Y006534D02*
X009031Y006534D01*
X009130Y006632D02*
X009889Y006632D01*
X009928Y006731D02*
X009228Y006731D01*
X009162Y005844D02*
X008342Y005844D01*
X008243Y005746D02*
X009063Y005746D01*
X008965Y005647D02*
X008145Y005647D01*
X008046Y005549D02*
X008866Y005549D01*
X008768Y005450D02*
X007948Y005450D01*
X007849Y005352D02*
X008669Y005352D01*
X008571Y005253D02*
X007751Y005253D01*
X007652Y005155D02*
X008472Y005155D01*
X008374Y005056D02*
X007554Y005056D01*
X007455Y004958D02*
X008275Y004958D01*
X008177Y004859D02*
X007357Y004859D01*
X007258Y004761D02*
X008078Y004761D01*
X007980Y004662D02*
X007160Y004662D01*
X007061Y004564D02*
X007881Y004564D01*
X007783Y004465D02*
X006963Y004465D01*
X006864Y004367D02*
X007684Y004367D01*
X007586Y004268D02*
X006766Y004268D01*
X006706Y004170D02*
X007487Y004170D01*
X007389Y004071D02*
X006706Y004071D01*
X006706Y003973D02*
X007386Y003973D01*
X007386Y003874D02*
X006706Y003874D01*
X006706Y003776D02*
X007386Y003776D01*
X007386Y003677D02*
X006706Y003677D01*
X006706Y003579D02*
X007386Y003579D01*
X007386Y003480D02*
X006706Y003480D01*
X006706Y003382D02*
X007386Y003382D01*
X007386Y003283D02*
X006706Y003283D01*
X006706Y003185D02*
X007386Y003185D01*
X007386Y003086D02*
X006706Y003086D01*
X006846Y002988D02*
X007246Y002988D01*
X007148Y002889D02*
X006945Y002889D01*
X006990Y002791D02*
X007102Y002791D01*
X007066Y002692D02*
X007026Y002692D01*
X007026Y002594D02*
X007066Y002594D01*
X007074Y002495D02*
X007019Y002495D01*
X006978Y002397D02*
X007115Y002397D01*
X007178Y002298D02*
X006915Y002298D01*
X006813Y002200D02*
X007279Y002200D01*
X007546Y002609D02*
X007546Y004002D01*
X010134Y006590D01*
X009819Y007547D02*
X006546Y004275D01*
X006546Y002609D01*
X004445Y003086D02*
X003755Y003086D01*
X003596Y003086D02*
X003496Y003086D01*
X003496Y002988D02*
X003596Y002988D01*
X003596Y002889D02*
X003496Y002889D01*
X003496Y002791D02*
X003596Y002791D01*
X003596Y002692D02*
X003496Y002692D01*
X003496Y002594D02*
X002384Y002594D01*
X002401Y002692D02*
X003033Y002692D01*
X003059Y002791D02*
X002401Y002791D01*
X002401Y002889D02*
X003107Y002889D01*
X003190Y002988D02*
X002383Y002988D01*
X002342Y003086D02*
X003338Y003086D01*
X003596Y002594D02*
X004066Y002594D01*
X004060Y002692D02*
X004066Y002692D01*
X004034Y002791D02*
X004102Y002791D01*
X004148Y002889D02*
X003985Y002889D01*
X003903Y002988D02*
X004246Y002988D01*
X004074Y002495D02*
X004055Y002495D01*
X004022Y002397D02*
X004115Y002397D01*
X004178Y002298D02*
X003963Y002298D01*
X003868Y002200D02*
X004279Y002200D01*
X003596Y002200D02*
X003496Y002200D01*
X003496Y002298D02*
X003596Y002298D01*
X003596Y002397D02*
X003496Y002397D01*
X003496Y002495D02*
X003596Y002495D01*
X003225Y002200D02*
X002134Y002200D01*
X002232Y002298D02*
X003129Y002298D01*
X003071Y002397D02*
X002302Y002397D01*
X002343Y002495D02*
X003038Y002495D01*
X006022Y005155D02*
X007200Y005155D01*
X007298Y005253D02*
X006022Y005253D01*
X006022Y005352D02*
X007397Y005352D01*
X007495Y005450D02*
X006022Y005450D01*
X006022Y005549D02*
X007594Y005549D01*
X007692Y005647D02*
X006022Y005647D01*
X006022Y005746D02*
X007791Y005746D01*
X007889Y005844D02*
X006022Y005844D01*
X006022Y005943D02*
X007988Y005943D01*
X008086Y006041D02*
X005976Y006041D01*
X005803Y006140D02*
X008185Y006140D01*
X006901Y006238D02*
X005763Y006238D01*
X007206Y007913D02*
X010386Y007913D01*
X010386Y008011D02*
X007206Y008011D01*
X007206Y008110D02*
X010319Y008110D01*
X010220Y008208D02*
X007167Y008208D01*
X007068Y008307D02*
X010122Y008307D01*
X010023Y008405D02*
X006970Y008405D01*
X006871Y008504D02*
X009925Y008504D01*
X009826Y008602D02*
X006773Y008602D01*
X006374Y008549D02*
X006374Y008549D01*
X006813Y008110D02*
X000590Y008110D01*
X000590Y008208D02*
X001310Y008208D01*
X001212Y008307D02*
X000590Y008307D01*
X000590Y008405D02*
X001113Y008405D01*
X001312Y008011D02*
X000590Y008011D01*
X000590Y007913D02*
X001214Y007913D01*
X001115Y007814D02*
X000590Y007814D01*
X000590Y007716D02*
X001096Y007716D01*
X001496Y008208D02*
X001596Y008208D01*
X001596Y008307D02*
X001496Y008307D01*
X001496Y008405D02*
X001596Y008405D01*
X001596Y008701D02*
X001496Y008701D01*
X001496Y008799D02*
X001596Y008799D01*
X001596Y008898D02*
X001496Y008898D01*
X001496Y008996D02*
X001596Y008996D01*
X001596Y009193D02*
X001496Y009193D01*
X001496Y009292D02*
X001596Y009292D01*
X001596Y009390D02*
X001496Y009390D01*
X001227Y009292D02*
X000590Y009292D01*
X000590Y009390D02*
X001128Y009390D01*
X001496Y009686D02*
X001596Y009686D01*
X001596Y009784D02*
X001496Y009784D01*
X001496Y009883D02*
X001596Y009883D01*
X001596Y009981D02*
X001496Y009981D01*
X001496Y010178D02*
X001596Y010178D01*
X001596Y010277D02*
X001496Y010277D01*
X001496Y010375D02*
X001596Y010375D01*
X001596Y010474D02*
X001496Y010474D01*
X001496Y010572D02*
X000590Y010572D01*
X000590Y010474D02*
X001096Y010474D01*
X001143Y010375D02*
X000590Y010375D01*
X000590Y010277D02*
X001242Y010277D01*
X001096Y010671D02*
X000590Y010671D01*
X000590Y010769D02*
X001096Y010769D01*
X001169Y010868D02*
X000590Y010868D01*
X000590Y010966D02*
X001267Y010966D01*
X001924Y010868D02*
X002225Y010868D01*
X002136Y010769D02*
X001996Y010769D01*
X001996Y010671D02*
X002136Y010671D01*
X002339Y009981D02*
X001810Y009981D01*
X001909Y009883D02*
X002240Y009883D01*
X002142Y009784D02*
X001996Y009784D01*
X001996Y009686D02*
X002136Y009686D01*
X002354Y008996D02*
X001795Y008996D01*
X001894Y008898D02*
X002255Y008898D01*
X002157Y008799D02*
X001992Y008799D01*
X001996Y008701D02*
X002136Y008701D01*
X002270Y007913D02*
X001879Y007913D01*
X001977Y007814D02*
X002172Y007814D01*
X002136Y007716D02*
X001996Y007716D01*
X001154Y011853D02*
X000590Y011853D01*
X000590Y011951D02*
X001252Y011951D01*
X001351Y012050D02*
X000590Y012050D01*
X001840Y011951D02*
X002309Y011951D01*
X001320Y015005D02*
X000590Y015005D01*
X000590Y015103D02*
X001808Y015103D01*
X001907Y015202D02*
X000590Y015202D01*
X000590Y015300D02*
X002005Y015300D01*
X003633Y016679D02*
X004191Y016679D01*
X004092Y016778D02*
X003731Y016778D01*
X003830Y016876D02*
X003994Y016876D01*
X003960Y016975D02*
X003880Y016975D01*
X003880Y017073D02*
X003960Y017073D01*
X003960Y017172D02*
X003880Y017172D01*
X003880Y017270D02*
X003960Y017270D01*
X004021Y017369D02*
X003802Y017369D01*
X004410Y017369D02*
X004470Y017369D01*
X004470Y017467D02*
X004410Y017467D01*
X004410Y017566D02*
X004470Y017566D01*
X004470Y017270D02*
X004410Y017270D01*
X004410Y017172D02*
X004470Y017172D01*
X004470Y017073D02*
X004410Y017073D01*
X004410Y016975D02*
X004470Y016975D01*
X004470Y016876D02*
X004410Y016876D01*
X004410Y016778D02*
X004470Y016778D01*
X004470Y016679D02*
X004410Y016679D01*
X001454Y017763D02*
X000590Y017763D01*
X000590Y017861D02*
X001216Y017861D01*
X001096Y017960D02*
X000590Y017960D01*
X000590Y018058D02*
X000998Y018058D01*
X000935Y018157D02*
X000590Y018157D01*
X000590Y018255D02*
X000894Y018255D01*
X000853Y018354D02*
X000590Y018354D01*
X000590Y018452D02*
X000841Y018452D01*
X000841Y018551D02*
X000590Y018551D01*
X000590Y018649D02*
X000841Y018649D01*
X000864Y018748D02*
X000592Y018748D01*
X000600Y018846D02*
X000905Y018846D01*
X000945Y018945D02*
X000631Y018945D01*
X000663Y019043D02*
X001023Y019043D01*
X001122Y019142D02*
X000709Y019142D01*
X000781Y019240D02*
X001279Y019240D01*
X001000Y019437D02*
X017990Y019437D01*
X018125Y019339D02*
X000865Y019339D01*
X001237Y019536D02*
X017753Y019536D01*
X009728Y008701D02*
X009484Y008701D01*
D22*
X009346Y008909D03*
X009146Y009387D03*
X008146Y009709D03*
X009819Y007547D03*
X010134Y006590D03*
X010346Y009609D03*
X010546Y010109D03*
X011824Y010163D03*
X012310Y010861D03*
X007046Y006439D03*
X006385Y006254D03*
X005558Y006097D03*
D23*
X011790Y012396D02*
X011829Y012396D01*
X012561Y012396D01*
X012566Y012353D01*
X012566Y011924D01*
X015920Y008609D01*
X016546Y008609D01*
X013471Y012396D02*
X013471Y014837D01*
D24*
X005558Y006097D02*
X005548Y005555D01*
X005558Y005555D01*
X005558Y003961D02*
X005558Y002620D01*
X005546Y002609D01*
M02*
