%
M48
M72
T01C0.0130
T02C0.0320
T03C0.0400
T04C0.1260
%
T01
X5558Y6097
X6385Y6254
X7046Y6439
X9346Y8909
X9146Y9387
X8146Y9709
X9819Y7547
X10134Y6590
X10346Y9609
X10546Y10109
X11824Y10163
X12310Y10861
T02
X14940Y17109
X15940Y17109
X4440Y17109
X3440Y17109
T03
X3546Y14609
X2546Y14609
X1546Y14609
X1546Y13609
X2546Y13609
X3546Y13609
X3546Y11609
X2546Y11609
X1546Y11609
X1546Y10609
X2546Y10609
X3546Y10609
X3546Y9609
X2546Y9609
X1546Y9609
X1546Y8609
X2546Y8609
X3546Y8609
X3546Y7609
X2546Y7609
X1546Y7609
X1546Y6609
X2546Y6609
X3546Y6609
X3546Y2609
X4546Y2609
X5546Y2609
X6546Y2609
X7546Y2609
X8546Y2609
X11546Y2609
X11546Y3609
X11546Y4609
X11546Y5609
X12546Y5609
X13546Y5609
X14546Y5609
X14546Y4609
X13546Y4609
X12546Y4609
X12546Y3609
X13546Y3609
X14546Y3609
X14546Y2609
X13546Y2609
X12546Y2609
X16546Y7609
X16546Y8609
X16546Y10609
X16546Y11609
X16546Y12609
X16546Y13609
X17546Y13609
X17546Y12609
X17546Y11609
X17546Y10609
X13546Y16609
X13546Y17609
X13546Y18609
X12546Y18609
X12546Y17609
X12546Y16609
X11546Y16609
X11546Y17609
X11546Y18609
X10546Y18609
X9546Y18609
X9546Y17609
X10546Y17609
X10546Y16609
X9546Y16609
X8546Y16609
X8546Y17609
X8546Y18609
X7546Y18609
X6546Y18609
X6546Y17609
X7546Y17609
X7546Y16609
X6546Y16609
T04
X1621Y2790
X1621Y18538
X17369Y18538
X17369Y2790
M30
