G75*
G70*
%OFA0B0*%
%FSLAX24Y24*%
%IPPOS*%
%LPD*%
%AMOC8*
5,1,8,0,0,1.08239X$1,22.5*
%
%ADD10C,0.0080*%
%ADD11C,0.0100*%
%ADD12C,0.0090*%
%ADD13C,0.0160*%
D10*
X002586Y002149D02*
X002586Y002309D01*
X002639Y002362D01*
X002693Y002362D01*
X002746Y002309D01*
X002746Y002149D01*
X002746Y002309D02*
X002800Y002362D01*
X002853Y002362D01*
X002906Y002309D01*
X002906Y002149D01*
X002586Y002149D01*
X002586Y002517D02*
X002906Y002517D01*
X002906Y002730D01*
X002906Y002885D02*
X002586Y002885D01*
X002746Y002939D02*
X002906Y003099D01*
X002800Y002885D02*
X002586Y003099D01*
X003046Y002859D02*
X003046Y002359D01*
X003296Y002109D01*
X003796Y002109D01*
X004046Y002359D01*
X004296Y002109D01*
X004796Y002109D01*
X005046Y002359D01*
X005296Y002109D01*
X005796Y002109D01*
X006046Y002359D01*
X006296Y002109D01*
X006796Y002109D01*
X007046Y002359D01*
X007296Y002109D01*
X007796Y002109D01*
X008046Y002359D01*
X008296Y002109D01*
X008796Y002109D01*
X009046Y002359D01*
X009046Y002859D01*
X008796Y003109D01*
X008296Y003109D01*
X008046Y002859D01*
X007796Y003109D01*
X007296Y003109D01*
X007046Y002859D01*
X006796Y003109D01*
X006296Y003109D01*
X006046Y002859D01*
X005796Y003109D01*
X005296Y003109D01*
X005046Y002859D01*
X004796Y003109D01*
X004296Y003109D01*
X004046Y002859D01*
X003796Y003109D01*
X003296Y003109D01*
X003046Y002859D01*
X003439Y003349D02*
X003653Y003349D01*
X003706Y003402D01*
X003706Y003509D01*
X003653Y003562D01*
X003546Y003562D01*
X003546Y003455D01*
X003439Y003349D02*
X003386Y003402D01*
X003386Y003509D01*
X003439Y003562D01*
X003386Y003717D02*
X003706Y003930D01*
X003386Y003930D01*
X003386Y004085D02*
X003386Y004245D01*
X003439Y004299D01*
X003653Y004299D01*
X003706Y004245D01*
X003706Y004085D01*
X003386Y004085D01*
X003386Y003717D02*
X003706Y003717D01*
X002707Y005287D02*
X002493Y005287D01*
X002386Y005393D01*
X002493Y005500D01*
X002707Y005500D01*
X002707Y005655D02*
X002707Y005869D01*
X002546Y005869D01*
X002600Y005762D01*
X002600Y005708D01*
X002546Y005655D01*
X002440Y005655D01*
X002386Y005708D01*
X002386Y005815D01*
X002440Y005869D01*
X002296Y006109D02*
X002046Y006359D01*
X001796Y006109D01*
X001296Y006109D01*
X001046Y006359D01*
X001046Y006859D01*
X001296Y007109D01*
X001796Y007109D01*
X002046Y006859D01*
X002296Y007109D01*
X002796Y007109D01*
X003046Y006859D01*
X003296Y007109D01*
X003796Y007109D01*
X004046Y006859D01*
X004046Y006359D01*
X003796Y006109D01*
X003296Y006109D01*
X003046Y006359D01*
X002796Y006109D01*
X002296Y006109D01*
X002046Y006359D02*
X002046Y006859D01*
X001796Y007109D02*
X002046Y007359D01*
X002046Y007859D01*
X001796Y008109D01*
X001296Y008109D01*
X001046Y007859D01*
X001046Y007359D01*
X001296Y007109D01*
X002046Y007359D02*
X002296Y007109D01*
X002796Y007109D02*
X003046Y007359D01*
X003046Y007859D01*
X002796Y008109D01*
X002296Y008109D01*
X002046Y007859D01*
X001796Y008109D02*
X002046Y008359D01*
X002046Y008859D01*
X001796Y009109D01*
X001296Y009109D01*
X001046Y008859D01*
X001046Y008359D01*
X001296Y008109D01*
X002046Y008359D02*
X002296Y008109D01*
X002796Y008109D02*
X003046Y008359D01*
X003046Y008859D01*
X002796Y009109D01*
X002296Y009109D01*
X002046Y008859D01*
X001796Y009109D02*
X002046Y009359D01*
X002046Y009859D01*
X001796Y010109D01*
X001296Y010109D01*
X001046Y010359D01*
X001046Y010859D01*
X001296Y011109D01*
X001796Y011109D01*
X002046Y010859D01*
X002296Y011109D01*
X002796Y011109D01*
X003046Y010859D01*
X003296Y011109D01*
X003796Y011109D01*
X004046Y010859D01*
X004046Y010359D01*
X003796Y010109D01*
X003296Y010109D01*
X003046Y010359D01*
X002796Y010109D01*
X002296Y010109D01*
X002046Y010359D01*
X001796Y010109D01*
X002046Y009859D02*
X002296Y010109D01*
X002046Y010359D02*
X002046Y010859D01*
X001796Y011109D02*
X002046Y011359D01*
X002046Y011859D01*
X001796Y012109D01*
X001296Y012109D01*
X001046Y011859D01*
X001046Y011359D01*
X001296Y011109D01*
X002046Y011359D02*
X002296Y011109D01*
X002796Y011109D02*
X003046Y011359D01*
X003046Y011859D01*
X002796Y012109D01*
X002296Y012109D01*
X002046Y011859D01*
X002086Y012649D02*
X002086Y012889D01*
X002166Y012809D01*
X002246Y012889D01*
X002246Y012649D01*
X002381Y012689D02*
X002421Y012649D01*
X002501Y012649D01*
X002541Y012689D01*
X002541Y012849D01*
X002501Y012889D01*
X002421Y012889D01*
X002381Y012849D01*
X002381Y012689D01*
X002676Y012689D02*
X002716Y012649D01*
X002796Y012649D01*
X002836Y012689D01*
X002836Y012729D01*
X002796Y012769D01*
X002716Y012769D01*
X002676Y012809D01*
X002676Y012849D01*
X002716Y012889D01*
X002796Y012889D01*
X002836Y012849D01*
X002970Y012889D02*
X003050Y012889D01*
X003010Y012889D02*
X003010Y012649D01*
X002970Y012649D02*
X003050Y012649D01*
X003386Y012689D02*
X003426Y012649D01*
X003506Y012649D01*
X003546Y012689D01*
X003546Y012769D01*
X003506Y012809D01*
X003466Y012809D01*
X003386Y012769D01*
X003386Y012889D01*
X003546Y012889D01*
X003681Y012889D02*
X003681Y012729D01*
X003761Y012649D01*
X003841Y012729D01*
X003841Y012889D01*
X004046Y013109D02*
X001046Y013109D01*
X001046Y015109D01*
X004046Y015109D01*
X004046Y015409D01*
X003046Y015409D01*
X003046Y015109D01*
X004046Y015109D01*
X004046Y013109D01*
X004412Y013240D02*
X004833Y013240D01*
X004833Y013030D01*
X004763Y012960D01*
X004622Y012960D01*
X004552Y013030D01*
X004552Y013240D01*
X004552Y013420D02*
X004482Y013420D01*
X004412Y013490D01*
X004412Y013630D01*
X004482Y013700D01*
X004622Y013630D02*
X004622Y013490D01*
X004552Y013420D01*
X004763Y013420D02*
X004833Y013490D01*
X004833Y013630D01*
X004763Y013700D01*
X004692Y013700D01*
X004622Y013630D01*
X004833Y013880D02*
X004412Y014161D01*
X004622Y014341D02*
X004552Y014411D01*
X004552Y014621D01*
X004412Y014621D02*
X004833Y014621D01*
X004833Y014411D01*
X004763Y014341D01*
X004622Y014341D01*
X004552Y014801D02*
X004482Y014801D01*
X004412Y014871D01*
X004412Y015011D01*
X004482Y015081D01*
X004622Y015011D02*
X004622Y014871D01*
X004552Y014801D01*
X004763Y014801D02*
X004833Y014871D01*
X004833Y015011D01*
X004763Y015081D01*
X004692Y015081D01*
X004622Y015011D01*
X004412Y015248D02*
X004412Y015388D01*
X004412Y015318D02*
X004833Y015318D01*
X004833Y015388D02*
X004833Y015248D01*
X004232Y015589D02*
X004232Y015749D01*
X004192Y015789D01*
X004112Y015789D01*
X004072Y015749D01*
X004072Y015589D01*
X004112Y015549D01*
X004192Y015549D01*
X004232Y015589D01*
X003937Y015589D02*
X003897Y015549D01*
X003817Y015549D01*
X003777Y015589D01*
X003817Y015669D02*
X003897Y015669D01*
X003937Y015629D01*
X003937Y015589D01*
X003817Y015669D02*
X003777Y015709D01*
X003777Y015749D01*
X003817Y015789D01*
X003897Y015789D01*
X003937Y015749D01*
X003661Y015789D02*
X003581Y015789D01*
X003621Y015789D02*
X003621Y015549D01*
X003581Y015549D02*
X003661Y015549D01*
X003446Y015549D02*
X003446Y015789D01*
X003366Y015709D01*
X003286Y015789D01*
X003286Y015549D01*
X003046Y015346D02*
X004046Y015346D01*
X004046Y015268D02*
X003046Y015268D01*
X003046Y015189D02*
X004046Y015189D01*
X004046Y015111D02*
X003046Y015111D01*
X002936Y015549D02*
X002816Y015669D01*
X002776Y015629D02*
X002936Y015789D01*
X002776Y015789D02*
X002776Y015549D01*
X002641Y015589D02*
X002601Y015549D01*
X002521Y015549D01*
X002481Y015589D01*
X002481Y015749D01*
X002521Y015789D01*
X002601Y015789D01*
X002641Y015749D01*
X002346Y015749D02*
X002306Y015789D01*
X002226Y015789D01*
X002186Y015749D01*
X002186Y015709D01*
X002226Y015669D01*
X002306Y015669D01*
X002346Y015629D01*
X002346Y015589D01*
X002306Y015549D01*
X002226Y015549D01*
X002186Y015589D01*
X001736Y015949D02*
X001146Y015949D01*
X001226Y015789D02*
X001186Y015749D01*
X001186Y015709D01*
X001226Y015669D01*
X001306Y015669D01*
X001346Y015629D01*
X001346Y015589D01*
X001306Y015549D01*
X001226Y015549D01*
X001186Y015589D01*
X001226Y015789D02*
X001306Y015789D01*
X001346Y015749D01*
X001481Y015749D02*
X001481Y015709D01*
X001521Y015669D01*
X001601Y015669D01*
X001641Y015629D01*
X001641Y015589D01*
X001601Y015549D01*
X001521Y015549D01*
X001481Y015589D01*
X001481Y015749D02*
X001521Y015789D01*
X001601Y015789D01*
X001641Y015749D01*
X001925Y016278D02*
X001885Y016318D01*
X001885Y016398D01*
X001925Y016438D01*
X001965Y016438D01*
X002005Y016398D01*
X002045Y016438D01*
X002085Y016438D01*
X002125Y016398D01*
X002125Y016318D01*
X002085Y016278D01*
X002005Y016358D02*
X002005Y016398D01*
X002085Y016573D02*
X002125Y016613D01*
X002125Y016693D01*
X002085Y016733D01*
X002045Y016733D01*
X002005Y016693D01*
X002005Y016653D01*
X002005Y016693D02*
X001965Y016733D01*
X001925Y016733D01*
X001885Y016693D01*
X001885Y016613D01*
X001925Y016573D01*
X001925Y016867D02*
X001885Y016907D01*
X001885Y016987D01*
X001925Y017028D01*
X002085Y016867D01*
X002125Y016907D01*
X002125Y016987D01*
X002085Y017028D01*
X001925Y017028D01*
X001925Y016867D02*
X002085Y016867D01*
X003940Y017709D02*
X003987Y017707D01*
X004035Y017701D01*
X004081Y017692D01*
X004127Y017679D01*
X004171Y017663D01*
X004215Y017642D01*
X004256Y017619D01*
X004295Y017593D01*
X004332Y017563D01*
X004367Y017530D01*
X004399Y017495D01*
X004428Y017458D01*
X003940Y016509D02*
X003895Y016511D01*
X003849Y016516D01*
X003805Y016524D01*
X003761Y016536D01*
X003718Y016552D01*
X003676Y016570D01*
X003636Y016592D01*
X003598Y016616D01*
X003562Y016643D01*
X003527Y016673D01*
X003496Y016706D01*
X003466Y016741D01*
X003940Y016509D02*
X003985Y016511D01*
X004031Y016516D01*
X004075Y016524D01*
X004119Y016536D01*
X004162Y016552D01*
X004204Y016570D01*
X004244Y016592D01*
X004282Y016616D01*
X004318Y016643D01*
X004353Y016673D01*
X004384Y016706D01*
X004414Y016741D01*
X003940Y017709D02*
X003894Y017707D01*
X003848Y017702D01*
X003802Y017693D01*
X003757Y017681D01*
X003714Y017665D01*
X003672Y017646D01*
X003631Y017623D01*
X003592Y017598D01*
X003556Y017570D01*
X003521Y017539D01*
X003489Y017505D01*
X003460Y017469D01*
X004856Y018502D02*
X004856Y018715D01*
X004909Y018769D01*
X005070Y018769D01*
X005070Y018448D01*
X004909Y018448D01*
X004856Y018502D01*
X005224Y018448D02*
X005224Y018769D01*
X005438Y018448D01*
X005438Y018769D01*
X005593Y018715D02*
X005593Y018608D01*
X005700Y018608D01*
X005806Y018502D02*
X005753Y018448D01*
X005646Y018448D01*
X005593Y018502D01*
X005593Y018715D02*
X005646Y018769D01*
X005753Y018769D01*
X005806Y018715D01*
X005806Y018502D01*
X006046Y018359D02*
X006046Y018859D01*
X006296Y019109D01*
X006796Y019109D01*
X007046Y018859D01*
X007046Y018359D01*
X006796Y018109D01*
X007046Y017859D01*
X007046Y017359D01*
X006796Y017109D01*
X007046Y016859D01*
X007046Y016359D01*
X006796Y016109D01*
X006296Y016109D01*
X006046Y016359D01*
X006046Y016859D01*
X006296Y017109D01*
X006046Y017359D01*
X006046Y017859D01*
X006296Y018109D01*
X006046Y018359D01*
X006296Y018109D02*
X006796Y018109D01*
X007046Y018359D02*
X007296Y018109D01*
X007796Y018109D01*
X008046Y018359D01*
X008046Y018859D01*
X007796Y019109D01*
X007296Y019109D01*
X007046Y018859D01*
X007296Y018109D02*
X007046Y017859D01*
X007046Y017359D02*
X007296Y017109D01*
X007796Y017109D01*
X008046Y017359D01*
X008046Y017859D01*
X007796Y018109D01*
X008046Y018359D02*
X008296Y018109D01*
X008796Y018109D01*
X009046Y018359D01*
X009046Y018859D01*
X008796Y019109D01*
X008296Y019109D01*
X008046Y018859D01*
X008296Y018109D02*
X008046Y017859D01*
X008046Y017359D02*
X008296Y017109D01*
X008796Y017109D01*
X009046Y017359D01*
X009046Y017859D01*
X008796Y018109D01*
X009046Y018359D02*
X009296Y018109D01*
X009796Y018109D01*
X010046Y018359D01*
X010046Y018859D01*
X009796Y019109D01*
X009296Y019109D01*
X009046Y018859D01*
X009296Y018109D02*
X009046Y017859D01*
X009046Y017359D02*
X009296Y017109D01*
X009796Y017109D01*
X010046Y017359D01*
X010046Y017859D01*
X009796Y018109D01*
X010046Y018359D02*
X010296Y018109D01*
X010796Y018109D01*
X011046Y018359D01*
X011046Y018859D01*
X010796Y019109D01*
X010296Y019109D01*
X010046Y018859D01*
X010296Y018109D02*
X010046Y017859D01*
X010046Y017359D02*
X010296Y017109D01*
X010796Y017109D01*
X011046Y017359D01*
X011046Y017859D01*
X010796Y018109D01*
X011046Y018359D02*
X011296Y018109D01*
X011796Y018109D01*
X012046Y018359D01*
X012046Y018859D01*
X011796Y019109D01*
X011296Y019109D01*
X011046Y018859D01*
X011296Y018109D02*
X011046Y017859D01*
X011046Y017359D02*
X011296Y017109D01*
X011796Y017109D01*
X012046Y017359D01*
X012046Y017859D01*
X011796Y018109D01*
X012046Y018359D02*
X012296Y018109D01*
X012796Y018109D01*
X013046Y018359D01*
X013046Y018859D01*
X012796Y019109D01*
X012296Y019109D01*
X012046Y018859D01*
X012296Y018109D02*
X012046Y017859D01*
X012046Y017359D02*
X012296Y017109D01*
X012796Y017109D01*
X013046Y017359D01*
X013046Y017859D01*
X012796Y018109D01*
X013046Y018359D02*
X013296Y018109D01*
X013796Y018109D01*
X014046Y018359D01*
X014046Y018859D01*
X013796Y019109D01*
X013296Y019109D01*
X013046Y018859D01*
X013296Y018109D02*
X013046Y017859D01*
X013046Y017359D02*
X013296Y017109D01*
X013796Y017109D01*
X014046Y017359D01*
X014046Y017859D01*
X013796Y018109D01*
X013796Y017109D02*
X014046Y016859D01*
X014046Y016359D01*
X013796Y016109D01*
X013296Y016109D01*
X013046Y016359D01*
X013046Y016859D01*
X012796Y017109D01*
X013046Y016859D02*
X013296Y017109D01*
X013046Y016359D02*
X012796Y016109D01*
X012296Y016109D01*
X012046Y016359D01*
X012046Y016859D01*
X011796Y017109D01*
X012046Y016859D02*
X012296Y017109D01*
X012046Y016359D02*
X011796Y016109D01*
X011296Y016109D01*
X011046Y016359D01*
X011046Y016859D01*
X010796Y017109D01*
X011046Y016859D02*
X011296Y017109D01*
X011046Y016359D02*
X010796Y016109D01*
X010296Y016109D01*
X010046Y016359D01*
X010046Y016859D01*
X009796Y017109D01*
X010046Y016859D02*
X010296Y017109D01*
X010046Y016359D02*
X009796Y016109D01*
X009296Y016109D01*
X009046Y016359D01*
X009046Y016859D01*
X008796Y017109D01*
X009046Y016859D02*
X009296Y017109D01*
X009046Y016359D02*
X008796Y016109D01*
X008296Y016109D01*
X008046Y016359D01*
X008046Y016859D01*
X007796Y017109D01*
X008046Y016859D02*
X008296Y017109D01*
X008046Y016359D02*
X007796Y016109D01*
X007296Y016109D01*
X007046Y016359D01*
X007046Y016859D02*
X007296Y017109D01*
X006796Y017109D02*
X006296Y017109D01*
X005806Y017448D02*
X005806Y017608D01*
X005700Y017555D01*
X005646Y017555D01*
X005593Y017608D01*
X005593Y017715D01*
X005646Y017769D01*
X005753Y017769D01*
X005806Y017715D01*
X005806Y017448D02*
X005593Y017448D01*
X005438Y017448D02*
X005438Y017662D01*
X005331Y017769D01*
X005224Y017662D01*
X005224Y017448D01*
X005474Y015869D02*
X005794Y015869D01*
X005794Y015708D01*
X005741Y015655D01*
X005634Y015655D01*
X005580Y015708D01*
X005580Y015869D01*
X005474Y015500D02*
X005580Y015393D01*
X005474Y015287D01*
X005794Y015287D01*
X005794Y015132D02*
X005687Y015025D01*
X005794Y014918D01*
X005474Y014918D01*
X005527Y014764D02*
X005741Y014550D01*
X005741Y014657D02*
X005527Y014657D01*
X005527Y014550D02*
X005741Y014764D01*
X005634Y014764D02*
X005634Y014550D01*
X005474Y015132D02*
X005794Y015132D01*
X005794Y015500D02*
X005474Y015500D01*
X006336Y015447D02*
X006336Y015340D01*
X006390Y015287D01*
X006603Y015287D01*
X006657Y015340D01*
X006657Y015447D01*
X006603Y015500D01*
X006550Y015500D01*
X006496Y015447D01*
X006496Y015287D01*
X006496Y015132D02*
X006496Y014918D01*
X006390Y014918D02*
X006603Y015132D01*
X006603Y015025D02*
X006390Y015025D01*
X006390Y015132D02*
X006603Y014918D01*
X006336Y015447D02*
X006390Y015500D01*
X006390Y015655D02*
X006603Y015655D01*
X006657Y015708D01*
X006657Y015869D01*
X006336Y015869D01*
X006336Y015708D01*
X006390Y015655D01*
X007336Y015708D02*
X007390Y015655D01*
X007603Y015655D01*
X007657Y015708D01*
X007657Y015869D01*
X007336Y015869D01*
X007336Y015708D01*
X007390Y015500D02*
X007443Y015500D01*
X007496Y015447D01*
X007496Y015340D01*
X007443Y015287D01*
X007390Y015287D01*
X007336Y015340D01*
X007336Y015447D01*
X007390Y015500D01*
X007496Y015447D02*
X007550Y015500D01*
X007603Y015500D01*
X007657Y015447D01*
X007657Y015340D01*
X007603Y015287D01*
X007550Y015287D01*
X007496Y015340D01*
X008336Y015500D02*
X008390Y015500D01*
X008603Y015287D01*
X008657Y015287D01*
X008657Y015500D01*
X008603Y015655D02*
X008657Y015708D01*
X008657Y015869D01*
X008336Y015869D01*
X008336Y015708D01*
X008390Y015655D01*
X008603Y015655D01*
X009336Y015708D02*
X009390Y015655D01*
X009603Y015655D01*
X009657Y015708D01*
X009657Y015869D01*
X009336Y015869D01*
X009336Y015708D01*
X009390Y015500D02*
X009336Y015447D01*
X009336Y015340D01*
X009390Y015287D01*
X009443Y015287D01*
X009496Y015340D01*
X009496Y015500D01*
X009390Y015500D01*
X009496Y015500D02*
X009603Y015393D01*
X009657Y015287D01*
X009603Y015132D02*
X009390Y014918D01*
X009496Y014918D02*
X009496Y015132D01*
X009390Y015132D02*
X009603Y014918D01*
X009603Y015025D02*
X009390Y015025D01*
X009318Y014469D02*
X009318Y014188D01*
X009459Y014048D01*
X009599Y014188D01*
X009599Y014469D01*
X009599Y014258D02*
X009318Y014258D01*
X009138Y014048D02*
X009138Y014469D01*
X008858Y014469D01*
X009779Y014048D02*
X010059Y014048D01*
X009919Y014048D02*
X009919Y014469D01*
X010226Y014469D02*
X010366Y014469D01*
X010296Y014469D02*
X010296Y014048D01*
X010366Y014048D02*
X010226Y014048D01*
X010546Y014118D02*
X010616Y014048D01*
X010756Y014048D01*
X010826Y014118D01*
X010826Y014399D01*
X010756Y014469D01*
X010616Y014469D01*
X010546Y014399D01*
X010546Y014258D01*
X010686Y014258D01*
X010993Y014048D02*
X011133Y014048D01*
X011063Y014048D02*
X011063Y014469D01*
X011133Y014469D02*
X010993Y014469D01*
X011313Y014399D02*
X011313Y014118D01*
X011383Y014048D01*
X011594Y014048D01*
X011594Y014469D01*
X011383Y014469D01*
X011313Y014399D01*
X010603Y014918D02*
X010390Y015132D01*
X010496Y015132D02*
X010496Y014918D01*
X010390Y014918D02*
X010603Y015132D01*
X010603Y015025D02*
X010390Y015025D01*
X010390Y015287D02*
X010336Y015340D01*
X010336Y015447D01*
X010390Y015500D01*
X010496Y015500D02*
X010550Y015393D01*
X010550Y015340D01*
X010496Y015287D01*
X010390Y015287D01*
X010657Y015287D02*
X010657Y015500D01*
X010496Y015500D01*
X010390Y015655D02*
X010603Y015655D01*
X010657Y015708D01*
X010657Y015869D01*
X010336Y015869D01*
X010336Y015708D01*
X010390Y015655D01*
X011336Y015708D02*
X011390Y015655D01*
X011603Y015655D01*
X011657Y015708D01*
X011657Y015869D01*
X011336Y015869D01*
X011336Y015708D01*
X011496Y015500D02*
X011496Y015287D01*
X011336Y015340D02*
X011657Y015340D01*
X011496Y015500D01*
X012336Y015447D02*
X012390Y015500D01*
X012336Y015447D02*
X012336Y015340D01*
X012390Y015287D01*
X012443Y015287D01*
X012496Y015340D01*
X012496Y015393D01*
X012496Y015340D02*
X012550Y015287D01*
X012603Y015287D01*
X012657Y015340D01*
X012657Y015447D01*
X012603Y015500D01*
X012603Y015655D02*
X012657Y015708D01*
X012657Y015869D01*
X012336Y015869D01*
X012336Y015708D01*
X012390Y015655D01*
X012603Y015655D01*
X012603Y015132D02*
X012390Y014918D01*
X012496Y014918D02*
X012496Y015132D01*
X012390Y015132D02*
X012603Y014918D01*
X012603Y015025D02*
X012390Y015025D01*
X013336Y015287D02*
X013336Y015500D01*
X013550Y015287D01*
X013603Y015287D01*
X013657Y015340D01*
X013657Y015447D01*
X013603Y015500D01*
X013603Y015655D02*
X013657Y015708D01*
X013657Y015869D01*
X013336Y015869D01*
X013336Y015708D01*
X013390Y015655D01*
X013603Y015655D01*
X015330Y015744D02*
X015330Y015824D01*
X015370Y015864D01*
X015530Y015704D01*
X015570Y015744D01*
X015570Y015824D01*
X015530Y015864D01*
X015370Y015864D01*
X015330Y015744D02*
X015370Y015704D01*
X015530Y015704D01*
X015530Y015569D02*
X015490Y015569D01*
X015450Y015529D01*
X015450Y015489D01*
X015450Y015529D02*
X015410Y015569D01*
X015370Y015569D01*
X015330Y015529D01*
X015330Y015449D01*
X015370Y015409D01*
X015370Y015275D02*
X015330Y015235D01*
X015330Y015155D01*
X015370Y015115D01*
X015450Y015195D02*
X015450Y015235D01*
X015490Y015275D01*
X015530Y015275D01*
X015570Y015235D01*
X015570Y015155D01*
X015530Y015115D01*
X015450Y015235D02*
X015410Y015275D01*
X015370Y015275D01*
X015530Y015409D02*
X015570Y015449D01*
X015570Y015529D01*
X015530Y015569D01*
X016336Y014930D02*
X016550Y014930D01*
X016656Y014824D01*
X016550Y014717D01*
X016336Y014717D01*
X016336Y014562D02*
X016336Y014349D01*
X016496Y014349D01*
X016443Y014455D01*
X016443Y014509D01*
X016496Y014562D01*
X016603Y014562D01*
X016656Y014509D01*
X016656Y014402D01*
X016603Y014349D01*
X016796Y014109D02*
X016296Y014109D01*
X016046Y013859D01*
X016046Y013359D01*
X016296Y013109D01*
X016796Y013109D01*
X017046Y013359D01*
X017046Y013859D01*
X016796Y014109D01*
X017046Y013859D02*
X017296Y014109D01*
X017796Y014109D01*
X018046Y013859D01*
X018046Y013359D01*
X017796Y013109D01*
X018046Y012859D01*
X018046Y012359D01*
X017796Y012109D01*
X018046Y011859D01*
X018046Y011359D01*
X017796Y011109D01*
X018046Y010859D01*
X018046Y010359D01*
X017796Y010109D01*
X017296Y010109D01*
X017046Y010359D01*
X016796Y010109D01*
X016296Y010109D01*
X016046Y010359D01*
X016046Y010859D01*
X016296Y011109D01*
X016046Y011359D01*
X016046Y011859D01*
X016296Y012109D01*
X016796Y012109D01*
X017046Y011859D01*
X017046Y011359D01*
X016796Y011109D01*
X017046Y010859D01*
X017046Y010359D01*
X017046Y010859D02*
X017296Y011109D01*
X017046Y011359D01*
X016796Y011109D02*
X016296Y011109D01*
X015706Y011149D02*
X015286Y011149D01*
X015286Y011359D01*
X015356Y011429D01*
X015496Y011429D01*
X015566Y011359D01*
X015566Y011149D01*
X015636Y011609D02*
X015356Y011609D01*
X015286Y011679D01*
X015286Y011819D01*
X015356Y011889D01*
X015636Y011889D01*
X015706Y011819D01*
X015706Y011679D01*
X015636Y011609D01*
X015706Y012069D02*
X015286Y012069D01*
X015286Y012350D02*
X015706Y012350D01*
X015566Y012209D01*
X015706Y012069D01*
X016046Y012359D02*
X016046Y012859D01*
X016296Y013109D01*
X016796Y013109D02*
X017046Y012859D01*
X017046Y012359D01*
X016796Y012109D01*
X017046Y012359D02*
X017296Y012109D01*
X017796Y012109D01*
X017296Y012109D02*
X017046Y011859D01*
X016296Y012109D02*
X016046Y012359D01*
X015706Y012530D02*
X015706Y012810D01*
X015706Y012990D02*
X015286Y012990D01*
X015286Y013200D01*
X015356Y013270D01*
X015496Y013270D01*
X015566Y013200D01*
X015566Y012990D01*
X015566Y013130D02*
X015706Y013270D01*
X015286Y012810D02*
X015286Y012530D01*
X015706Y012530D01*
X015496Y012530D02*
X015496Y012670D01*
X014806Y011088D02*
X014806Y010874D01*
X014806Y010981D02*
X014486Y010981D01*
X014593Y010874D01*
X014753Y010744D02*
X014806Y010744D01*
X014806Y010690D01*
X014753Y010690D01*
X014753Y010744D01*
X014753Y010535D02*
X014539Y010535D01*
X014753Y010322D01*
X014806Y010375D01*
X014806Y010482D01*
X014753Y010535D01*
X014539Y010535D02*
X014486Y010482D01*
X014486Y010375D01*
X014539Y010322D01*
X014753Y010322D01*
X014593Y009799D02*
X014806Y009692D01*
X014593Y009585D01*
X014646Y009430D02*
X014700Y009430D01*
X014700Y009217D01*
X014753Y009217D02*
X014646Y009217D01*
X014593Y009270D01*
X014593Y009377D01*
X014646Y009430D01*
X014806Y009377D02*
X014806Y009270D01*
X014753Y009217D01*
X014806Y009062D02*
X014700Y008955D01*
X014700Y009009D02*
X014700Y008849D01*
X014806Y008849D02*
X014486Y008849D01*
X014486Y009009D01*
X014539Y009062D01*
X014646Y009062D01*
X014700Y009009D01*
X015386Y009074D02*
X015600Y009074D01*
X015706Y009181D01*
X015600Y009288D01*
X015386Y009288D01*
X015386Y008919D02*
X015439Y008813D01*
X015546Y008706D01*
X015546Y008866D01*
X015600Y008919D01*
X015653Y008919D01*
X015706Y008866D01*
X015706Y008759D01*
X015653Y008706D01*
X015546Y008706D01*
X015493Y008551D02*
X015439Y008551D01*
X015386Y008498D01*
X015386Y008391D01*
X015439Y008338D01*
X015546Y008183D02*
X015546Y007969D01*
X015546Y007815D02*
X015493Y007761D01*
X015493Y007708D01*
X015546Y007601D01*
X015386Y007601D01*
X015386Y007815D01*
X015546Y007815D02*
X015653Y007815D01*
X015706Y007761D01*
X015706Y007654D01*
X015653Y007601D01*
X015653Y007470D02*
X015706Y007470D01*
X015706Y007417D01*
X015653Y007417D01*
X015653Y007470D01*
X015653Y007262D02*
X015706Y007209D01*
X015706Y007102D01*
X015653Y007049D01*
X015546Y007049D02*
X015493Y007155D01*
X015493Y007209D01*
X015546Y007262D01*
X015653Y007262D01*
X015546Y007049D02*
X015386Y007049D01*
X015386Y007262D01*
X016046Y007359D02*
X016046Y007859D01*
X016296Y008109D01*
X016046Y008359D01*
X016046Y008859D01*
X016296Y009109D01*
X016796Y009109D01*
X017046Y008859D01*
X017046Y008359D01*
X016796Y008109D01*
X017046Y007859D01*
X017046Y007359D01*
X016796Y007109D01*
X016296Y007109D01*
X016046Y007359D01*
X016296Y008109D02*
X016796Y008109D01*
X017286Y007715D02*
X017286Y007502D01*
X017340Y007449D01*
X017446Y007449D01*
X017500Y007502D01*
X017500Y007609D01*
X017393Y007609D01*
X017286Y007715D02*
X017340Y007769D01*
X017446Y007769D01*
X017500Y007715D01*
X017655Y007769D02*
X017655Y007449D01*
X017868Y007449D02*
X017868Y007769D01*
X018023Y007769D02*
X018183Y007769D01*
X018236Y007715D01*
X018236Y007502D01*
X018183Y007449D01*
X018023Y007449D01*
X018023Y007769D01*
X017868Y007449D02*
X017655Y007769D01*
X017655Y008399D02*
X017761Y008399D01*
X017708Y008399D02*
X017708Y008719D01*
X017655Y008719D02*
X017761Y008719D01*
X017900Y008719D02*
X017900Y008399D01*
X018114Y008399D02*
X017900Y008719D01*
X018114Y008719D02*
X018114Y008399D01*
X017500Y008505D02*
X017500Y008719D01*
X017500Y008505D02*
X017393Y008399D01*
X017286Y008505D01*
X017286Y008719D01*
X015706Y008551D02*
X015706Y008338D01*
X015493Y008551D01*
X013634Y006799D02*
X013564Y006869D01*
X013424Y006869D01*
X013354Y006799D01*
X013354Y006519D01*
X013424Y006449D01*
X013564Y006449D01*
X013634Y006519D01*
X013796Y006109D02*
X013296Y006109D01*
X013046Y005859D01*
X013046Y005359D01*
X012796Y005109D01*
X013046Y004859D01*
X013046Y004359D01*
X012796Y004109D01*
X013046Y003859D01*
X013046Y003359D01*
X012796Y003109D01*
X013046Y002859D01*
X013046Y002359D01*
X012796Y002109D01*
X012296Y002109D01*
X012046Y002359D01*
X011796Y002109D01*
X011296Y002109D01*
X011046Y002359D01*
X011046Y002859D01*
X011296Y003109D01*
X011796Y003109D01*
X012046Y002859D01*
X012296Y003109D01*
X012796Y003109D01*
X013046Y003359D02*
X013296Y003109D01*
X013796Y003109D01*
X014046Y002859D01*
X014296Y003109D01*
X014796Y003109D01*
X015046Y002859D01*
X015046Y002359D01*
X014796Y002109D01*
X014296Y002109D01*
X014046Y002359D01*
X013796Y002109D01*
X013296Y002109D01*
X013046Y002359D01*
X013046Y002859D02*
X013296Y003109D01*
X013796Y003109D02*
X014046Y003359D01*
X014296Y003109D01*
X014046Y003359D02*
X014046Y003859D01*
X014296Y004109D01*
X014796Y004109D01*
X015046Y003859D01*
X015046Y003359D01*
X014796Y003109D01*
X014046Y002859D02*
X014046Y002359D01*
X014046Y003859D02*
X013796Y004109D01*
X013296Y004109D01*
X013046Y003859D01*
X012796Y004109D02*
X012296Y004109D01*
X012046Y003859D01*
X012046Y003359D01*
X012296Y003109D01*
X012046Y003359D02*
X011796Y003109D01*
X012046Y002859D02*
X012046Y002359D01*
X011296Y003109D02*
X011046Y003359D01*
X011046Y003859D01*
X011296Y004109D01*
X011796Y004109D01*
X012046Y003859D01*
X011796Y004109D02*
X012046Y004359D01*
X012296Y004109D01*
X012046Y004359D02*
X012046Y004859D01*
X012296Y005109D01*
X012796Y005109D01*
X013046Y005359D02*
X013296Y005109D01*
X013796Y005109D01*
X014046Y004859D01*
X014296Y005109D01*
X014796Y005109D01*
X015046Y004859D01*
X015046Y004359D01*
X014796Y004109D01*
X014296Y004109D02*
X014046Y004359D01*
X013796Y004109D01*
X014046Y004359D02*
X014046Y004859D01*
X014296Y005109D02*
X014046Y005359D01*
X013796Y005109D01*
X014046Y005359D02*
X014046Y005859D01*
X014296Y006109D01*
X014796Y006109D01*
X015046Y005859D01*
X015046Y005359D01*
X014796Y005109D01*
X015631Y005071D02*
X015631Y004991D01*
X015671Y004951D01*
X015631Y005071D02*
X015671Y005111D01*
X015711Y005111D01*
X015872Y004951D01*
X015872Y005111D01*
X015872Y005245D02*
X015631Y005245D01*
X015752Y005285D02*
X015872Y005405D01*
X015872Y005540D02*
X015711Y005700D01*
X015671Y005700D01*
X015631Y005660D01*
X015631Y005580D01*
X015671Y005540D01*
X015631Y005405D02*
X015792Y005245D01*
X015872Y005540D02*
X015872Y005700D01*
X017217Y005652D02*
X017217Y005572D01*
X017257Y005532D01*
X017217Y005652D02*
X017257Y005692D01*
X017297Y005692D01*
X017457Y005532D01*
X017457Y005692D01*
X017457Y005398D02*
X017337Y005278D01*
X017377Y005238D02*
X017217Y005398D01*
X017217Y005238D02*
X017457Y005238D01*
X017457Y005103D02*
X017457Y004943D01*
X017297Y005103D01*
X017257Y005103D01*
X017217Y005063D01*
X017217Y004983D01*
X017257Y004943D01*
X014046Y005859D02*
X013796Y006109D01*
X013173Y006449D02*
X012893Y006449D01*
X013173Y006729D01*
X013173Y006799D01*
X013103Y006869D01*
X012963Y006869D01*
X012893Y006799D01*
X012726Y006869D02*
X012586Y006869D01*
X012656Y006869D02*
X012656Y006449D01*
X012586Y006449D02*
X012726Y006449D01*
X012796Y006109D02*
X013046Y005859D01*
X012796Y006109D02*
X012296Y006109D01*
X012046Y005859D01*
X012046Y005359D01*
X012296Y005109D01*
X012046Y005359D02*
X011796Y005109D01*
X012046Y004859D01*
X011796Y005109D02*
X011296Y005109D01*
X011046Y004859D01*
X011046Y004359D01*
X011296Y004109D01*
X010831Y004499D02*
X010831Y004712D01*
X010725Y004819D01*
X010618Y004712D01*
X010618Y004499D01*
X010618Y004659D02*
X010831Y004659D01*
X010463Y004765D02*
X010463Y004552D01*
X010410Y004499D01*
X010250Y004499D01*
X010250Y004819D01*
X010410Y004819D01*
X010463Y004765D01*
X010095Y004765D02*
X010041Y004819D01*
X009935Y004819D01*
X009881Y004765D01*
X009881Y004712D01*
X009935Y004659D01*
X010041Y004659D01*
X010095Y004605D01*
X010095Y004552D01*
X010041Y004499D01*
X009935Y004499D01*
X009881Y004552D01*
X009935Y003719D02*
X009881Y003665D01*
X009881Y003612D01*
X009935Y003559D01*
X010041Y003559D01*
X010095Y003505D01*
X010095Y003452D01*
X010041Y003399D01*
X009935Y003399D01*
X009881Y003452D01*
X009935Y003719D02*
X010041Y003719D01*
X010095Y003665D01*
X010250Y003665D02*
X010250Y003452D01*
X010303Y003399D01*
X010410Y003399D01*
X010463Y003452D01*
X010618Y003399D02*
X010618Y003719D01*
X010463Y003665D02*
X010410Y003719D01*
X010303Y003719D01*
X010250Y003665D01*
X010618Y003399D02*
X010831Y003399D01*
X010778Y002719D02*
X010618Y002719D01*
X010618Y002399D01*
X010778Y002399D01*
X010831Y002452D01*
X010831Y002665D01*
X010778Y002719D01*
X010463Y002719D02*
X010463Y002399D01*
X010250Y002719D01*
X010250Y002399D01*
X010095Y002452D02*
X010095Y002559D01*
X009988Y002559D01*
X009881Y002665D02*
X009881Y002452D01*
X009935Y002399D01*
X010041Y002399D01*
X010095Y002452D01*
X010095Y002665D02*
X010041Y002719D01*
X009935Y002719D01*
X009881Y002665D01*
X009506Y002730D02*
X009400Y002624D01*
X009400Y002677D02*
X009400Y002517D01*
X009506Y002517D02*
X009186Y002517D01*
X009186Y002677D01*
X009239Y002730D01*
X009346Y002730D01*
X009400Y002677D01*
X009506Y002885D02*
X009186Y002885D01*
X009506Y003099D01*
X009186Y003099D01*
X008706Y003349D02*
X008706Y003509D01*
X008653Y003562D01*
X008439Y003562D01*
X008386Y003509D01*
X008386Y003349D01*
X008706Y003349D01*
X008386Y003717D02*
X008386Y003930D01*
X008386Y003824D02*
X008706Y003824D01*
X008706Y004085D02*
X008386Y004085D01*
X008386Y004245D01*
X008439Y004299D01*
X008546Y004299D01*
X008600Y004245D01*
X008600Y004085D01*
X008600Y004192D02*
X008706Y004299D01*
X007706Y004192D02*
X007706Y004085D01*
X007706Y004139D02*
X007386Y004139D01*
X007386Y004192D02*
X007386Y004085D01*
X007386Y003930D02*
X007706Y003717D01*
X007706Y003562D02*
X007600Y003455D01*
X007600Y003509D02*
X007600Y003349D01*
X007706Y003349D02*
X007386Y003349D01*
X007386Y003509D01*
X007439Y003562D01*
X007546Y003562D01*
X007600Y003509D01*
X007386Y003717D02*
X007706Y003930D01*
X006808Y004599D02*
X006667Y004599D01*
X006737Y004599D02*
X006737Y005019D01*
X006667Y005019D02*
X006808Y005019D01*
X006487Y004949D02*
X006487Y004669D01*
X006417Y004599D01*
X006207Y004599D01*
X006207Y005019D01*
X006417Y005019D01*
X006487Y004949D01*
X006027Y005019D02*
X005747Y005019D01*
X005887Y005019D02*
X005887Y004599D01*
X005426Y004809D02*
X005286Y004809D01*
X005286Y004599D02*
X005286Y005019D01*
X005566Y005019D01*
X006070Y005664D02*
X006070Y005861D01*
X006070Y005664D02*
X007645Y005664D01*
X007645Y005861D01*
X008156Y006481D02*
X008076Y006561D01*
X008316Y006561D01*
X008316Y006481D02*
X008316Y006641D01*
X008276Y006776D02*
X008116Y006936D01*
X008276Y006936D01*
X008316Y006896D01*
X008316Y006816D01*
X008276Y006776D01*
X008116Y006776D01*
X008076Y006816D01*
X008076Y006896D01*
X008116Y006936D01*
X008076Y007071D02*
X008316Y007071D01*
X008236Y007071D02*
X008076Y007231D01*
X008196Y007111D02*
X008316Y007231D01*
X007745Y007362D02*
X007531Y007362D01*
X007638Y007362D02*
X007638Y007041D01*
X007645Y006845D02*
X007645Y006648D01*
X007645Y006845D02*
X006070Y006845D01*
X006070Y006648D01*
X006058Y007041D02*
X006058Y007362D01*
X006218Y007362D01*
X006271Y007308D01*
X006271Y007202D01*
X006218Y007148D01*
X006058Y007148D01*
X006165Y007148D02*
X006271Y007041D01*
X006426Y007041D02*
X006640Y007041D01*
X006795Y007095D02*
X006848Y007041D01*
X006955Y007041D01*
X007008Y007095D01*
X007008Y007148D01*
X006955Y007202D01*
X006848Y007202D01*
X006795Y007255D01*
X006795Y007308D01*
X006848Y007362D01*
X006955Y007362D01*
X007008Y007308D01*
X007163Y007362D02*
X007163Y007041D01*
X007376Y007041D01*
X007270Y007202D02*
X007163Y007202D01*
X007163Y007362D02*
X007376Y007362D01*
X006640Y007362D02*
X006426Y007362D01*
X006426Y007041D01*
X006426Y007202D02*
X006533Y007202D01*
X005694Y007956D02*
X005694Y008097D01*
X005624Y008167D01*
X005344Y008167D01*
X005274Y008097D01*
X005274Y007956D01*
X005344Y007886D01*
X005484Y007886D01*
X005484Y008026D01*
X005624Y007886D02*
X005694Y007956D01*
X005624Y008347D02*
X005344Y008347D01*
X005274Y008417D01*
X005274Y008557D01*
X005344Y008627D01*
X005624Y008627D01*
X005694Y008557D01*
X005694Y008417D01*
X005624Y008347D01*
X005274Y008807D02*
X005274Y009087D01*
X005694Y009087D01*
X005554Y009268D02*
X005274Y009268D01*
X005484Y009268D02*
X005484Y009548D01*
X005554Y009548D02*
X005694Y009408D01*
X005554Y009268D01*
X005554Y009548D02*
X005274Y009548D01*
X005274Y009728D02*
X005694Y009728D01*
X005694Y010008D02*
X005274Y010008D01*
X005274Y010188D02*
X005554Y010188D01*
X005694Y010328D01*
X005554Y010469D01*
X005274Y010469D01*
X005484Y010469D02*
X005484Y010188D01*
X005694Y010008D02*
X005274Y009728D01*
X004868Y009665D02*
X004868Y009452D01*
X004815Y009399D01*
X004708Y009399D01*
X004655Y009452D01*
X004868Y009665D01*
X004815Y009719D01*
X004708Y009719D01*
X004655Y009665D01*
X004655Y009452D01*
X004500Y009399D02*
X004500Y009612D01*
X004393Y009719D01*
X004286Y009612D01*
X004286Y009399D01*
X004286Y009559D02*
X004500Y009559D01*
X004046Y009359D02*
X003796Y009109D01*
X003296Y009109D01*
X003046Y008859D01*
X003296Y009109D02*
X003046Y009359D01*
X002796Y009109D01*
X003046Y009359D02*
X003046Y009859D01*
X002796Y010109D01*
X003046Y010359D02*
X003046Y010859D01*
X003296Y011109D02*
X003046Y011359D01*
X003046Y011859D02*
X003296Y012109D01*
X003796Y012109D01*
X004046Y011859D01*
X004046Y011359D01*
X003796Y011109D01*
X004286Y011399D02*
X004286Y011612D01*
X004393Y011719D01*
X004500Y011612D01*
X004500Y011399D01*
X004500Y011559D02*
X004286Y011559D01*
X004655Y011559D02*
X004655Y011452D01*
X004708Y011399D01*
X004815Y011399D01*
X004868Y011452D01*
X004868Y011505D01*
X004815Y011559D01*
X004655Y011559D01*
X004761Y011665D01*
X004868Y011719D01*
X004833Y012639D02*
X004833Y012779D01*
X004833Y012709D02*
X004412Y012709D01*
X004412Y012779D02*
X004412Y012639D01*
X004393Y010719D02*
X004286Y010612D01*
X004286Y010399D01*
X004286Y010559D02*
X004500Y010559D01*
X004500Y010612D02*
X004500Y010399D01*
X004655Y010399D02*
X004655Y010452D01*
X004868Y010665D01*
X004868Y010719D01*
X004655Y010719D01*
X004500Y010612D02*
X004393Y010719D01*
X003796Y010109D02*
X004046Y009859D01*
X004046Y009359D01*
X003796Y009109D02*
X004046Y008859D01*
X004046Y008359D01*
X003796Y008109D01*
X003296Y008109D01*
X003046Y007859D01*
X003296Y008109D02*
X003046Y008359D01*
X003796Y008109D02*
X004046Y007859D01*
X004046Y007359D01*
X003796Y007109D01*
X004286Y007399D02*
X004286Y007612D01*
X004393Y007719D01*
X004500Y007612D01*
X004500Y007399D01*
X004655Y007399D02*
X004868Y007612D01*
X004868Y007665D01*
X004815Y007719D01*
X004708Y007719D01*
X004655Y007665D01*
X004500Y007559D02*
X004286Y007559D01*
X004655Y007399D02*
X004868Y007399D01*
X004815Y006819D02*
X004868Y006765D01*
X004868Y006712D01*
X004815Y006659D01*
X004868Y006605D01*
X004868Y006552D01*
X004815Y006499D01*
X004708Y006499D01*
X004655Y006552D01*
X004761Y006659D02*
X004815Y006659D01*
X004815Y006819D02*
X004708Y006819D01*
X004655Y006765D01*
X004500Y006712D02*
X004500Y006499D01*
X004500Y006659D02*
X004286Y006659D01*
X004286Y006712D02*
X004393Y006819D01*
X004500Y006712D01*
X004286Y006712D02*
X004286Y006499D01*
X003296Y007109D02*
X003046Y007359D01*
X003046Y006859D02*
X003046Y006359D01*
X001707Y005815D02*
X001707Y005708D01*
X001653Y005655D01*
X001546Y005655D02*
X001546Y005762D01*
X001546Y005655D02*
X001440Y005655D01*
X001386Y005708D01*
X001386Y005815D01*
X001440Y005869D01*
X001653Y005869D01*
X001707Y005815D01*
X001707Y005500D02*
X001386Y005500D01*
X001386Y005287D02*
X001707Y005287D01*
X001707Y005132D02*
X001707Y004972D01*
X001653Y004918D01*
X001440Y004918D01*
X001386Y004972D01*
X001386Y005132D01*
X001707Y005132D01*
X001386Y005287D02*
X001707Y005500D01*
X004286Y008399D02*
X004286Y008612D01*
X004393Y008719D01*
X004500Y008612D01*
X004500Y008399D01*
X004655Y008399D02*
X004868Y008399D01*
X004761Y008399D02*
X004761Y008719D01*
X004655Y008612D01*
X004500Y008559D02*
X004286Y008559D01*
X003046Y009859D02*
X003296Y010109D01*
X002296Y009109D02*
X002046Y009359D01*
X001296Y009109D02*
X001046Y009359D01*
X001046Y009859D01*
X001296Y010109D01*
X001341Y012649D02*
X001341Y012889D01*
X001476Y012889D02*
X001596Y012889D01*
X001636Y012849D01*
X001636Y012689D01*
X001596Y012649D01*
X001476Y012649D01*
X001476Y012889D01*
X001341Y012649D02*
X001181Y012889D01*
X001181Y012649D01*
X001046Y012689D02*
X001046Y012769D01*
X000966Y012769D01*
X000886Y012849D02*
X000886Y012689D01*
X000926Y012649D01*
X001006Y012649D01*
X001046Y012689D01*
X001046Y012849D02*
X001006Y012889D01*
X000926Y012889D01*
X000886Y012849D01*
X006216Y010408D02*
X006336Y010288D01*
X006336Y010448D01*
X006456Y010408D02*
X006216Y010408D01*
X006256Y010153D02*
X006416Y009993D01*
X006456Y010033D01*
X006456Y010113D01*
X006416Y010153D01*
X006256Y010153D01*
X006216Y010113D01*
X006216Y010033D01*
X006256Y009993D01*
X006416Y009993D01*
X006456Y009859D02*
X006456Y009699D01*
X006456Y009779D02*
X006216Y009779D01*
X006296Y009699D01*
X007966Y008529D02*
X010586Y008529D01*
X010726Y008668D01*
X010726Y011288D01*
X007966Y011288D01*
X007966Y008529D01*
X009649Y007185D02*
X009769Y007065D01*
X009769Y007225D01*
X009889Y007185D02*
X009649Y007185D01*
X009689Y006931D02*
X009849Y006771D01*
X009889Y006811D01*
X009889Y006891D01*
X009849Y006931D01*
X009689Y006931D01*
X009649Y006891D01*
X009649Y006811D01*
X009689Y006771D01*
X009849Y006771D01*
X009889Y006636D02*
X009889Y006476D01*
X009889Y006556D02*
X009649Y006556D01*
X009729Y006476D01*
X010250Y005719D02*
X010250Y005559D01*
X010356Y005612D01*
X010410Y005612D01*
X010463Y005559D01*
X010463Y005452D01*
X010410Y005399D01*
X010303Y005399D01*
X010250Y005452D01*
X010250Y005719D02*
X010463Y005719D01*
X010618Y005719D02*
X010618Y005505D01*
X010725Y005399D01*
X010831Y005505D01*
X010831Y005719D01*
X011046Y005859D02*
X011046Y005359D01*
X011296Y005109D01*
X011046Y005859D02*
X011296Y006109D01*
X011796Y006109D01*
X012046Y005859D01*
X013046Y004859D02*
X013296Y005109D01*
X013046Y004359D02*
X013296Y004109D01*
X009506Y002309D02*
X009453Y002362D01*
X009346Y002362D01*
X009346Y002255D01*
X009239Y002149D02*
X009186Y002202D01*
X009186Y002309D01*
X009239Y002362D01*
X009239Y002149D02*
X009453Y002149D01*
X009506Y002202D01*
X009506Y002309D01*
X006706Y003455D02*
X006386Y003455D01*
X006386Y003349D02*
X006386Y003562D01*
X006386Y003717D02*
X006706Y003930D01*
X006653Y004085D02*
X006439Y004085D01*
X006386Y004139D01*
X006386Y004245D01*
X006439Y004299D01*
X006653Y004299D01*
X006706Y004245D01*
X006706Y004139D01*
X006653Y004085D01*
X006386Y003930D02*
X006706Y003717D01*
X005706Y003824D02*
X005600Y003930D01*
X005386Y003930D01*
X005386Y003717D02*
X005600Y003717D01*
X005706Y003824D01*
X005653Y003562D02*
X005546Y003562D01*
X005493Y003509D01*
X005493Y003455D01*
X005546Y003349D01*
X005386Y003349D01*
X005386Y003562D01*
X005653Y003562D02*
X005706Y003509D01*
X005706Y003402D01*
X005653Y003349D01*
X006503Y006254D02*
X006505Y006291D01*
X006511Y006328D01*
X006520Y006363D01*
X006534Y006398D01*
X006550Y006431D01*
X006571Y006462D01*
X006594Y006491D01*
X006620Y006517D01*
X006649Y006540D01*
X006680Y006561D01*
X006713Y006577D01*
X006748Y006591D01*
X006783Y006600D01*
X006820Y006606D01*
X006857Y006608D01*
X006894Y006606D01*
X006931Y006600D01*
X006966Y006591D01*
X007001Y006577D01*
X007034Y006561D01*
X007065Y006540D01*
X007094Y006517D01*
X007120Y006491D01*
X007143Y006462D01*
X007164Y006431D01*
X007180Y006398D01*
X007194Y006363D01*
X007203Y006328D01*
X007209Y006291D01*
X007211Y006254D01*
X007209Y006217D01*
X007203Y006180D01*
X007194Y006145D01*
X007180Y006110D01*
X007164Y006077D01*
X007143Y006046D01*
X007120Y006017D01*
X007094Y005991D01*
X007065Y005968D01*
X007034Y005947D01*
X007001Y005931D01*
X006966Y005917D01*
X006931Y005908D01*
X006894Y005902D01*
X006857Y005900D01*
X006820Y005902D01*
X006783Y005908D01*
X006748Y005917D01*
X006713Y005931D01*
X006680Y005947D01*
X006649Y005968D01*
X006620Y005991D01*
X006594Y006017D01*
X006571Y006046D01*
X006550Y006077D01*
X006534Y006110D01*
X006520Y006145D01*
X006511Y006180D01*
X006505Y006217D01*
X006503Y006254D01*
X010285Y008829D02*
X010287Y008852D01*
X010293Y008875D01*
X010302Y008896D01*
X010315Y008916D01*
X010331Y008933D01*
X010349Y008947D01*
X010369Y008958D01*
X010391Y008966D01*
X010414Y008970D01*
X010438Y008970D01*
X010461Y008966D01*
X010483Y008958D01*
X010503Y008947D01*
X010521Y008933D01*
X010537Y008916D01*
X010550Y008896D01*
X010559Y008875D01*
X010565Y008852D01*
X010567Y008829D01*
X010565Y008806D01*
X010559Y008783D01*
X010550Y008762D01*
X010537Y008742D01*
X010521Y008725D01*
X010503Y008711D01*
X010483Y008700D01*
X010461Y008692D01*
X010438Y008688D01*
X010414Y008688D01*
X010391Y008692D01*
X010369Y008700D01*
X010349Y008711D01*
X010331Y008725D01*
X010315Y008742D01*
X010302Y008762D01*
X010293Y008783D01*
X010287Y008806D01*
X010285Y008829D01*
X012138Y009481D02*
X012378Y009481D01*
X012378Y009561D02*
X012378Y009400D01*
X012218Y009400D02*
X012138Y009481D01*
X012178Y009695D02*
X012138Y009735D01*
X012138Y009815D01*
X012178Y009855D01*
X012338Y009695D01*
X012378Y009735D01*
X012378Y009815D01*
X012338Y009855D01*
X012178Y009855D01*
X012258Y009990D02*
X012138Y010110D01*
X012378Y010110D01*
X012468Y010191D02*
X013255Y010191D01*
X012258Y010150D02*
X012258Y009990D01*
X012338Y009695D02*
X012178Y009695D01*
X012468Y011530D02*
X013255Y011530D01*
X010629Y012249D02*
X010589Y012209D01*
X010469Y012209D01*
X010469Y012129D02*
X010469Y012369D01*
X010589Y012369D01*
X010629Y012329D01*
X010629Y012249D01*
X010334Y012289D02*
X010334Y012329D01*
X010294Y012369D01*
X010214Y012369D01*
X010174Y012329D01*
X010174Y012289D01*
X010214Y012249D01*
X010294Y012249D01*
X010334Y012209D01*
X010334Y012169D01*
X010294Y012129D01*
X010214Y012129D01*
X010174Y012169D01*
X010174Y012209D01*
X010214Y012249D01*
X010294Y012249D02*
X010334Y012289D01*
X010040Y012289D02*
X010040Y012329D01*
X010000Y012369D01*
X009920Y012369D01*
X009880Y012329D01*
X009745Y012329D02*
X009745Y012289D01*
X009705Y012249D01*
X009745Y012209D01*
X009745Y012169D01*
X009705Y012129D01*
X009625Y012129D01*
X009585Y012169D01*
X009665Y012249D02*
X009705Y012249D01*
X009745Y012329D02*
X009705Y012369D01*
X009625Y012369D01*
X009585Y012329D01*
X009451Y012249D02*
X009451Y012129D01*
X009330Y012129D01*
X009290Y012169D01*
X009330Y012209D01*
X009451Y012209D01*
X009451Y012249D02*
X009411Y012289D01*
X009330Y012289D01*
X009156Y012289D02*
X009156Y012089D01*
X009116Y012048D01*
X009076Y012048D01*
X009036Y012129D02*
X009156Y012129D01*
X009036Y012129D02*
X008996Y012169D01*
X008996Y012249D01*
X009036Y012289D01*
X009156Y012289D01*
X008861Y012249D02*
X008861Y012209D01*
X008701Y012209D01*
X008701Y012249D02*
X008741Y012289D01*
X008821Y012289D01*
X008861Y012249D01*
X008821Y012129D02*
X008741Y012129D01*
X008701Y012169D01*
X008701Y012249D01*
X008567Y012249D02*
X008567Y012129D01*
X008487Y012129D02*
X008487Y012249D01*
X008527Y012289D01*
X008567Y012249D01*
X008487Y012249D02*
X008446Y012289D01*
X008406Y012289D01*
X008406Y012129D01*
X008192Y012129D02*
X008192Y012369D01*
X008112Y012369D02*
X008272Y012369D01*
X007977Y012289D02*
X007977Y012129D01*
X007977Y012249D02*
X007817Y012249D01*
X007817Y012289D02*
X007897Y012369D01*
X007977Y012289D01*
X007817Y012289D02*
X007817Y012129D01*
X009880Y012129D02*
X010040Y012289D01*
X010040Y012129D02*
X009880Y012129D01*
X015440Y017709D02*
X015487Y017707D01*
X015535Y017701D01*
X015581Y017692D01*
X015627Y017679D01*
X015671Y017663D01*
X015715Y017642D01*
X015756Y017619D01*
X015795Y017593D01*
X015832Y017563D01*
X015867Y017530D01*
X015899Y017495D01*
X015928Y017458D01*
X015440Y016509D02*
X015395Y016511D01*
X015349Y016516D01*
X015305Y016524D01*
X015261Y016536D01*
X015218Y016552D01*
X015176Y016570D01*
X015136Y016592D01*
X015098Y016616D01*
X015062Y016643D01*
X015027Y016673D01*
X014996Y016706D01*
X014966Y016741D01*
X015440Y016509D02*
X015485Y016511D01*
X015531Y016516D01*
X015575Y016524D01*
X015619Y016536D01*
X015662Y016552D01*
X015704Y016570D01*
X015744Y016592D01*
X015782Y016616D01*
X015818Y016643D01*
X015853Y016673D01*
X015884Y016706D01*
X015914Y016741D01*
X015440Y017709D02*
X015394Y017707D01*
X015348Y017702D01*
X015302Y017693D01*
X015257Y017681D01*
X015214Y017665D01*
X015172Y017646D01*
X015131Y017623D01*
X015092Y017598D01*
X015056Y017570D01*
X015021Y017539D01*
X014989Y017505D01*
X014960Y017469D01*
X017336Y015245D02*
X017336Y015085D01*
X017656Y015085D01*
X017656Y015245D01*
X017603Y015299D01*
X017389Y015299D01*
X017336Y015245D01*
X017336Y014930D02*
X017656Y014930D01*
X017336Y014717D01*
X017656Y014717D01*
X017603Y014562D02*
X017496Y014562D01*
X017496Y014455D01*
X017389Y014349D02*
X017603Y014349D01*
X017656Y014402D01*
X017656Y014509D01*
X017603Y014562D01*
X017389Y014562D02*
X017336Y014509D01*
X017336Y014402D01*
X017389Y014349D01*
X017046Y013359D02*
X017296Y013109D01*
X017796Y013109D01*
X017296Y013109D02*
X017046Y012859D01*
X017296Y011109D02*
X017796Y011109D01*
D11*
X014734Y017485D02*
X014761Y017532D01*
X014791Y017577D01*
X014824Y017620D01*
X014860Y017660D01*
X014899Y017698D01*
X014940Y017733D01*
X014983Y017766D01*
X015028Y017795D01*
X015076Y017821D01*
X015125Y017844D01*
X015175Y017864D01*
X015226Y017880D01*
X015279Y017893D01*
X015332Y017902D01*
X015386Y017907D01*
X015440Y017909D01*
X014745Y016712D02*
X014775Y016664D01*
X014808Y016619D01*
X014844Y016576D01*
X014882Y016535D01*
X014924Y016498D01*
X014968Y016463D01*
X015014Y016432D01*
X015063Y016403D01*
X015113Y016379D01*
X015165Y016358D01*
X015219Y016340D01*
X015273Y016327D01*
X015328Y016317D01*
X015384Y016311D01*
X015440Y016309D01*
X015493Y016311D01*
X015547Y016316D01*
X015599Y016325D01*
X015651Y016337D01*
X015702Y016353D01*
X015752Y016372D01*
X015801Y016395D01*
X015848Y016421D01*
X015893Y016449D01*
X015936Y016481D01*
X015976Y016515D01*
X016015Y016553D01*
X016051Y016592D01*
X016055Y017621D02*
X016019Y017661D01*
X015980Y017699D01*
X015939Y017734D01*
X015896Y017766D01*
X015851Y017796D01*
X015804Y017822D01*
X015755Y017844D01*
X015704Y017864D01*
X015653Y017880D01*
X015601Y017893D01*
X015547Y017902D01*
X015494Y017907D01*
X015440Y017909D01*
X003940Y017909D02*
X003886Y017907D01*
X003832Y017902D01*
X003779Y017893D01*
X003726Y017880D01*
X003675Y017864D01*
X003625Y017844D01*
X003576Y017821D01*
X003528Y017795D01*
X003483Y017766D01*
X003440Y017733D01*
X003399Y017698D01*
X003360Y017660D01*
X003324Y017620D01*
X003291Y017577D01*
X003261Y017532D01*
X003234Y017485D01*
X003245Y016712D02*
X003275Y016664D01*
X003308Y016619D01*
X003344Y016576D01*
X003382Y016535D01*
X003424Y016498D01*
X003468Y016463D01*
X003514Y016432D01*
X003563Y016403D01*
X003613Y016379D01*
X003665Y016358D01*
X003719Y016340D01*
X003773Y016327D01*
X003828Y016317D01*
X003884Y016311D01*
X003940Y016309D01*
X003993Y016311D01*
X004047Y016316D01*
X004099Y016325D01*
X004151Y016337D01*
X004202Y016353D01*
X004252Y016372D01*
X004301Y016395D01*
X004348Y016421D01*
X004393Y016449D01*
X004436Y016481D01*
X004476Y016515D01*
X004515Y016553D01*
X004551Y016592D01*
X004555Y017621D02*
X004519Y017661D01*
X004480Y017699D01*
X004439Y017734D01*
X004396Y017766D01*
X004351Y017796D01*
X004304Y017822D01*
X004255Y017844D01*
X004204Y017864D01*
X004153Y017880D01*
X004101Y017893D01*
X004047Y017902D01*
X003994Y017907D01*
X003940Y017909D01*
D12*
X013436Y010985D02*
X013531Y010985D01*
X013721Y010985D02*
X013721Y010890D01*
X013721Y010985D02*
X014101Y010985D01*
X014101Y010890D02*
X014101Y011080D01*
X014101Y011295D02*
X013721Y011295D01*
X013721Y011580D01*
X013816Y011675D01*
X014101Y011675D01*
X014006Y011902D02*
X014101Y011998D01*
X014101Y012188D01*
X014006Y012283D01*
X013816Y012283D01*
X013721Y012188D01*
X013721Y011998D01*
X013816Y011902D01*
X014006Y011902D01*
X014101Y010662D02*
X013721Y010662D01*
X013721Y010282D02*
X014006Y010282D01*
X014101Y010377D01*
X014101Y010662D01*
X014101Y010054D02*
X013531Y010054D01*
X013721Y010054D02*
X013721Y009769D01*
X013816Y009674D01*
X014006Y009674D01*
X014101Y009769D01*
X014101Y010054D01*
X013816Y009447D02*
X013626Y009447D01*
X013531Y009352D01*
X013531Y009066D01*
X014101Y009066D01*
X013911Y009066D02*
X013911Y009352D01*
X013816Y009447D01*
X013531Y008851D02*
X013531Y008661D01*
X013531Y008756D02*
X014101Y008756D01*
X014101Y008661D02*
X014101Y008851D01*
X013816Y008434D02*
X013911Y008339D01*
X013911Y008054D01*
X014101Y008054D02*
X013531Y008054D01*
X013531Y008339D01*
X013626Y008434D01*
X013816Y008434D01*
D13*
X013846Y006609D02*
X014846Y006609D01*
X015046Y006409D01*
X012346Y006609D02*
X011246Y006609D01*
X011046Y006409D01*
X008746Y004609D02*
X008546Y004809D01*
X007046Y004809D01*
X005246Y006709D02*
X005446Y006909D01*
X005446Y007509D01*
X004846Y004809D02*
X003446Y004809D01*
X003246Y004609D01*
X005446Y010809D02*
X005446Y011409D01*
X005246Y011609D01*
X006746Y014309D02*
X006546Y014509D01*
X006746Y014309D02*
X008646Y014309D01*
X011946Y014309D02*
X013346Y014309D01*
X013546Y014509D01*
X015546Y013809D02*
X015546Y013609D01*
X015546Y013809D02*
X015746Y014009D01*
X015546Y010809D02*
X015546Y010509D01*
X015746Y010309D01*
M02*
