%
M48
M72
T01C0.0130
T02C0.0320
T03C0.0400
T04C0.1260
%
T01
X5685Y4796
X8411Y3400
X9231Y3150
X10219Y3650
X8740Y4386
X9346Y7450
X9146Y7850
X8196Y8250
X9090Y8950
X9590Y9250
X10496Y8550
X10496Y8050
X12124Y8289
X12140Y9400
X12330Y11370
X12723Y11370
X12723Y11764
X12330Y11764
X12330Y12158
X12723Y12158
X12723Y12552
X12723Y12945
X12330Y12945
X12330Y12552
X11936Y12552
X11936Y12945
X11936Y13339
X11936Y13733
X11542Y13733
X11149Y13733
X11149Y13339
X11542Y13339
X12330Y13339
X12723Y13339
X12723Y13733
X12330Y13733
X11936Y12158
X11542Y12158
X11149Y12158
X11149Y11764
X11542Y11764
X11542Y11370
X11149Y11370
X11936Y11370
X11936Y11764
X5740Y9250
X5740Y8550
X4828Y11868
X1890Y15550
T02
X2690Y15500
X3690Y15500
X15290Y15500
X16290Y15500
T03
X13546Y15150
X13546Y16150
X12546Y16150
X11546Y16150
X10546Y16150
X10546Y15150
X11546Y15150
X12546Y15150
X12546Y17150
X11546Y17150
X10546Y17150
X9546Y17150
X8546Y17150
X7546Y17150
X6546Y17150
X5540Y17150
X5540Y16150
X5540Y15150
X6546Y15150
X6546Y16150
X7546Y16150
X7546Y15150
X8546Y15150
X8546Y16150
X9546Y16150
X9546Y15150
X13546Y17150
X16546Y12150
X16546Y11150
X16546Y10150
X17546Y10150
X17546Y11150
X17546Y12150
X17546Y9150
X16546Y9150
X16546Y7150
X16546Y6150
X15546Y4150
X14546Y4150
X13546Y4150
X13546Y3150
X14546Y3150
X15546Y3150
X15546Y2150
X14546Y2150
X13546Y2150
X13546Y1150
X14546Y1150
X15546Y1150
X12546Y1150
X11546Y1150
X11546Y2150
X12546Y2150
X12546Y3150
X11546Y3150
X11546Y4150
X12546Y4150
X8534Y1150
X7534Y1150
X6534Y1150
X5534Y1150
X4534Y1150
X3534Y1150
X3546Y5150
X2546Y5150
X1546Y5150
X1546Y6150
X1546Y7150
X2546Y7150
X2546Y6150
X3546Y6150
X3546Y7150
X3546Y8150
X2546Y8150
X1546Y8150
X1546Y9150
X2546Y9150
X3546Y9150
X3546Y10150
X2546Y10150
X1546Y10150
X1546Y12150
X2546Y12150
X3546Y12150
X3546Y13150
X2546Y13150
X1546Y13150
T04
X1621Y1331
X17369Y1331
X17369Y17079
X1621Y17079
M30
