G75*
G70*
%OFA0B0*%
%FSLAX24Y24*%
%IPPOS*%
%LPD*%
%AMOC8*
5,1,8,0,0,1.08239X$1,22.5*
%
%ADD10R,0.0560X0.0280*%
%ADD11R,0.0280X0.0560*%
%ADD12R,0.0493X0.0454*%
%ADD13R,0.0720X0.0720*%
%ADD14OC8,0.0720*%
%ADD15R,0.0847X0.0375*%
%ADD16C,0.0800*%
%ADD17R,0.0454X0.0493*%
%ADD18OC8,0.0660*%
%ADD19R,0.0660X0.0660*%
%ADD20R,0.0414X0.0729*%
%ADD21C,0.1720*%
D10*
X007656Y007348D03*
X007656Y007663D03*
X007656Y007978D03*
X007656Y008293D03*
X007656Y008607D03*
X007656Y008922D03*
X007656Y009237D03*
X007656Y009552D03*
X011036Y009552D03*
X011036Y009237D03*
X011036Y008922D03*
X011036Y008607D03*
X011036Y008293D03*
X011036Y007978D03*
X011036Y007663D03*
X011036Y007348D03*
D11*
X010449Y006760D03*
X010134Y006760D03*
X009819Y006760D03*
X009504Y006760D03*
X009189Y006760D03*
X008874Y006760D03*
X008559Y006760D03*
X008244Y006760D03*
X008244Y010140D03*
X008559Y010140D03*
X008874Y010140D03*
X009189Y010140D03*
X009504Y010140D03*
X009819Y010140D03*
X010134Y010140D03*
X010449Y010140D03*
D12*
X011688Y008303D03*
X012357Y008303D03*
X008740Y005685D03*
X008740Y005015D03*
X006775Y008500D03*
X006105Y008500D03*
X006105Y009350D03*
X006775Y009350D03*
X001483Y014944D03*
X001483Y015613D03*
X015440Y014535D03*
X015440Y013865D03*
X016912Y004537D03*
X017477Y004537D03*
X017477Y003867D03*
X016912Y003867D03*
D13*
X003546Y013150D03*
D14*
X002546Y013150D03*
X001546Y013150D03*
X001546Y012150D03*
X002546Y012150D03*
X003546Y012150D03*
X003690Y015500D03*
X002690Y015500D03*
X015290Y015500D03*
X016290Y015500D03*
D15*
X012861Y009835D03*
X012861Y009402D03*
X012861Y008969D03*
D16*
X008534Y001150D03*
X007534Y001150D03*
X006534Y001150D03*
X005534Y001150D03*
X004534Y001150D03*
X003534Y001150D03*
D17*
X009440Y005015D03*
X009440Y005685D03*
D18*
X012546Y004150D03*
X012546Y003150D03*
X012546Y002150D03*
X012546Y001150D03*
X013546Y001150D03*
X013546Y002150D03*
X014546Y002150D03*
X014546Y001150D03*
X015546Y001150D03*
X015546Y002150D03*
X015546Y003150D03*
X014546Y003150D03*
X013546Y003150D03*
X013546Y004150D03*
X014546Y004150D03*
X015546Y004150D03*
X016546Y006150D03*
X016546Y010150D03*
X016546Y011150D03*
X016546Y012150D03*
X017546Y012150D03*
X017546Y011150D03*
X017546Y010150D03*
X013546Y015150D03*
X013546Y016150D03*
X012546Y016150D03*
X011546Y016150D03*
X010546Y016150D03*
X010546Y015150D03*
X011546Y015150D03*
X012546Y015150D03*
X012546Y017150D03*
X011546Y017150D03*
X010546Y017150D03*
X009546Y017150D03*
X008546Y017150D03*
X007546Y017150D03*
X006546Y017150D03*
X005540Y017150D03*
X005540Y016150D03*
X005540Y015150D03*
X006546Y015150D03*
X006546Y016150D03*
X007546Y016150D03*
X007546Y015150D03*
X008546Y015150D03*
X008546Y016150D03*
X009546Y016150D03*
X009546Y015150D03*
X013546Y017150D03*
X003546Y010150D03*
X002546Y010150D03*
X001546Y010150D03*
X001546Y009150D03*
X001546Y008150D03*
X002546Y008150D03*
X002546Y009150D03*
X003546Y009150D03*
X003546Y008150D03*
X003546Y007150D03*
X002546Y007150D03*
X001546Y007150D03*
X001546Y006150D03*
X002546Y006150D03*
X003546Y006150D03*
X003546Y005150D03*
X002546Y005150D03*
X001546Y005150D03*
D19*
X011546Y004150D03*
X011546Y003150D03*
X011546Y002150D03*
X011546Y001150D03*
X016546Y007150D03*
X016546Y009150D03*
X017546Y009150D03*
D20*
X007684Y004796D03*
X006031Y004796D03*
D21*
X001621Y001331D03*
X017369Y001331D03*
X017369Y017079D03*
X001621Y017079D03*
M02*
