G75*
G70*
%OFA0B0*%
%FSLAX24Y24*%
%IPPOS*%
%LPD*%
%AMOC8*
5,1,8,0,0,1.08239X$1,22.5*
%
%ADD10R,0.0500X0.0220*%
%ADD11R,0.0220X0.0500*%
%ADD12R,0.0433X0.0394*%
%ADD13R,0.0787X0.0315*%
%ADD14R,0.0394X0.0433*%
%ADD15R,0.0354X0.0669*%
D10*
X007656Y007348D03*
X007656Y007663D03*
X007656Y007978D03*
X007656Y008293D03*
X007656Y008607D03*
X007656Y008922D03*
X007656Y009237D03*
X007656Y009552D03*
X011036Y009552D03*
X011036Y009237D03*
X011036Y008922D03*
X011036Y008607D03*
X011036Y008293D03*
X011036Y007978D03*
X011036Y007663D03*
X011036Y007348D03*
D11*
X010449Y006760D03*
X010134Y006760D03*
X009819Y006760D03*
X009504Y006760D03*
X009189Y006760D03*
X008874Y006760D03*
X008559Y006760D03*
X008244Y006760D03*
X008244Y010140D03*
X008559Y010140D03*
X008874Y010140D03*
X009189Y010140D03*
X009504Y010140D03*
X009819Y010140D03*
X010134Y010140D03*
X010449Y010140D03*
D12*
X011688Y008303D03*
X012357Y008303D03*
X008740Y005685D03*
X008740Y005015D03*
X006775Y008500D03*
X006105Y008500D03*
X006105Y009350D03*
X006775Y009350D03*
X001483Y014944D03*
X001483Y015613D03*
X015440Y014535D03*
X015440Y013865D03*
X016912Y004537D03*
X017477Y004537D03*
X017477Y003867D03*
X016912Y003867D03*
D13*
X012861Y008969D03*
X012861Y009402D03*
X012861Y009835D03*
D14*
X009440Y005685D03*
X009440Y005015D03*
D15*
X006031Y004796D03*
X007684Y004796D03*
M02*
